<svg width="159" height="102" viewBox="0 0 159 102" fill="none" xmlns="http://www.w3.org/2000/svg">
<g clip-path="url(#clip0_3342_8263)">
<path d="M25.243 0H0V21.61H25.298C41.284 21.61 54.29 34.688 54.29 50.762C54.29 66.836 41.284 79.913 25.298 79.913H0V101.524H25.243C53.081 101.524 75.728 78.753 75.728 50.762C75.728 22.772 53.08 0 25.243 0ZM133.706 79.113C118.16 79.113 105.51 66.397 105.51 50.765C105.51 35.135 118.157 22.415 133.706 22.415H159.001V0H133.759C105.921 0 83.273 22.771 83.273 50.762C83.273 78.752 105.921 101.524 133.759 101.524H159.001V79.11H133.706V79.113Z" fill="black"/>
</g>
<defs>
<clipPath id="clip0_3342_8263">
<rect width="159" height="102" fill="white"/>
</clipPath>
</defs>
</svg>
