<svg width="330" height="232" viewBox="0 0 330 232" fill="none" xmlns="http://www.w3.org/2000/svg">
<path d="M0 7C0 3.13401 3.13401 0 7 0H323C326.866 0 330 3.13401 330 7V225C330 228.866 326.866 232 323 232H6.99999C3.134 232 0 228.866 0 225V7Z" fill="white"/>
<path d="M66.7144 97.7813L45.96 94.125V121.142C45.9603 121.435 46.0183 121.726 46.1309 121.997C46.2434 122.268 46.4083 122.514 46.616 122.722C46.8237 122.929 47.0702 123.093 47.3415 123.206C47.6127 123.318 47.9034 123.375 48.1969 123.375H84.0094C84.3032 123.376 84.5943 123.319 84.866 123.207C85.1377 123.095 85.3846 122.93 85.5928 122.723C85.8009 122.516 85.966 122.269 86.0788 121.998C86.1916 121.727 86.2498 121.436 86.25 121.142V111.187L66.7144 97.7813Z" fill="#185C37"/>
<path d="M66.7144 74.625H48.1969C47.9034 74.6248 47.6127 74.6823 47.3415 74.7944C47.0702 74.9065 46.8237 75.0709 46.616 75.2783C46.4083 75.4857 46.2434 75.7319 46.1309 76.003C46.0183 76.274 45.9603 76.5646 45.96 76.8581V86.8125L66.7144 99L77.7038 102.656L86.25 99V86.8125L66.7144 74.625Z" fill="#21A366"/>
<path d="M45.96 86.8125H66.7144V99H45.96V86.8125Z" fill="#107C41"/>
<path opacity="0.1" d="M60.8138 84.375H45.96V114.844H60.8138C61.4056 114.841 61.9725 114.605 62.3916 114.187C62.8106 113.769 63.0481 113.202 63.0525 112.611V86.6081C63.0481 86.0163 62.8106 85.45 62.3916 85.032C61.9725 84.614 61.4056 84.3779 60.8138 84.375V84.375Z" fill="black"/>
<path opacity="0.2" d="M59.5931 85.5938H45.96V116.063H59.5931C60.185 116.06 60.7519 115.824 61.171 115.406C61.59 114.988 61.8275 114.421 61.8319 113.829V87.8269C61.8275 87.235 61.59 86.6687 61.171 86.2507C60.7519 85.8327 60.185 85.5967 59.5931 85.5938V85.5938Z" fill="black"/>
<path opacity="0.2" d="M59.5931 85.5938H45.96V113.625H59.5931C60.185 113.622 60.7519 113.386 61.171 112.968C61.59 112.55 61.8275 111.984 61.8319 111.392V87.8269C61.8275 87.235 61.59 86.6687 61.171 86.2507C60.7519 85.8327 60.185 85.5967 59.5931 85.5938V85.5938Z" fill="black"/>
<path opacity="0.2" d="M58.3725 85.5938H45.96V113.625H58.3725C58.9644 113.622 59.5313 113.386 59.9503 112.968C60.3694 112.55 60.6068 111.984 60.6113 111.392V87.8269C60.6068 87.235 60.3694 86.6687 59.9503 86.2507C59.5313 85.8327 58.9644 85.5967 58.3725 85.5938V85.5938Z" fill="black"/>
<path d="M35.9888 85.5938H58.3725C58.9654 85.5933 59.5343 85.8282 59.9541 86.2469C60.3739 86.6657 60.6103 87.2339 60.6113 87.8269V110.173C60.6103 110.766 60.3739 111.334 59.9541 111.753C59.5343 112.172 58.9654 112.407 58.3725 112.406H35.9888C35.6951 112.407 35.4042 112.349 35.1327 112.237C34.8613 112.125 34.6145 111.961 34.4066 111.754C34.1987 111.546 34.0337 111.3 33.921 111.029C33.8084 110.758 33.7502 110.467 33.75 110.173V87.8269C33.7502 87.5332 33.8084 87.2425 33.921 86.9713C34.0337 86.7001 34.1987 86.4538 34.4066 86.2464C34.6145 86.039 34.8613 85.8746 35.1327 85.7626C35.4042 85.6506 35.6951 85.5933 35.9888 85.5938V85.5938Z" fill="url(#paint0_linear)"/>
<path d="M40.6875 106.262L45.3956 98.9794L41.0831 91.7381H44.5463L46.8994 96.375C47.1169 96.8138 47.2744 97.14 47.3456 97.3575H47.3775C47.5313 97.005 47.6944 96.6656 47.865 96.3338L50.3813 91.7456H53.5688L49.1456 98.9456L53.6813 106.268H50.2894L47.5706 101.184C47.4444 100.966 47.3371 100.737 47.25 100.5H47.205C47.1257 100.731 47.02 100.952 46.89 101.158L44.0906 106.262H40.6875Z" fill="white"/>
<path d="M84.0112 74.625H66.7144V86.8125H86.25V76.8581C86.2497 76.5645 86.1916 76.2737 86.079 76.0025C85.9663 75.7313 85.8013 75.485 85.5934 75.2776C85.3855 75.0702 85.1387 74.9059 84.8672 74.7939C84.5958 74.6819 84.3049 74.6245 84.0112 74.625V74.625Z" fill="#33C481"/>
<path d="M66.7144 99H86.25V111.188H66.7144V99Z" fill="#107C41"/>
<path d="M40.0547 171.773V176H38.0781V164.625H42.4297C43.7005 164.625 44.7083 164.956 45.4531 165.617C46.2031 166.279 46.5781 167.154 46.5781 168.242C46.5781 169.357 46.2109 170.224 45.4766 170.844C44.7474 171.464 43.724 171.773 42.4062 171.773H40.0547ZM40.0547 170.188H42.4297C43.1328 170.188 43.6693 170.023 44.0391 169.695C44.4089 169.362 44.5938 168.883 44.5938 168.258C44.5938 167.643 44.4062 167.154 44.0312 166.789C43.6562 166.419 43.1406 166.229 42.4844 166.219H40.0547V170.188ZM50 168.469C50.6198 167.75 51.4036 167.391 52.3516 167.391C54.1536 167.391 55.0677 168.419 55.0938 170.477V176H53.1953V170.547C53.1953 169.964 53.0677 169.552 52.8125 169.312C52.5625 169.068 52.1927 168.945 51.7031 168.945C50.9427 168.945 50.375 169.284 50 169.961V176H48.1016V164H50V168.469ZM59.0391 176H57.1406V167.547H59.0391V176ZM57.0234 165.352C57.0234 165.06 57.1146 164.818 57.2969 164.625C57.4844 164.432 57.75 164.336 58.0938 164.336C58.4375 164.336 58.7031 164.432 58.8906 164.625C59.0781 164.818 59.1719 165.06 59.1719 165.352C59.1719 165.638 59.0781 165.878 58.8906 166.07C58.7031 166.258 58.4375 166.352 58.0938 166.352C57.75 166.352 57.4844 166.258 57.2969 166.07C57.1146 165.878 57.0234 165.638 57.0234 165.352ZM70.2188 173.188L71.9688 164.625H73.9297L71.3047 176H69.4141L67.25 167.695L65.0391 176H63.1406L60.5156 164.625H62.4766L64.2422 173.172L66.4141 164.625H68.0703L70.2188 173.188ZM74.5859 171.695C74.5859 170.867 74.75 170.122 75.0781 169.461C75.4062 168.794 75.8672 168.284 76.4609 167.93C77.0547 167.57 77.737 167.391 78.5078 167.391C79.6484 167.391 80.5729 167.758 81.2812 168.492C81.9948 169.227 82.3802 170.201 82.4375 171.414L82.4453 171.859C82.4453 172.693 82.2839 173.438 81.9609 174.094C81.6432 174.75 81.1849 175.258 80.5859 175.617C79.9922 175.977 79.3047 176.156 78.5234 176.156C77.3307 176.156 76.375 175.76 75.6562 174.969C74.9427 174.172 74.5859 173.112 74.5859 171.789V171.695ZM76.4844 171.859C76.4844 172.729 76.6641 173.411 77.0234 173.906C77.3828 174.396 77.8828 174.641 78.5234 174.641C79.1641 174.641 79.6615 174.391 80.0156 173.891C80.375 173.391 80.5547 172.659 80.5547 171.695C80.5547 170.841 80.3698 170.164 80 169.664C79.6354 169.164 79.138 168.914 78.5078 168.914C77.888 168.914 77.3958 169.161 77.0312 169.656C76.6667 170.146 76.4844 170.88 76.4844 171.859Z" fill="black"/>
<path d="M123.047 48.8516L123.586 49.2734C123.039 49.9036 122.695 50.5391 122.555 51.1797L122.367 52.2422H121.445L121.578 51.3906C121.734 50.3906 122.224 49.5443 123.047 48.8516ZM124.945 48.8516L125.484 49.2734C124.938 49.9036 124.594 50.5391 124.453 51.1797L124.266 52.2422H123.344L123.477 51.3906C123.633 50.3906 124.122 49.5443 124.945 48.8516ZM134.625 50.4453H130.852L129.016 61H128.062L129.898 50.4453H126.117L126.266 49.625H134.773L134.625 50.4453ZM136.508 53.9766C137.32 52.8984 138.279 52.3698 139.383 52.3906C140.195 52.4115 140.786 52.6953 141.156 53.2422C141.526 53.7891 141.656 54.5417 141.547 55.5L140.625 61H139.703L140.625 55.4844C140.656 55.1875 140.661 54.901 140.641 54.625C140.552 53.6979 140.047 53.2214 139.125 53.1953C138.578 53.1849 138.068 53.349 137.594 53.6875C137.12 54.0208 136.703 54.526 136.344 55.2031L135.344 61H134.422L136.508 49H137.43L136.508 53.9766ZM144.055 61H143.117L144.594 52.5469H145.523L144.055 61ZM144.852 50.1016C144.878 49.763 145.102 49.5495 145.523 49.4609C145.727 49.4974 145.87 49.5625 145.953 49.6562C146.042 49.7448 146.099 49.8932 146.125 50.1016C146.073 50.2995 145.997 50.4453 145.898 50.5391C145.799 50.6276 145.651 50.6927 145.453 50.7344C145.031 50.6719 144.831 50.4609 144.852 50.1016ZM151.922 58.7969C152.005 58.0781 151.568 57.5573 150.609 57.2344L149.266 56.8359C148.031 56.4193 147.448 55.724 147.516 54.75C147.552 54.0469 147.875 53.4766 148.484 53.0391C149.099 52.5964 149.828 52.3802 150.672 52.3906C151.5 52.401 152.172 52.6354 152.688 53.0938C153.203 53.5469 153.443 54.1536 153.406 54.9141H152.484C152.516 54.4089 152.357 53.9974 152.008 53.6797C151.664 53.362 151.206 53.1979 150.633 53.1875C150.039 53.1875 149.539 53.3281 149.133 53.6094C148.727 53.8854 148.497 54.2526 148.445 54.7109C148.367 55.3828 148.779 55.8542 149.68 56.125L150.656 56.4062L151.18 56.5859C152.357 57.0286 152.911 57.75 152.844 58.75C152.802 59.4271 152.508 59.9844 151.961 60.4219C151.419 60.8542 150.719 61.0964 149.859 61.1484L149.539 61.1562C148.971 61.1458 148.458 61.0365 148 60.8281C147.542 60.6146 147.19 60.3177 146.945 59.9375C146.701 59.5573 146.594 59.1198 146.625 58.625L147.555 58.6328C147.555 59.1641 147.734 59.5833 148.094 59.8906C148.453 60.1979 148.948 60.3568 149.578 60.3672C150.203 60.3672 150.734 60.2266 151.172 59.9453C151.609 59.6589 151.859 59.276 151.922 58.7969ZM159.414 61H158.477L159.953 52.5469H160.883L159.414 61ZM160.211 50.1016C160.237 49.763 160.461 49.5495 160.883 49.4609C161.086 49.4974 161.229 49.5625 161.312 49.6562C161.401 49.7448 161.458 49.8932 161.484 50.1016C161.432 50.2995 161.357 50.4453 161.258 50.5391C161.159 50.6276 161.01 50.6927 160.812 50.7344C160.391 50.6719 160.19 50.4609 160.211 50.1016ZM167.281 58.7969C167.365 58.0781 166.927 57.5573 165.969 57.2344L164.625 56.8359C163.391 56.4193 162.807 55.724 162.875 54.75C162.911 54.0469 163.234 53.4766 163.844 53.0391C164.458 52.5964 165.188 52.3802 166.031 52.3906C166.859 52.401 167.531 52.6354 168.047 53.0938C168.562 53.5469 168.802 54.1536 168.766 54.9141H167.844C167.875 54.4089 167.716 53.9974 167.367 53.6797C167.023 53.362 166.565 53.1979 165.992 53.1875C165.398 53.1875 164.898 53.3281 164.492 53.6094C164.086 53.8854 163.857 54.2526 163.805 54.7109C163.727 55.3828 164.138 55.8542 165.039 56.125L166.016 56.4062L166.539 56.5859C167.716 57.0286 168.271 57.75 168.203 58.75C168.161 59.4271 167.867 59.9844 167.32 60.4219C166.779 60.8542 166.078 61.0964 165.219 61.1484L164.898 61.1562C164.331 61.1458 163.818 61.0365 163.359 60.8281C162.901 60.6146 162.549 60.3177 162.305 59.9375C162.06 59.5573 161.953 59.1198 161.984 58.625L162.914 58.6328C162.914 59.1641 163.094 59.5833 163.453 59.8906C163.812 60.1979 164.307 60.3568 164.938 60.3672C165.562 60.3672 166.094 60.2266 166.531 59.9453C166.969 59.6589 167.219 59.276 167.281 58.7969ZM175.703 56.3672L174.898 61H173.945L175.922 49.625L179.625 49.6328C180.688 49.6641 181.508 49.9792 182.086 50.5781C182.664 51.1719 182.909 51.9688 182.82 52.9688C182.716 54.0312 182.286 54.8646 181.531 55.4688C180.776 56.0729 179.792 56.375 178.578 56.375L175.703 56.3672ZM175.844 55.5547L178.617 55.5625C179.518 55.5625 180.26 55.3333 180.844 54.875C181.427 54.4167 181.768 53.7839 181.867 52.9766C181.951 52.2057 181.784 51.599 181.367 51.1562C180.956 50.7083 180.367 50.474 179.602 50.4531L176.734 50.4453L175.844 55.5547ZM185.461 53.9766C186.273 52.8984 187.232 52.3698 188.336 52.3906C189.148 52.4115 189.74 52.6953 190.109 53.2422C190.479 53.7891 190.609 54.5417 190.5 55.5L189.578 61H188.656L189.578 55.4844C189.609 55.1875 189.615 54.901 189.594 54.625C189.505 53.6979 189 53.2214 188.078 53.1953C187.531 53.1849 187.021 53.349 186.547 53.6875C186.073 54.0208 185.656 54.526 185.297 55.2031L184.297 61H183.375L185.461 49H186.383L185.461 53.9766ZM193.008 61H192.07L193.547 52.5469H194.477L193.008 61ZM193.805 50.1016C193.831 49.763 194.055 49.5495 194.477 49.4609C194.68 49.4974 194.823 49.5625 194.906 49.6562C194.995 49.7448 195.052 49.8932 195.078 50.1016C195.026 50.2995 194.951 50.4453 194.852 50.5391C194.753 50.6276 194.604 50.6927 194.406 50.7344C193.984 50.6719 193.784 50.4609 193.805 50.1016ZM196.57 61H195.633L197.719 49H198.656L196.57 61ZM198.602 63.1328L198.078 62.7031C198.677 62.0156 199.034 61.3281 199.148 60.6406L199.336 59.5312H200.242L200.07 60.6562C199.898 61.6354 199.409 62.4609 198.602 63.1328ZM207.039 61H206.102L207.578 52.5469H208.508L207.039 61ZM207.836 50.1016C207.862 49.763 208.086 49.5495 208.508 49.4609C208.711 49.4974 208.854 49.5625 208.938 49.6562C209.026 49.7448 209.083 49.8932 209.109 50.1016C209.057 50.2995 208.982 50.4453 208.883 50.5391C208.784 50.6276 208.635 50.6927 208.438 50.7344C208.016 50.6719 207.815 50.4609 207.836 50.1016ZM211.922 52.5469L211.641 53.9922C212.016 53.4714 212.448 53.0729 212.938 52.7969C213.432 52.5156 213.961 52.3802 214.523 52.3906C215.336 52.4115 215.927 52.6953 216.297 53.2422C216.667 53.7891 216.797 54.5417 216.688 55.5L215.766 61H214.844L215.766 55.4844C215.797 55.1875 215.802 54.901 215.781 54.625C215.693 53.6979 215.188 53.2214 214.266 53.1953C213.719 53.1849 213.208 53.349 212.734 53.6875C212.26 54.0208 211.844 54.526 211.484 55.2031L210.484 61H209.562L211.031 52.5469H211.922ZM222.258 56.6953C222.352 55.8776 222.602 55.1302 223.008 54.4531C223.414 53.7708 223.919 53.2526 224.523 52.8984C225.133 52.5443 225.792 52.375 226.5 52.3906C227.198 52.401 227.792 52.5938 228.281 52.9688C228.776 53.3385 229.135 53.8464 229.359 54.4922C229.589 55.1328 229.667 55.8438 229.594 56.625L229.578 56.7734C229.422 58.1068 228.948 59.1771 228.156 59.9844C227.37 60.7917 226.424 61.1823 225.32 61.1562C224.372 61.1406 223.615 60.7917 223.047 60.1094C222.479 59.4271 222.201 58.526 222.211 57.4062L222.234 56.9609L222.258 56.6953ZM223.164 56.9609C223.096 57.5807 223.141 58.1536 223.297 58.6797C223.458 59.2005 223.714 59.6094 224.062 59.9062C224.411 60.2031 224.846 60.3594 225.367 60.375C225.93 60.3854 226.443 60.2422 226.906 59.9453C227.375 59.6484 227.76 59.2292 228.062 58.6875C228.365 58.1458 228.56 57.5469 228.648 56.8906L228.672 56.6328C228.766 55.6276 228.609 54.8073 228.203 54.1719C227.802 53.5312 227.219 53.2031 226.453 53.1875C225.62 53.1615 224.898 53.4844 224.289 54.1562C223.685 54.8229 223.315 55.7109 223.18 56.8203L223.164 56.9609ZM236.422 59.9375C235.75 60.7812 234.823 61.1875 233.641 61.1562C232.844 61.1406 232.25 60.8542 231.859 60.2969C231.469 59.7344 231.328 58.9557 231.438 57.9609L232.344 52.5469H233.266L232.367 57.9844C232.336 58.2656 232.333 58.5443 232.359 58.8203C232.396 59.2995 232.539 59.6693 232.789 59.9297C233.039 60.1901 233.383 60.3281 233.82 60.3438C234.445 60.3698 235.023 60.2266 235.555 59.9141C236.086 59.5964 236.43 59.1823 236.586 58.6719L237.633 52.5469H238.57L237.102 61H236.195L236.422 59.9375ZM244.586 53.3359C244.383 53.2943 244.177 53.2708 243.969 53.2656C243.375 53.2656 242.831 53.4479 242.336 53.8125C241.841 54.1719 241.51 54.6302 241.344 55.1875L240.344 61H239.422L240.891 52.5469H241.805L241.523 53.8906C241.831 53.3906 242.201 53.0104 242.633 52.75C243.07 52.4896 243.549 52.3646 244.07 52.375C244.253 52.375 244.466 52.4115 244.711 52.4844L244.586 53.3359ZM251.852 50.3828L251.477 52.5469H253.172L253.039 53.3125H251.344L250.406 58.9531L250.391 59.4375C250.391 60.0052 250.651 60.2969 251.172 60.3125C251.333 60.3177 251.586 60.2995 251.93 60.2578L251.891 61.0234C251.583 61.112 251.271 61.151 250.953 61.1406C250.406 61.1302 250.008 60.9401 249.758 60.5703C249.508 60.1953 249.417 59.6536 249.484 58.9453L250.414 53.3125H248.898L249.039 52.5469H250.539L250.922 50.3828H251.852ZM256.992 61.1562C256.315 61.1458 255.729 60.9583 255.234 60.5938C254.74 60.224 254.375 59.724 254.141 59.0938C253.911 58.4583 253.831 57.7734 253.898 57.0391L253.922 56.7734C253.995 55.9922 254.227 55.25 254.617 54.5469C255.008 53.8385 255.503 53.2995 256.102 52.9297C256.701 52.5547 257.341 52.375 258.023 52.3906C258.654 52.401 259.185 52.5729 259.617 52.9062C260.055 53.2396 260.372 53.7031 260.57 54.2969C260.768 54.8906 260.831 55.5469 260.758 56.2656L260.695 56.8359H254.844L254.82 57.0234C254.742 57.5911 254.784 58.1354 254.945 58.6562C255.107 59.1719 255.37 59.5833 255.734 59.8906C256.104 60.1927 256.547 60.349 257.062 60.3594C257.562 60.375 258.013 60.2786 258.414 60.0703C258.815 59.862 259.185 59.5833 259.523 59.2344L260.07 59.6797C259.69 60.1693 259.237 60.5417 258.711 60.7969C258.19 61.0469 257.617 61.1667 256.992 61.1562ZM257.977 53.1875C257.299 53.1615 256.693 53.401 256.156 53.9062C255.62 54.4115 255.216 55.1224 254.945 56.0391L259.852 56.0469L259.875 55.9297C259.969 55.1901 259.839 54.5547 259.484 54.0234C259.13 53.487 258.628 53.2083 257.977 53.1875ZM266.992 61C266.966 60.8021 266.958 60.6042 266.969 60.4062L267.039 59.8203C266.648 60.2422 266.201 60.5729 265.695 60.8125C265.195 61.0521 264.654 61.1667 264.07 61.1562C263.357 61.1458 262.776 60.9219 262.328 60.4844C261.885 60.0417 261.688 59.487 261.734 58.8203C261.776 58.263 261.966 57.7812 262.305 57.375C262.648 56.9635 263.135 56.6458 263.766 56.4219C264.396 56.1927 265.102 56.0781 265.883 56.0781L267.609 56.0859L267.75 55.1172C267.812 54.5391 267.688 54.0755 267.375 53.7266C267.062 53.3776 266.602 53.1927 265.992 53.1719C265.378 53.1615 264.841 53.3151 264.383 53.6328C263.93 53.9453 263.646 54.3594 263.531 54.875H262.617C262.721 54.1354 263.102 53.5339 263.758 53.0703C264.414 52.6016 265.19 52.3724 266.086 52.3828C266.956 52.4036 267.625 52.6667 268.094 53.1719C268.568 53.6771 268.76 54.3333 268.672 55.1406L267.969 59.3906L267.906 60.0703C267.891 60.3516 267.911 60.6302 267.969 60.9062L267.953 61H266.992ZM264.227 60.3359C264.799 60.3568 265.346 60.2214 265.867 59.9297C266.393 59.6328 266.828 59.2135 267.172 58.6719L267.492 56.8047L266 56.7969C265.052 56.7969 264.279 56.9661 263.68 57.3047C263.081 57.638 262.75 58.1172 262.688 58.7422C262.641 59.2005 262.76 59.5781 263.047 59.875C263.339 60.1719 263.732 60.3255 264.227 60.3359ZM272.445 52.5469L272.18 53.9219C272.94 52.8802 273.896 52.3698 275.047 52.3906C275.641 52.401 276.133 52.5495 276.523 52.8359C276.919 53.1224 277.164 53.5208 277.258 54.0312C277.643 53.5052 278.091 53.099 278.602 52.8125C279.117 52.5208 279.677 52.3802 280.281 52.3906C281.083 52.4062 281.677 52.6719 282.062 53.1875C282.453 53.6979 282.615 54.4062 282.547 55.3125L282.531 55.4922L281.602 61H280.672L281.594 55.4766C281.625 55.1693 281.628 54.8776 281.602 54.6016C281.497 53.6797 280.971 53.2109 280.023 53.1953C279.388 53.1849 278.802 53.3932 278.266 53.8203C277.734 54.2422 277.401 54.7708 277.266 55.4062L276.297 61H275.367L276.305 55.4062C276.456 53.9688 275.927 53.2318 274.719 53.1953C274.12 53.1849 273.562 53.3724 273.047 53.7578C272.531 54.1432 272.185 54.6224 272.008 55.1953L271.008 61H270.078L271.547 52.5469H272.445ZM289.914 53.9766C290.727 52.8984 291.685 52.3698 292.789 52.3906C293.602 52.4115 294.193 52.6953 294.562 53.2422C294.932 53.7891 295.062 54.5417 294.953 55.5L294.031 61H293.109L294.031 55.4844C294.062 55.1875 294.068 54.901 294.047 54.625C293.958 53.6979 293.453 53.2214 292.531 53.1953C291.984 53.1849 291.474 53.349 291 53.6875C290.526 54.0208 290.109 54.526 289.75 55.2031L288.75 61H287.828L289.914 49H290.836L289.914 53.9766ZM299.773 61.1562C299.096 61.1458 298.51 60.9583 298.016 60.5938C297.521 60.224 297.156 59.724 296.922 59.0938C296.693 58.4583 296.612 57.7734 296.68 57.0391L296.703 56.7734C296.776 55.9922 297.008 55.25 297.398 54.5469C297.789 53.8385 298.284 53.2995 298.883 52.9297C299.482 52.5547 300.122 52.375 300.805 52.3906C301.435 52.401 301.966 52.5729 302.398 52.9062C302.836 53.2396 303.154 53.7031 303.352 54.2969C303.549 54.8906 303.612 55.5469 303.539 56.2656L303.477 56.8359H297.625L297.602 57.0234C297.523 57.5911 297.565 58.1354 297.727 58.6562C297.888 59.1719 298.151 59.5833 298.516 59.8906C298.885 60.1927 299.328 60.349 299.844 60.3594C300.344 60.375 300.794 60.2786 301.195 60.0703C301.596 59.862 301.966 59.5833 302.305 59.2344L302.852 59.6797C302.471 60.1693 302.018 60.5417 301.492 60.7969C300.971 61.0469 300.398 61.1667 299.773 61.1562ZM300.758 53.1875C300.081 53.1615 299.474 53.401 298.938 53.9062C298.401 54.4115 297.997 55.1224 297.727 56.0391L302.633 56.0469L302.656 55.9297C302.75 55.1901 302.62 54.5547 302.266 54.0234C301.911 53.487 301.409 53.2083 300.758 53.1875ZM309.414 61H308.477L309.953 52.5469H310.883L309.414 61ZM310.211 50.1016C310.237 49.763 310.461 49.5495 310.883 49.4609C311.086 49.4974 311.229 49.5625 311.312 49.6562C311.401 49.7448 311.458 49.8932 311.484 50.1016C311.432 50.2995 311.357 50.4453 311.258 50.5391C311.159 50.6276 311.01 50.6927 310.812 50.7344C310.391 50.6719 310.19 50.4609 310.211 50.1016ZM317.281 58.7969C317.365 58.0781 316.927 57.5573 315.969 57.2344L314.625 56.8359C313.391 56.4193 312.807 55.724 312.875 54.75C312.911 54.0469 313.234 53.4766 313.844 53.0391C314.458 52.5964 315.188 52.3802 316.031 52.3906C316.859 52.401 317.531 52.6354 318.047 53.0938C318.562 53.5469 318.802 54.1536 318.766 54.9141H317.844C317.875 54.4089 317.716 53.9974 317.367 53.6797C317.023 53.362 316.565 53.1979 315.992 53.1875C315.398 53.1875 314.898 53.3281 314.492 53.6094C314.086 53.8854 313.857 54.2526 313.805 54.7109C313.727 55.3828 314.138 55.8542 315.039 56.125L316.016 56.4062L316.539 56.5859C317.716 57.0286 318.271 57.75 318.203 58.75C318.161 59.4271 317.867 59.9844 317.32 60.4219C316.779 60.8542 316.078 61.0964 315.219 61.1484L314.898 61.1562C314.331 61.1458 313.818 61.0365 313.359 60.8281C312.901 60.6146 312.549 60.3177 312.305 59.9375C312.06 59.5573 311.953 59.1198 311.984 58.625L312.914 58.6328C312.914 59.1641 313.094 59.5833 313.453 59.8906C313.812 60.1979 314.307 60.3568 314.938 60.3672C315.562 60.3672 316.094 60.2266 316.531 59.9453C316.969 59.6589 317.219 59.276 317.281 58.7969ZM127.703 80.8125C127.521 82.1562 127.091 83.224 126.414 84.0156C125.742 84.8073 124.909 85.1901 123.914 85.1641C123.362 85.1536 122.875 85.0312 122.453 84.7969C122.036 84.5625 121.716 84.2448 121.492 83.8438L121.227 85H120.352L122.438 73H123.359L122.477 77.7734C123.201 76.8203 124.115 76.3594 125.219 76.3906C126.026 76.4115 126.648 76.7109 127.086 77.2891C127.523 77.8672 127.75 78.6667 127.766 79.6875C127.771 80.0208 127.755 80.3411 127.719 80.6484L127.703 80.8125ZM126.789 80.6328L126.844 79.8906C126.859 79.0417 126.711 78.3854 126.398 77.9219C126.086 77.4583 125.62 77.2161 125 77.1953C123.859 77.1745 122.966 77.7526 122.32 78.9297L121.68 82.7578C121.831 83.263 122.089 83.6536 122.453 83.9297C122.823 84.2005 123.271 84.3438 123.797 84.3594C124.573 84.375 125.221 84.0755 125.742 83.4609C126.268 82.8411 126.617 81.8984 126.789 80.6328ZM132.398 85.1562C131.721 85.1458 131.135 84.9583 130.641 84.5938C130.146 84.224 129.781 83.724 129.547 83.0938C129.318 82.4583 129.237 81.7734 129.305 81.0391L129.328 80.7734C129.401 79.9922 129.633 79.25 130.023 78.5469C130.414 77.8385 130.909 77.2995 131.508 76.9297C132.107 76.5547 132.747 76.375 133.43 76.3906C134.06 76.401 134.591 76.5729 135.023 76.9062C135.461 77.2396 135.779 77.7031 135.977 78.2969C136.174 78.8906 136.237 79.5469 136.164 80.2656L136.102 80.8359H130.25L130.227 81.0234C130.148 81.5911 130.19 82.1354 130.352 82.6562C130.513 83.1719 130.776 83.5833 131.141 83.8906C131.51 84.1927 131.953 84.349 132.469 84.3594C132.969 84.375 133.419 84.2786 133.82 84.0703C134.221 83.862 134.591 83.5833 134.93 83.2344L135.477 83.6797C135.096 84.1693 134.643 84.5417 134.117 84.7969C133.596 85.0469 133.023 85.1667 132.398 85.1562ZM133.383 77.1875C132.706 77.1615 132.099 77.401 131.562 77.9062C131.026 78.4115 130.622 79.1224 130.352 80.0391L135.258 80.0469L135.281 79.9297C135.375 79.1901 135.245 78.5547 134.891 78.0234C134.536 77.487 134.034 77.2083 133.383 77.1875ZM140.414 74.3828L140.039 76.5469H141.734L141.602 77.3125H139.906L138.969 82.9531L138.953 83.4375C138.953 84.0052 139.214 84.2969 139.734 84.3125C139.896 84.3177 140.148 84.2995 140.492 84.2578L140.453 85.0234C140.146 85.112 139.833 85.151 139.516 85.1406C138.969 85.1302 138.57 84.9401 138.32 84.5703C138.07 84.1953 137.979 83.6536 138.047 82.9453L138.977 77.3125H137.461L137.602 76.5469H139.102L139.484 74.3828H140.414ZM145.477 74.3828L145.102 76.5469H146.797L146.664 77.3125H144.969L144.031 82.9531L144.016 83.4375C144.016 84.0052 144.276 84.2969 144.797 84.3125C144.958 84.3177 145.211 84.2995 145.555 84.2578L145.516 85.0234C145.208 85.112 144.896 85.151 144.578 85.1406C144.031 85.1302 143.633 84.9401 143.383 84.5703C143.133 84.1953 143.042 83.6536 143.109 82.9453L144.039 77.3125H142.523L142.664 76.5469H144.164L144.547 74.3828H145.477ZM150.617 85.1562C149.94 85.1458 149.354 84.9583 148.859 84.5938C148.365 84.224 148 83.724 147.766 83.0938C147.536 82.4583 147.456 81.7734 147.523 81.0391L147.547 80.7734C147.62 79.9922 147.852 79.25 148.242 78.5469C148.633 77.8385 149.128 77.2995 149.727 76.9297C150.326 76.5547 150.966 76.375 151.648 76.3906C152.279 76.401 152.81 76.5729 153.242 76.9062C153.68 77.2396 153.997 77.7031 154.195 78.2969C154.393 78.8906 154.456 79.5469 154.383 80.2656L154.32 80.8359H148.469L148.445 81.0234C148.367 81.5911 148.409 82.1354 148.57 82.6562C148.732 83.1719 148.995 83.5833 149.359 83.8906C149.729 84.1927 150.172 84.349 150.688 84.3594C151.188 84.375 151.638 84.2786 152.039 84.0703C152.44 83.862 152.81 83.5833 153.148 83.2344L153.695 83.6797C153.315 84.1693 152.862 84.5417 152.336 84.7969C151.815 85.0469 151.242 85.1667 150.617 85.1562ZM151.602 77.1875C150.924 77.1615 150.318 77.401 149.781 77.9062C149.245 78.4115 148.841 79.1224 148.57 80.0391L153.477 80.0469L153.5 79.9297C153.594 79.1901 153.464 78.5547 153.109 78.0234C152.755 77.487 152.253 77.2083 151.602 77.1875ZM160.523 77.3359C160.32 77.2943 160.115 77.2708 159.906 77.2656C159.312 77.2656 158.768 77.4479 158.273 77.8125C157.779 78.1719 157.448 78.6302 157.281 79.1875L156.281 85H155.359L156.828 76.5469H157.742L157.461 77.8906C157.768 77.3906 158.138 77.0104 158.57 76.75C159.008 76.4896 159.487 76.3646 160.008 76.375C160.19 76.375 160.404 76.4115 160.648 76.4844L160.523 77.3359ZM167.25 80.7578L166 81.8125L165.445 85H164.516L166.602 73H167.531L166.203 80.6094L167.172 79.7188L170.852 76.5469H172.094L167.938 80.1484L170.852 85H169.82L167.25 80.7578ZM174.562 76.5469L174.281 77.9922C174.656 77.4714 175.089 77.0729 175.578 76.7969C176.073 76.5156 176.602 76.3802 177.164 76.3906C177.977 76.4115 178.568 76.6953 178.938 77.2422C179.307 77.7891 179.438 78.5417 179.328 79.5L178.406 85H177.484L178.406 79.4844C178.438 79.1875 178.443 78.901 178.422 78.625C178.333 77.6979 177.828 77.2214 176.906 77.1953C176.359 77.1849 175.849 77.349 175.375 77.6875C174.901 78.0208 174.484 78.526 174.125 79.2031L173.125 85H172.203L173.672 76.5469H174.562ZM181.039 80.6953C181.133 79.8776 181.383 79.1302 181.789 78.4531C182.195 77.7708 182.701 77.2526 183.305 76.8984C183.914 76.5443 184.573 76.375 185.281 76.3906C185.979 76.401 186.573 76.5938 187.062 76.9688C187.557 77.3385 187.917 77.8464 188.141 78.4922C188.37 79.1328 188.448 79.8438 188.375 80.625L188.359 80.7734C188.203 82.1068 187.729 83.1771 186.938 83.9844C186.151 84.7917 185.206 85.1823 184.102 85.1562C183.154 85.1406 182.396 84.7917 181.828 84.1094C181.26 83.4271 180.982 82.526 180.992 81.4062L181.016 80.9609L181.039 80.6953ZM181.945 80.9609C181.878 81.5807 181.922 82.1536 182.078 82.6797C182.24 83.2005 182.495 83.6094 182.844 83.9062C183.193 84.2031 183.628 84.3594 184.148 84.375C184.711 84.3854 185.224 84.2422 185.688 83.9453C186.156 83.6484 186.542 83.2292 186.844 82.6875C187.146 82.1458 187.341 81.5469 187.43 80.8906L187.453 80.6328C187.547 79.6276 187.391 78.8073 186.984 78.1719C186.583 77.5312 186 77.2031 185.234 77.1875C184.401 77.1615 183.68 77.4844 183.07 78.1562C182.466 78.8229 182.096 79.7109 181.961 80.8203L181.945 80.9609ZM191.906 83.0547V83.7188L192.211 82.9922L195.297 76.5469H196.094L196.93 83.0078L196.977 83.8047L197.297 83L200.094 76.5469H201.086L197.227 85H196.43L195.5 78.2969L195.492 77.8281L195.312 78.3047L192.078 85H191.281L190.383 76.5469L191.258 76.5391L191.906 83.0547ZM203.734 76.5469L203.453 77.9922C203.828 77.4714 204.26 77.0729 204.75 76.7969C205.245 76.5156 205.773 76.3802 206.336 76.3906C207.148 76.4115 207.74 76.6953 208.109 77.2422C208.479 77.7891 208.609 78.5417 208.5 79.5L207.578 85H206.656L207.578 79.4844C207.609 79.1875 207.615 78.901 207.594 78.625C207.505 77.6979 207 77.2214 206.078 77.1953C205.531 77.1849 205.021 77.349 204.547 77.6875C204.073 78.0208 203.656 78.526 203.297 79.2031L202.297 85H201.375L202.844 76.5469H203.734ZM219.102 85C219.076 84.8021 219.068 84.6042 219.078 84.4062L219.148 83.8203C218.758 84.2422 218.31 84.5729 217.805 84.8125C217.305 85.0521 216.763 85.1667 216.18 85.1562C215.466 85.1458 214.885 84.9219 214.438 84.4844C213.995 84.0417 213.797 83.487 213.844 82.8203C213.885 82.263 214.076 81.7812 214.414 81.375C214.758 80.9635 215.245 80.6458 215.875 80.4219C216.505 80.1927 217.211 80.0781 217.992 80.0781L219.719 80.0859L219.859 79.1172C219.922 78.5391 219.797 78.0755 219.484 77.7266C219.172 77.3776 218.711 77.1927 218.102 77.1719C217.487 77.1615 216.951 77.3151 216.492 77.6328C216.039 77.9453 215.755 78.3594 215.641 78.875H214.727C214.831 78.1354 215.211 77.5339 215.867 77.0703C216.523 76.6016 217.299 76.3724 218.195 76.3828C219.065 76.4036 219.734 76.6667 220.203 77.1719C220.677 77.6771 220.87 78.3333 220.781 79.1406L220.078 83.3906L220.016 84.0703C220 84.3516 220.021 84.6302 220.078 84.9062L220.062 85H219.102ZM216.336 84.3359C216.909 84.3568 217.456 84.2214 217.977 83.9297C218.503 83.6328 218.938 83.2135 219.281 82.6719L219.602 80.8047L218.109 80.7969C217.161 80.7969 216.388 80.9661 215.789 81.3047C215.19 81.638 214.859 82.1172 214.797 82.7422C214.75 83.2005 214.87 83.5781 215.156 83.875C215.448 84.1719 215.841 84.3255 216.336 84.3359ZM227.578 82.7969C227.661 82.0781 227.224 81.5573 226.266 81.2344L224.922 80.8359C223.688 80.4193 223.104 79.724 223.172 78.75C223.208 78.0469 223.531 77.4766 224.141 77.0391C224.755 76.5964 225.484 76.3802 226.328 76.3906C227.156 76.401 227.828 76.6354 228.344 77.0938C228.859 77.5469 229.099 78.1536 229.062 78.9141H228.141C228.172 78.4089 228.013 77.9974 227.664 77.6797C227.32 77.362 226.862 77.1979 226.289 77.1875C225.695 77.1875 225.195 77.3281 224.789 77.6094C224.383 77.8854 224.154 78.2526 224.102 78.7109C224.023 79.3828 224.435 79.8542 225.336 80.125L226.312 80.4062L226.836 80.5859C228.013 81.0286 228.568 81.75 228.5 82.75C228.458 83.4271 228.164 83.9844 227.617 84.4219C227.076 84.8542 226.375 85.0964 225.516 85.1484L225.195 85.1562C224.628 85.1458 224.115 85.0365 223.656 84.8281C223.198 84.6146 222.846 84.3177 222.602 83.9375C222.357 83.5573 222.25 83.1198 222.281 82.625L223.211 82.6328C223.211 83.1641 223.391 83.5833 223.75 83.8906C224.109 84.1979 224.604 84.3568 225.234 84.3672C225.859 84.3672 226.391 84.2266 226.828 83.9453C227.266 83.6589 227.516 83.276 227.578 82.7969ZM236 80.3672L235.195 85H234.242L236.219 73.625L239.922 73.6328C240.984 73.6641 241.805 73.9792 242.383 74.5781C242.961 75.1719 243.206 75.9688 243.117 76.9688C243.013 78.0312 242.583 78.8646 241.828 79.4688C241.073 80.0729 240.089 80.375 238.875 80.375L236 80.3672ZM236.141 79.5547L238.914 79.5625C239.815 79.5625 240.557 79.3333 241.141 78.875C241.724 78.4167 242.065 77.7839 242.164 76.9766C242.247 76.2057 242.081 75.599 241.664 75.1562C241.253 74.7083 240.664 74.474 239.898 74.4531L237.031 74.4453L236.141 79.5547ZM245.758 77.9766C246.57 76.8984 247.529 76.3698 248.633 76.3906C249.445 76.4115 250.036 76.6953 250.406 77.2422C250.776 77.7891 250.906 78.5417 250.797 79.5L249.875 85H248.953L249.875 79.4844C249.906 79.1875 249.911 78.901 249.891 78.625C249.802 77.6979 249.297 77.2214 248.375 77.1953C247.828 77.1849 247.318 77.349 246.844 77.6875C246.37 78.0208 245.953 78.526 245.594 79.2031L244.594 85H243.672L245.758 73H246.68L245.758 77.9766ZM253.305 85H252.367L253.844 76.5469H254.773L253.305 85ZM254.102 74.1016C254.128 73.763 254.352 73.5495 254.773 73.4609C254.977 73.4974 255.12 73.5625 255.203 73.6562C255.292 73.7448 255.349 73.8932 255.375 74.1016C255.323 74.2995 255.247 74.4453 255.148 74.5391C255.049 74.6276 254.901 74.6927 254.703 74.7344C254.281 74.6719 254.081 74.4609 254.102 74.1016ZM258.656 81.9609L258.711 83.6406L259.391 81.9766L263.078 73.625H263.938L265 82.0547L265.133 83.6641L265.773 81.8984L269.055 73.625H270.055L265.445 85H264.531L263.414 76.0625L263.328 75.0156L262.891 76.1016L258.938 85H258.023L256.977 73.625H257.93L258.656 81.9609ZM269.805 80.6953C269.898 79.8776 270.148 79.1302 270.555 78.4531C270.961 77.7708 271.466 77.2526 272.07 76.8984C272.68 76.5443 273.339 76.375 274.047 76.3906C274.745 76.401 275.339 76.5938 275.828 76.9688C276.323 77.3385 276.682 77.8464 276.906 78.4922C277.135 79.1328 277.214 79.8438 277.141 80.625L277.125 80.7734C276.969 82.1068 276.495 83.1771 275.703 83.9844C274.917 84.7917 273.971 85.1823 272.867 85.1562C271.919 85.1406 271.161 84.7917 270.594 84.1094C270.026 83.4271 269.747 82.526 269.758 81.4062L269.781 80.9609L269.805 80.6953ZM270.711 80.9609C270.643 81.5807 270.688 82.1536 270.844 82.6797C271.005 83.2005 271.26 83.6094 271.609 83.9062C271.958 84.2031 272.393 84.3594 272.914 84.375C273.477 84.3854 273.99 84.2422 274.453 83.9453C274.922 83.6484 275.307 83.2292 275.609 82.6875C275.911 82.1458 276.107 81.5469 276.195 80.8906L276.219 80.6328C276.312 79.6276 276.156 78.8073 275.75 78.1719C275.349 77.5312 274.766 77.2031 274 77.1875C273.167 77.1615 272.445 77.4844 271.836 78.1562C271.232 78.8229 270.862 79.7109 270.727 80.8203L270.711 80.9609ZM285.859 80.375H282.211L282.352 79.5859H286L285.859 80.375ZM293.422 83.625L297.039 76.5469H298.078L292.922 86.3594C292.542 87.1198 292.138 87.6589 291.711 87.9766C291.289 88.2943 290.818 88.4479 290.297 88.4375C290.099 88.4271 289.849 88.3854 289.547 88.3125L289.641 87.5469L290.109 87.6016C290.984 87.638 291.674 87.1224 292.18 86.0547L292.773 84.875L291.141 76.5469H292.117L293.422 83.625ZM298.148 80.6953C298.242 79.8776 298.492 79.1302 298.898 78.4531C299.305 77.7708 299.81 77.2526 300.414 76.8984C301.023 76.5443 301.682 76.375 302.391 76.3906C303.089 76.401 303.682 76.5938 304.172 76.9688C304.667 77.3385 305.026 77.8464 305.25 78.4922C305.479 79.1328 305.557 79.8438 305.484 80.625L305.469 80.7734C305.312 82.1068 304.839 83.1771 304.047 83.9844C303.26 84.7917 302.315 85.1823 301.211 85.1562C300.263 85.1406 299.505 84.7917 298.938 84.1094C298.37 83.4271 298.091 82.526 298.102 81.4062L298.125 80.9609L298.148 80.6953ZM299.055 80.9609C298.987 81.5807 299.031 82.1536 299.188 82.6797C299.349 83.2005 299.604 83.6094 299.953 83.9062C300.302 84.2031 300.737 84.3594 301.258 84.375C301.82 84.3854 302.333 84.2422 302.797 83.9453C303.266 83.6484 303.651 83.2292 303.953 82.6875C304.255 82.1458 304.451 81.5469 304.539 80.8906L304.562 80.6328C304.656 79.6276 304.5 78.8073 304.094 78.1719C303.693 77.5312 303.109 77.2031 302.344 77.1875C301.51 77.1615 300.789 77.4844 300.18 78.1562C299.576 78.8229 299.206 79.7109 299.07 80.8203L299.055 80.9609ZM312.312 83.9375C311.641 84.7812 310.714 85.1875 309.531 85.1562C308.734 85.1406 308.141 84.8542 307.75 84.2969C307.359 83.7344 307.219 82.9557 307.328 81.9609L308.234 76.5469H309.156L308.258 81.9844C308.227 82.2656 308.224 82.5443 308.25 82.8203C308.286 83.2995 308.43 83.6693 308.68 83.9297C308.93 84.1901 309.273 84.3281 309.711 84.3438C310.336 84.3698 310.914 84.2266 311.445 83.9141C311.977 83.5964 312.32 83.1823 312.477 82.6719L313.523 76.5469H314.461L312.992 85H312.086L312.312 83.9375ZM123.094 104.758L121.844 105.812L121.289 109H120.359L122.445 97H123.375L122.047 104.609L123.016 103.719L126.695 100.547H127.938L123.781 104.148L126.695 109H125.664L123.094 104.758ZM130.406 100.547L130.125 101.992C130.5 101.471 130.932 101.073 131.422 100.797C131.917 100.516 132.445 100.38 133.008 100.391C133.82 100.411 134.411 100.695 134.781 101.242C135.151 101.789 135.281 102.542 135.172 103.5L134.25 109H133.328L134.25 103.484C134.281 103.188 134.286 102.901 134.266 102.625C134.177 101.698 133.672 101.221 132.75 101.195C132.203 101.185 131.693 101.349 131.219 101.688C130.745 102.021 130.328 102.526 129.969 103.203L128.969 109H128.047L129.516 100.547H130.406ZM136.883 104.695C136.977 103.878 137.227 103.13 137.633 102.453C138.039 101.771 138.544 101.253 139.148 100.898C139.758 100.544 140.417 100.375 141.125 100.391C141.823 100.401 142.417 100.594 142.906 100.969C143.401 101.339 143.76 101.846 143.984 102.492C144.214 103.133 144.292 103.844 144.219 104.625L144.203 104.773C144.047 106.107 143.573 107.177 142.781 107.984C141.995 108.792 141.049 109.182 139.945 109.156C138.997 109.141 138.24 108.792 137.672 108.109C137.104 107.427 136.826 106.526 136.836 105.406L136.859 104.961L136.883 104.695ZM137.789 104.961C137.721 105.581 137.766 106.154 137.922 106.68C138.083 107.201 138.339 107.609 138.688 107.906C139.036 108.203 139.471 108.359 139.992 108.375C140.555 108.385 141.068 108.242 141.531 107.945C142 107.648 142.385 107.229 142.688 106.688C142.99 106.146 143.185 105.547 143.273 104.891L143.297 104.633C143.391 103.628 143.234 102.807 142.828 102.172C142.427 101.531 141.844 101.203 141.078 101.188C140.245 101.161 139.523 101.484 138.914 102.156C138.31 102.823 137.94 103.711 137.805 104.82L137.789 104.961ZM147.75 107.055V107.719L148.055 106.992L151.141 100.547H151.938L152.773 107.008L152.82 107.805L153.141 107L155.938 100.547H156.93L153.07 109H152.273L151.344 102.297L151.336 101.828L151.156 102.305L147.922 109H147.125L146.227 100.547L147.102 100.539L147.75 107.055ZM155.758 111.133L155.234 110.703C155.833 110.016 156.19 109.328 156.305 108.641L156.492 107.531H157.398L157.227 108.656C157.055 109.635 156.565 110.461 155.758 111.133ZM164.195 109H163.258L165.344 97H166.281L164.195 109ZM167.758 109H166.82L168.297 100.547H169.227L167.758 109ZM168.555 98.1016C168.581 97.763 168.805 97.5495 169.227 97.4609C169.43 97.4974 169.573 97.5625 169.656 97.6562C169.745 97.7448 169.802 97.8932 169.828 98.1016C169.776 98.2995 169.701 98.4453 169.602 98.5391C169.503 98.6276 169.354 98.6927 169.156 98.7344C168.734 98.6719 168.534 98.4609 168.555 98.1016ZM173.016 104.758L171.766 105.812L171.211 109H170.281L172.367 97H173.297L171.969 104.609L172.938 103.719L176.617 100.547H177.859L173.703 104.148L176.617 109H175.586L173.016 104.758ZM181.164 109.156C180.487 109.146 179.901 108.958 179.406 108.594C178.911 108.224 178.547 107.724 178.312 107.094C178.083 106.458 178.003 105.773 178.07 105.039L178.094 104.773C178.167 103.992 178.398 103.25 178.789 102.547C179.18 101.839 179.674 101.299 180.273 100.93C180.872 100.555 181.513 100.375 182.195 100.391C182.826 100.401 183.357 100.573 183.789 100.906C184.227 101.24 184.544 101.703 184.742 102.297C184.94 102.891 185.003 103.547 184.93 104.266L184.867 104.836H179.016L178.992 105.023C178.914 105.591 178.956 106.135 179.117 106.656C179.279 107.172 179.542 107.583 179.906 107.891C180.276 108.193 180.719 108.349 181.234 108.359C181.734 108.375 182.185 108.279 182.586 108.07C182.987 107.862 183.357 107.583 183.695 107.234L184.242 107.68C183.862 108.169 183.409 108.542 182.883 108.797C182.362 109.047 181.789 109.167 181.164 109.156ZM182.148 101.188C181.471 101.161 180.865 101.401 180.328 101.906C179.792 102.411 179.388 103.122 179.117 104.039L184.023 104.047L184.047 103.93C184.141 103.19 184.01 102.555 183.656 102.023C183.302 101.487 182.799 101.208 182.148 101.188ZM191.734 104.367L190.93 109H189.977L191.953 97.625L195.656 97.6328C196.719 97.6641 197.539 97.9792 198.117 98.5781C198.695 99.1719 198.94 99.9688 198.852 100.969C198.747 102.031 198.318 102.865 197.562 103.469C196.807 104.073 195.823 104.375 194.609 104.375L191.734 104.367ZM191.875 103.555L194.648 103.562C195.549 103.562 196.292 103.333 196.875 102.875C197.458 102.417 197.799 101.784 197.898 100.977C197.982 100.206 197.815 99.599 197.398 99.1562C196.987 98.7083 196.398 98.474 195.633 98.4531L192.766 98.4453L191.875 103.555ZM200.445 109H199.508L200.984 100.547H201.914L200.445 109ZM201.242 98.1016C201.268 97.763 201.492 97.5495 201.914 97.4609C202.117 97.4974 202.26 97.5625 202.344 97.6562C202.432 97.7448 202.49 97.8932 202.516 98.1016C202.464 98.2995 202.388 98.4453 202.289 98.5391C202.19 98.6276 202.042 98.6927 201.844 98.7344C201.422 98.6719 201.221 98.4609 201.242 98.1016ZM205.797 107.68L209.406 100.547H210.391L206.008 109H205.25L203.492 100.547H204.414L205.797 107.68ZM210.617 104.695C210.711 103.878 210.961 103.13 211.367 102.453C211.773 101.771 212.279 101.253 212.883 100.898C213.492 100.544 214.151 100.375 214.859 100.391C215.557 100.401 216.151 100.594 216.641 100.969C217.135 101.339 217.495 101.846 217.719 102.492C217.948 103.133 218.026 103.844 217.953 104.625L217.938 104.773C217.781 106.107 217.307 107.177 216.516 107.984C215.729 108.792 214.784 109.182 213.68 109.156C212.732 109.141 211.974 108.792 211.406 108.109C210.839 107.427 210.56 106.526 210.57 105.406L210.594 104.961L210.617 104.695ZM211.523 104.961C211.456 105.581 211.5 106.154 211.656 106.68C211.818 107.201 212.073 107.609 212.422 107.906C212.771 108.203 213.206 108.359 213.727 108.375C214.289 108.385 214.802 108.242 215.266 107.945C215.734 107.648 216.12 107.229 216.422 106.688C216.724 106.146 216.919 105.547 217.008 104.891L217.031 104.633C217.125 103.628 216.969 102.807 216.562 102.172C216.161 101.531 215.578 101.203 214.812 101.188C213.979 101.161 213.258 101.484 212.648 102.156C212.044 102.823 211.674 103.711 211.539 104.82L211.523 104.961ZM222.445 98.3828L222.07 100.547H223.766L223.633 101.312H221.938L221 106.953L220.984 107.438C220.984 108.005 221.245 108.297 221.766 108.312C221.927 108.318 222.18 108.299 222.523 108.258L222.484 109.023C222.177 109.112 221.865 109.151 221.547 109.141C221 109.13 220.602 108.94 220.352 108.57C220.102 108.195 220.01 107.654 220.078 106.945L221.008 101.312H219.492L219.633 100.547H221.133L221.516 98.3828H222.445ZM231.367 98.3828L230.992 100.547H232.688L232.555 101.312H230.859L229.922 106.953L229.906 107.438C229.906 108.005 230.167 108.297 230.688 108.312C230.849 108.318 231.102 108.299 231.445 108.258L231.406 109.023C231.099 109.112 230.786 109.151 230.469 109.141C229.922 109.13 229.523 108.94 229.273 108.57C229.023 108.195 228.932 107.654 229 106.945L229.93 101.312H228.414L228.555 100.547H230.055L230.438 98.3828H231.367ZM238.414 109C238.388 108.802 238.38 108.604 238.391 108.406L238.461 107.82C238.07 108.242 237.622 108.573 237.117 108.812C236.617 109.052 236.076 109.167 235.492 109.156C234.779 109.146 234.198 108.922 233.75 108.484C233.307 108.042 233.109 107.487 233.156 106.82C233.198 106.263 233.388 105.781 233.727 105.375C234.07 104.964 234.557 104.646 235.188 104.422C235.818 104.193 236.523 104.078 237.305 104.078L239.031 104.086L239.172 103.117C239.234 102.539 239.109 102.076 238.797 101.727C238.484 101.378 238.023 101.193 237.414 101.172C236.799 101.161 236.263 101.315 235.805 101.633C235.352 101.945 235.068 102.359 234.953 102.875H234.039C234.143 102.135 234.523 101.534 235.18 101.07C235.836 100.602 236.612 100.372 237.508 100.383C238.378 100.404 239.047 100.667 239.516 101.172C239.99 101.677 240.182 102.333 240.094 103.141L239.391 107.391L239.328 108.07C239.312 108.352 239.333 108.63 239.391 108.906L239.375 109H238.414ZM235.648 108.336C236.221 108.357 236.768 108.221 237.289 107.93C237.815 107.633 238.25 107.214 238.594 106.672L238.914 104.805L237.422 104.797C236.474 104.797 235.701 104.966 235.102 105.305C234.503 105.638 234.172 106.117 234.109 106.742C234.062 107.201 234.182 107.578 234.469 107.875C234.76 108.172 235.154 108.326 235.648 108.336ZM248.891 104.812C248.708 106.156 248.279 107.224 247.602 108.016C246.93 108.807 246.096 109.19 245.102 109.164C244.549 109.154 244.062 109.031 243.641 108.797C243.224 108.562 242.904 108.245 242.68 107.844L242.414 109H241.539L243.625 97H244.547L243.664 101.773C244.388 100.82 245.302 100.359 246.406 100.391C247.214 100.411 247.836 100.711 248.273 101.289C248.711 101.867 248.938 102.667 248.953 103.688C248.958 104.021 248.943 104.341 248.906 104.648L248.891 104.812ZM247.977 104.633L248.031 103.891C248.047 103.042 247.898 102.385 247.586 101.922C247.273 101.458 246.807 101.216 246.188 101.195C245.047 101.174 244.154 101.753 243.508 102.93L242.867 106.758C243.018 107.263 243.276 107.654 243.641 107.93C244.01 108.201 244.458 108.344 244.984 108.359C245.76 108.375 246.409 108.076 246.93 107.461C247.456 106.841 247.805 105.898 247.977 104.633ZM251.273 109H250.336L252.422 97H253.359L251.273 109ZM257.148 109.156C256.471 109.146 255.885 108.958 255.391 108.594C254.896 108.224 254.531 107.724 254.297 107.094C254.068 106.458 253.987 105.773 254.055 105.039L254.078 104.773C254.151 103.992 254.383 103.25 254.773 102.547C255.164 101.839 255.659 101.299 256.258 100.93C256.857 100.555 257.497 100.375 258.18 100.391C258.81 100.401 259.341 100.573 259.773 100.906C260.211 101.24 260.529 101.703 260.727 102.297C260.924 102.891 260.987 103.547 260.914 104.266L260.852 104.836H255L254.977 105.023C254.898 105.591 254.94 106.135 255.102 106.656C255.263 107.172 255.526 107.583 255.891 107.891C256.26 108.193 256.703 108.349 257.219 108.359C257.719 108.375 258.169 108.279 258.57 108.07C258.971 107.862 259.341 107.583 259.68 107.234L260.227 107.68C259.846 108.169 259.393 108.542 258.867 108.797C258.346 109.047 257.773 109.167 257.148 109.156ZM258.133 101.188C257.456 101.161 256.849 101.401 256.312 101.906C255.776 102.411 255.372 103.122 255.102 104.039L260.008 104.047L260.031 103.93C260.125 103.19 259.995 102.555 259.641 102.023C259.286 101.487 258.784 101.208 258.133 101.188ZM267.234 106.797C267.318 106.078 266.88 105.557 265.922 105.234L264.578 104.836C263.344 104.419 262.76 103.724 262.828 102.75C262.865 102.047 263.188 101.477 263.797 101.039C264.411 100.596 265.141 100.38 265.984 100.391C266.812 100.401 267.484 100.635 268 101.094C268.516 101.547 268.755 102.154 268.719 102.914H267.797C267.828 102.409 267.669 101.997 267.32 101.68C266.977 101.362 266.518 101.198 265.945 101.188C265.352 101.188 264.852 101.328 264.445 101.609C264.039 101.885 263.81 102.253 263.758 102.711C263.68 103.383 264.091 103.854 264.992 104.125L265.969 104.406L266.492 104.586C267.669 105.029 268.224 105.75 268.156 106.75C268.115 107.427 267.82 107.984 267.273 108.422C266.732 108.854 266.031 109.096 265.172 109.148L264.852 109.156C264.284 109.146 263.771 109.036 263.312 108.828C262.854 108.615 262.503 108.318 262.258 107.938C262.013 107.557 261.906 107.12 261.938 106.625L262.867 106.633C262.867 107.164 263.047 107.583 263.406 107.891C263.766 108.198 264.26 108.357 264.891 108.367C265.516 108.367 266.047 108.227 266.484 107.945C266.922 107.659 267.172 107.276 267.234 106.797ZM272.117 105.859C272.185 105.286 272.344 104.779 272.594 104.336C272.844 103.893 273.227 103.453 273.742 103.016C274.258 102.578 274.62 102.237 274.828 101.992C275.042 101.742 275.214 101.484 275.344 101.219C275.479 100.948 275.562 100.651 275.594 100.328C275.661 99.7396 275.56 99.2578 275.289 98.8828C275.023 98.5078 274.612 98.3099 274.055 98.2891C273.456 98.2786 272.948 98.4505 272.531 98.8047C272.12 99.1536 271.846 99.6458 271.711 100.281L270.812 100.289C270.938 99.4245 271.305 98.7318 271.914 98.2109C272.523 97.6901 273.26 97.4401 274.125 97.4609C274.922 97.4818 275.542 97.7526 275.984 98.2734C276.432 98.7943 276.617 99.4766 276.539 100.32C276.445 101.294 275.909 102.221 274.93 103.102L274.047 103.844C273.495 104.339 273.138 105.005 272.977 105.844L272.117 105.859ZM271.469 108.453C271.484 108.276 271.555 108.128 271.68 108.008C271.805 107.883 271.958 107.818 272.141 107.812C272.323 107.807 272.471 107.867 272.586 107.992C272.701 108.117 272.753 108.271 272.742 108.453C272.727 108.625 272.654 108.771 272.523 108.891C272.393 109.005 272.242 109.065 272.07 109.07C271.888 109.076 271.74 109.021 271.625 108.906C271.51 108.786 271.458 108.635 271.469 108.453ZM278.414 100.43L277.859 99.9922C278.411 99.3464 278.755 98.6979 278.891 98.0469L279.078 97H279.992L279.852 97.8906C279.69 98.9115 279.211 99.7578 278.414 100.43ZM280.266 100.43L279.711 99.9922C280.263 99.3464 280.607 98.6979 280.742 98.0469L280.93 97H281.844L281.703 97.8906C281.542 98.9115 281.062 99.7578 280.266 100.43ZM123.406 144.734L124.453 145.375C124.214 145.729 124 146.089 123.812 146.453C123.625 146.812 123.49 147.206 123.406 147.633L123.203 148.812H121.453L121.609 147.781C121.797 146.573 122.396 145.557 123.406 144.734ZM126 144.734L127.047 145.375C126.807 145.729 126.594 146.089 126.406 146.453C126.219 146.812 126.083 147.206 126 147.633L125.797 148.812H124.047L124.203 147.781C124.391 146.573 124.99 145.557 126 144.734ZM126.539 157L128.516 145.625L131.781 145.633C132.547 145.648 133.234 145.823 133.844 146.156C134.458 146.484 134.956 146.958 135.336 147.578C135.716 148.198 135.945 148.896 136.023 149.672C136.065 150.125 136.06 150.589 136.008 151.062L135.953 151.477C135.724 153.143 135.068 154.482 133.984 155.492C132.906 156.497 131.596 157 130.055 157H126.539ZM130.477 147.523L129.156 155.117L130.109 155.125C131.161 155.125 132.005 154.74 132.641 153.969C133.281 153.198 133.648 152.034 133.742 150.477L133.758 150.227C133.773 149.367 133.609 148.708 133.266 148.25C132.922 147.792 132.409 147.552 131.727 147.531L130.477 147.523ZM141.461 157C141.393 156.786 141.365 156.531 141.375 156.234C140.74 156.87 140.021 157.177 139.219 157.156C138.479 157.146 137.865 156.906 137.375 156.438C136.891 155.964 136.664 155.38 136.695 154.688C136.732 153.766 137.117 153.06 137.852 152.57C138.591 152.076 139.581 151.828 140.82 151.828L141.852 151.844L141.961 151.336C141.992 151.164 142 151 141.984 150.844C141.958 150.599 141.865 150.409 141.703 150.273C141.547 150.133 141.339 150.06 141.078 150.055C140.734 150.044 140.443 150.13 140.203 150.312C139.964 150.49 139.81 150.747 139.742 151.086L137.531 151.094C137.568 150.286 137.938 149.633 138.641 149.133C139.349 148.628 140.221 148.38 141.258 148.391C142.216 148.411 142.966 148.698 143.508 149.25C144.049 149.797 144.276 150.503 144.188 151.367L143.539 155.414L143.5 155.914C143.49 156.284 143.534 156.596 143.633 156.852L143.625 157H141.461ZM139.766 155.445C140.401 155.466 140.956 155.19 141.43 154.617L141.703 153.156L140.938 153.148C140.125 153.169 139.539 153.417 139.18 153.891C139.049 154.062 138.969 154.273 138.938 154.523C138.896 154.805 138.953 155.029 139.109 155.195C139.271 155.357 139.49 155.44 139.766 155.445ZM149.445 146.469L149.078 148.547H150.484L150.195 150.203H148.789L148.07 154.438C148.039 154.703 148.06 154.906 148.133 155.047C148.206 155.188 148.383 155.263 148.664 155.273C148.747 155.279 148.971 155.266 149.336 155.234L149.18 156.961C148.789 157.091 148.367 157.151 147.914 157.141C147.19 157.13 146.651 156.904 146.297 156.461C145.943 156.018 145.797 155.419 145.859 154.664L146.586 150.203H145.391L145.68 148.547H146.875L147.234 146.469H149.445ZM155.195 157C155.128 156.786 155.099 156.531 155.109 156.234C154.474 156.87 153.755 157.177 152.953 157.156C152.214 157.146 151.599 156.906 151.109 156.438C150.625 155.964 150.398 155.38 150.43 154.688C150.466 153.766 150.852 153.06 151.586 152.57C152.326 152.076 153.315 151.828 154.555 151.828L155.586 151.844L155.695 151.336C155.727 151.164 155.734 151 155.719 150.844C155.693 150.599 155.599 150.409 155.438 150.273C155.281 150.133 155.073 150.06 154.812 150.055C154.469 150.044 154.177 150.13 153.938 150.312C153.698 150.49 153.544 150.747 153.477 151.086L151.266 151.094C151.302 150.286 151.672 149.633 152.375 149.133C153.083 148.628 153.956 148.38 154.992 148.391C155.951 148.411 156.701 148.698 157.242 149.25C157.784 149.797 158.01 150.503 157.922 151.367L157.273 155.414L157.234 155.914C157.224 156.284 157.268 156.596 157.367 156.852L157.359 157H155.195ZM153.5 155.445C154.135 155.466 154.69 155.19 155.164 154.617L155.438 153.156L154.672 153.148C153.859 153.169 153.273 153.417 152.914 153.891C152.784 154.062 152.703 154.273 152.672 154.523C152.63 154.805 152.688 155.029 152.844 155.195C153.005 155.357 153.224 155.44 153.5 155.445ZM163.672 153.039H159.391L159.703 151.219H163.992L163.672 153.039ZM169 148.383C169.786 148.404 170.422 148.719 170.906 149.328L171.734 145H173.945L171.867 157H169.898L170.023 156.094C169.393 156.828 168.659 157.185 167.82 157.164C167.294 157.159 166.833 157.021 166.438 156.75C166.042 156.479 165.734 156.091 165.516 155.586C165.302 155.076 165.185 154.508 165.164 153.883C165.148 153.555 165.156 153.237 165.188 152.93L165.234 152.578C165.359 151.714 165.599 150.953 165.953 150.297C166.312 149.641 166.75 149.154 167.266 148.836C167.786 148.518 168.365 148.367 169 148.383ZM167.398 152.93C167.357 153.326 167.344 153.659 167.359 153.93C167.411 154.846 167.781 155.312 168.469 155.328C169.089 155.354 169.628 155.062 170.086 154.453L170.688 151.094C170.484 150.536 170.078 150.245 169.469 150.219C168.932 150.203 168.484 150.411 168.125 150.844C167.771 151.271 167.529 151.966 167.398 152.93ZM179.422 150.664C179.12 150.612 178.872 150.586 178.68 150.586C177.893 150.565 177.271 150.859 176.812 151.469L175.836 157H173.633L175.102 148.547L177.172 148.539L176.969 149.57C177.5 148.773 178.156 148.375 178.938 148.375C179.156 148.375 179.411 148.411 179.703 148.484L179.422 150.664ZM181.711 157H179.492L180.961 148.547H183.18L181.711 157ZM181.219 146.398C181.208 146.049 181.323 145.76 181.562 145.531C181.802 145.302 182.091 145.188 182.43 145.188C182.763 145.177 183.052 145.279 183.297 145.492C183.542 145.706 183.669 145.982 183.68 146.32C183.69 146.643 183.581 146.924 183.352 147.164C183.128 147.404 182.833 147.529 182.469 147.539C182.141 147.549 181.852 147.451 181.602 147.242C181.357 147.034 181.229 146.753 181.219 146.398ZM187.141 154.211L189.547 148.547H191.922L187.836 157H185.727L184.281 148.547H186.516L187.141 154.211ZM195.414 157.156C194.674 157.151 194.018 156.971 193.445 156.617C192.878 156.258 192.453 155.768 192.172 155.148C191.891 154.523 191.781 153.836 191.844 153.086L191.867 152.773C191.945 151.951 192.185 151.195 192.586 150.508C192.987 149.82 193.503 149.292 194.133 148.922C194.763 148.547 195.461 148.37 196.227 148.391C197.315 148.411 198.138 148.812 198.695 149.594C199.258 150.37 199.471 151.354 199.336 152.547L199.211 153.508H194.031C194.01 154.055 194.143 154.492 194.43 154.82C194.716 155.148 195.107 155.318 195.602 155.328C196.404 155.349 197.107 155.039 197.711 154.398L198.719 155.648C198.401 156.128 197.943 156.503 197.344 156.773C196.745 157.039 196.102 157.167 195.414 157.156ZM196.117 150.211C195.711 150.201 195.349 150.328 195.031 150.594C194.719 150.859 194.438 151.32 194.188 151.977H197.219L197.266 151.773C197.297 151.565 197.299 151.367 197.273 151.18C197.221 150.878 197.094 150.643 196.891 150.477C196.688 150.305 196.43 150.216 196.117 150.211ZM203.352 148.539L203.164 149.539C203.841 148.753 204.661 148.37 205.625 148.391C206.422 148.406 207.01 148.698 207.391 149.266C207.771 149.833 207.909 150.62 207.805 151.625L206.914 157H204.711L205.617 151.602C205.643 151.398 205.648 151.214 205.633 151.047C205.565 150.516 205.232 150.242 204.633 150.227C204.055 150.206 203.536 150.474 203.078 151.031L202.023 157H199.82L201.289 148.547L203.352 148.539ZM215.734 152.992L215.031 157H212.742L214.719 145.625L218.703 145.633C219.932 145.633 220.898 145.974 221.602 146.656C222.305 147.339 222.612 148.229 222.523 149.328C222.44 150.443 221.974 151.333 221.125 152C220.281 152.667 219.203 153 217.891 153L215.734 152.992ZM216.055 151.094L217.961 151.109C218.576 151.109 219.086 150.951 219.492 150.633C219.898 150.315 220.141 149.885 220.219 149.344C220.297 148.802 220.208 148.37 219.953 148.047C219.703 147.724 219.331 147.552 218.836 147.531L216.68 147.523L216.055 151.094ZM226.055 149.484C226.716 148.745 227.479 148.38 228.344 148.391C229.182 148.411 229.797 148.714 230.188 149.297C230.583 149.875 230.732 150.667 230.633 151.672L229.742 157H227.539L228.438 151.648C228.464 151.445 228.469 151.258 228.453 151.086C228.401 150.523 228.073 150.234 227.469 150.219C226.875 150.198 226.354 150.453 225.906 150.984L224.844 157H222.641L224.719 145H226.93L226.055 149.484ZM233.789 157H231.57L233.039 148.547H235.258L233.789 157ZM233.297 146.398C233.286 146.049 233.401 145.76 233.641 145.531C233.88 145.302 234.169 145.188 234.508 145.188C234.841 145.177 235.13 145.279 235.375 145.492C235.62 145.706 235.747 145.982 235.758 146.32C235.768 146.643 235.659 146.924 235.43 147.164C235.206 147.404 234.911 147.529 234.547 147.539C234.219 147.549 233.93 147.451 233.68 147.242C233.435 147.034 233.307 146.753 233.297 146.398ZM237.992 157H235.773L237.859 145H240.07L237.992 157ZM247.836 157.156C247.096 157.151 246.44 156.971 245.867 156.617C245.299 156.258 244.875 155.768 244.594 155.148C244.312 154.523 244.203 153.836 244.266 153.086L244.289 152.773C244.367 151.951 244.607 151.195 245.008 150.508C245.409 149.82 245.924 149.292 246.555 148.922C247.185 148.547 247.883 148.37 248.648 148.391C249.737 148.411 250.56 148.812 251.117 149.594C251.68 150.37 251.893 151.354 251.758 152.547L251.633 153.508H246.453C246.432 154.055 246.565 154.492 246.852 154.82C247.138 155.148 247.529 155.318 248.023 155.328C248.826 155.349 249.529 155.039 250.133 154.398L251.141 155.648C250.823 156.128 250.365 156.503 249.766 156.773C249.167 157.039 248.523 157.167 247.836 157.156ZM248.539 150.211C248.133 150.201 247.771 150.328 247.453 150.594C247.141 150.859 246.859 151.32 246.609 151.977H249.641L249.688 151.773C249.719 151.565 249.721 151.367 249.695 151.18C249.643 150.878 249.516 150.643 249.312 150.477C249.109 150.305 248.852 150.216 248.539 150.211ZM257.18 157C257.112 156.786 257.083 156.531 257.094 156.234C256.458 156.87 255.74 157.177 254.938 157.156C254.198 157.146 253.583 156.906 253.094 156.438C252.609 155.964 252.383 155.38 252.414 154.688C252.451 153.766 252.836 153.06 253.57 152.57C254.31 152.076 255.299 151.828 256.539 151.828L257.57 151.844L257.68 151.336C257.711 151.164 257.719 151 257.703 150.844C257.677 150.599 257.583 150.409 257.422 150.273C257.266 150.133 257.057 150.06 256.797 150.055C256.453 150.044 256.161 150.13 255.922 150.312C255.682 150.49 255.529 150.747 255.461 151.086L253.25 151.094C253.286 150.286 253.656 149.633 254.359 149.133C255.068 148.628 255.94 148.38 256.977 148.391C257.935 148.411 258.685 148.698 259.227 149.25C259.768 149.797 259.995 150.503 259.906 151.367L259.258 155.414L259.219 155.914C259.208 156.284 259.253 156.596 259.352 156.852L259.344 157H257.18ZM255.484 155.445C256.12 155.466 256.674 155.19 257.148 154.617L257.422 153.156L256.656 153.148C255.844 153.169 255.258 153.417 254.898 153.891C254.768 154.062 254.688 154.273 254.656 154.523C254.615 154.805 254.672 155.029 254.828 155.195C254.99 155.357 255.208 155.44 255.484 155.445ZM265.164 146.469L264.797 148.547H266.203L265.914 150.203H264.508L263.789 154.438C263.758 154.703 263.779 154.906 263.852 155.047C263.924 155.188 264.102 155.263 264.383 155.273C264.466 155.279 264.69 155.266 265.055 155.234L264.898 156.961C264.508 157.091 264.086 157.151 263.633 157.141C262.909 157.13 262.37 156.904 262.016 156.461C261.661 156.018 261.516 155.419 261.578 154.664L262.305 150.203H261.109L261.398 148.547H262.594L262.953 146.469H265.164ZM270.922 154.617C271.005 154.201 270.716 153.898 270.055 153.711L269.344 153.531C267.661 153.068 266.844 152.25 266.891 151.078C266.917 150.281 267.268 149.633 267.945 149.133C268.628 148.628 269.448 148.38 270.406 148.391C271.359 148.401 272.13 148.654 272.719 149.148C273.307 149.643 273.607 150.302 273.617 151.125L271.43 151.117C271.44 150.393 271.081 150.026 270.352 150.016C270.008 150.016 269.708 150.102 269.453 150.273C269.203 150.445 269.049 150.677 268.992 150.969C268.914 151.385 269.229 151.68 269.938 151.852L270.25 151.922C270.969 152.094 271.518 152.292 271.898 152.516C272.279 152.734 272.57 153.008 272.773 153.336C272.982 153.664 273.078 154.057 273.062 154.516C273.047 155.052 272.872 155.521 272.539 155.922C272.211 156.323 271.758 156.633 271.18 156.852C270.607 157.07 270.003 157.172 269.367 157.156C268.43 157.146 267.648 156.878 267.023 156.352C266.398 155.82 266.081 155.135 266.07 154.297L268.148 154.312C268.169 155.12 268.602 155.529 269.445 155.539C269.852 155.539 270.185 155.456 270.445 155.289C270.711 155.122 270.87 154.898 270.922 154.617ZM281.172 152.992L280.469 157H278.18L280.156 145.625L284.141 145.633C285.37 145.633 286.336 145.974 287.039 146.656C287.742 147.339 288.049 148.229 287.961 149.328C287.878 150.443 287.411 151.333 286.562 152C285.719 152.667 284.641 153 283.328 153L281.172 152.992ZM281.492 151.094L283.398 151.109C284.013 151.109 284.523 150.951 284.93 150.633C285.336 150.315 285.578 149.885 285.656 149.344C285.734 148.802 285.646 148.37 285.391 148.047C285.141 147.724 284.768 147.552 284.273 147.531L282.117 147.523L281.492 151.094ZM290.461 157H288.242L289.711 148.547H291.93L290.461 157ZM289.969 146.398C289.958 146.049 290.073 145.76 290.312 145.531C290.552 145.302 290.841 145.188 291.18 145.188C291.513 145.177 291.802 145.279 292.047 145.492C292.292 145.706 292.419 145.982 292.43 146.32C292.44 146.643 292.331 146.924 292.102 147.164C291.878 147.404 291.583 147.529 291.219 147.539C290.891 147.549 290.602 147.451 290.352 147.242C290.107 147.034 289.979 146.753 289.969 146.398ZM295.891 154.211L298.297 148.547H300.672L296.586 157H294.477L293.031 148.547H295.266L295.891 154.211ZM304.969 148.391C305.714 148.401 306.354 148.594 306.891 148.969C307.432 149.339 307.828 149.852 308.078 150.508C308.333 151.159 308.424 151.883 308.352 152.68C308.232 154.023 307.763 155.112 306.945 155.945C306.133 156.773 305.128 157.177 303.93 157.156C303.195 157.146 302.56 156.958 302.023 156.594C301.487 156.224 301.091 155.714 300.836 155.062C300.581 154.411 300.49 153.693 300.562 152.906C300.698 151.51 301.172 150.401 301.984 149.578C302.797 148.755 303.792 148.359 304.969 148.391ZM302.742 153.711C302.753 154.211 302.87 154.607 303.094 154.898C303.318 155.185 303.633 155.333 304.039 155.344C304.716 155.365 305.247 155.055 305.633 154.414C306.018 153.768 306.198 152.922 306.172 151.875C306.151 151.375 306.029 150.977 305.805 150.68C305.586 150.378 305.271 150.221 304.859 150.211C304.203 150.19 303.677 150.5 303.281 151.141C302.891 151.776 302.711 152.633 302.742 153.711ZM313.461 146.469L313.094 148.547H314.5L314.211 150.203H312.805L312.086 154.438C312.055 154.703 312.076 154.906 312.148 155.047C312.221 155.188 312.398 155.263 312.68 155.273C312.763 155.279 312.987 155.266 313.352 155.234L313.195 156.961C312.805 157.091 312.383 157.151 311.93 157.141C311.206 157.13 310.667 156.904 310.312 156.461C309.958 156.018 309.812 155.419 309.875 154.664L310.602 150.203H309.406L309.695 148.547H310.891L311.25 146.469H313.461ZM123.727 179.344C124.133 179.354 124.471 179.245 124.742 179.016C125.013 178.781 125.19 178.471 125.273 178.086L127.344 178.078C127.307 178.672 127.12 179.206 126.781 179.68C126.448 180.154 126 180.523 125.438 180.789C124.88 181.055 124.292 181.18 123.672 181.164C122.646 181.148 121.833 180.794 121.234 180.102C120.635 179.409 120.346 178.487 120.367 177.336L120.391 176.906L120.398 176.82C120.539 175.445 121.003 174.357 121.789 173.555C122.576 172.747 123.547 172.359 124.703 172.391C125.656 172.411 126.411 172.724 126.969 173.328C127.531 173.927 127.807 174.719 127.797 175.703H125.742C125.742 175.25 125.643 174.893 125.445 174.633C125.247 174.372 124.951 174.232 124.555 174.211C123.503 174.18 122.865 174.948 122.641 176.516C122.562 177.083 122.534 177.562 122.555 177.953C122.607 178.865 122.997 179.328 123.727 179.344ZM131.555 173.484C132.216 172.745 132.979 172.38 133.844 172.391C134.682 172.411 135.297 172.714 135.688 173.297C136.083 173.875 136.232 174.667 136.133 175.672L135.242 181H133.039L133.938 175.648C133.964 175.445 133.969 175.258 133.953 175.086C133.901 174.523 133.573 174.234 132.969 174.219C132.375 174.198 131.854 174.453 131.406 174.984L130.344 181H128.141L130.219 169H132.43L131.555 173.484ZM141.852 181C141.784 180.786 141.755 180.531 141.766 180.234C141.13 180.87 140.411 181.177 139.609 181.156C138.87 181.146 138.255 180.906 137.766 180.438C137.281 179.964 137.055 179.38 137.086 178.688C137.122 177.766 137.508 177.06 138.242 176.57C138.982 176.076 139.971 175.828 141.211 175.828L142.242 175.844L142.352 175.336C142.383 175.164 142.391 175 142.375 174.844C142.349 174.599 142.255 174.409 142.094 174.273C141.938 174.133 141.729 174.06 141.469 174.055C141.125 174.044 140.833 174.13 140.594 174.312C140.354 174.49 140.201 174.747 140.133 175.086L137.922 175.094C137.958 174.286 138.328 173.633 139.031 173.133C139.74 172.628 140.612 172.38 141.648 172.391C142.607 172.411 143.357 172.698 143.898 173.25C144.44 173.797 144.667 174.503 144.578 175.367L143.93 179.414L143.891 179.914C143.88 180.284 143.924 180.596 144.023 180.852L144.016 181H141.852ZM140.156 179.445C140.792 179.466 141.346 179.19 141.82 178.617L142.094 177.156L141.328 177.148C140.516 177.169 139.93 177.417 139.57 177.891C139.44 178.062 139.359 178.273 139.328 178.523C139.286 178.805 139.344 179.029 139.5 179.195C139.661 179.357 139.88 179.44 140.156 179.445ZM151.156 174.664C150.854 174.612 150.607 174.586 150.414 174.586C149.628 174.565 149.005 174.859 148.547 175.469L147.57 181H145.367L146.836 172.547L148.906 172.539L148.703 173.57C149.234 172.773 149.891 172.375 150.672 172.375C150.891 172.375 151.146 172.411 151.438 172.484L151.156 174.664ZM155.977 170.469L155.609 172.547H157.016L156.727 174.203H155.32L154.602 178.438C154.57 178.703 154.591 178.906 154.664 179.047C154.737 179.188 154.914 179.263 155.195 179.273C155.279 179.279 155.503 179.266 155.867 179.234L155.711 180.961C155.32 181.091 154.898 181.151 154.445 181.141C153.721 181.13 153.182 180.904 152.828 180.461C152.474 180.018 152.328 179.419 152.391 178.664L153.117 174.203H151.922L152.211 172.547H153.406L153.766 170.469H155.977ZM161.734 178.617C161.818 178.201 161.529 177.898 160.867 177.711L160.156 177.531C158.474 177.068 157.656 176.25 157.703 175.078C157.729 174.281 158.081 173.633 158.758 173.133C159.44 172.628 160.26 172.38 161.219 172.391C162.172 172.401 162.943 172.654 163.531 173.148C164.12 173.643 164.419 174.302 164.43 175.125L162.242 175.117C162.253 174.393 161.893 174.026 161.164 174.016C160.82 174.016 160.521 174.102 160.266 174.273C160.016 174.445 159.862 174.677 159.805 174.969C159.727 175.385 160.042 175.68 160.75 175.852L161.062 175.922C161.781 176.094 162.331 176.292 162.711 176.516C163.091 176.734 163.383 177.008 163.586 177.336C163.794 177.664 163.891 178.057 163.875 178.516C163.859 179.052 163.685 179.521 163.352 179.922C163.023 180.323 162.57 180.633 161.992 180.852C161.419 181.07 160.815 181.172 160.18 181.156C159.242 181.146 158.461 180.878 157.836 180.352C157.211 179.82 156.893 179.135 156.883 178.297L158.961 178.312C158.982 179.12 159.414 179.529 160.258 179.539C160.664 179.539 160.997 179.456 161.258 179.289C161.523 179.122 161.682 178.898 161.734 178.617ZM169.445 181L170.625 174.203H169.406L169.695 172.547L170.914 172.539L171.023 171.695C171.159 170.794 171.526 170.089 172.125 169.578C172.724 169.062 173.487 168.81 174.414 168.82C174.732 168.831 175.13 168.885 175.609 168.984L175.414 170.742C175.164 170.68 174.948 170.648 174.766 170.648C174.375 170.643 174.039 170.742 173.758 170.945C173.482 171.148 173.31 171.453 173.242 171.859L173.125 172.547H174.758L174.469 174.203H172.844L171.664 181H169.445ZM179.328 172.391C180.073 172.401 180.714 172.594 181.25 172.969C181.792 173.339 182.188 173.852 182.438 174.508C182.693 175.159 182.784 175.883 182.711 176.68C182.591 178.023 182.122 179.112 181.305 179.945C180.492 180.773 179.487 181.177 178.289 181.156C177.555 181.146 176.919 180.958 176.383 180.594C175.846 180.224 175.451 179.714 175.195 179.062C174.94 178.411 174.849 177.693 174.922 176.906C175.057 175.51 175.531 174.401 176.344 173.578C177.156 172.755 178.151 172.359 179.328 172.391ZM177.102 177.711C177.112 178.211 177.229 178.607 177.453 178.898C177.677 179.185 177.992 179.333 178.398 179.344C179.076 179.365 179.607 179.055 179.992 178.414C180.378 177.768 180.557 176.922 180.531 175.875C180.51 175.375 180.388 174.977 180.164 174.68C179.945 174.378 179.63 174.221 179.219 174.211C178.562 174.19 178.036 174.5 177.641 175.141C177.25 175.776 177.07 176.633 177.102 177.711ZM189.141 174.664C188.839 174.612 188.591 174.586 188.398 174.586C187.612 174.565 186.99 174.859 186.531 175.469L185.555 181H183.352L184.82 172.547L186.891 172.539L186.688 173.57C187.219 172.773 187.875 172.375 188.656 172.375C188.875 172.375 189.13 172.411 189.422 172.484L189.141 174.664ZM201.18 176.797C201.023 178.13 200.617 179.198 199.961 180C199.305 180.802 198.456 181.19 197.414 181.164C196.523 181.143 195.846 180.784 195.383 180.086L195.062 181H193.055L195.133 169H197.344L196.492 173.32C197.086 172.68 197.773 172.37 198.555 172.391C199.372 172.401 200.013 172.695 200.477 173.273C200.945 173.846 201.195 174.641 201.227 175.656C201.237 175.979 201.221 176.359 201.18 176.797ZM198.992 176.633C199.039 176.19 199.055 175.846 199.039 175.602C198.982 174.695 198.607 174.234 197.914 174.219C197.263 174.198 196.724 174.492 196.297 175.102L195.688 178.461C195.885 179.023 196.307 179.315 196.953 179.336C198.036 179.367 198.701 178.581 198.945 176.977L198.992 176.633ZM207.656 174.664C207.354 174.612 207.107 174.586 206.914 174.586C206.128 174.565 205.505 174.859 205.047 175.469L204.07 181H201.867L203.336 172.547L205.406 172.539L205.203 173.57C205.734 172.773 206.391 172.375 207.172 172.375C207.391 172.375 207.646 172.411 207.938 172.484L207.656 174.664ZM211.477 181.156C210.737 181.151 210.081 180.971 209.508 180.617C208.94 180.258 208.516 179.768 208.234 179.148C207.953 178.523 207.844 177.836 207.906 177.086L207.93 176.773C208.008 175.951 208.247 175.195 208.648 174.508C209.049 173.82 209.565 173.292 210.195 172.922C210.826 172.547 211.523 172.37 212.289 172.391C213.378 172.411 214.201 172.812 214.758 173.594C215.32 174.37 215.534 175.354 215.398 176.547L215.273 177.508H210.094C210.073 178.055 210.206 178.492 210.492 178.82C210.779 179.148 211.169 179.318 211.664 179.328C212.466 179.349 213.169 179.039 213.773 178.398L214.781 179.648C214.464 180.128 214.005 180.503 213.406 180.773C212.807 181.039 212.164 181.167 211.477 181.156ZM212.18 174.211C211.773 174.201 211.411 174.328 211.094 174.594C210.781 174.859 210.5 175.32 210.25 175.977H213.281L213.328 175.773C213.359 175.565 213.362 175.367 213.336 175.18C213.284 174.878 213.156 174.643 212.953 174.477C212.75 174.305 212.492 174.216 212.18 174.211ZM220.82 181C220.753 180.786 220.724 180.531 220.734 180.234C220.099 180.87 219.38 181.177 218.578 181.156C217.839 181.146 217.224 180.906 216.734 180.438C216.25 179.964 216.023 179.38 216.055 178.688C216.091 177.766 216.477 177.06 217.211 176.57C217.951 176.076 218.94 175.828 220.18 175.828L221.211 175.844L221.32 175.336C221.352 175.164 221.359 175 221.344 174.844C221.318 174.599 221.224 174.409 221.062 174.273C220.906 174.133 220.698 174.06 220.438 174.055C220.094 174.044 219.802 174.13 219.562 174.312C219.323 174.49 219.169 174.747 219.102 175.086L216.891 175.094C216.927 174.286 217.297 173.633 218 173.133C218.708 172.628 219.581 172.38 220.617 172.391C221.576 172.411 222.326 172.698 222.867 173.25C223.409 173.797 223.635 174.503 223.547 175.367L222.898 179.414L222.859 179.914C222.849 180.284 222.893 180.596 222.992 180.852L222.984 181H220.82ZM219.125 179.445C219.76 179.466 220.315 179.19 220.789 178.617L221.062 177.156L220.297 177.148C219.484 177.169 218.898 177.417 218.539 177.891C218.409 178.062 218.328 178.273 218.297 178.523C218.255 178.805 218.312 179.029 218.469 179.195C218.63 179.357 218.849 179.44 219.125 179.445ZM227.992 177.633L226.969 178.523L226.539 181H224.336L226.414 169H228.625L227.484 175.516L227.914 175.055L230.422 172.547H233.25L229.555 176.18L231.906 181H229.492L227.992 177.633ZM233.305 181L234.484 174.203H233.266L233.555 172.547L234.773 172.539L234.883 171.695C235.018 170.794 235.385 170.089 235.984 169.578C236.583 169.062 237.346 168.81 238.273 168.82C238.591 168.831 238.99 168.885 239.469 168.984L239.273 170.742C239.023 170.68 238.807 170.648 238.625 170.648C238.234 170.643 237.898 170.742 237.617 170.945C237.341 171.148 237.169 171.453 237.102 171.859L236.984 172.547H238.617L238.328 174.203H236.703L235.523 181H233.305ZM243.242 181C243.174 180.786 243.146 180.531 243.156 180.234C242.521 180.87 241.802 181.177 241 181.156C240.26 181.146 239.646 180.906 239.156 180.438C238.672 179.964 238.445 179.38 238.477 178.688C238.513 177.766 238.898 177.06 239.633 176.57C240.372 176.076 241.362 175.828 242.602 175.828L243.633 175.844L243.742 175.336C243.773 175.164 243.781 175 243.766 174.844C243.74 174.599 243.646 174.409 243.484 174.273C243.328 174.133 243.12 174.06 242.859 174.055C242.516 174.044 242.224 174.13 241.984 174.312C241.745 174.49 241.591 174.747 241.523 175.086L239.312 175.094C239.349 174.286 239.719 173.633 240.422 173.133C241.13 172.628 242.003 172.38 243.039 172.391C243.997 172.411 244.747 172.698 245.289 173.25C245.831 173.797 246.057 174.503 245.969 175.367L245.32 179.414L245.281 179.914C245.271 180.284 245.315 180.596 245.414 180.852L245.406 181H243.242ZM241.547 179.445C242.182 179.466 242.737 179.19 243.211 178.617L243.484 177.156L242.719 177.148C241.906 177.169 241.32 177.417 240.961 177.891C240.831 178.062 240.75 178.273 240.719 178.523C240.677 178.805 240.734 179.029 240.891 179.195C241.052 179.357 241.271 179.44 241.547 179.445ZM251.656 178.617C251.74 178.201 251.451 177.898 250.789 177.711L250.078 177.531C248.396 177.068 247.578 176.25 247.625 175.078C247.651 174.281 248.003 173.633 248.68 173.133C249.362 172.628 250.182 172.38 251.141 172.391C252.094 172.401 252.865 172.654 253.453 173.148C254.042 173.643 254.341 174.302 254.352 175.125L252.164 175.117C252.174 174.393 251.815 174.026 251.086 174.016C250.742 174.016 250.443 174.102 250.188 174.273C249.938 174.445 249.784 174.677 249.727 174.969C249.648 175.385 249.964 175.68 250.672 175.852L250.984 175.922C251.703 176.094 252.253 176.292 252.633 176.516C253.013 176.734 253.305 177.008 253.508 177.336C253.716 177.664 253.812 178.057 253.797 178.516C253.781 179.052 253.607 179.521 253.273 179.922C252.945 180.323 252.492 180.633 251.914 180.852C251.341 181.07 250.737 181.172 250.102 181.156C249.164 181.146 248.383 180.878 247.758 180.352C247.133 179.82 246.815 179.135 246.805 178.297L248.883 178.312C248.904 179.12 249.336 179.529 250.18 179.539C250.586 179.539 250.919 179.456 251.18 179.289C251.445 179.122 251.604 178.898 251.656 178.617ZM259.289 170.469L258.922 172.547H260.328L260.039 174.203H258.633L257.914 178.438C257.883 178.703 257.904 178.906 257.977 179.047C258.049 179.188 258.227 179.263 258.508 179.273C258.591 179.279 258.815 179.266 259.18 179.234L259.023 180.961C258.633 181.091 258.211 181.151 257.758 181.141C257.034 181.13 256.495 180.904 256.141 180.461C255.786 180.018 255.641 179.419 255.703 178.664L256.43 174.203H255.234L255.523 172.547H256.719L257.078 170.469H259.289ZM262.461 173.133L261.344 172.477C261.88 171.706 262.216 171.029 262.352 170.445L262.609 169H264.367L264.188 170.156C264.01 171.307 263.435 172.299 262.461 173.133ZM265.086 173.133L263.969 172.477C264.505 171.706 264.841 171.029 264.977 170.445L265.234 169H266.992L266.812 170.156C266.635 171.307 266.06 172.299 265.086 173.133Z" fill="black"/>
<defs>
<linearGradient id="paint0_linear" x1="38.4262" y1="83.8388" x2="55.935" y2="114.161" gradientUnits="userSpaceOnUse">
<stop stop-color="#18884F"/>
<stop offset="0.5" stop-color="#117E43"/>
<stop offset="1" stop-color="#0B6631"/>
</linearGradient>
</defs>
</svg>
