<svg width="330" height="232" viewBox="0 0 330 232" fill="none" xmlns="http://www.w3.org/2000/svg">
<path d="M0 7C0 3.13401 3.13401 0 7 0H323C326.866 0 330 3.13401 330 7V225C330 228.866 326.866 232 323 232H6.99999C3.134 232 0 228.866 0 225V7Z" fill="white"/>
<path d="M69.5625 96.75C75.0508 96.75 79.5 92.3008 79.5 86.8125C79.5 81.3242 75.0508 76.875 69.5625 76.875C64.0742 76.875 59.625 81.3242 59.625 86.8125C59.625 92.3008 64.0742 96.75 69.5625 96.75Z" fill="#19BCFE"/>
<path fill-rule="evenodd" clip-rule="evenodd" d="M49.6875 116.625C52.3231 116.625 54.8507 115.578 56.7144 113.714C58.578 111.851 59.625 109.323 59.625 106.688V96.75H49.6875C47.0519 96.75 44.5243 97.797 42.6606 99.6606C40.797 101.524 39.75 104.052 39.75 106.688C39.75 109.323 40.797 111.851 42.6606 113.714C44.5243 115.578 47.0519 116.625 49.6875 116.625V116.625Z" fill="#09CF83"/>
<path fill-rule="evenodd" clip-rule="evenodd" d="M49.6875 96.75H59.625V76.875H49.6875C47.0519 76.875 44.5243 77.922 42.6606 79.7856C40.797 81.6493 39.75 84.1769 39.75 86.8125C39.75 89.4481 40.797 91.9757 42.6606 93.8394C44.5243 95.703 47.0519 96.75 49.6875 96.75V96.75Z" fill="#A259FF"/>
<path fill-rule="evenodd" clip-rule="evenodd" d="M49.6875 76.875H59.625V57H49.6875C47.0519 57 44.5243 58.047 42.6606 59.9106C40.797 61.7743 39.75 64.3019 39.75 66.9375C39.75 69.5731 40.797 72.1007 42.6606 73.9644C44.5243 75.828 47.0519 76.875 49.6875 76.875V76.875Z" fill="#F24E1E"/>
<path fill-rule="evenodd" clip-rule="evenodd" d="M69.5625 76.875H59.625V57H69.5625C72.1981 57 74.7257 58.047 76.5894 59.9106C78.453 61.7743 79.5 64.3019 79.5 66.9375C79.5 69.5731 78.453 72.1007 76.5894 73.9644C74.7257 75.828 72.1981 76.875 69.5625 76.875Z" fill="#FF7262"/>
<path d="M42.2812 160.297C42.1667 161.51 41.7188 162.458 40.9375 163.141C40.1562 163.818 39.1172 164.156 37.8203 164.156C36.9141 164.156 36.1146 163.943 35.4219 163.516C34.7344 163.083 34.2031 162.471 33.8281 161.68C33.4531 160.888 33.2578 159.969 33.2422 158.922V157.859C33.2422 156.786 33.4323 155.841 33.8125 155.023C34.1927 154.206 34.737 153.576 35.4453 153.133C36.1589 152.69 36.9818 152.469 37.9141 152.469C39.1693 152.469 40.1797 152.81 40.9453 153.492C41.7109 154.174 42.1562 155.138 42.2812 156.383H40.3125C40.2188 155.565 39.9792 154.977 39.5938 154.617C39.2135 154.253 38.6536 154.07 37.9141 154.07C37.0547 154.07 36.3932 154.385 35.9297 155.016C35.4714 155.641 35.237 156.56 35.2266 157.773V158.781C35.2266 160.01 35.4453 160.948 35.8828 161.594C36.3255 162.24 36.9714 162.562 37.8203 162.562C38.5964 162.562 39.1797 162.388 39.5703 162.039C39.9609 161.69 40.2083 161.109 40.3125 160.297H42.2812ZM48.9219 164C48.8385 163.839 48.7656 163.576 48.7031 163.211C48.099 163.841 47.3594 164.156 46.4844 164.156C45.6354 164.156 44.9427 163.914 44.4062 163.43C43.8698 162.945 43.6016 162.346 43.6016 161.633C43.6016 160.732 43.9349 160.042 44.6016 159.562C45.2734 159.078 46.2318 158.836 47.4766 158.836H48.6406V158.281C48.6406 157.844 48.5182 157.495 48.2734 157.234C48.0286 156.969 47.6562 156.836 47.1562 156.836C46.724 156.836 46.3698 156.945 46.0938 157.164C45.8177 157.378 45.6797 157.651 45.6797 157.984H43.7812C43.7812 157.521 43.9349 157.089 44.2422 156.688C44.5495 156.281 44.9661 155.964 45.4922 155.734C46.0234 155.505 46.6146 155.391 47.2656 155.391C48.2552 155.391 49.0443 155.641 49.6328 156.141C50.2214 156.635 50.5234 157.333 50.5391 158.234V162.047C50.5391 162.807 50.6458 163.414 50.8594 163.867V164H48.9219ZM46.8359 162.633C47.2109 162.633 47.5625 162.542 47.8906 162.359C48.224 162.177 48.474 161.932 48.6406 161.625V160.031H47.6172C46.9141 160.031 46.3854 160.154 46.0312 160.398C45.6771 160.643 45.5 160.99 45.5 161.438C45.5 161.802 45.6198 162.094 45.8594 162.312C46.1042 162.526 46.4297 162.633 46.8359 162.633ZM59.9297 159.859C59.9297 161.167 59.6328 162.211 59.0391 162.992C58.4453 163.768 57.6484 164.156 56.6484 164.156C55.7214 164.156 54.9792 163.852 54.4219 163.242V167.25H52.5234V155.547H54.2734L54.3516 156.406C54.9089 155.729 55.6667 155.391 56.625 155.391C57.6562 155.391 58.4635 155.776 59.0469 156.547C59.6354 157.312 59.9297 158.378 59.9297 159.742V159.859ZM58.0391 159.695C58.0391 158.852 57.8698 158.182 57.5312 157.688C57.1979 157.193 56.7188 156.945 56.0938 156.945C55.3177 156.945 54.7604 157.266 54.4219 157.906V161.656C54.7656 162.312 55.3281 162.641 56.1094 162.641C56.7135 162.641 57.1849 162.398 57.5234 161.914C57.8672 161.424 58.0391 160.685 58.0391 159.695ZM63.9219 153.492V155.547H65.4141V156.953H63.9219V161.672C63.9219 161.995 63.9844 162.229 64.1094 162.375C64.2396 162.516 64.4688 162.586 64.7969 162.586C65.0156 162.586 65.237 162.56 65.4609 162.508V163.977C65.0286 164.096 64.612 164.156 64.2109 164.156C62.7526 164.156 62.0234 163.352 62.0234 161.742V156.953H60.6328V155.547H62.0234V153.492H63.9219ZM71.9219 164C71.8385 163.839 71.7656 163.576 71.7031 163.211C71.099 163.841 70.3594 164.156 69.4844 164.156C68.6354 164.156 67.9427 163.914 67.4062 163.43C66.8698 162.945 66.6016 162.346 66.6016 161.633C66.6016 160.732 66.9349 160.042 67.6016 159.562C68.2734 159.078 69.2318 158.836 70.4766 158.836H71.6406V158.281C71.6406 157.844 71.5182 157.495 71.2734 157.234C71.0286 156.969 70.6562 156.836 70.1562 156.836C69.724 156.836 69.3698 156.945 69.0938 157.164C68.8177 157.378 68.6797 157.651 68.6797 157.984H66.7812C66.7812 157.521 66.9349 157.089 67.2422 156.688C67.5495 156.281 67.9661 155.964 68.4922 155.734C69.0234 155.505 69.6146 155.391 70.2656 155.391C71.2552 155.391 72.0443 155.641 72.6328 156.141C73.2214 156.635 73.5234 157.333 73.5391 158.234V162.047C73.5391 162.807 73.6458 163.414 73.8594 163.867V164H71.9219ZM69.8359 162.633C70.2109 162.633 70.5625 162.542 70.8906 162.359C71.224 162.177 71.474 161.932 71.6406 161.625V160.031H70.6172C69.9141 160.031 69.3854 160.154 69.0312 160.398C68.6771 160.643 68.5 160.99 68.5 161.438C68.5 161.802 68.6198 162.094 68.8594 162.312C69.1042 162.526 69.4297 162.633 69.8359 162.633ZM77.5469 164H75.6484V155.547H77.5469V164ZM75.5312 153.352C75.5312 153.06 75.6224 152.818 75.8047 152.625C75.9922 152.432 76.2578 152.336 76.6016 152.336C76.9453 152.336 77.2109 152.432 77.3984 152.625C77.5859 152.818 77.6797 153.06 77.6797 153.352C77.6797 153.638 77.5859 153.878 77.3984 154.07C77.2109 154.258 76.9453 154.352 76.6016 154.352C76.2578 154.352 75.9922 154.258 75.8047 154.07C75.6224 153.878 75.5312 153.638 75.5312 153.352ZM81.3828 155.547L81.4375 156.523C82.0625 155.768 82.8828 155.391 83.8984 155.391C85.6589 155.391 86.5547 156.398 86.5859 158.414V164H84.6875V158.523C84.6875 157.987 84.5703 157.591 84.3359 157.336C84.1068 157.076 83.7292 156.945 83.2031 156.945C82.4375 156.945 81.8672 157.292 81.4922 157.984V164H79.5938V155.547H81.3828ZM45.4375 183.18H40.8594V188H38.8828V176.625H46.1094V178.219H40.8594V181.602H45.4375V183.18ZM49.5156 188H47.6172V179.547H49.5156V188ZM47.5 177.352C47.5 177.06 47.5911 176.818 47.7734 176.625C47.9609 176.432 48.2266 176.336 48.5703 176.336C48.9141 176.336 49.1797 176.432 49.3672 176.625C49.5547 176.818 49.6484 177.06 49.6484 177.352C49.6484 177.638 49.5547 177.878 49.3672 178.07C49.1797 178.258 48.9141 178.352 48.5703 178.352C48.2266 178.352 47.9609 178.258 47.7734 178.07C47.5911 177.878 47.5 177.638 47.5 177.352ZM51.2578 183.711C51.2578 182.398 51.5651 181.352 52.1797 180.57C52.7995 179.784 53.6198 179.391 54.6406 179.391C55.6042 179.391 56.362 179.727 56.9141 180.398L57 179.547H58.7109V187.742C58.7109 188.852 58.3646 189.727 57.6719 190.367C56.9844 191.008 56.0547 191.328 54.8828 191.328C54.263 191.328 53.6562 191.198 53.0625 190.938C52.474 190.682 52.026 190.346 51.7188 189.93L52.6172 188.789C53.2005 189.482 53.9193 189.828 54.7734 189.828C55.4036 189.828 55.901 189.656 56.2656 189.312C56.6302 188.974 56.8125 188.474 56.8125 187.812V187.242C56.2656 187.852 55.5365 188.156 54.625 188.156C53.6354 188.156 52.8255 187.763 52.1953 186.977C51.5703 186.19 51.2578 185.102 51.2578 183.711ZM53.1484 183.875C53.1484 184.724 53.3203 185.393 53.6641 185.883C54.013 186.367 54.4948 186.609 55.1094 186.609C55.875 186.609 56.4427 186.281 56.8125 185.625V181.906C56.4531 181.266 55.8906 180.945 55.125 180.945C54.5 180.945 54.013 181.193 53.6641 181.688C53.3203 182.182 53.1484 182.911 53.1484 183.875ZM62.4531 179.547L62.5078 180.43C63.1016 179.737 63.9141 179.391 64.9453 179.391C66.0755 179.391 66.849 179.823 67.2656 180.688C67.8802 179.823 68.7448 179.391 69.8594 179.391C70.7917 179.391 71.4844 179.648 71.9375 180.164C72.3958 180.68 72.6302 181.44 72.6406 182.445V188H70.7422V182.5C70.7422 181.964 70.625 181.57 70.3906 181.32C70.1562 181.07 69.7682 180.945 69.2266 180.945C68.7943 180.945 68.4401 181.062 68.1641 181.297C67.8932 181.526 67.7031 181.828 67.5938 182.203L67.6016 188H65.7031V182.438C65.6771 181.443 65.1693 180.945 64.1797 180.945C63.4193 180.945 62.8802 181.255 62.5625 181.875V188H60.6641V179.547H62.4531ZM79.6406 188C79.5573 187.839 79.4844 187.576 79.4219 187.211C78.8177 187.841 78.0781 188.156 77.2031 188.156C76.3542 188.156 75.6615 187.914 75.125 187.43C74.5885 186.945 74.3203 186.346 74.3203 185.633C74.3203 184.732 74.6536 184.042 75.3203 183.562C75.9922 183.078 76.9505 182.836 78.1953 182.836H79.3594V182.281C79.3594 181.844 79.237 181.495 78.9922 181.234C78.7474 180.969 78.375 180.836 77.875 180.836C77.4427 180.836 77.0885 180.945 76.8125 181.164C76.5365 181.378 76.3984 181.651 76.3984 181.984H74.5C74.5 181.521 74.6536 181.089 74.9609 180.688C75.2682 180.281 75.6849 179.964 76.2109 179.734C76.7422 179.505 77.3333 179.391 77.9844 179.391C78.974 179.391 79.763 179.641 80.3516 180.141C80.9401 180.635 81.2422 181.333 81.2578 182.234V186.047C81.2578 186.807 81.3646 187.414 81.5781 187.867V188H79.6406ZM77.5547 186.633C77.9297 186.633 78.2812 186.542 78.6094 186.359C78.9427 186.177 79.1927 185.932 79.3594 185.625V184.031H78.3359C77.6328 184.031 77.1042 184.154 76.75 184.398C76.3958 184.643 76.2188 184.99 76.2188 185.438C76.2188 185.802 76.3385 186.094 76.5781 186.312C76.8229 186.526 77.1484 186.633 77.5547 186.633Z" fill="black"/>
<path d="M123.047 36.8516L123.586 37.2734C123.039 37.9036 122.695 38.5391 122.555 39.1797L122.367 40.2422H121.445L121.578 39.3906C121.734 38.3906 122.224 37.5443 123.047 36.8516ZM124.945 36.8516L125.484 37.2734C124.938 37.9036 124.594 38.5391 124.453 39.1797L124.266 40.2422H123.344L123.477 39.3906C123.633 38.3906 124.122 37.5443 124.945 36.8516ZM127.047 44.3672L126.242 49H125.289L127.266 37.625L130.969 37.6328C132.031 37.6641 132.852 37.9792 133.43 38.5781C134.008 39.1719 134.253 39.9688 134.164 40.9688C134.06 42.0312 133.63 42.8646 132.875 43.4688C132.12 44.0729 131.135 44.375 129.922 44.375L127.047 44.3672ZM127.188 43.5547L129.961 43.5625C130.862 43.5625 131.604 43.3333 132.188 42.875C132.771 42.4167 133.112 41.7839 133.211 40.9766C133.294 40.2057 133.128 39.599 132.711 39.1562C132.299 38.7083 131.711 38.474 130.945 38.4531L128.078 38.4453L127.188 43.5547ZM136.805 41.9766C137.617 40.8984 138.576 40.3698 139.68 40.3906C140.492 40.4115 141.083 40.6953 141.453 41.2422C141.823 41.7891 141.953 42.5417 141.844 43.5L140.922 49H140L140.922 43.4844C140.953 43.1875 140.958 42.901 140.938 42.625C140.849 41.6979 140.344 41.2214 139.422 41.1953C138.875 41.1849 138.365 41.349 137.891 41.6875C137.417 42.0208 137 42.526 136.641 43.2031L135.641 49H134.719L136.805 37H137.727L136.805 41.9766ZM144.352 49H143.414L144.891 40.5469H145.82L144.352 49ZM145.148 38.1016C145.174 37.763 145.398 37.5495 145.82 37.4609C146.023 37.4974 146.167 37.5625 146.25 37.6562C146.339 37.7448 146.396 37.8932 146.422 38.1016C146.37 38.2995 146.294 38.4453 146.195 38.5391C146.096 38.6276 145.948 38.6927 145.75 38.7344C145.328 38.6719 145.128 38.4609 145.148 38.1016ZM147.914 49H146.977L149.062 37H150L147.914 49ZM149.945 51.1328L149.422 50.7031C150.021 50.0156 150.378 49.3281 150.492 48.6406L150.68 47.5312H151.586L151.414 48.6562C151.242 49.6354 150.753 50.4609 149.945 51.1328ZM159.656 47.0547V47.7188L159.961 46.9922L163.047 40.5469H163.844L164.68 47.0078L164.727 47.8047L165.047 47L167.844 40.5469H168.836L164.977 49H164.18L163.25 42.2969L163.242 41.8281L163.062 42.3047L159.828 49H159.031L158.133 40.5469L159.008 40.5391L159.656 47.0547ZM171.211 41.9766C172.023 40.8984 172.982 40.3698 174.086 40.3906C174.898 40.4115 175.49 40.6953 175.859 41.2422C176.229 41.7891 176.359 42.5417 176.25 43.5L175.328 49H174.406L175.328 43.4844C175.359 43.1875 175.365 42.901 175.344 42.625C175.255 41.6979 174.75 41.2214 173.828 41.1953C173.281 41.1849 172.771 41.349 172.297 41.6875C171.823 42.0208 171.406 42.526 171.047 43.2031L170.047 49H169.125L171.211 37H172.133L171.211 41.9766ZM180.547 47.625L184.164 40.5469H185.203L180.047 50.3594C179.667 51.1198 179.263 51.6589 178.836 51.9766C178.414 52.2943 177.943 52.4479 177.422 52.4375C177.224 52.4271 176.974 52.3854 176.672 52.3125L176.766 51.5469L177.234 51.6016C178.109 51.638 178.799 51.1224 179.305 50.0547L179.898 48.875L178.266 40.5469H179.242L180.547 47.625ZM189.406 44.75C189.526 43.8646 189.768 43.0807 190.133 42.3984C190.497 41.7109 190.943 41.2005 191.469 40.8672C192 40.5339 192.594 40.375 193.25 40.3906C193.75 40.401 194.206 40.5182 194.617 40.7422C195.029 40.9609 195.354 41.2943 195.594 41.7422L196.453 37H197.375L195.289 49H194.422L194.633 47.875C193.898 48.7604 192.987 49.1875 191.898 49.1562C191.112 49.1354 190.495 48.8307 190.047 48.2422C189.604 47.6484 189.372 46.8516 189.352 45.8516C189.341 45.5286 189.354 45.2161 189.391 44.9141L189.406 44.75ZM190.344 44.9062C190.302 45.2552 190.286 45.6276 190.297 46.0234C190.318 46.737 190.482 47.2995 190.789 47.7109C191.102 48.1172 191.544 48.3307 192.117 48.3516C192.695 48.3672 193.203 48.2344 193.641 47.9531C194.078 47.6719 194.448 47.2969 194.75 46.8281L195.43 42.8438C195.279 42.3385 195.029 41.9427 194.68 41.6562C194.336 41.3646 193.896 41.2109 193.359 41.1953C192.568 41.1693 191.906 41.474 191.375 42.1094C190.849 42.7396 190.51 43.6172 190.359 44.7422L190.344 44.9062ZM197.961 44.6953C198.055 43.8776 198.305 43.1302 198.711 42.4531C199.117 41.7708 199.622 41.2526 200.227 40.8984C200.836 40.5443 201.495 40.375 202.203 40.3906C202.901 40.401 203.495 40.5938 203.984 40.9688C204.479 41.3385 204.839 41.8464 205.062 42.4922C205.292 43.1328 205.37 43.8438 205.297 44.625L205.281 44.7734C205.125 46.1068 204.651 47.1771 203.859 47.9844C203.073 48.7917 202.128 49.1823 201.023 49.1562C200.076 49.1406 199.318 48.7917 198.75 48.1094C198.182 47.4271 197.904 46.526 197.914 45.4062L197.938 44.9609L197.961 44.6953ZM198.867 44.9609C198.799 45.5807 198.844 46.1536 199 46.6797C199.161 47.2005 199.417 47.6094 199.766 47.9062C200.115 48.2031 200.549 48.3594 201.07 48.375C201.633 48.3854 202.146 48.2422 202.609 47.9453C203.078 47.6484 203.464 47.2292 203.766 46.6875C204.068 46.1458 204.263 45.5469 204.352 44.8906L204.375 44.6328C204.469 43.6276 204.312 42.8073 203.906 42.1719C203.505 41.5312 202.922 41.2031 202.156 41.1875C201.323 41.1615 200.602 41.4844 199.992 42.1562C199.388 42.8229 199.018 43.7109 198.883 44.8203L198.867 44.9609ZM213.203 47.625L216.82 40.5469H217.859L212.703 50.3594C212.323 51.1198 211.919 51.6589 211.492 51.9766C211.07 52.2943 210.599 52.4479 210.078 52.4375C209.88 52.4271 209.63 52.3854 209.328 52.3125L209.422 51.5469L209.891 51.6016C210.766 51.638 211.456 51.1224 211.961 50.0547L212.555 48.875L210.922 40.5469H211.898L213.203 47.625ZM217.93 44.6953C218.023 43.8776 218.273 43.1302 218.68 42.4531C219.086 41.7708 219.591 41.2526 220.195 40.8984C220.805 40.5443 221.464 40.375 222.172 40.3906C222.87 40.401 223.464 40.5938 223.953 40.9688C224.448 41.3385 224.807 41.8464 225.031 42.4922C225.26 43.1328 225.339 43.8438 225.266 44.625L225.25 44.7734C225.094 46.1068 224.62 47.1771 223.828 47.9844C223.042 48.7917 222.096 49.1823 220.992 49.1562C220.044 49.1406 219.286 48.7917 218.719 48.1094C218.151 47.4271 217.872 46.526 217.883 45.4062L217.906 44.9609L217.93 44.6953ZM218.836 44.9609C218.768 45.5807 218.812 46.1536 218.969 46.6797C219.13 47.2005 219.385 47.6094 219.734 47.9062C220.083 48.2031 220.518 48.3594 221.039 48.375C221.602 48.3854 222.115 48.2422 222.578 47.9453C223.047 47.6484 223.432 47.2292 223.734 46.6875C224.036 46.1458 224.232 45.5469 224.32 44.8906L224.344 44.6328C224.438 43.6276 224.281 42.8073 223.875 42.1719C223.474 41.5312 222.891 41.2031 222.125 41.1875C221.292 41.1615 220.57 41.4844 219.961 42.1562C219.357 42.8229 218.987 43.7109 218.852 44.8203L218.836 44.9609ZM232.094 47.9375C231.422 48.7812 230.495 49.1875 229.312 49.1562C228.516 49.1406 227.922 48.8542 227.531 48.2969C227.141 47.7344 227 46.9557 227.109 45.9609L228.016 40.5469H228.938L228.039 45.9844C228.008 46.2656 228.005 46.5443 228.031 46.8203C228.068 47.2995 228.211 47.6693 228.461 47.9297C228.711 48.1901 229.055 48.3281 229.492 48.3438C230.117 48.3698 230.695 48.2266 231.227 47.9141C231.758 47.5964 232.102 47.1823 232.258 46.6719L233.305 40.5469H234.242L232.773 49H231.867L232.094 47.9375ZM242.227 48.375C242.841 48.3958 243.383 48.2266 243.852 47.8672C244.326 47.5026 244.641 47.013 244.797 46.3984H245.68C245.523 47.237 245.112 47.9141 244.445 48.4297C243.784 48.9401 243.029 49.1849 242.18 49.1641C241.497 49.1484 240.924 48.9609 240.461 48.6016C239.997 48.2422 239.661 47.7448 239.453 47.1094C239.25 46.474 239.185 45.7578 239.258 44.9609L239.289 44.625C239.352 44.0781 239.484 43.5469 239.688 43.0312C239.896 42.5156 240.172 42.0599 240.516 41.6641C240.859 41.263 241.268 40.9479 241.742 40.7188C242.221 40.4844 242.76 40.375 243.359 40.3906C244.224 40.4115 244.911 40.7031 245.422 41.2656C245.932 41.8281 246.172 42.5417 246.141 43.4062L245.258 43.3984C245.268 42.7474 245.099 42.2214 244.75 41.8203C244.401 41.4193 243.924 41.2083 243.32 41.1875C242.674 41.1667 242.104 41.3542 241.609 41.75C241.115 42.1458 240.742 42.7057 240.492 43.4297C240.242 44.1536 240.125 44.9219 240.141 45.7344C240.156 46.5729 240.344 47.2188 240.703 47.6719C241.062 48.1198 241.57 48.3542 242.227 48.375ZM252.195 41.3359C251.992 41.2943 251.786 41.2708 251.578 41.2656C250.984 41.2656 250.44 41.4479 249.945 41.8125C249.451 42.1719 249.12 42.6302 248.953 43.1875L247.953 49H247.031L248.5 40.5469H249.414L249.133 41.8906C249.44 41.3906 249.81 41.0104 250.242 40.75C250.68 40.4896 251.159 40.3646 251.68 40.375C251.862 40.375 252.076 40.4115 252.32 40.4844L252.195 41.3359ZM255.523 49.1562C254.846 49.1458 254.26 48.9583 253.766 48.5938C253.271 48.224 252.906 47.724 252.672 47.0938C252.443 46.4583 252.362 45.7734 252.43 45.0391L252.453 44.7734C252.526 43.9922 252.758 43.25 253.148 42.5469C253.539 41.8385 254.034 41.2995 254.633 40.9297C255.232 40.5547 255.872 40.375 256.555 40.3906C257.185 40.401 257.716 40.5729 258.148 40.9062C258.586 41.2396 258.904 41.7031 259.102 42.2969C259.299 42.8906 259.362 43.5469 259.289 44.2656L259.227 44.8359H253.375L253.352 45.0234C253.273 45.5911 253.315 46.1354 253.477 46.6562C253.638 47.1719 253.901 47.5833 254.266 47.8906C254.635 48.1927 255.078 48.349 255.594 48.3594C256.094 48.375 256.544 48.2786 256.945 48.0703C257.346 47.862 257.716 47.5833 258.055 47.2344L258.602 47.6797C258.221 48.1693 257.768 48.5417 257.242 48.7969C256.721 49.0469 256.148 49.1667 255.523 49.1562ZM256.508 41.1875C255.831 41.1615 255.224 41.401 254.688 41.9062C254.151 42.4115 253.747 43.1224 253.477 44.0391L258.383 44.0469L258.406 43.9297C258.5 43.1901 258.37 42.5547 258.016 42.0234C257.661 41.487 257.159 41.2083 256.508 41.1875ZM265.523 49C265.497 48.8021 265.49 48.6042 265.5 48.4062L265.57 47.8203C265.18 48.2422 264.732 48.5729 264.227 48.8125C263.727 49.0521 263.185 49.1667 262.602 49.1562C261.888 49.1458 261.307 48.9219 260.859 48.4844C260.417 48.0417 260.219 47.487 260.266 46.8203C260.307 46.263 260.497 45.7812 260.836 45.375C261.18 44.9635 261.667 44.6458 262.297 44.4219C262.927 44.1927 263.633 44.0781 264.414 44.0781L266.141 44.0859L266.281 43.1172C266.344 42.5391 266.219 42.0755 265.906 41.7266C265.594 41.3776 265.133 41.1927 264.523 41.1719C263.909 41.1615 263.372 41.3151 262.914 41.6328C262.461 41.9453 262.177 42.3594 262.062 42.875H261.148C261.253 42.1354 261.633 41.5339 262.289 41.0703C262.945 40.6016 263.721 40.3724 264.617 40.3828C265.487 40.4036 266.156 40.6667 266.625 41.1719C267.099 41.6771 267.292 42.3333 267.203 43.1406L266.5 47.3906L266.438 48.0703C266.422 48.3516 266.443 48.6302 266.5 48.9062L266.484 49H265.523ZM262.758 48.3359C263.331 48.3568 263.878 48.2214 264.398 47.9297C264.924 47.6328 265.359 47.2135 265.703 46.6719L266.023 44.8047L264.531 44.7969C263.583 44.7969 262.81 44.9661 262.211 45.3047C261.612 45.638 261.281 46.1172 261.219 46.7422C261.172 47.2005 261.292 47.5781 261.578 47.875C261.87 48.1719 262.263 48.3255 262.758 48.3359ZM271.93 38.3828L271.555 40.5469H273.25L273.117 41.3125H271.422L270.484 46.9531L270.469 47.4375C270.469 48.0052 270.729 48.2969 271.25 48.3125C271.411 48.3177 271.664 48.2995 272.008 48.2578L271.969 49.0234C271.661 49.112 271.349 49.151 271.031 49.1406C270.484 49.1302 270.086 48.9401 269.836 48.5703C269.586 48.1953 269.495 47.6536 269.562 46.9453L270.492 41.3125H268.977L269.117 40.5469H270.617L271 38.3828H271.93ZM277.07 49.1562C276.393 49.1458 275.807 48.9583 275.312 48.5938C274.818 48.224 274.453 47.724 274.219 47.0938C273.99 46.4583 273.909 45.7734 273.977 45.0391L274 44.7734C274.073 43.9922 274.305 43.25 274.695 42.5469C275.086 41.8385 275.581 41.2995 276.18 40.9297C276.779 40.5547 277.419 40.375 278.102 40.3906C278.732 40.401 279.263 40.5729 279.695 40.9062C280.133 41.2396 280.451 41.7031 280.648 42.2969C280.846 42.8906 280.909 43.5469 280.836 44.2656L280.773 44.8359H274.922L274.898 45.0234C274.82 45.5911 274.862 46.1354 275.023 46.6562C275.185 47.1719 275.448 47.5833 275.812 47.8906C276.182 48.1927 276.625 48.349 277.141 48.3594C277.641 48.375 278.091 48.2786 278.492 48.0703C278.893 47.862 279.263 47.5833 279.602 47.2344L280.148 47.6797C279.768 48.1693 279.315 48.5417 278.789 48.7969C278.268 49.0469 277.695 49.1667 277.07 49.1562ZM278.055 41.1875C277.378 41.1615 276.771 41.401 276.234 41.9062C275.698 42.4115 275.294 43.1224 275.023 44.0391L279.93 44.0469L279.953 43.9297C280.047 43.1901 279.917 42.5547 279.562 42.0234C279.208 41.487 278.706 41.2083 278.055 41.1875ZM290.93 49C290.904 48.8021 290.896 48.6042 290.906 48.4062L290.977 47.8203C290.586 48.2422 290.138 48.5729 289.633 48.8125C289.133 49.0521 288.591 49.1667 288.008 49.1562C287.294 49.1458 286.714 48.9219 286.266 48.4844C285.823 48.0417 285.625 47.487 285.672 46.8203C285.714 46.263 285.904 45.7812 286.242 45.375C286.586 44.9635 287.073 44.6458 287.703 44.4219C288.333 44.1927 289.039 44.0781 289.82 44.0781L291.547 44.0859L291.688 43.1172C291.75 42.5391 291.625 42.0755 291.312 41.7266C291 41.3776 290.539 41.1927 289.93 41.1719C289.315 41.1615 288.779 41.3151 288.32 41.6328C287.867 41.9453 287.583 42.3594 287.469 42.875H286.555C286.659 42.1354 287.039 41.5339 287.695 41.0703C288.352 40.6016 289.128 40.3724 290.023 40.3828C290.893 40.4036 291.562 40.6667 292.031 41.1719C292.505 41.6771 292.698 42.3333 292.609 43.1406L291.906 47.3906L291.844 48.0703C291.828 48.3516 291.849 48.6302 291.906 48.9062L291.891 49H290.93ZM288.164 48.3359C288.737 48.3568 289.284 48.2214 289.805 47.9297C290.331 47.6328 290.766 47.2135 291.109 46.6719L291.43 44.8047L289.938 44.7969C288.99 44.7969 288.216 44.9661 287.617 45.3047C287.018 45.638 286.688 46.1172 286.625 46.7422C286.578 47.2005 286.698 47.5781 286.984 47.875C287.276 48.1719 287.669 48.3255 288.164 48.3359ZM295.102 49H294.164L296.25 37H297.188L295.102 49ZM298.664 49H297.727L299.812 37H300.75L298.664 49ZM123.633 62.3828L123.258 64.5469H124.953L124.82 65.3125H123.125L122.188 70.9531L122.172 71.4375C122.172 72.0052 122.432 72.2969 122.953 72.3125C123.115 72.3177 123.367 72.2995 123.711 72.2578L123.672 73.0234C123.365 73.112 123.052 73.151 122.734 73.1406C122.188 73.1302 121.789 72.9401 121.539 72.5703C121.289 72.1953 121.198 71.6536 121.266 70.9453L122.195 65.3125H120.68L120.82 64.5469H122.32L122.703 62.3828H123.633ZM127.508 65.9766C128.32 64.8984 129.279 64.3698 130.383 64.3906C131.195 64.4115 131.786 64.6953 132.156 65.2422C132.526 65.7891 132.656 66.5417 132.547 67.5L131.625 73H130.703L131.625 67.4844C131.656 67.1875 131.661 66.901 131.641 66.625C131.552 65.6979 131.047 65.2214 130.125 65.1953C129.578 65.1849 129.068 65.349 128.594 65.6875C128.12 66.0208 127.703 66.526 127.344 67.2031L126.344 73H125.422L127.508 61H128.43L127.508 65.9766ZM137.367 73.1562C136.69 73.1458 136.104 72.9583 135.609 72.5938C135.115 72.224 134.75 71.724 134.516 71.0938C134.286 70.4583 134.206 69.7734 134.273 69.0391L134.297 68.7734C134.37 67.9922 134.602 67.25 134.992 66.5469C135.383 65.8385 135.878 65.2995 136.477 64.9297C137.076 64.5547 137.716 64.375 138.398 64.3906C139.029 64.401 139.56 64.5729 139.992 64.9062C140.43 65.2396 140.747 65.7031 140.945 66.2969C141.143 66.8906 141.206 67.5469 141.133 68.2656L141.07 68.8359H135.219L135.195 69.0234C135.117 69.5911 135.159 70.1354 135.32 70.6562C135.482 71.1719 135.745 71.5833 136.109 71.8906C136.479 72.1927 136.922 72.349 137.438 72.3594C137.938 72.375 138.388 72.2786 138.789 72.0703C139.19 71.862 139.56 71.5833 139.898 71.2344L140.445 71.6797C140.065 72.1693 139.612 72.5417 139.086 72.7969C138.565 73.0469 137.992 73.1667 137.367 73.1562ZM138.352 65.1875C137.674 65.1615 137.068 65.401 136.531 65.9062C135.995 66.4115 135.591 67.1224 135.32 68.0391L140.227 68.0469L140.25 67.9297C140.344 67.1901 140.214 66.5547 139.859 66.0234C139.505 65.487 139.003 65.2083 138.352 65.1875ZM147.453 70.7969C147.536 70.0781 147.099 69.5573 146.141 69.2344L144.797 68.8359C143.562 68.4193 142.979 67.724 143.047 66.75C143.083 66.0469 143.406 65.4766 144.016 65.0391C144.63 64.5964 145.359 64.3802 146.203 64.3906C147.031 64.401 147.703 64.6354 148.219 65.0938C148.734 65.5469 148.974 66.1536 148.938 66.9141H148.016C148.047 66.4089 147.888 65.9974 147.539 65.6797C147.195 65.362 146.737 65.1979 146.164 65.1875C145.57 65.1875 145.07 65.3281 144.664 65.6094C144.258 65.8854 144.029 66.2526 143.977 66.7109C143.898 67.3828 144.31 67.8542 145.211 68.125L146.188 68.4062L146.711 68.5859C147.888 69.0286 148.443 69.75 148.375 70.75C148.333 71.4271 148.039 71.9844 147.492 72.4219C146.951 72.8542 146.25 73.0964 145.391 73.1484L145.07 73.1562C144.503 73.1458 143.99 73.0365 143.531 72.8281C143.073 72.6146 142.721 72.3177 142.477 71.9375C142.232 71.5573 142.125 71.1198 142.156 70.625L143.086 70.6328C143.086 71.1641 143.266 71.5833 143.625 71.8906C143.984 72.1979 144.479 72.3568 145.109 72.3672C145.734 72.3672 146.266 72.2266 146.703 71.9453C147.141 71.6589 147.391 71.276 147.453 70.7969ZM153.398 73.1562C152.721 73.1458 152.135 72.9583 151.641 72.5938C151.146 72.224 150.781 71.724 150.547 71.0938C150.318 70.4583 150.237 69.7734 150.305 69.0391L150.328 68.7734C150.401 67.9922 150.633 67.25 151.023 66.5469C151.414 65.8385 151.909 65.2995 152.508 64.9297C153.107 64.5547 153.747 64.375 154.43 64.3906C155.06 64.401 155.591 64.5729 156.023 64.9062C156.461 65.2396 156.779 65.7031 156.977 66.2969C157.174 66.8906 157.237 67.5469 157.164 68.2656L157.102 68.8359H151.25L151.227 69.0234C151.148 69.5911 151.19 70.1354 151.352 70.6562C151.513 71.1719 151.776 71.5833 152.141 71.8906C152.51 72.1927 152.953 72.349 153.469 72.3594C153.969 72.375 154.419 72.2786 154.82 72.0703C155.221 71.862 155.591 71.5833 155.93 71.2344L156.477 71.6797C156.096 72.1693 155.643 72.5417 155.117 72.7969C154.596 73.0469 154.023 73.1667 153.398 73.1562ZM154.383 65.1875C153.706 65.1615 153.099 65.401 152.562 65.9062C152.026 66.4115 151.622 67.1224 151.352 68.0391L156.258 68.0469L156.281 67.9297C156.375 67.1901 156.245 66.5547 155.891 66.0234C155.536 65.487 155.034 65.2083 154.383 65.1875ZM165.273 72.375C165.888 72.3958 166.43 72.2266 166.898 71.8672C167.372 71.5026 167.688 71.013 167.844 70.3984H168.727C168.57 71.237 168.159 71.9141 167.492 72.4297C166.831 72.9401 166.076 73.1849 165.227 73.1641C164.544 73.1484 163.971 72.9609 163.508 72.6016C163.044 72.2422 162.708 71.7448 162.5 71.1094C162.297 70.474 162.232 69.7578 162.305 68.9609L162.336 68.625C162.398 68.0781 162.531 67.5469 162.734 67.0312C162.943 66.5156 163.219 66.0599 163.562 65.6641C163.906 65.263 164.315 64.9479 164.789 64.7188C165.268 64.4844 165.807 64.375 166.406 64.3906C167.271 64.4115 167.958 64.7031 168.469 65.2656C168.979 65.8281 169.219 66.5417 169.188 67.4062L168.305 67.3984C168.315 66.7474 168.146 66.2214 167.797 65.8203C167.448 65.4193 166.971 65.2083 166.367 65.1875C165.721 65.1667 165.151 65.3542 164.656 65.75C164.161 66.1458 163.789 66.7057 163.539 67.4297C163.289 68.1536 163.172 68.9219 163.188 69.7344C163.203 70.5729 163.391 71.2188 163.75 71.6719C164.109 72.1198 164.617 72.3542 165.273 72.375ZM170.305 68.6953C170.398 67.8776 170.648 67.1302 171.055 66.4531C171.461 65.7708 171.966 65.2526 172.57 64.8984C173.18 64.5443 173.839 64.375 174.547 64.3906C175.245 64.401 175.839 64.5938 176.328 64.9688C176.823 65.3385 177.182 65.8464 177.406 66.4922C177.635 67.1328 177.714 67.8438 177.641 68.625L177.625 68.7734C177.469 70.1068 176.995 71.1771 176.203 71.9844C175.417 72.7917 174.471 73.1823 173.367 73.1562C172.419 73.1406 171.661 72.7917 171.094 72.1094C170.526 71.4271 170.247 70.526 170.258 69.4062L170.281 68.9609L170.305 68.6953ZM171.211 68.9609C171.143 69.5807 171.188 70.1536 171.344 70.6797C171.505 71.2005 171.76 71.6094 172.109 71.9062C172.458 72.2031 172.893 72.3594 173.414 72.375C173.977 72.3854 174.49 72.2422 174.953 71.9453C175.422 71.6484 175.807 71.2292 176.109 70.6875C176.411 70.1458 176.607 69.5469 176.695 68.8906L176.719 68.6328C176.812 67.6276 176.656 66.8073 176.25 66.1719C175.849 65.5312 175.266 65.2031 174.5 65.1875C173.667 65.1615 172.945 65.4844 172.336 66.1562C171.732 66.8229 171.362 67.7109 171.227 68.8203L171.211 68.9609ZM181.18 64.5469L180.914 65.9219C181.674 64.8802 182.63 64.3698 183.781 64.3906C184.375 64.401 184.867 64.5495 185.258 64.8359C185.654 65.1224 185.898 65.5208 185.992 66.0312C186.378 65.5052 186.826 65.099 187.336 64.8125C187.852 64.5208 188.411 64.3802 189.016 64.3906C189.818 64.4062 190.411 64.6719 190.797 65.1875C191.188 65.6979 191.349 66.4062 191.281 67.3125L191.266 67.4922L190.336 73H189.406L190.328 67.4766C190.359 67.1693 190.362 66.8776 190.336 66.6016C190.232 65.6797 189.706 65.2109 188.758 65.1953C188.122 65.1849 187.536 65.3932 187 65.8203C186.469 66.2422 186.135 66.7708 186 67.4062L185.031 73H184.102L185.039 67.4062C185.19 65.9688 184.661 65.2318 183.453 65.1953C182.854 65.1849 182.297 65.3724 181.781 65.7578C181.266 66.1432 180.919 66.6224 180.742 67.1953L179.742 73H178.812L180.281 64.5469H181.18ZM196.25 73.1641C195.766 73.1536 195.307 73.0521 194.875 72.8594C194.448 72.6615 194.102 72.3542 193.836 71.9375L193.055 76.25H192.133L194.164 64.5469H195.023L194.805 65.7422C195.539 64.8099 196.458 64.3594 197.562 64.3906C198.354 64.4115 198.971 64.7057 199.414 65.2734C199.857 65.8411 200.086 66.6458 200.102 67.6875C200.107 68.0156 200.091 68.3333 200.055 68.6406L200.023 68.8594C199.893 69.7708 199.648 70.5573 199.289 71.2188C198.93 71.8802 198.492 72.375 197.977 72.7031C197.461 73.026 196.885 73.1797 196.25 73.1641ZM199.125 68.6406L199.172 67.8984C199.188 67.0651 199.036 66.4115 198.719 65.9375C198.401 65.4635 197.93 65.2161 197.305 65.1953C196.758 65.1849 196.26 65.3203 195.812 65.6016C195.37 65.8776 194.995 66.2812 194.688 66.8125L193.992 70.8828C194.159 71.362 194.422 71.7266 194.781 71.9766C195.146 72.2266 195.581 72.3594 196.086 72.375C196.841 72.401 197.479 72.1198 198 71.5312C198.526 70.9375 198.88 70.112 199.062 69.0547L199.125 68.6406ZM201.617 68.6953C201.711 67.8776 201.961 67.1302 202.367 66.4531C202.773 65.7708 203.279 65.2526 203.883 64.8984C204.492 64.5443 205.151 64.375 205.859 64.3906C206.557 64.401 207.151 64.5938 207.641 64.9688C208.135 65.3385 208.495 65.8464 208.719 66.4922C208.948 67.1328 209.026 67.8438 208.953 68.625L208.938 68.7734C208.781 70.1068 208.307 71.1771 207.516 71.9844C206.729 72.7917 205.784 73.1823 204.68 73.1562C203.732 73.1406 202.974 72.7917 202.406 72.1094C201.839 71.4271 201.56 70.526 201.57 69.4062L201.594 68.9609L201.617 68.6953ZM202.523 68.9609C202.456 69.5807 202.5 70.1536 202.656 70.6797C202.818 71.2005 203.073 71.6094 203.422 71.9062C203.771 72.2031 204.206 72.3594 204.727 72.375C205.289 72.3854 205.802 72.2422 206.266 71.9453C206.734 71.6484 207.12 71.2292 207.422 70.6875C207.724 70.1458 207.919 69.5469 208.008 68.8906L208.031 68.6328C208.125 67.6276 207.969 66.8073 207.562 66.1719C207.161 65.5312 206.578 65.2031 205.812 65.1875C204.979 65.1615 204.258 65.4844 203.648 66.1562C203.044 66.8229 202.674 67.7109 202.539 68.8203L202.523 68.9609ZM212.531 64.5469L212.25 65.9922C212.625 65.4714 213.057 65.0729 213.547 64.7969C214.042 64.5156 214.57 64.3802 215.133 64.3906C215.945 64.4115 216.536 64.6953 216.906 65.2422C217.276 65.7891 217.406 66.5417 217.297 67.5L216.375 73H215.453L216.375 67.4844C216.406 67.1875 216.411 66.901 216.391 66.625C216.302 65.6979 215.797 65.2214 214.875 65.1953C214.328 65.1849 213.818 65.349 213.344 65.6875C212.87 66.0208 212.453 66.526 212.094 67.2031L211.094 73H210.172L211.641 64.5469H212.531ZM222.133 73.1562C221.456 73.1458 220.87 72.9583 220.375 72.5938C219.88 72.224 219.516 71.724 219.281 71.0938C219.052 70.4583 218.971 69.7734 219.039 69.0391L219.062 68.7734C219.135 67.9922 219.367 67.25 219.758 66.5469C220.148 65.8385 220.643 65.2995 221.242 64.9297C221.841 64.5547 222.482 64.375 223.164 64.3906C223.794 64.401 224.326 64.5729 224.758 64.9062C225.195 65.2396 225.513 65.7031 225.711 66.2969C225.909 66.8906 225.971 67.5469 225.898 68.2656L225.836 68.8359H219.984L219.961 69.0234C219.883 69.5911 219.924 70.1354 220.086 70.6562C220.247 71.1719 220.51 71.5833 220.875 71.8906C221.245 72.1927 221.688 72.349 222.203 72.3594C222.703 72.375 223.154 72.2786 223.555 72.0703C223.956 71.862 224.326 71.5833 224.664 71.2344L225.211 71.6797C224.831 72.1693 224.378 72.5417 223.852 72.7969C223.331 73.0469 222.758 73.1667 222.133 73.1562ZM223.117 65.1875C222.44 65.1615 221.833 65.401 221.297 65.9062C220.76 66.4115 220.357 67.1224 220.086 68.0391L224.992 68.0469L225.016 67.9297C225.109 67.1901 224.979 66.5547 224.625 66.0234C224.271 65.487 223.768 65.2083 223.117 65.1875ZM229.234 64.5469L228.953 65.9922C229.328 65.4714 229.76 65.0729 230.25 64.7969C230.745 64.5156 231.273 64.3802 231.836 64.3906C232.648 64.4115 233.24 64.6953 233.609 65.2422C233.979 65.7891 234.109 66.5417 234 67.5L233.078 73H232.156L233.078 67.4844C233.109 67.1875 233.115 66.901 233.094 66.625C233.005 65.6979 232.5 65.2214 231.578 65.1953C231.031 65.1849 230.521 65.349 230.047 65.6875C229.573 66.0208 229.156 66.526 228.797 67.2031L227.797 73H226.875L228.344 64.5469H229.234ZM238.758 62.3828L238.383 64.5469H240.078L239.945 65.3125H238.25L237.312 70.9531L237.297 71.4375C237.297 72.0052 237.557 72.2969 238.078 72.3125C238.24 72.3177 238.492 72.2995 238.836 72.2578L238.797 73.0234C238.49 73.112 238.177 73.151 237.859 73.1406C237.312 73.1302 236.914 72.9401 236.664 72.5703C236.414 72.1953 236.323 71.6536 236.391 70.9453L237.32 65.3125H235.805L235.945 64.5469H237.445L237.828 62.3828H238.758ZM245.891 70.7969C245.974 70.0781 245.536 69.5573 244.578 69.2344L243.234 68.8359C242 68.4193 241.417 67.724 241.484 66.75C241.521 66.0469 241.844 65.4766 242.453 65.0391C243.068 64.5964 243.797 64.3802 244.641 64.3906C245.469 64.401 246.141 64.6354 246.656 65.0938C247.172 65.5469 247.411 66.1536 247.375 66.9141H246.453C246.484 66.4089 246.326 65.9974 245.977 65.6797C245.633 65.362 245.174 65.1979 244.602 65.1875C244.008 65.1875 243.508 65.3281 243.102 65.6094C242.695 65.8854 242.466 66.2526 242.414 66.7109C242.336 67.3828 242.747 67.8542 243.648 68.125L244.625 68.4062L245.148 68.5859C246.326 69.0286 246.88 69.75 246.812 70.75C246.771 71.4271 246.477 71.9844 245.93 72.4219C245.388 72.8542 244.688 73.0964 243.828 73.1484L243.508 73.1562C242.94 73.1458 242.427 73.0365 241.969 72.8281C241.51 72.6146 241.159 72.3177 240.914 71.9375C240.669 71.5573 240.562 71.1198 240.594 70.625L241.523 70.6328C241.523 71.1641 241.703 71.5833 242.062 71.8906C242.422 72.1979 242.917 72.3568 243.547 72.3672C244.172 72.3672 244.703 72.2266 245.141 71.9453C245.578 71.6589 245.828 71.276 245.891 70.7969ZM257.602 73C257.576 72.8021 257.568 72.6042 257.578 72.4062L257.648 71.8203C257.258 72.2422 256.81 72.5729 256.305 72.8125C255.805 73.0521 255.263 73.1667 254.68 73.1562C253.966 73.1458 253.385 72.9219 252.938 72.4844C252.495 72.0417 252.297 71.487 252.344 70.8203C252.385 70.263 252.576 69.7812 252.914 69.375C253.258 68.9635 253.745 68.6458 254.375 68.4219C255.005 68.1927 255.711 68.0781 256.492 68.0781L258.219 68.0859L258.359 67.1172C258.422 66.5391 258.297 66.0755 257.984 65.7266C257.672 65.3776 257.211 65.1927 256.602 65.1719C255.987 65.1615 255.451 65.3151 254.992 65.6328C254.539 65.9453 254.255 66.3594 254.141 66.875H253.227C253.331 66.1354 253.711 65.5339 254.367 65.0703C255.023 64.6016 255.799 64.3724 256.695 64.3828C257.565 64.4036 258.234 64.6667 258.703 65.1719C259.177 65.6771 259.37 66.3333 259.281 67.1406L258.578 71.3906L258.516 72.0703C258.5 72.3516 258.521 72.6302 258.578 72.9062L258.562 73H257.602ZM254.836 72.3359C255.409 72.3568 255.956 72.2214 256.477 71.9297C257.003 71.6328 257.438 71.2135 257.781 70.6719L258.102 68.8047L256.609 68.7969C255.661 68.7969 254.888 68.9661 254.289 69.3047C253.69 69.638 253.359 70.1172 253.297 70.7422C253.25 71.2005 253.37 71.5781 253.656 71.875C253.948 72.1719 254.341 72.3255 254.836 72.3359ZM263.094 64.5469L262.812 65.9922C263.188 65.4714 263.62 65.0729 264.109 64.7969C264.604 64.5156 265.133 64.3802 265.695 64.3906C266.508 64.4115 267.099 64.6953 267.469 65.2422C267.839 65.7891 267.969 66.5417 267.859 67.5L266.938 73H266.016L266.938 67.4844C266.969 67.1875 266.974 66.901 266.953 66.625C266.865 65.6979 266.359 65.2214 265.438 65.1953C264.891 65.1849 264.38 65.349 263.906 65.6875C263.432 66.0208 263.016 66.526 262.656 67.2031L261.656 73H260.734L262.203 64.5469H263.094ZM269.719 68.75C269.839 67.8646 270.081 67.0807 270.445 66.3984C270.81 65.7109 271.255 65.2005 271.781 64.8672C272.312 64.5339 272.906 64.375 273.562 64.3906C274.062 64.401 274.518 64.5182 274.93 64.7422C275.341 64.9609 275.667 65.2943 275.906 65.7422L276.766 61H277.688L275.602 73H274.734L274.945 71.875C274.211 72.7604 273.299 73.1875 272.211 73.1562C271.424 73.1354 270.807 72.8307 270.359 72.2422C269.917 71.6484 269.685 70.8516 269.664 69.8516C269.654 69.5286 269.667 69.2161 269.703 68.9141L269.719 68.75ZM270.656 68.9062C270.615 69.2552 270.599 69.6276 270.609 70.0234C270.63 70.737 270.794 71.2995 271.102 71.7109C271.414 72.1172 271.857 72.3307 272.43 72.3516C273.008 72.3672 273.516 72.2344 273.953 71.9531C274.391 71.6719 274.76 71.2969 275.062 70.8281L275.742 66.8438C275.591 66.3385 275.341 65.9427 274.992 65.6562C274.648 65.3646 274.208 65.2109 273.672 65.1953C272.88 65.1693 272.219 65.474 271.688 66.1094C271.161 66.7396 270.823 67.6172 270.672 68.7422L270.656 68.9062ZM123.188 95.6797L126.797 88.5469H127.781L123.398 97H122.641L120.883 88.5469H121.805L123.188 95.6797ZM133.039 97C133.013 96.8021 133.005 96.6042 133.016 96.4062L133.086 95.8203C132.695 96.2422 132.247 96.5729 131.742 96.8125C131.242 97.0521 130.701 97.1667 130.117 97.1562C129.404 97.1458 128.823 96.9219 128.375 96.4844C127.932 96.0417 127.734 95.487 127.781 94.8203C127.823 94.263 128.013 93.7812 128.352 93.375C128.695 92.9635 129.182 92.6458 129.812 92.4219C130.443 92.1927 131.148 92.0781 131.93 92.0781L133.656 92.0859L133.797 91.1172C133.859 90.5391 133.734 90.0755 133.422 89.7266C133.109 89.3776 132.648 89.1927 132.039 89.1719C131.424 89.1615 130.888 89.3151 130.43 89.6328C129.977 89.9453 129.693 90.3594 129.578 90.875H128.664C128.768 90.1354 129.148 89.5339 129.805 89.0703C130.461 88.6016 131.237 88.3724 132.133 88.3828C133.003 88.4036 133.672 88.6667 134.141 89.1719C134.615 89.6771 134.807 90.3333 134.719 91.1406L134.016 95.3906L133.953 96.0703C133.938 96.3516 133.958 96.6302 134.016 96.9062L134 97H133.039ZM130.273 96.3359C130.846 96.3568 131.393 96.2214 131.914 95.9297C132.44 95.6328 132.875 95.2135 133.219 94.6719L133.539 92.8047L132.047 92.7969C131.099 92.7969 130.326 92.9661 129.727 93.3047C129.128 93.638 128.797 94.1172 128.734 94.7422C128.688 95.2005 128.807 95.5781 129.094 95.875C129.385 96.1719 129.779 96.3255 130.273 96.3359ZM141.336 89.3359C141.133 89.2943 140.927 89.2708 140.719 89.2656C140.125 89.2656 139.581 89.4479 139.086 89.8125C138.591 90.1719 138.26 90.6302 138.094 91.1875L137.094 97H136.172L137.641 88.5469H138.555L138.273 89.8906C138.581 89.3906 138.951 89.0104 139.383 88.75C139.82 88.4896 140.299 88.3646 140.82 88.375C141.003 88.375 141.216 88.4115 141.461 88.4844L141.336 89.3359ZM142.508 97H141.57L143.047 88.5469H143.977L142.508 97ZM143.305 86.1016C143.331 85.763 143.555 85.5495 143.977 85.4609C144.18 85.4974 144.323 85.5625 144.406 85.6562C144.495 85.7448 144.552 85.8932 144.578 86.1016C144.526 86.2995 144.451 86.4453 144.352 86.5391C144.253 86.6276 144.104 86.6927 143.906 86.7344C143.484 86.6719 143.284 86.4609 143.305 86.1016ZM150.289 97C150.263 96.8021 150.255 96.6042 150.266 96.4062L150.336 95.8203C149.945 96.2422 149.497 96.5729 148.992 96.8125C148.492 97.0521 147.951 97.1667 147.367 97.1562C146.654 97.1458 146.073 96.9219 145.625 96.4844C145.182 96.0417 144.984 95.487 145.031 94.8203C145.073 94.263 145.263 93.7812 145.602 93.375C145.945 92.9635 146.432 92.6458 147.062 92.4219C147.693 92.1927 148.398 92.0781 149.18 92.0781L150.906 92.0859L151.047 91.1172C151.109 90.5391 150.984 90.0755 150.672 89.7266C150.359 89.3776 149.898 89.1927 149.289 89.1719C148.674 89.1615 148.138 89.3151 147.68 89.6328C147.227 89.9453 146.943 90.3594 146.828 90.875H145.914C146.018 90.1354 146.398 89.5339 147.055 89.0703C147.711 88.6016 148.487 88.3724 149.383 88.3828C150.253 88.4036 150.922 88.6667 151.391 89.1719C151.865 89.6771 152.057 90.3333 151.969 91.1406L151.266 95.3906L151.203 96.0703C151.188 96.3516 151.208 96.6302 151.266 96.9062L151.25 97H150.289ZM147.523 96.3359C148.096 96.3568 148.643 96.2214 149.164 95.9297C149.69 95.6328 150.125 95.2135 150.469 94.6719L150.789 92.8047L149.297 92.7969C148.349 92.7969 147.576 92.9661 146.977 93.3047C146.378 93.638 146.047 94.1172 145.984 94.7422C145.938 95.2005 146.057 95.5781 146.344 95.875C146.635 96.1719 147.029 96.3255 147.523 96.3359ZM155.781 88.5469L155.5 89.9922C155.875 89.4714 156.307 89.0729 156.797 88.7969C157.292 88.5156 157.82 88.3802 158.383 88.3906C159.195 88.4115 159.786 88.6953 160.156 89.2422C160.526 89.7891 160.656 90.5417 160.547 91.5L159.625 97H158.703L159.625 91.4844C159.656 91.1875 159.661 90.901 159.641 90.625C159.552 89.6979 159.047 89.2214 158.125 89.1953C157.578 89.1849 157.068 89.349 156.594 89.6875C156.12 90.0208 155.703 90.526 155.344 91.2031L154.344 97H153.422L154.891 88.5469H155.781ZM165.305 86.3828L164.93 88.5469H166.625L166.492 89.3125H164.797L163.859 94.9531L163.844 95.4375C163.844 96.0052 164.104 96.2969 164.625 96.3125C164.786 96.3177 165.039 96.2995 165.383 96.2578L165.344 97.0234C165.036 97.112 164.724 97.151 164.406 97.1406C163.859 97.1302 163.461 96.9401 163.211 96.5703C162.961 96.1953 162.87 95.6536 162.938 94.9453L163.867 89.3125H162.352L162.492 88.5469H163.992L164.375 86.3828H165.305ZM172.438 94.7969C172.521 94.0781 172.083 93.5573 171.125 93.2344L169.781 92.8359C168.547 92.4193 167.964 91.724 168.031 90.75C168.068 90.0469 168.391 89.4766 169 89.0391C169.615 88.5964 170.344 88.3802 171.188 88.3906C172.016 88.401 172.688 88.6354 173.203 89.0938C173.719 89.5469 173.958 90.1536 173.922 90.9141H173C173.031 90.4089 172.872 89.9974 172.523 89.6797C172.18 89.362 171.721 89.1979 171.148 89.1875C170.555 89.1875 170.055 89.3281 169.648 89.6094C169.242 89.8854 169.013 90.2526 168.961 90.7109C168.883 91.3828 169.294 91.8542 170.195 92.125L171.172 92.4062L171.695 92.5859C172.872 93.0286 173.427 93.75 173.359 94.75C173.318 95.4271 173.023 95.9844 172.477 96.4219C171.935 96.8542 171.234 97.0964 170.375 97.1484L170.055 97.1562C169.487 97.1458 168.974 97.0365 168.516 96.8281C168.057 96.6146 167.706 96.3177 167.461 95.9375C167.216 95.5573 167.109 95.1198 167.141 94.625L168.07 94.6328C168.07 95.1641 168.25 95.5833 168.609 95.8906C168.969 96.1979 169.464 96.3568 170.094 96.3672C170.719 96.3672 171.25 96.2266 171.688 95.9453C172.125 95.6589 172.375 95.276 172.438 94.7969ZM186.391 92.375H182.742L182.883 91.5859H186.531L186.391 92.375ZM196.383 97C196.357 96.8021 196.349 96.6042 196.359 96.4062L196.43 95.8203C196.039 96.2422 195.591 96.5729 195.086 96.8125C194.586 97.0521 194.044 97.1667 193.461 97.1562C192.747 97.1458 192.167 96.9219 191.719 96.4844C191.276 96.0417 191.078 95.487 191.125 94.8203C191.167 94.263 191.357 93.7812 191.695 93.375C192.039 92.9635 192.526 92.6458 193.156 92.4219C193.786 92.1927 194.492 92.0781 195.273 92.0781L197 92.0859L197.141 91.1172C197.203 90.5391 197.078 90.0755 196.766 89.7266C196.453 89.3776 195.992 89.1927 195.383 89.1719C194.768 89.1615 194.232 89.3151 193.773 89.6328C193.32 89.9453 193.036 90.3594 192.922 90.875H192.008C192.112 90.1354 192.492 89.5339 193.148 89.0703C193.805 88.6016 194.581 88.3724 195.477 88.3828C196.346 88.4036 197.016 88.6667 197.484 89.1719C197.958 89.6771 198.151 90.3333 198.062 91.1406L197.359 95.3906L197.297 96.0703C197.281 96.3516 197.302 96.6302 197.359 96.9062L197.344 97H196.383ZM193.617 96.3359C194.19 96.3568 194.737 96.2214 195.258 95.9297C195.784 95.6328 196.219 95.2135 196.562 94.6719L196.883 92.8047L195.391 92.7969C194.443 92.7969 193.669 92.9661 193.07 93.3047C192.471 93.638 192.141 94.1172 192.078 94.7422C192.031 95.2005 192.151 95.5781 192.438 95.875C192.729 96.1719 193.122 96.3255 193.617 96.3359ZM201.875 88.5469L201.594 89.9922C201.969 89.4714 202.401 89.0729 202.891 88.7969C203.385 88.5156 203.914 88.3802 204.477 88.3906C205.289 88.4115 205.88 88.6953 206.25 89.2422C206.62 89.7891 206.75 90.5417 206.641 91.5L205.719 97H204.797L205.719 91.4844C205.75 91.1875 205.755 90.901 205.734 90.625C205.646 89.6979 205.141 89.2214 204.219 89.1953C203.672 89.1849 203.161 89.349 202.688 89.6875C202.214 90.0208 201.797 90.526 201.438 91.2031L200.438 97H199.516L200.984 88.5469H201.875ZM208.5 92.75C208.62 91.8646 208.862 91.0807 209.227 90.3984C209.591 89.7109 210.036 89.2005 210.562 88.8672C211.094 88.5339 211.688 88.375 212.344 88.3906C212.844 88.401 213.299 88.5182 213.711 88.7422C214.122 88.9609 214.448 89.2943 214.688 89.7422L215.547 85H216.469L214.383 97H213.516L213.727 95.875C212.992 96.7604 212.081 97.1875 210.992 97.1562C210.206 97.1354 209.589 96.8307 209.141 96.2422C208.698 95.6484 208.466 94.8516 208.445 93.8516C208.435 93.5286 208.448 93.2161 208.484 92.9141L208.5 92.75ZM209.438 92.9062C209.396 93.2552 209.38 93.6276 209.391 94.0234C209.411 94.737 209.576 95.2995 209.883 95.7109C210.195 96.1172 210.638 96.3307 211.211 96.3516C211.789 96.3672 212.297 96.2344 212.734 95.9531C213.172 95.6719 213.542 95.2969 213.844 94.8281L214.523 90.8438C214.372 90.3385 214.122 89.9427 213.773 89.6562C213.43 89.3646 212.99 89.2109 212.453 89.1953C211.661 89.1693 211 89.474 210.469 90.1094C209.943 90.7396 209.604 91.6172 209.453 92.7422L209.438 92.9062ZM222.773 89.9766C223.586 88.8984 224.544 88.3698 225.648 88.3906C226.461 88.4115 227.052 88.6953 227.422 89.2422C227.792 89.7891 227.922 90.5417 227.812 91.5L226.891 97H225.969L226.891 91.4844C226.922 91.1875 226.927 90.901 226.906 90.625C226.818 89.6979 226.312 89.2214 225.391 89.1953C224.844 89.1849 224.333 89.349 223.859 89.6875C223.385 90.0208 222.969 90.526 222.609 91.2031L221.609 97H220.688L222.773 85H223.695L222.773 89.9766ZM229.508 92.6953C229.602 91.8776 229.852 91.1302 230.258 90.4531C230.664 89.7708 231.169 89.2526 231.773 88.8984C232.383 88.5443 233.042 88.375 233.75 88.3906C234.448 88.401 235.042 88.5938 235.531 88.9688C236.026 89.3385 236.385 89.8464 236.609 90.4922C236.839 91.1328 236.917 91.8438 236.844 92.625L236.828 92.7734C236.672 94.1068 236.198 95.1771 235.406 95.9844C234.62 96.7917 233.674 97.1823 232.57 97.1562C231.622 97.1406 230.865 96.7917 230.297 96.1094C229.729 95.4271 229.451 94.526 229.461 93.4062L229.484 92.9609L229.508 92.6953ZM230.414 92.9609C230.346 93.5807 230.391 94.1536 230.547 94.6797C230.708 95.2005 230.964 95.6094 231.312 95.9062C231.661 96.2031 232.096 96.3594 232.617 96.375C233.18 96.3854 233.693 96.2422 234.156 95.9453C234.625 95.6484 235.01 95.2292 235.312 94.6875C235.615 94.1458 235.81 93.5469 235.898 92.8906L235.922 92.6328C236.016 91.6276 235.859 90.8073 235.453 90.1719C235.052 89.5312 234.469 89.2031 233.703 89.1875C232.87 89.1615 232.148 89.4844 231.539 90.1562C230.935 90.8229 230.565 91.7109 230.43 92.8203L230.414 92.9609ZM240.375 95.0547V95.7188L240.68 94.9922L243.766 88.5469H244.562L245.398 95.0078L245.445 95.8047L245.766 95L248.562 88.5469H249.555L245.695 97H244.898L243.969 90.2969L243.961 89.8281L243.781 90.3047L240.547 97H239.75L238.852 88.5469L239.727 88.5391L240.375 95.0547ZM254.078 92.75C254.198 91.8646 254.44 91.0807 254.805 90.3984C255.169 89.7109 255.615 89.2005 256.141 88.8672C256.672 88.5339 257.266 88.375 257.922 88.3906C258.422 88.401 258.878 88.5182 259.289 88.7422C259.701 88.9609 260.026 89.2943 260.266 89.7422L261.125 85H262.047L259.961 97H259.094L259.305 95.875C258.57 96.7604 257.659 97.1875 256.57 97.1562C255.784 97.1354 255.167 96.8307 254.719 96.2422C254.276 95.6484 254.044 94.8516 254.023 93.8516C254.013 93.5286 254.026 93.2161 254.062 92.9141L254.078 92.75ZM255.016 92.9062C254.974 93.2552 254.958 93.6276 254.969 94.0234C254.99 94.737 255.154 95.2995 255.461 95.7109C255.773 96.1172 256.216 96.3307 256.789 96.3516C257.367 96.3672 257.875 96.2344 258.312 95.9531C258.75 95.6719 259.12 95.2969 259.422 94.8281L260.102 90.8438C259.951 90.3385 259.701 89.9427 259.352 89.6562C259.008 89.3646 258.568 89.2109 258.031 89.1953C257.24 89.1693 256.578 89.474 256.047 90.1094C255.521 90.7396 255.182 91.6172 255.031 92.7422L255.016 92.9062ZM263.445 97H262.508L263.984 88.5469H264.914L263.445 97ZM264.242 86.1016C264.268 85.763 264.492 85.5495 264.914 85.4609C265.117 85.4974 265.26 85.5625 265.344 85.6562C265.432 85.7448 265.49 85.8932 265.516 86.1016C265.464 86.2995 265.388 86.4453 265.289 86.5391C265.19 86.6276 265.042 86.6927 264.844 86.7344C264.422 86.6719 264.221 86.4609 264.242 86.1016ZM266.344 92.75C266.464 91.8646 266.706 91.0807 267.07 90.3984C267.435 89.7109 267.88 89.2005 268.406 88.8672C268.938 88.5339 269.531 88.375 270.188 88.3906C270.688 88.401 271.143 88.5182 271.555 88.7422C271.966 88.9609 272.292 89.2943 272.531 89.7422L273.391 85H274.312L272.227 97H271.359L271.57 95.875C270.836 96.7604 269.924 97.1875 268.836 97.1562C268.049 97.1354 267.432 96.8307 266.984 96.2422C266.542 95.6484 266.31 94.8516 266.289 93.8516C266.279 93.5286 266.292 93.2161 266.328 92.9141L266.344 92.75ZM267.281 92.9062C267.24 93.2552 267.224 93.6276 267.234 94.0234C267.255 94.737 267.419 95.2995 267.727 95.7109C268.039 96.1172 268.482 96.3307 269.055 96.3516C269.633 96.3672 270.141 96.2344 270.578 95.9531C271.016 95.6719 271.385 95.2969 271.688 94.8281L272.367 90.8438C272.216 90.3385 271.966 89.9427 271.617 89.6562C271.273 89.3646 270.833 89.2109 270.297 89.1953C269.505 89.1693 268.844 89.474 268.312 90.1094C267.786 90.7396 267.448 91.6172 267.297 92.7422L267.281 92.9062ZM281.359 95.625L284.977 88.5469H286.016L280.859 98.3594C280.479 99.1198 280.076 99.6589 279.648 99.9766C279.227 100.294 278.755 100.448 278.234 100.438C278.036 100.427 277.786 100.385 277.484 100.312L277.578 99.5469L278.047 99.6016C278.922 99.638 279.612 99.1224 280.117 98.0547L280.711 96.875L279.078 88.5469H280.055L281.359 95.625ZM286.086 92.6953C286.18 91.8776 286.43 91.1302 286.836 90.4531C287.242 89.7708 287.747 89.2526 288.352 88.8984C288.961 88.5443 289.62 88.375 290.328 88.3906C291.026 88.401 291.62 88.5938 292.109 88.9688C292.604 89.3385 292.964 89.8464 293.188 90.4922C293.417 91.1328 293.495 91.8438 293.422 92.625L293.406 92.7734C293.25 94.1068 292.776 95.1771 291.984 95.9844C291.198 96.7917 290.253 97.1823 289.148 97.1562C288.201 97.1406 287.443 96.7917 286.875 96.1094C286.307 95.4271 286.029 94.526 286.039 93.4062L286.062 92.9609L286.086 92.6953ZM286.992 92.9609C286.924 93.5807 286.969 94.1536 287.125 94.6797C287.286 95.2005 287.542 95.6094 287.891 95.9062C288.24 96.2031 288.674 96.3594 289.195 96.375C289.758 96.3854 290.271 96.2422 290.734 95.9453C291.203 95.6484 291.589 95.2292 291.891 94.6875C292.193 94.1458 292.388 93.5469 292.477 92.8906L292.5 92.6328C292.594 91.6276 292.438 90.8073 292.031 90.1719C291.63 89.5312 291.047 89.2031 290.281 89.1875C289.448 89.1615 288.727 89.4844 288.117 90.1562C287.513 90.8229 287.143 91.7109 287.008 92.8203L286.992 92.9609ZM300.25 95.9375C299.578 96.7812 298.651 97.1875 297.469 97.1562C296.672 97.1406 296.078 96.8542 295.688 96.2969C295.297 95.7344 295.156 94.9557 295.266 93.9609L296.172 88.5469H297.094L296.195 93.9844C296.164 94.2656 296.161 94.5443 296.188 94.8203C296.224 95.2995 296.367 95.6693 296.617 95.9297C296.867 96.1901 297.211 96.3281 297.648 96.3438C298.273 96.3698 298.852 96.2266 299.383 95.9141C299.914 95.5964 300.258 95.1823 300.414 94.6719L301.461 88.5469H302.398L300.93 97H300.023L300.25 95.9375ZM122.68 112.547L122.414 113.922C123.174 112.88 124.13 112.37 125.281 112.391C125.875 112.401 126.367 112.549 126.758 112.836C127.154 113.122 127.398 113.521 127.492 114.031C127.878 113.505 128.326 113.099 128.836 112.812C129.352 112.521 129.911 112.38 130.516 112.391C131.318 112.406 131.911 112.672 132.297 113.188C132.688 113.698 132.849 114.406 132.781 115.312L132.766 115.492L131.836 121H130.906L131.828 115.477C131.859 115.169 131.862 114.878 131.836 114.602C131.732 113.68 131.206 113.211 130.258 113.195C129.622 113.185 129.036 113.393 128.5 113.82C127.969 114.242 127.635 114.771 127.5 115.406L126.531 121H125.602L126.539 115.406C126.69 113.969 126.161 113.232 124.953 113.195C124.354 113.185 123.797 113.372 123.281 113.758C122.766 114.143 122.419 114.622 122.242 115.195L121.242 121H120.312L121.781 112.547H122.68ZM139.461 121C139.435 120.802 139.427 120.604 139.438 120.406L139.508 119.82C139.117 120.242 138.669 120.573 138.164 120.812C137.664 121.052 137.122 121.167 136.539 121.156C135.826 121.146 135.245 120.922 134.797 120.484C134.354 120.042 134.156 119.487 134.203 118.82C134.245 118.263 134.435 117.781 134.773 117.375C135.117 116.964 135.604 116.646 136.234 116.422C136.865 116.193 137.57 116.078 138.352 116.078L140.078 116.086L140.219 115.117C140.281 114.539 140.156 114.076 139.844 113.727C139.531 113.378 139.07 113.193 138.461 113.172C137.846 113.161 137.31 113.315 136.852 113.633C136.398 113.945 136.115 114.359 136 114.875H135.086C135.19 114.135 135.57 113.534 136.227 113.07C136.883 112.602 137.659 112.372 138.555 112.383C139.424 112.404 140.094 112.667 140.562 113.172C141.036 113.677 141.229 114.333 141.141 115.141L140.438 119.391L140.375 120.07C140.359 120.352 140.38 120.63 140.438 120.906L140.422 121H139.461ZM136.695 120.336C137.268 120.357 137.815 120.221 138.336 119.93C138.862 119.633 139.297 119.214 139.641 118.672L139.961 116.805L138.469 116.797C137.521 116.797 136.747 116.966 136.148 117.305C135.549 117.638 135.219 118.117 135.156 118.742C135.109 119.201 135.229 119.578 135.516 119.875C135.807 120.172 136.201 120.326 136.695 120.336ZM145.328 116.758L144.078 117.812L143.523 121H142.594L144.68 109H145.609L144.281 116.609L145.25 115.719L148.93 112.547H150.172L146.016 116.148L148.93 121H147.898L145.328 116.758ZM153.477 121.156C152.799 121.146 152.214 120.958 151.719 120.594C151.224 120.224 150.859 119.724 150.625 119.094C150.396 118.458 150.315 117.773 150.383 117.039L150.406 116.773C150.479 115.992 150.711 115.25 151.102 114.547C151.492 113.839 151.987 113.299 152.586 112.93C153.185 112.555 153.826 112.375 154.508 112.391C155.138 112.401 155.669 112.573 156.102 112.906C156.539 113.24 156.857 113.703 157.055 114.297C157.253 114.891 157.315 115.547 157.242 116.266L157.18 116.836H151.328L151.305 117.023C151.227 117.591 151.268 118.135 151.43 118.656C151.591 119.172 151.854 119.583 152.219 119.891C152.589 120.193 153.031 120.349 153.547 120.359C154.047 120.375 154.497 120.279 154.898 120.07C155.299 119.862 155.669 119.583 156.008 119.234L156.555 119.68C156.174 120.169 155.721 120.542 155.195 120.797C154.674 121.047 154.102 121.167 153.477 121.156ZM154.461 113.188C153.784 113.161 153.177 113.401 152.641 113.906C152.104 114.411 151.701 115.122 151.43 116.039L156.336 116.047L156.359 115.93C156.453 115.19 156.323 114.555 155.969 114.023C155.615 113.487 155.112 113.208 154.461 113.188ZM163.117 121H162.18L163.656 112.547H164.586L163.117 121ZM163.914 110.102C163.94 109.763 164.164 109.549 164.586 109.461C164.789 109.497 164.932 109.562 165.016 109.656C165.104 109.745 165.161 109.893 165.188 110.102C165.135 110.299 165.06 110.445 164.961 110.539C164.862 110.628 164.714 110.693 164.516 110.734C164.094 110.672 163.893 110.461 163.914 110.102ZM168.914 110.383L168.539 112.547H170.234L170.102 113.312H168.406L167.469 118.953L167.453 119.438C167.453 120.005 167.714 120.297 168.234 120.312C168.396 120.318 168.648 120.299 168.992 120.258L168.953 121.023C168.646 121.112 168.333 121.151 168.016 121.141C167.469 121.13 167.07 120.94 166.82 120.57C166.57 120.195 166.479 119.654 166.547 118.945L167.477 113.312H165.961L166.102 112.547H167.602L167.984 110.383H168.914ZM177.914 121.156C177.237 121.146 176.651 120.958 176.156 120.594C175.661 120.224 175.297 119.724 175.062 119.094C174.833 118.458 174.753 117.773 174.82 117.039L174.844 116.773C174.917 115.992 175.148 115.25 175.539 114.547C175.93 113.839 176.424 113.299 177.023 112.93C177.622 112.555 178.263 112.375 178.945 112.391C179.576 112.401 180.107 112.573 180.539 112.906C180.977 113.24 181.294 113.703 181.492 114.297C181.69 114.891 181.753 115.547 181.68 116.266L181.617 116.836H175.766L175.742 117.023C175.664 117.591 175.706 118.135 175.867 118.656C176.029 119.172 176.292 119.583 176.656 119.891C177.026 120.193 177.469 120.349 177.984 120.359C178.484 120.375 178.935 120.279 179.336 120.07C179.737 119.862 180.107 119.583 180.445 119.234L180.992 119.68C180.612 120.169 180.159 120.542 179.633 120.797C179.112 121.047 178.539 121.167 177.914 121.156ZM178.898 113.188C178.221 113.161 177.615 113.401 177.078 113.906C176.542 114.411 176.138 115.122 175.867 116.039L180.773 116.047L180.797 115.93C180.891 115.19 180.76 114.555 180.406 114.023C180.052 113.487 179.549 113.208 178.898 113.188ZM185.375 119.68L188.984 112.547H189.969L185.586 121H184.828L183.07 112.547H183.992L185.375 119.68ZM193.336 121.156C192.659 121.146 192.073 120.958 191.578 120.594C191.083 120.224 190.719 119.724 190.484 119.094C190.255 118.458 190.174 117.773 190.242 117.039L190.266 116.773C190.339 115.992 190.57 115.25 190.961 114.547C191.352 113.839 191.846 113.299 192.445 112.93C193.044 112.555 193.685 112.375 194.367 112.391C194.997 112.401 195.529 112.573 195.961 112.906C196.398 113.24 196.716 113.703 196.914 114.297C197.112 114.891 197.174 115.547 197.102 116.266L197.039 116.836H191.188L191.164 117.023C191.086 117.591 191.128 118.135 191.289 118.656C191.451 119.172 191.714 119.583 192.078 119.891C192.448 120.193 192.891 120.349 193.406 120.359C193.906 120.375 194.357 120.279 194.758 120.07C195.159 119.862 195.529 119.583 195.867 119.234L196.414 119.68C196.034 120.169 195.581 120.542 195.055 120.797C194.534 121.047 193.961 121.167 193.336 121.156ZM194.32 113.188C193.643 113.161 193.036 113.401 192.5 113.906C191.964 114.411 191.56 115.122 191.289 116.039L196.195 116.047L196.219 115.93C196.312 115.19 196.182 114.555 195.828 114.023C195.474 113.487 194.971 113.208 194.32 113.188ZM200.438 112.547L200.156 113.992C200.531 113.471 200.964 113.073 201.453 112.797C201.948 112.516 202.477 112.38 203.039 112.391C203.852 112.411 204.443 112.695 204.812 113.242C205.182 113.789 205.312 114.542 205.203 115.5L204.281 121H203.359L204.281 115.484C204.312 115.188 204.318 114.901 204.297 114.625C204.208 113.698 203.703 113.221 202.781 113.195C202.234 113.185 201.724 113.349 201.25 113.688C200.776 114.021 200.359 114.526 200 115.203L199 121H198.078L199.547 112.547H200.438ZM215.711 113.336C215.508 113.294 215.302 113.271 215.094 113.266C214.5 113.266 213.956 113.448 213.461 113.812C212.966 114.172 212.635 114.63 212.469 115.188L211.469 121H210.547L212.016 112.547H212.93L212.648 113.891C212.956 113.391 213.326 113.01 213.758 112.75C214.195 112.49 214.674 112.365 215.195 112.375C215.378 112.375 215.591 112.411 215.836 112.484L215.711 113.336ZM219.039 121.156C218.362 121.146 217.776 120.958 217.281 120.594C216.786 120.224 216.422 119.724 216.188 119.094C215.958 118.458 215.878 117.773 215.945 117.039L215.969 116.773C216.042 115.992 216.273 115.25 216.664 114.547C217.055 113.839 217.549 113.299 218.148 112.93C218.747 112.555 219.388 112.375 220.07 112.391C220.701 112.401 221.232 112.573 221.664 112.906C222.102 113.24 222.419 113.703 222.617 114.297C222.815 114.891 222.878 115.547 222.805 116.266L222.742 116.836H216.891L216.867 117.023C216.789 117.591 216.831 118.135 216.992 118.656C217.154 119.172 217.417 119.583 217.781 119.891C218.151 120.193 218.594 120.349 219.109 120.359C219.609 120.375 220.06 120.279 220.461 120.07C220.862 119.862 221.232 119.583 221.57 119.234L222.117 119.68C221.737 120.169 221.284 120.542 220.758 120.797C220.237 121.047 219.664 121.167 219.039 121.156ZM220.023 113.188C219.346 113.161 218.74 113.401 218.203 113.906C217.667 114.411 217.263 115.122 216.992 116.039L221.898 116.047L221.922 115.93C222.016 115.19 221.885 114.555 221.531 114.023C221.177 113.487 220.674 113.208 220.023 113.188ZM229.125 118.797C229.208 118.078 228.771 117.557 227.812 117.234L226.469 116.836C225.234 116.419 224.651 115.724 224.719 114.75C224.755 114.047 225.078 113.477 225.688 113.039C226.302 112.596 227.031 112.38 227.875 112.391C228.703 112.401 229.375 112.635 229.891 113.094C230.406 113.547 230.646 114.154 230.609 114.914H229.688C229.719 114.409 229.56 113.997 229.211 113.68C228.867 113.362 228.409 113.198 227.836 113.188C227.242 113.188 226.742 113.328 226.336 113.609C225.93 113.885 225.701 114.253 225.648 114.711C225.57 115.383 225.982 115.854 226.883 116.125L227.859 116.406L228.383 116.586C229.56 117.029 230.115 117.75 230.047 118.75C230.005 119.427 229.711 119.984 229.164 120.422C228.622 120.854 227.922 121.096 227.062 121.148L226.742 121.156C226.174 121.146 225.661 121.036 225.203 120.828C224.745 120.615 224.393 120.318 224.148 119.938C223.904 119.557 223.797 119.12 223.828 118.625L224.758 118.633C224.758 119.164 224.938 119.583 225.297 119.891C225.656 120.198 226.151 120.357 226.781 120.367C227.406 120.367 227.938 120.227 228.375 119.945C228.812 119.659 229.062 119.276 229.125 118.797ZM235.266 121.164C234.781 121.154 234.323 121.052 233.891 120.859C233.464 120.661 233.117 120.354 232.852 119.938L232.07 124.25H231.148L233.18 112.547H234.039L233.82 113.742C234.555 112.81 235.474 112.359 236.578 112.391C237.37 112.411 237.987 112.706 238.43 113.273C238.872 113.841 239.102 114.646 239.117 115.688C239.122 116.016 239.107 116.333 239.07 116.641L239.039 116.859C238.909 117.771 238.664 118.557 238.305 119.219C237.945 119.88 237.508 120.375 236.992 120.703C236.477 121.026 235.901 121.18 235.266 121.164ZM238.141 116.641L238.188 115.898C238.203 115.065 238.052 114.411 237.734 113.938C237.417 113.464 236.945 113.216 236.32 113.195C235.773 113.185 235.276 113.32 234.828 113.602C234.385 113.878 234.01 114.281 233.703 114.812L233.008 118.883C233.174 119.362 233.438 119.727 233.797 119.977C234.161 120.227 234.596 120.359 235.102 120.375C235.857 120.401 236.495 120.12 237.016 119.531C237.542 118.938 237.896 118.112 238.078 117.055L238.141 116.641ZM240.633 116.695C240.727 115.878 240.977 115.13 241.383 114.453C241.789 113.771 242.294 113.253 242.898 112.898C243.508 112.544 244.167 112.375 244.875 112.391C245.573 112.401 246.167 112.594 246.656 112.969C247.151 113.339 247.51 113.846 247.734 114.492C247.964 115.133 248.042 115.844 247.969 116.625L247.953 116.773C247.797 118.107 247.323 119.177 246.531 119.984C245.745 120.792 244.799 121.182 243.695 121.156C242.747 121.141 241.99 120.792 241.422 120.109C240.854 119.427 240.576 118.526 240.586 117.406L240.609 116.961L240.633 116.695ZM241.539 116.961C241.471 117.581 241.516 118.154 241.672 118.68C241.833 119.201 242.089 119.609 242.438 119.906C242.786 120.203 243.221 120.359 243.742 120.375C244.305 120.385 244.818 120.242 245.281 119.945C245.75 119.648 246.135 119.229 246.438 118.688C246.74 118.146 246.935 117.547 247.023 116.891L247.047 116.633C247.141 115.628 246.984 114.807 246.578 114.172C246.177 113.531 245.594 113.203 244.828 113.188C243.995 113.161 243.273 113.484 242.664 114.156C242.06 114.823 241.69 115.711 241.555 116.82L241.539 116.961ZM251.547 112.547L251.266 113.992C251.641 113.471 252.073 113.073 252.562 112.797C253.057 112.516 253.586 112.38 254.148 112.391C254.961 112.411 255.552 112.695 255.922 113.242C256.292 113.789 256.422 114.542 256.312 115.5L255.391 121H254.469L255.391 115.484C255.422 115.188 255.427 114.901 255.406 114.625C255.318 113.698 254.812 113.221 253.891 113.195C253.344 113.185 252.833 113.349 252.359 113.688C251.885 114.021 251.469 114.526 251.109 115.203L250.109 121H249.188L250.656 112.547H251.547ZM263.141 118.797C263.224 118.078 262.786 117.557 261.828 117.234L260.484 116.836C259.25 116.419 258.667 115.724 258.734 114.75C258.771 114.047 259.094 113.477 259.703 113.039C260.318 112.596 261.047 112.38 261.891 112.391C262.719 112.401 263.391 112.635 263.906 113.094C264.422 113.547 264.661 114.154 264.625 114.914H263.703C263.734 114.409 263.576 113.997 263.227 113.68C262.883 113.362 262.424 113.198 261.852 113.188C261.258 113.188 260.758 113.328 260.352 113.609C259.945 113.885 259.716 114.253 259.664 114.711C259.586 115.383 259.997 115.854 260.898 116.125L261.875 116.406L262.398 116.586C263.576 117.029 264.13 117.75 264.062 118.75C264.021 119.427 263.727 119.984 263.18 120.422C262.638 120.854 261.938 121.096 261.078 121.148L260.758 121.156C260.19 121.146 259.677 121.036 259.219 120.828C258.76 120.615 258.409 120.318 258.164 119.938C257.919 119.557 257.812 119.12 257.844 118.625L258.773 118.633C258.773 119.164 258.953 119.583 259.312 119.891C259.672 120.198 260.167 120.357 260.797 120.367C261.422 120.367 261.953 120.227 262.391 119.945C262.828 119.659 263.078 119.276 263.141 118.797ZM266.773 121H265.836L267.312 112.547H268.242L266.773 121ZM267.57 110.102C267.596 109.763 267.82 109.549 268.242 109.461C268.445 109.497 268.589 109.562 268.672 109.656C268.76 109.745 268.818 109.893 268.844 110.102C268.792 110.299 268.716 110.445 268.617 110.539C268.518 110.628 268.37 110.693 268.172 110.734C267.75 110.672 267.549 110.461 267.57 110.102ZM272.125 119.68L275.734 112.547H276.719L272.336 121H271.578L269.82 112.547H270.742L272.125 119.68ZM280.086 121.156C279.409 121.146 278.823 120.958 278.328 120.594C277.833 120.224 277.469 119.724 277.234 119.094C277.005 118.458 276.924 117.773 276.992 117.039L277.016 116.773C277.089 115.992 277.32 115.25 277.711 114.547C278.102 113.839 278.596 113.299 279.195 112.93C279.794 112.555 280.435 112.375 281.117 112.391C281.747 112.401 282.279 112.573 282.711 112.906C283.148 113.24 283.466 113.703 283.664 114.297C283.862 114.891 283.924 115.547 283.852 116.266L283.789 116.836H277.938L277.914 117.023C277.836 117.591 277.878 118.135 278.039 118.656C278.201 119.172 278.464 119.583 278.828 119.891C279.198 120.193 279.641 120.349 280.156 120.359C280.656 120.375 281.107 120.279 281.508 120.07C281.909 119.862 282.279 119.583 282.617 119.234L283.164 119.68C282.784 120.169 282.331 120.542 281.805 120.797C281.284 121.047 280.711 121.167 280.086 121.156ZM281.07 113.188C280.393 113.161 279.786 113.401 279.25 113.906C278.714 114.411 278.31 115.122 278.039 116.039L282.945 116.047L282.969 115.93C283.062 115.19 282.932 114.555 282.578 114.023C282.224 113.487 281.721 113.208 281.07 113.188ZM287.117 117.859C287.185 117.286 287.344 116.779 287.594 116.336C287.844 115.893 288.227 115.453 288.742 115.016C289.258 114.578 289.62 114.237 289.828 113.992C290.042 113.742 290.214 113.484 290.344 113.219C290.479 112.948 290.562 112.651 290.594 112.328C290.661 111.74 290.56 111.258 290.289 110.883C290.023 110.508 289.612 110.31 289.055 110.289C288.456 110.279 287.948 110.451 287.531 110.805C287.12 111.154 286.846 111.646 286.711 112.281L285.812 112.289C285.938 111.424 286.305 110.732 286.914 110.211C287.523 109.69 288.26 109.44 289.125 109.461C289.922 109.482 290.542 109.753 290.984 110.273C291.432 110.794 291.617 111.477 291.539 112.32C291.445 113.294 290.909 114.221 289.93 115.102L289.047 115.844C288.495 116.339 288.138 117.005 287.977 117.844L287.117 117.859ZM286.469 120.453C286.484 120.276 286.555 120.128 286.68 120.008C286.805 119.883 286.958 119.818 287.141 119.812C287.323 119.807 287.471 119.867 287.586 119.992C287.701 120.117 287.753 120.271 287.742 120.453C287.727 120.625 287.654 120.771 287.523 120.891C287.393 121.005 287.242 121.065 287.07 121.07C286.888 121.076 286.74 121.021 286.625 120.906C286.51 120.786 286.458 120.635 286.469 120.453ZM293.414 112.43L292.859 111.992C293.411 111.346 293.755 110.698 293.891 110.047L294.078 109H294.992L294.852 109.891C294.69 110.911 294.211 111.758 293.414 112.43ZM295.266 112.43L294.711 111.992C295.263 111.346 295.607 110.698 295.742 110.047L295.93 109H296.844L296.703 109.891C296.542 110.911 296.062 111.758 295.266 112.43ZM123.406 156.734L124.453 157.375C124.214 157.729 124 158.089 123.812 158.453C123.625 158.812 123.49 159.206 123.406 159.633L123.203 160.812H121.453L121.609 159.781C121.797 158.573 122.396 157.557 123.406 156.734ZM126 156.734L127.047 157.375C126.807 157.729 126.594 158.089 126.406 158.453C126.219 158.812 126.083 159.206 126 159.633L125.797 160.812H124.047L124.203 159.781C124.391 158.573 124.99 157.557 126 156.734ZM136.5 159.523H133.125L131.484 169H129.195L130.836 159.523H127.5L127.836 157.625H136.836L136.5 159.523ZM141.359 162.664C141.057 162.612 140.81 162.586 140.617 162.586C139.831 162.565 139.208 162.859 138.75 163.469L137.773 169H135.57L137.039 160.547L139.109 160.539L138.906 161.57C139.438 160.773 140.094 160.375 140.875 160.375C141.094 160.375 141.349 160.411 141.641 160.484L141.359 162.664ZM146.555 168.125C145.93 168.828 145.154 169.172 144.227 169.156C143.414 169.146 142.799 168.854 142.383 168.281C141.966 167.708 141.805 166.953 141.898 166.016L142.812 160.547H145.016L144.086 166.039C144.065 166.211 144.062 166.372 144.078 166.523C144.13 167.044 144.419 167.312 144.945 167.328C145.628 167.349 146.193 167.086 146.641 166.539L147.695 160.547H149.914L148.445 169H146.391L146.555 168.125ZM154.984 166.617C155.068 166.201 154.779 165.898 154.117 165.711L153.406 165.531C151.724 165.068 150.906 164.25 150.953 163.078C150.979 162.281 151.331 161.633 152.008 161.133C152.69 160.628 153.51 160.38 154.469 160.391C155.422 160.401 156.193 160.654 156.781 161.148C157.37 161.643 157.669 162.302 157.68 163.125L155.492 163.117C155.503 162.393 155.143 162.026 154.414 162.016C154.07 162.016 153.771 162.102 153.516 162.273C153.266 162.445 153.112 162.677 153.055 162.969C152.977 163.385 153.292 163.68 154 163.852L154.312 163.922C155.031 164.094 155.581 164.292 155.961 164.516C156.341 164.734 156.633 165.008 156.836 165.336C157.044 165.664 157.141 166.057 157.125 166.516C157.109 167.052 156.935 167.521 156.602 167.922C156.273 168.323 155.82 168.633 155.242 168.852C154.669 169.07 154.065 169.172 153.43 169.156C152.492 169.146 151.711 168.878 151.086 168.352C150.461 167.82 150.143 167.135 150.133 166.297L152.211 166.312C152.232 167.12 152.664 167.529 153.508 167.539C153.914 167.539 154.247 167.456 154.508 167.289C154.773 167.122 154.932 166.898 154.984 166.617ZM162.617 158.469L162.25 160.547H163.656L163.367 162.203H161.961L161.242 166.438C161.211 166.703 161.232 166.906 161.305 167.047C161.378 167.188 161.555 167.263 161.836 167.273C161.919 167.279 162.143 167.266 162.508 167.234L162.352 168.961C161.961 169.091 161.539 169.151 161.086 169.141C160.362 169.13 159.823 168.904 159.469 168.461C159.115 168.018 158.969 167.419 159.031 166.664L159.758 162.203H158.562L158.852 160.547H160.047L160.406 158.469H162.617ZM170.945 160.539L170.766 161.5C171.448 160.74 172.273 160.37 173.242 160.391C173.763 160.401 174.195 160.521 174.539 160.75C174.883 160.979 175.115 161.289 175.234 161.68C175.979 160.799 176.854 160.37 177.859 160.391C178.635 160.406 179.219 160.672 179.609 161.188C180.005 161.703 180.172 162.448 180.109 163.422L180.094 163.617L179.195 169H176.984L177.883 163.602C177.904 163.409 177.911 163.229 177.906 163.062C177.87 162.516 177.557 162.234 176.969 162.219C176.365 162.219 175.846 162.542 175.414 163.188L175.391 163.367L174.406 169H172.203L173.102 163.617C173.122 163.424 173.13 163.245 173.125 163.078C173.089 162.526 172.779 162.242 172.195 162.227C171.638 162.211 171.135 162.474 170.688 163.016L169.633 169H167.43L168.891 160.547L170.945 160.539ZM184.961 169.156C184.221 169.151 183.565 168.971 182.992 168.617C182.424 168.258 182 167.768 181.719 167.148C181.438 166.523 181.328 165.836 181.391 165.086L181.414 164.773C181.492 163.951 181.732 163.195 182.133 162.508C182.534 161.82 183.049 161.292 183.68 160.922C184.31 160.547 185.008 160.37 185.773 160.391C186.862 160.411 187.685 160.812 188.242 161.594C188.805 162.37 189.018 163.354 188.883 164.547L188.758 165.508H183.578C183.557 166.055 183.69 166.492 183.977 166.82C184.263 167.148 184.654 167.318 185.148 167.328C185.951 167.349 186.654 167.039 187.258 166.398L188.266 167.648C187.948 168.128 187.49 168.503 186.891 168.773C186.292 169.039 185.648 169.167 184.961 169.156ZM185.664 162.211C185.258 162.201 184.896 162.328 184.578 162.594C184.266 162.859 183.984 163.32 183.734 163.977H186.766L186.812 163.773C186.844 163.565 186.846 163.367 186.82 163.18C186.768 162.878 186.641 162.643 186.438 162.477C186.234 162.305 185.977 162.216 185.664 162.211ZM189.633 171.852L188.469 171.219L189.039 170.305C189.372 169.747 189.586 169.224 189.68 168.734L189.969 167.078H191.828L191.602 168.516C191.388 169.865 190.732 170.977 189.633 171.852ZM199.57 169H197.352L198.82 160.547H201.039L199.57 169ZM199.078 158.398C199.068 158.049 199.182 157.76 199.422 157.531C199.661 157.302 199.951 157.188 200.289 157.188C200.622 157.177 200.911 157.279 201.156 157.492C201.401 157.706 201.529 157.982 201.539 158.32C201.549 158.643 201.44 158.924 201.211 159.164C200.987 159.404 200.693 159.529 200.328 159.539C200 159.549 199.711 159.451 199.461 159.242C199.216 159.034 199.089 158.753 199.078 158.398ZM205.914 158.469L205.547 160.547H206.953L206.664 162.203H205.258L204.539 166.438C204.508 166.703 204.529 166.906 204.602 167.047C204.674 167.188 204.852 167.263 205.133 167.273C205.216 167.279 205.44 167.266 205.805 167.234L205.648 168.961C205.258 169.091 204.836 169.151 204.383 169.141C203.659 169.13 203.12 168.904 202.766 168.461C202.411 168.018 202.266 167.419 202.328 166.664L203.055 162.203H201.859L202.148 160.547H203.344L203.703 158.469H205.914ZM209.164 161.133L208.047 160.477C208.583 159.706 208.919 159.029 209.055 158.445L209.312 157H211.07L210.891 158.156C210.714 159.307 210.138 160.299 209.164 161.133ZM213.688 166.617C213.771 166.201 213.482 165.898 212.82 165.711L212.109 165.531C210.427 165.068 209.609 164.25 209.656 163.078C209.682 162.281 210.034 161.633 210.711 161.133C211.393 160.628 212.214 160.38 213.172 160.391C214.125 160.401 214.896 160.654 215.484 161.148C216.073 161.643 216.372 162.302 216.383 163.125L214.195 163.117C214.206 162.393 213.846 162.026 213.117 162.016C212.773 162.016 212.474 162.102 212.219 162.273C211.969 162.445 211.815 162.677 211.758 162.969C211.68 163.385 211.995 163.68 212.703 163.852L213.016 163.922C213.734 164.094 214.284 164.292 214.664 164.516C215.044 164.734 215.336 165.008 215.539 165.336C215.747 165.664 215.844 166.057 215.828 166.516C215.812 167.052 215.638 167.521 215.305 167.922C214.977 168.323 214.523 168.633 213.945 168.852C213.372 169.07 212.768 169.172 212.133 169.156C211.195 169.146 210.414 168.878 209.789 168.352C209.164 167.82 208.846 167.135 208.836 166.297L210.914 166.312C210.935 167.12 211.367 167.529 212.211 167.539C212.617 167.539 212.951 167.456 213.211 167.289C213.477 167.122 213.635 166.898 213.688 166.617ZM226.594 162.664C226.292 162.612 226.044 162.586 225.852 162.586C225.065 162.565 224.443 162.859 223.984 163.469L223.008 169H220.805L222.273 160.547L224.344 160.539L224.141 161.57C224.672 160.773 225.328 160.375 226.109 160.375C226.328 160.375 226.583 160.411 226.875 160.484L226.594 162.664ZM230.414 169.156C229.674 169.151 229.018 168.971 228.445 168.617C227.878 168.258 227.453 167.768 227.172 167.148C226.891 166.523 226.781 165.836 226.844 165.086L226.867 164.773C226.945 163.951 227.185 163.195 227.586 162.508C227.987 161.82 228.503 161.292 229.133 160.922C229.763 160.547 230.461 160.37 231.227 160.391C232.315 160.411 233.138 160.812 233.695 161.594C234.258 162.37 234.471 163.354 234.336 164.547L234.211 165.508H229.031C229.01 166.055 229.143 166.492 229.43 166.82C229.716 167.148 230.107 167.318 230.602 167.328C231.404 167.349 232.107 167.039 232.711 166.398L233.719 167.648C233.401 168.128 232.943 168.503 232.344 168.773C231.745 169.039 231.102 169.167 230.414 169.156ZM231.117 162.211C230.711 162.201 230.349 162.328 230.031 162.594C229.719 162.859 229.438 163.32 229.188 163.977H232.219L232.266 163.773C232.297 163.565 232.299 163.367 232.273 163.18C232.221 162.878 232.094 162.643 231.891 162.477C231.688 162.305 231.43 162.216 231.117 162.211ZM239.062 160.383C239.938 160.404 240.607 160.758 241.07 161.445L241.43 160.539L243.398 160.547L241.367 172.25H239.148L239.938 168.258C239.349 168.878 238.664 169.177 237.883 169.156C237.357 169.151 236.896 169.013 236.5 168.742C236.104 168.471 235.797 168.081 235.578 167.57C235.365 167.055 235.247 166.49 235.227 165.875C235.211 165.547 235.219 165.227 235.25 164.914L235.297 164.57C235.422 163.695 235.661 162.93 236.016 162.273C236.375 161.617 236.812 161.135 237.328 160.828C237.849 160.516 238.427 160.367 239.062 160.383ZM237.43 165.922C237.482 166.849 237.852 167.32 238.539 167.336C239.159 167.357 239.69 167.083 240.133 166.516L240.773 163C240.57 162.495 240.161 162.232 239.547 162.211C238.995 162.195 238.539 162.414 238.18 162.867C237.82 163.315 237.589 163.943 237.484 164.75C237.432 165.286 237.414 165.677 237.43 165.922ZM248.945 168.125C248.32 168.828 247.544 169.172 246.617 169.156C245.805 169.146 245.19 168.854 244.773 168.281C244.357 167.708 244.195 166.953 244.289 166.016L245.203 160.547H247.406L246.477 166.039C246.456 166.211 246.453 166.372 246.469 166.523C246.521 167.044 246.81 167.312 247.336 167.328C248.018 167.349 248.583 167.086 249.031 166.539L250.086 160.547H252.305L250.836 169H248.781L248.945 168.125ZM254.805 169H252.586L254.055 160.547H256.273L254.805 169ZM254.312 158.398C254.302 158.049 254.417 157.76 254.656 157.531C254.896 157.302 255.185 157.188 255.523 157.188C255.857 157.177 256.146 157.279 256.391 157.492C256.635 157.706 256.763 157.982 256.773 158.32C256.784 158.643 256.674 158.924 256.445 159.164C256.221 159.404 255.927 159.529 255.562 159.539C255.234 159.549 254.945 159.451 254.695 159.242C254.451 159.034 254.323 158.753 254.312 158.398ZM262.469 162.664C262.167 162.612 261.919 162.586 261.727 162.586C260.94 162.565 260.318 162.859 259.859 163.469L258.883 169H256.68L258.148 160.547L260.219 160.539L260.016 161.57C260.547 160.773 261.203 160.375 261.984 160.375C262.203 160.375 262.458 160.411 262.75 160.484L262.469 162.664ZM266.289 169.156C265.549 169.151 264.893 168.971 264.32 168.617C263.753 168.258 263.328 167.768 263.047 167.148C262.766 166.523 262.656 165.836 262.719 165.086L262.742 164.773C262.82 163.951 263.06 163.195 263.461 162.508C263.862 161.82 264.378 161.292 265.008 160.922C265.638 160.547 266.336 160.37 267.102 160.391C268.19 160.411 269.013 160.812 269.57 161.594C270.133 162.37 270.346 163.354 270.211 164.547L270.086 165.508H264.906C264.885 166.055 265.018 166.492 265.305 166.82C265.591 167.148 265.982 167.318 266.477 167.328C267.279 167.349 267.982 167.039 268.586 166.398L269.594 167.648C269.276 168.128 268.818 168.503 268.219 168.773C267.62 169.039 266.977 169.167 266.289 169.156ZM266.992 162.211C266.586 162.201 266.224 162.328 265.906 162.594C265.594 162.859 265.312 163.32 265.062 163.977H268.094L268.141 163.773C268.172 163.565 268.174 163.367 268.148 163.18C268.096 162.878 267.969 162.643 267.766 162.477C267.562 162.305 267.305 162.216 266.992 162.211ZM274.938 160.383C275.724 160.404 276.359 160.719 276.844 161.328L277.672 157H279.883L277.805 169H275.836L275.961 168.094C275.331 168.828 274.596 169.185 273.758 169.164C273.232 169.159 272.771 169.021 272.375 168.75C271.979 168.479 271.672 168.091 271.453 167.586C271.24 167.076 271.122 166.508 271.102 165.883C271.086 165.555 271.094 165.237 271.125 164.93L271.172 164.578C271.297 163.714 271.536 162.953 271.891 162.297C272.25 161.641 272.688 161.154 273.203 160.836C273.724 160.518 274.302 160.367 274.938 160.383ZM273.336 164.93C273.294 165.326 273.281 165.659 273.297 165.93C273.349 166.846 273.719 167.312 274.406 167.328C275.026 167.354 275.565 167.062 276.023 166.453L276.625 163.094C276.422 162.536 276.016 162.245 275.406 162.219C274.87 162.203 274.422 162.411 274.062 162.844C273.708 163.271 273.466 163.966 273.336 164.93ZM288.414 169C288.346 168.786 288.318 168.531 288.328 168.234C287.693 168.87 286.974 169.177 286.172 169.156C285.432 169.146 284.818 168.906 284.328 168.438C283.844 167.964 283.617 167.38 283.648 166.688C283.685 165.766 284.07 165.06 284.805 164.57C285.544 164.076 286.534 163.828 287.773 163.828L288.805 163.844L288.914 163.336C288.945 163.164 288.953 163 288.938 162.844C288.911 162.599 288.818 162.409 288.656 162.273C288.5 162.133 288.292 162.06 288.031 162.055C287.688 162.044 287.396 162.13 287.156 162.312C286.917 162.49 286.763 162.747 286.695 163.086L284.484 163.094C284.521 162.286 284.891 161.633 285.594 161.133C286.302 160.628 287.174 160.38 288.211 160.391C289.169 160.411 289.919 160.698 290.461 161.25C291.003 161.797 291.229 162.503 291.141 163.367L290.492 167.414L290.453 167.914C290.443 168.284 290.487 168.596 290.586 168.852L290.578 169H288.414ZM286.719 167.445C287.354 167.466 287.909 167.19 288.383 166.617L288.656 165.156L287.891 165.148C287.078 165.169 286.492 165.417 286.133 165.891C286.003 166.062 285.922 166.273 285.891 166.523C285.849 166.805 285.906 167.029 286.062 167.195C286.224 167.357 286.443 167.44 286.719 167.445ZM295.414 160.539L295.227 161.539C295.904 160.753 296.724 160.37 297.688 160.391C298.484 160.406 299.073 160.698 299.453 161.266C299.833 161.833 299.971 162.62 299.867 163.625L298.977 169H296.773L297.68 163.602C297.706 163.398 297.711 163.214 297.695 163.047C297.628 162.516 297.294 162.242 296.695 162.227C296.117 162.206 295.599 162.474 295.141 163.031L294.086 169H291.883L293.352 160.547L295.414 160.539ZM304.906 160.383C305.693 160.404 306.328 160.719 306.812 161.328L307.641 157H309.852L307.773 169H305.805L305.93 168.094C305.299 168.828 304.565 169.185 303.727 169.164C303.201 169.159 302.74 169.021 302.344 168.75C301.948 168.479 301.641 168.091 301.422 167.586C301.208 167.076 301.091 166.508 301.07 165.883C301.055 165.555 301.062 165.237 301.094 164.93L301.141 164.578C301.266 163.714 301.505 162.953 301.859 162.297C302.219 161.641 302.656 161.154 303.172 160.836C303.693 160.518 304.271 160.367 304.906 160.383ZM303.305 164.93C303.263 165.326 303.25 165.659 303.266 165.93C303.318 166.846 303.688 167.312 304.375 167.328C304.995 167.354 305.534 167.062 305.992 166.453L306.594 163.094C306.391 162.536 305.984 162.245 305.375 162.219C304.839 162.203 304.391 162.411 304.031 162.844C303.677 163.271 303.435 163.966 303.305 164.93ZM124.922 190.617C125.005 190.201 124.716 189.898 124.055 189.711L123.344 189.531C121.661 189.068 120.844 188.25 120.891 187.078C120.917 186.281 121.268 185.633 121.945 185.133C122.628 184.628 123.448 184.38 124.406 184.391C125.359 184.401 126.13 184.654 126.719 185.148C127.307 185.643 127.607 186.302 127.617 187.125L125.43 187.117C125.44 186.393 125.081 186.026 124.352 186.016C124.008 186.016 123.708 186.102 123.453 186.273C123.203 186.445 123.049 186.677 122.992 186.969C122.914 187.385 123.229 187.68 123.938 187.852L124.25 187.922C124.969 188.094 125.518 188.292 125.898 188.516C126.279 188.734 126.57 189.008 126.773 189.336C126.982 189.664 127.078 190.057 127.062 190.516C127.047 191.052 126.872 191.521 126.539 191.922C126.211 192.323 125.758 192.633 125.18 192.852C124.607 193.07 124.003 193.172 123.367 193.156C122.43 193.146 121.648 192.878 121.023 192.352C120.398 191.82 120.081 191.135 120.07 190.297L122.148 190.312C122.169 191.12 122.602 191.529 123.445 191.539C123.852 191.539 124.185 191.456 124.445 191.289C124.711 191.122 124.87 190.898 124.922 190.617ZM132.977 193C132.909 192.786 132.88 192.531 132.891 192.234C132.255 192.87 131.536 193.177 130.734 193.156C129.995 193.146 129.38 192.906 128.891 192.438C128.406 191.964 128.18 191.38 128.211 190.688C128.247 189.766 128.633 189.06 129.367 188.57C130.107 188.076 131.096 187.828 132.336 187.828L133.367 187.844L133.477 187.336C133.508 187.164 133.516 187 133.5 186.844C133.474 186.599 133.38 186.409 133.219 186.273C133.062 186.133 132.854 186.06 132.594 186.055C132.25 186.044 131.958 186.13 131.719 186.312C131.479 186.49 131.326 186.747 131.258 187.086L129.047 187.094C129.083 186.286 129.453 185.633 130.156 185.133C130.865 184.628 131.737 184.38 132.773 184.391C133.732 184.411 134.482 184.698 135.023 185.25C135.565 185.797 135.792 186.503 135.703 187.367L135.055 191.414L135.016 191.914C135.005 192.284 135.049 192.596 135.148 192.852L135.141 193H132.977ZM131.281 191.445C131.917 191.466 132.471 191.19 132.945 190.617L133.219 189.156L132.453 189.148C131.641 189.169 131.055 189.417 130.695 189.891C130.565 190.062 130.484 190.273 130.453 190.523C130.411 190.805 130.469 191.029 130.625 191.195C130.786 191.357 131.005 191.44 131.281 191.445ZM139.922 190.211L142.328 184.547H144.703L140.617 193H138.508L137.062 184.547H139.297L139.922 190.211ZM148.195 193.156C147.456 193.151 146.799 192.971 146.227 192.617C145.659 192.258 145.234 191.768 144.953 191.148C144.672 190.523 144.562 189.836 144.625 189.086L144.648 188.773C144.727 187.951 144.966 187.195 145.367 186.508C145.768 185.82 146.284 185.292 146.914 184.922C147.544 184.547 148.242 184.37 149.008 184.391C150.096 184.411 150.919 184.812 151.477 185.594C152.039 186.37 152.253 187.354 152.117 188.547L151.992 189.508H146.812C146.792 190.055 146.924 190.492 147.211 190.82C147.497 191.148 147.888 191.318 148.383 191.328C149.185 191.349 149.888 191.039 150.492 190.398L151.5 191.648C151.182 192.128 150.724 192.503 150.125 192.773C149.526 193.039 148.883 193.167 148.195 193.156ZM148.898 186.211C148.492 186.201 148.13 186.328 147.812 186.594C147.5 186.859 147.219 187.32 146.969 187.977H150L150.047 187.773C150.078 187.565 150.081 187.367 150.055 187.18C150.003 186.878 149.875 186.643 149.672 186.477C149.469 186.305 149.211 186.216 148.898 186.211ZM157.547 190.617C157.63 190.201 157.341 189.898 156.68 189.711L155.969 189.531C154.286 189.068 153.469 188.25 153.516 187.078C153.542 186.281 153.893 185.633 154.57 185.133C155.253 184.628 156.073 184.38 157.031 184.391C157.984 184.401 158.755 184.654 159.344 185.148C159.932 185.643 160.232 186.302 160.242 187.125L158.055 187.117C158.065 186.393 157.706 186.026 156.977 186.016C156.633 186.016 156.333 186.102 156.078 186.273C155.828 186.445 155.674 186.677 155.617 186.969C155.539 187.385 155.854 187.68 156.562 187.852L156.875 187.922C157.594 188.094 158.143 188.292 158.523 188.516C158.904 188.734 159.195 189.008 159.398 189.336C159.607 189.664 159.703 190.057 159.688 190.516C159.672 191.052 159.497 191.521 159.164 191.922C158.836 192.323 158.383 192.633 157.805 192.852C157.232 193.07 156.628 193.172 155.992 193.156C155.055 193.146 154.273 192.878 153.648 192.352C153.023 191.82 152.706 191.135 152.695 190.297L154.773 190.312C154.794 191.12 155.227 191.529 156.07 191.539C156.477 191.539 156.81 191.456 157.07 191.289C157.336 191.122 157.495 190.898 157.547 190.617ZM169.133 182.469L168.766 184.547H170.172L169.883 186.203H168.477L167.758 190.438C167.727 190.703 167.747 190.906 167.82 191.047C167.893 191.188 168.07 191.263 168.352 191.273C168.435 191.279 168.659 191.266 169.023 191.234L168.867 192.961C168.477 193.091 168.055 193.151 167.602 193.141C166.878 193.13 166.339 192.904 165.984 192.461C165.63 192.018 165.484 191.419 165.547 190.664L166.273 186.203H165.078L165.367 184.547H166.562L166.922 182.469H169.133ZM172.32 193H170.102L171.57 184.547H173.789L172.32 193ZM171.828 182.398C171.818 182.049 171.932 181.76 172.172 181.531C172.411 181.302 172.701 181.188 173.039 181.188C173.372 181.177 173.661 181.279 173.906 181.492C174.151 181.706 174.279 181.982 174.289 182.32C174.299 182.643 174.19 182.924 173.961 183.164C173.737 183.404 173.443 183.529 173.078 183.539C172.75 183.549 172.461 183.451 172.211 183.242C171.966 183.034 171.839 182.753 171.828 182.398ZM177.711 184.539L177.531 185.5C178.214 184.74 179.039 184.37 180.008 184.391C180.529 184.401 180.961 184.521 181.305 184.75C181.648 184.979 181.88 185.289 182 185.68C182.745 184.799 183.62 184.37 184.625 184.391C185.401 184.406 185.984 184.672 186.375 185.188C186.771 185.703 186.938 186.448 186.875 187.422L186.859 187.617L185.961 193H183.75L184.648 187.602C184.669 187.409 184.677 187.229 184.672 187.062C184.635 186.516 184.323 186.234 183.734 186.219C183.13 186.219 182.612 186.542 182.18 187.188L182.156 187.367L181.172 193H178.969L179.867 187.617C179.888 187.424 179.896 187.245 179.891 187.078C179.854 186.526 179.544 186.242 178.961 186.227C178.404 186.211 177.901 186.474 177.453 187.016L176.398 193H174.195L175.656 184.547L177.711 184.539ZM191.727 193.156C190.987 193.151 190.331 192.971 189.758 192.617C189.19 192.258 188.766 191.768 188.484 191.148C188.203 190.523 188.094 189.836 188.156 189.086L188.18 188.773C188.258 187.951 188.497 187.195 188.898 186.508C189.299 185.82 189.815 185.292 190.445 184.922C191.076 184.547 191.773 184.37 192.539 184.391C193.628 184.411 194.451 184.812 195.008 185.594C195.57 186.37 195.784 187.354 195.648 188.547L195.523 189.508H190.344C190.323 190.055 190.456 190.492 190.742 190.82C191.029 191.148 191.419 191.318 191.914 191.328C192.716 191.349 193.419 191.039 194.023 190.398L195.031 191.648C194.714 192.128 194.255 192.503 193.656 192.773C193.057 193.039 192.414 193.167 191.727 193.156ZM192.43 186.211C192.023 186.201 191.661 186.328 191.344 186.594C191.031 186.859 190.75 187.32 190.5 187.977H193.531L193.578 187.773C193.609 187.565 193.612 187.367 193.586 187.18C193.534 186.878 193.406 186.643 193.203 186.477C193 186.305 192.742 186.216 192.43 186.211ZM200.727 193L201.906 186.203H200.688L200.977 184.547L202.195 184.539L202.305 183.695C202.44 182.794 202.807 182.089 203.406 181.578C204.005 181.062 204.768 180.81 205.695 180.82C206.013 180.831 206.411 180.885 206.891 180.984L206.695 182.742C206.445 182.68 206.229 182.648 206.047 182.648C205.656 182.643 205.32 182.742 205.039 182.945C204.763 183.148 204.591 183.453 204.523 183.859L204.406 184.547H206.039L205.75 186.203H204.125L202.945 193H200.727ZM210.609 184.391C211.354 184.401 211.995 184.594 212.531 184.969C213.073 185.339 213.469 185.852 213.719 186.508C213.974 187.159 214.065 187.883 213.992 188.68C213.872 190.023 213.404 191.112 212.586 191.945C211.773 192.773 210.768 193.177 209.57 193.156C208.836 193.146 208.201 192.958 207.664 192.594C207.128 192.224 206.732 191.714 206.477 191.062C206.221 190.411 206.13 189.693 206.203 188.906C206.339 187.51 206.812 186.401 207.625 185.578C208.438 184.755 209.432 184.359 210.609 184.391ZM208.383 189.711C208.393 190.211 208.51 190.607 208.734 190.898C208.958 191.185 209.273 191.333 209.68 191.344C210.357 191.365 210.888 191.055 211.273 190.414C211.659 189.768 211.839 188.922 211.812 187.875C211.792 187.375 211.669 186.977 211.445 186.68C211.227 186.378 210.911 186.221 210.5 186.211C209.844 186.19 209.318 186.5 208.922 187.141C208.531 187.776 208.352 188.633 208.383 189.711ZM220.422 186.664C220.12 186.612 219.872 186.586 219.68 186.586C218.893 186.565 218.271 186.859 217.812 187.469L216.836 193H214.633L216.102 184.547L218.172 184.539L217.969 185.57C218.5 184.773 219.156 184.375 219.938 184.375C220.156 184.375 220.411 184.411 220.703 184.484L220.422 186.664ZM228.805 182.469L228.438 184.547H229.844L229.555 186.203H228.148L227.43 190.438C227.398 190.703 227.419 190.906 227.492 191.047C227.565 191.188 227.742 191.263 228.023 191.273C228.107 191.279 228.331 191.266 228.695 191.234L228.539 192.961C228.148 193.091 227.727 193.151 227.273 193.141C226.549 193.13 226.01 192.904 225.656 192.461C225.302 192.018 225.156 191.419 225.219 190.664L225.945 186.203H224.75L225.039 184.547H226.234L226.594 182.469H228.805ZM233.023 185.484C233.685 184.745 234.448 184.38 235.312 184.391C236.151 184.411 236.766 184.714 237.156 185.297C237.552 185.875 237.701 186.667 237.602 187.672L236.711 193H234.508L235.406 187.648C235.432 187.445 235.438 187.258 235.422 187.086C235.37 186.523 235.042 186.234 234.438 186.219C233.844 186.198 233.323 186.453 232.875 186.984L231.812 193H229.609L231.688 181H233.898L233.023 185.484ZM242.445 193.156C241.706 193.151 241.049 192.971 240.477 192.617C239.909 192.258 239.484 191.768 239.203 191.148C238.922 190.523 238.812 189.836 238.875 189.086L238.898 188.773C238.977 187.951 239.216 187.195 239.617 186.508C240.018 185.82 240.534 185.292 241.164 184.922C241.794 184.547 242.492 184.37 243.258 184.391C244.346 184.411 245.169 184.812 245.727 185.594C246.289 186.37 246.503 187.354 246.367 188.547L246.242 189.508H241.062C241.042 190.055 241.174 190.492 241.461 190.82C241.747 191.148 242.138 191.318 242.633 191.328C243.435 191.349 244.138 191.039 244.742 190.398L245.75 191.648C245.432 192.128 244.974 192.503 244.375 192.773C243.776 193.039 243.133 193.167 242.445 193.156ZM243.148 186.211C242.742 186.201 242.38 186.328 242.062 186.594C241.75 186.859 241.469 187.32 241.219 187.977H244.25L244.297 187.773C244.328 187.565 244.331 187.367 244.305 187.18C244.253 186.878 244.125 186.643 243.922 186.477C243.719 186.305 243.461 186.216 243.148 186.211ZM250.992 193L252.969 181.625L256.234 181.633C257 181.648 257.688 181.823 258.297 182.156C258.911 182.484 259.409 182.958 259.789 183.578C260.169 184.198 260.398 184.896 260.477 185.672C260.518 186.125 260.513 186.589 260.461 187.062L260.406 187.477C260.177 189.143 259.521 190.482 258.438 191.492C257.359 192.497 256.049 193 254.508 193H250.992ZM254.93 183.523L253.609 191.117L254.562 191.125C255.615 191.125 256.458 190.74 257.094 189.969C257.734 189.198 258.102 188.034 258.195 186.477L258.211 186.227C258.227 185.367 258.062 184.708 257.719 184.25C257.375 183.792 256.862 183.552 256.18 183.531L254.93 183.523ZM265.039 193.156C264.299 193.151 263.643 192.971 263.07 192.617C262.503 192.258 262.078 191.768 261.797 191.148C261.516 190.523 261.406 189.836 261.469 189.086L261.492 188.773C261.57 187.951 261.81 187.195 262.211 186.508C262.612 185.82 263.128 185.292 263.758 184.922C264.388 184.547 265.086 184.37 265.852 184.391C266.94 184.411 267.763 184.812 268.32 185.594C268.883 186.37 269.096 187.354 268.961 188.547L268.836 189.508H263.656C263.635 190.055 263.768 190.492 264.055 190.82C264.341 191.148 264.732 191.318 265.227 191.328C266.029 191.349 266.732 191.039 267.336 190.398L268.344 191.648C268.026 192.128 267.568 192.503 266.969 192.773C266.37 193.039 265.727 193.167 265.039 193.156ZM265.742 186.211C265.336 186.201 264.974 186.328 264.656 186.594C264.344 186.859 264.062 187.32 263.812 187.977H266.844L266.891 187.773C266.922 187.565 266.924 187.367 266.898 187.18C266.846 186.878 266.719 186.643 266.516 186.477C266.312 186.305 266.055 186.216 265.742 186.211ZM272.938 190.211L275.344 184.547H277.719L273.633 193H271.523L270.078 184.547H272.312L272.938 190.211ZM280.164 189.508H278.328L279.438 181.625H281.789L280.164 189.508ZM277.602 191.977C277.591 191.633 277.701 191.344 277.93 191.109C278.159 190.87 278.451 190.745 278.805 190.734C279.138 190.724 279.427 190.828 279.672 191.047C279.917 191.26 280.044 191.542 280.055 191.891C280.065 192.234 279.956 192.526 279.727 192.766C279.497 193.005 279.203 193.13 278.844 193.141C278.479 193.141 278.18 193.026 277.945 192.797C277.716 192.568 277.602 192.294 277.602 191.977ZM283.914 185.133L282.797 184.477C283.333 183.706 283.669 183.029 283.805 182.445L284.062 181H285.82L285.641 182.156C285.464 183.307 284.888 184.299 283.914 185.133ZM286.539 185.133L285.422 184.477C285.958 183.706 286.294 183.029 286.43 182.445L286.688 181H288.445L288.266 182.156C288.089 183.307 287.513 184.299 286.539 185.133Z" fill="black"/>
</svg>
