<svg width="92" height="20" viewBox="0 0 92 20" fill="none" xmlns="http://www.w3.org/2000/svg">
<path d="M6.98239 7.16914L0.187756 7.16914L0.187756 2.74879L6.98239 2.74879L6.98239 7.16914Z" fill="#FF206E" stroke="#3C3C3B" stroke-width="0.375512"/>
<path d="M8.66157 18.2365V2.74879H15.4562V19.1048C15.4562 19.2896 15.4372 19.3918 15.4163 19.4424C15.4143 19.4471 15.4125 19.451 15.4109 19.4541C15.3914 19.4502 15.3513 19.4371 15.2831 19.398C15.1989 19.3496 15.0987 19.2777 14.9788 19.1874C14.9412 19.1591 14.902 19.1292 14.8612 19.0981C14.6488 18.9361 14.3953 18.7428 14.1203 18.5831C13.7915 18.3921 13.4122 18.2365 13.0038 18.2365H8.66157Z" fill="#20FFB1" stroke="#3C3C3B" stroke-width="0.375512"/>
<path d="M6.98239 18.2145L0.187756 18.2145L0.187756 8.817L6.98239 8.817L6.98239 18.2145Z" fill="#FF206E" stroke="#3C3C3B" stroke-width="0.375512"/>
<path d="M23.9948 18.4077H21V2.84484H23.9948V9.22562H24.6527L28.85 2.84484H32.2304V2.97824L27.3299 10.4262V10.8264L32.5027 18.2743V18.4077H28.9861L24.6527 12.0269H23.9948V18.4077Z" fill="#333333"/>
<path d="M45.9408 13.0274C45.9408 13.9464 45.7819 14.7616 45.4643 15.473C45.1467 16.1696 44.7156 16.7625 44.1711 17.2516C43.6266 17.7259 42.9989 18.089 42.288 18.341C41.5923 18.593 40.8587 18.719 40.0873 18.719C39.3159 18.719 38.5748 18.593 37.8639 18.341C37.1682 18.089 36.548 17.7259 36.0035 17.2516C35.459 16.7625 35.0279 16.1696 34.7103 15.473C34.3927 14.7616 34.2339 13.9464 34.2339 13.0274V12.7606C34.2339 11.8565 34.3927 11.0561 34.7103 10.3595C35.0279 9.64804 35.459 9.04776 36.0035 8.55864C36.548 8.06952 37.1682 7.69898 37.8639 7.44701C38.5748 7.19503 39.3159 7.06905 40.0873 7.06905C40.8587 7.06905 41.5923 7.19503 42.288 7.44701C42.9989 7.69898 43.6266 8.06952 44.1711 8.55864C44.7156 9.04776 45.1467 9.64804 45.4643 10.3595C45.7819 11.0561 45.9408 11.8565 45.9408 12.7606V13.0274ZM40.0873 16.0511C40.4957 16.0511 40.8814 15.9844 41.2444 15.851C41.6074 15.7176 41.925 15.5249 42.1973 15.2729C42.4695 15.0209 42.6813 14.7171 42.8325 14.3614C42.9989 13.9908 43.0821 13.5758 43.0821 13.1163V12.6717C43.0821 12.2122 42.9989 11.8046 42.8325 11.4489C42.6813 11.0783 42.4695 10.7671 42.1973 10.5151C41.925 10.2631 41.6074 10.0705 41.2444 9.93707C40.8814 9.80367 40.4957 9.73697 40.0873 9.73697C39.6789 9.73697 39.2932 9.80367 38.9302 9.93707C38.5672 10.0705 38.2496 10.2631 37.9774 10.5151C37.7051 10.7671 37.4858 11.0783 37.3194 11.4489C37.1682 11.8046 37.0925 12.2122 37.0925 12.6717V13.1163C37.0925 13.5758 37.1682 13.9908 37.3194 14.3614C37.4858 14.7171 37.7051 15.0209 37.9774 15.2729C38.2496 15.5249 38.5672 15.7176 38.9302 15.851C39.2932 15.9844 39.6789 16.0511 40.0873 16.0511Z" fill="#333333"/>
<path d="M49.0105 15.7398H52.8221V10.0482H49.2828V7.38031H55.6807V15.7398H58.9478V18.4077H49.0105V15.7398ZM56.384 4.1121C56.384 4.40854 56.3235 4.69015 56.2025 4.95695C56.0967 5.20892 55.9454 5.43124 55.7488 5.62393C55.5521 5.80179 55.3177 5.95001 55.0455 6.06858C54.7883 6.17233 54.5161 6.22421 54.2287 6.22421C53.9262 6.22421 53.6464 6.17233 53.3893 6.06858C53.1321 5.95001 52.9052 5.80179 52.7086 5.62393C52.512 5.43124 52.3532 5.20892 52.2322 4.95695C52.1263 4.69015 52.0734 4.40854 52.0734 4.1121C52.0734 3.81567 52.1263 3.54147 52.2322 3.2895C52.3532 3.0227 52.512 2.80038 52.7086 2.62251C52.9052 2.42983 53.1321 2.28161 53.3893 2.17786C53.6464 2.05929 53.9262 2 54.2287 2C54.5161 2 54.7883 2.05929 55.0455 2.17786C55.3177 2.28161 55.5521 2.42983 55.7488 2.62251C55.9454 2.80038 56.0967 3.0227 56.2025 3.2895C56.3235 3.54147 56.384 3.81567 56.384 4.1121Z" fill="#333333"/>
<path d="M73.7244 13.0274C73.7244 13.9464 73.5656 14.7616 73.248 15.473C72.9303 16.1696 72.4993 16.7625 71.9547 17.2516C71.4102 17.7259 70.7825 18.089 70.0717 18.341C69.3759 18.593 68.6423 18.719 67.871 18.719C67.0996 18.719 66.3584 18.593 65.6476 18.341C64.9518 18.089 64.3317 17.7259 63.7872 17.2516C63.2426 16.7625 62.8116 16.1696 62.494 15.473C62.1763 14.7616 62.0175 13.9464 62.0175 13.0274V12.7606C62.0175 11.8565 62.1763 11.0561 62.494 10.3595C62.8116 9.64804 63.2426 9.04776 63.7872 8.55864C64.3317 8.06952 64.9518 7.69898 65.6476 7.44701C66.3584 7.19503 67.0996 7.06905 67.871 7.06905C68.6423 7.06905 69.3759 7.19503 70.0717 7.44701C70.7825 7.69898 71.4102 8.06952 71.9547 8.55864C72.4993 9.04776 72.9303 9.64804 73.248 10.3595C73.5656 11.0561 73.7244 11.8565 73.7244 12.7606V13.0274ZM67.871 16.0511C68.2793 16.0511 68.665 15.9844 69.028 15.851C69.391 15.7176 69.7087 15.5249 69.9809 15.2729C70.2532 15.0209 70.4649 14.7171 70.6162 14.3614C70.7825 13.9908 70.8657 13.5758 70.8657 13.1163V12.6717C70.8657 12.2122 70.7825 11.8046 70.6162 11.4489C70.4649 11.0783 70.2532 10.7671 69.9809 10.5151C69.7087 10.2631 69.391 10.0705 69.028 9.93707C68.665 9.80367 68.2793 9.73697 67.871 9.73697C67.4626 9.73697 67.0769 9.80367 66.7139 9.93707C66.3509 10.0705 66.0332 10.2631 65.761 10.5151C65.4887 10.7671 65.2694 11.0783 65.103 11.4489C64.9518 11.8046 64.8762 12.2122 64.8762 12.6717V13.1163C64.8762 13.5758 64.9518 13.9908 65.103 14.3614C65.2694 14.7171 65.4887 15.0209 65.761 15.2729C66.0332 15.5249 66.3509 15.7176 66.7139 15.851C67.0769 15.9844 67.4626 16.0511 67.871 16.0511Z" fill="#333333"/>
<path d="M80.1746 10.4929C80.1746 10.8486 80.3637 11.108 80.7418 11.271C81.1199 11.4192 81.8081 11.5452 82.8064 11.649C83.9559 11.7676 84.8937 12.1085 85.6197 12.6717C86.3457 13.2201 86.7087 13.9908 86.7087 14.9839V15.1173C86.7087 16.2141 86.3003 17.0886 85.4836 17.7407C84.6668 18.3929 83.5173 18.719 82.035 18.719C81.1578 18.719 80.4091 18.6078 79.7889 18.3855C79.1688 18.1632 78.6545 17.889 78.2462 17.5629C77.8378 17.222 77.5202 16.8514 77.2933 16.4512C77.0815 16.0362 76.9378 15.636 76.8622 15.2507L79.494 14.4058C79.615 14.8801 79.8646 15.2951 80.2427 15.6509C80.6359 16.0066 81.2334 16.1844 82.035 16.1844C82.7459 16.1844 83.2299 16.0807 83.487 15.8732C83.7593 15.6509 83.8954 15.4137 83.8954 15.1617C83.8954 15.0135 83.8576 14.8801 83.782 14.7616C83.7215 14.6282 83.6005 14.5096 83.419 14.4058C83.2375 14.2873 82.9879 14.1909 82.6703 14.1168C82.3678 14.0427 81.9821 13.9834 81.5132 13.9389C80.2427 13.8352 79.2293 13.5165 78.473 12.9829C77.7319 12.4345 77.3613 11.6342 77.3613 10.5818V10.4484C77.3613 9.90001 77.4823 9.4183 77.7244 9.00329C77.9664 8.58828 78.284 8.23997 78.6772 7.95836C79.0705 7.66192 79.5242 7.4396 80.0385 7.29138C80.5528 7.14316 81.0821 7.06905 81.6266 7.06905C82.3375 7.06905 82.9501 7.15798 83.4644 7.33584C83.9937 7.49888 84.4399 7.72121 84.8029 8.00282C85.1659 8.26961 85.4609 8.57346 85.6877 8.91436C85.9146 9.24044 86.0886 9.55911 86.2096 9.87037L83.6232 10.8931C83.487 10.4929 83.2526 10.1816 82.9198 9.9593C82.5871 9.72215 82.156 9.60358 81.6266 9.60358C81.1426 9.60358 80.7796 9.69251 80.5376 9.87037C80.2956 10.0334 80.1746 10.2409 80.1746 10.4929Z" fill="#333333"/>
</svg>
