<svg width="139" height="87" viewBox="0 0 139 87" fill="none" xmlns="http://www.w3.org/2000/svg">
<g clip-path="url(#clip0_50_385)">
<circle cx="139" cy="87" r="41" fill="#E58B8E" fill-opacity="0.25"/>
<circle r="53" fill="#92ACC9" fill-opacity="0.25"/>
<path d="M11 24C11.884 24.036 13.0687 24.072 14.5539 24.108C16.0744 24.144 17.5773 24.162 19.0625 24.162C20.7599 24.162 22.4042 24.144 23.9955 24.108C25.5868 24.072 26.7184 24.054 27.3903 24.054C30.6789 24.054 33.4018 24.4321 35.5589 25.1884C37.7513 25.9086 39.378 26.9709 40.4388 28.3753C41.5351 29.7798 42.0832 31.4723 42.0832 33.4529C42.0832 34.6773 41.8356 35.9197 41.3406 37.1801C40.8455 38.4044 39.9968 39.5568 38.7945 40.6371C37.6276 41.6814 36.0186 42.5277 33.9676 43.1759C31.9166 43.7881 29.3352 44.0942 26.2233 44.0942H21.1312V43.0138H25.6929C27.7793 43.0138 29.3529 42.6177 30.4137 41.8255C31.5099 40.9972 32.2526 39.9169 32.6415 38.5845C33.0659 37.2161 33.278 35.7036 33.278 34.0471C33.278 31.2022 32.783 29.0055 31.7928 27.4571C30.8027 25.8726 29.1053 25.0803 26.7007 25.0803C25.3216 25.0803 24.4199 25.3864 23.9955 25.9986C23.6065 26.6108 23.4121 27.8532 23.4121 29.7258V56.518C23.4121 57.8144 23.5005 58.7867 23.6773 59.4349C23.8894 60.0831 24.2784 60.5152 24.8442 60.7313C25.41 60.9474 26.2587 61.0914 27.3903 61.1634V62.2438C26.4355 62.1717 25.2332 62.1357 23.7834 62.1357C22.3335 62.0997 20.866 62.0817 19.3808 62.0817C17.6834 62.0817 16.0744 62.0997 14.5539 62.1357C13.0687 62.1357 11.884 62.1717 11 62.2438V61.1634C12.1316 61.0914 12.9803 60.9474 13.5461 60.7313C14.1119 60.5152 14.4832 60.0831 14.66 59.4349C14.8721 58.7867 14.9782 57.8144 14.9782 56.518V29.7258C14.9782 28.3933 14.8721 27.4211 14.66 26.8089C14.4832 26.1607 14.0942 25.7285 13.493 25.5125C12.9272 25.2604 12.0962 25.1163 11 25.0803V24ZM21.0251 43.1759C22.5457 43.2119 23.8541 43.2839 24.9503 43.392C26.0819 43.5 27.072 43.608 27.9207 43.7161C28.7694 43.7881 29.5297 43.8421 30.2016 43.8781C33.4195 44.1662 35.7887 44.8684 37.3093 45.9848C38.8652 47.1011 39.8731 48.7756 40.3328 51.0083L41.5527 56.572C41.871 58.0125 42.2069 59.0208 42.5606 59.597C42.9142 60.1731 43.4269 60.4612 44.0988 60.4612C44.5585 60.4252 44.9298 60.3172 45.2127 60.1371C45.531 59.9211 45.8669 59.615 46.2205 59.2188L46.9631 59.867C46.0084 60.9834 44.9829 61.7756 43.8866 62.2438C42.7904 62.7479 41.4643 63 39.9084 63C37.9989 63 36.4253 62.5859 35.1876 61.7576C33.9499 60.9294 33.1366 59.3989 32.7476 57.1662L31.7928 51.7645C31.5453 50.2521 31.2447 48.9377 30.8911 47.8213C30.5375 46.669 30.0424 45.7687 29.4059 45.1205C28.8048 44.4363 27.9561 44.0942 26.8598 44.0942H21.1312L21.0251 43.1759Z" fill="#0E0926"/>
<path d="M59.8198 33.5609C62.4013 33.5609 64.6644 34.0471 66.6093 35.0194C68.5543 35.9917 70.0748 37.5582 71.171 39.7188C72.2673 41.8795 72.8154 44.7424 72.8154 48.3075C72.8154 51.8726 72.2673 54.7355 71.171 56.8961C70.0748 59.0208 68.5543 60.5692 66.6093 61.5415C64.6644 62.5138 62.4013 63 59.8198 63C57.3091 63 55.0637 62.5138 53.0834 61.5415C51.1385 60.5692 49.6002 59.0208 48.4686 56.8961C47.3724 54.7355 46.8243 51.8726 46.8243 48.3075C46.8243 44.7424 47.3724 41.8795 48.4686 39.7188C49.6002 37.5582 51.1385 35.9917 53.0834 35.0194C55.0637 34.0471 57.3091 33.5609 59.8198 33.5609ZM59.8198 34.6413C58.4054 34.6413 57.2207 35.7216 56.266 37.8823C55.3112 40.0069 54.8338 43.482 54.8338 48.3075C54.8338 53.133 55.3112 56.608 56.266 58.7327C57.2207 60.8573 58.4054 61.9197 59.8198 61.9197C61.2697 61.9197 62.4543 60.8573 63.3737 58.7327C64.3285 56.608 64.8059 53.133 64.8059 48.3075C64.8059 43.482 64.3285 40.0069 63.3737 37.8823C62.4543 35.7216 61.2697 34.6413 59.8198 34.6413Z" fill="#0E0926"/>
<path d="M88.8571 33.5609C90.2363 33.5609 91.4916 33.723 92.6232 34.0471C93.7901 34.3352 94.7449 34.7133 95.4875 35.1814C96.4069 35.7576 97.1142 36.4778 97.6092 37.3421C98.1397 38.1704 98.4049 39.1427 98.4049 40.259C98.4049 41.5194 98.0159 42.5637 97.2379 43.392C96.46 44.1842 95.4521 44.5803 94.2145 44.5803C92.9768 44.5803 91.9867 44.2202 91.2441 43.5C90.5015 42.7798 90.1302 41.8075 90.1302 40.5831C90.1302 39.4307 90.4838 38.4765 91.191 37.7202C91.8983 36.928 92.7116 36.4058 93.631 36.1537C93.3481 35.7936 92.9238 35.4875 92.358 35.2355C91.7922 34.9834 91.1557 34.8573 90.4484 34.8573C89.3522 34.8573 88.3797 35.1814 87.5311 35.8296C86.7177 36.4778 86.0282 37.3781 85.4624 38.5305C84.8966 39.6828 84.4546 41.0332 84.1363 42.5817C83.8534 44.1302 83.712 45.8227 83.712 47.6593C83.712 50.4321 84.0479 52.6108 84.7198 54.1953C85.427 55.7798 86.3111 56.8961 87.3719 57.5443C88.4682 58.1925 89.5997 58.5166 90.7667 58.5166C91.4386 58.5166 92.1635 58.4086 92.9414 58.1925C93.7548 57.9765 94.5681 57.5443 95.3814 56.8961C96.2301 56.2479 97.0081 55.3296 97.7153 54.1413L98.617 54.4654C98.2281 55.7978 97.5915 57.1302 96.7075 58.4626C95.8234 59.795 94.6742 60.8934 93.2597 61.7576C91.8452 62.5859 90.1125 63 88.0615 63C85.763 63 83.6766 62.4958 81.8024 61.4875C79.9636 60.4432 78.4784 58.8587 77.3468 56.7341C76.2506 54.5734 75.7025 51.8006 75.7025 48.4155C75.7025 45.1745 76.2683 42.4557 77.3999 40.259C78.5668 38.0263 80.1404 36.3518 82.1207 35.2355C84.101 34.1191 86.3464 33.5609 88.8571 33.5609Z" fill="#0E0926"/>
<path d="M114.004 33.5609C116.586 33.5609 118.849 34.0471 120.794 35.0194C122.739 35.9917 124.259 37.5582 125.356 39.7188C126.452 41.8795 127 44.7424 127 48.3075C127 51.8726 126.452 54.7355 125.356 56.8961C124.259 59.0208 122.739 60.5692 120.794 61.5415C118.849 62.5138 116.586 63 114.004 63C111.494 63 109.248 62.5138 107.268 61.5415C105.323 60.5692 103.785 59.0208 102.653 56.8961C101.557 54.7355 101.009 51.8726 101.009 48.3075C101.009 44.7424 101.557 41.8795 102.653 39.7188C103.785 37.5582 105.323 35.9917 107.268 35.0194C109.248 34.0471 111.494 33.5609 114.004 33.5609ZM114.004 34.6413C112.59 34.6413 111.405 35.7216 110.451 37.8823C109.496 40.0069 109.018 43.482 109.018 48.3075C109.018 53.133 109.496 56.608 110.451 58.7327C111.405 60.8573 112.59 61.9197 114.004 61.9197C115.454 61.9197 116.639 60.8573 117.558 58.7327C118.513 56.608 118.991 53.133 118.991 48.3075C118.991 43.482 118.513 40.0069 117.558 37.8823C116.639 35.7216 115.454 34.6413 114.004 34.6413Z" fill="#0E0926"/>
</g>
<defs>
<clipPath id="clip0_50_385">
<rect width="139" height="87" rx="8" fill="white"/>
</clipPath>
</defs>
</svg>
