<svg width="428" height="428" viewBox="0 0 428 428" fill="none" xmlns="http://www.w3.org/2000/svg">
<g clip-path="url(#clip0_34_544)">
<circle cx="366.5" cy="366.5" r="116.5" fill="#E58B8E" fill-opacity="0.25"/>
<circle cx="23.5" cy="54.5" r="188.5" fill="#92ACC9" fill-opacity="0.25"/>
<path d="M94.3038 84.084C100.587 84.3353 109.007 84.5867 119.563 84.838C130.37 85.0893 141.052 85.215 151.608 85.215C163.672 85.215 175.359 85.0893 186.669 84.838C197.979 84.5867 206.022 84.461 210.797 84.461C234.171 84.461 253.524 87.1 268.855 92.378C284.438 97.4047 295.999 104.819 303.539 114.621C311.33 124.423 315.226 136.236 315.226 150.059C315.226 158.604 313.467 167.275 309.948 176.072C306.429 184.617 300.397 192.66 291.852 200.2C283.558 207.489 272.122 213.395 257.545 217.919C242.968 222.192 224.62 224.328 202.503 224.328H166.311V216.788H198.733C213.562 216.788 224.746 214.023 232.286 208.494C240.077 202.713 245.355 195.173 248.12 185.874C251.136 176.323 252.644 165.767 252.644 154.206C252.644 134.351 249.125 119.019 242.088 108.212C235.051 97.1533 222.987 91.624 205.896 91.624C196.094 91.624 189.685 93.7603 186.669 98.033C183.904 102.306 182.522 110.977 182.522 124.046V311.038C182.522 320.086 183.15 326.872 184.407 331.396C185.915 335.92 188.68 338.936 192.701 340.444C196.722 341.952 202.754 342.957 210.797 343.46V351C204.011 350.497 195.466 350.246 185.161 350.246C174.856 349.995 164.426 349.869 153.87 349.869C141.806 349.869 130.37 349.995 119.563 350.246C109.007 350.246 100.587 350.497 94.3038 351V343.46C102.347 342.957 108.379 341.952 112.4 340.444C116.421 338.936 119.06 335.92 120.317 331.396C121.825 326.872 122.579 320.086 122.579 311.038V124.046C122.579 114.747 121.825 107.961 120.317 103.688C119.06 99.164 116.296 96.148 112.023 94.64C108.002 92.8807 102.095 91.8753 94.3038 91.624V84.084ZM165.557 217.919C176.364 218.17 185.664 218.673 193.455 219.427C201.498 220.181 208.535 220.935 214.567 221.689C220.599 222.192 226.003 222.569 230.778 222.82C253.649 224.831 270.489 229.732 281.296 237.523C292.355 245.314 299.518 257.001 302.785 272.584L311.456 311.415C313.718 321.468 316.106 328.506 318.619 332.527C321.132 336.548 324.777 338.559 329.552 338.559C332.819 338.308 335.458 337.554 337.469 336.297C339.731 334.789 342.119 332.653 344.632 329.888L349.91 334.412C343.124 342.203 335.835 347.733 328.044 351C320.253 354.519 310.828 356.278 299.769 356.278C286.197 356.278 275.013 353.388 266.216 347.607C257.419 341.826 251.639 331.145 248.874 315.562L242.088 277.862C240.329 267.306 238.192 258.132 235.679 250.341C233.166 242.298 229.647 236.015 225.123 231.491C220.85 226.716 214.818 224.328 207.027 224.328H166.311L165.557 217.919Z" fill="#0C0E1D"/>
</g>
<defs>
<clipPath id="clip0_34_544">
<path d="M0 80C0 51.9974 0 37.9961 5.44967 27.3005C10.2433 17.8924 17.8924 10.2433 27.3005 5.44967C37.9961 0 51.9974 0 80 0H348C376.003 0 390.004 0 400.7 5.44967C410.108 10.2433 417.757 17.8924 422.55 27.3005C428 37.9961 428 51.9974 428 80V348C428 376.003 428 390.004 422.55 400.7C417.757 410.108 410.108 417.757 400.7 422.55C390.004 428 376.003 428 348 428H80C51.9974 428 37.9961 428 27.3005 422.55C17.8924 417.757 10.2433 410.108 5.44967 400.7C0 390.004 0 376.003 0 348V80Z" fill="white"/>
</clipPath>
</defs>
</svg>
