<svg width="169" height="57" viewBox="0 0 169 57" fill="none" xmlns="http://www.w3.org/2000/svg">
<path d="M131.525 44.3538L141.695 30.6042H159.718L164.867 47.5966L134.486 49.2829L131.525 44.3538Z" fill="#00D1CD"/>
<path fill-rule="evenodd" clip-rule="evenodd" d="M167.369 41.6947C161.498 26.9222 154.645 23.0288 154.645 15.6613V6.98356H156.081C156.461 6.98356 156.826 6.83118 157.096 6.55995C157.365 6.28871 157.516 5.92084 157.516 5.53726V2.64466C157.516 2.26108 157.365 1.89321 157.096 1.62198C156.826 1.35074 156.461 1.19836 156.081 1.19836H141.727C141.346 1.19836 140.981 1.35074 140.712 1.62198C140.443 1.89321 140.291 2.26108 140.291 2.64466V5.53726C140.291 5.92084 140.443 6.28871 140.712 6.55995C140.981 6.83118 141.346 6.98356 141.727 6.98356H143.162V15.6613C143.162 23.0288 136.31 26.9222 130.439 41.6947C128.57 46.3952 123.77 53.2651 148.904 53.2651C174.037 53.2651 169.237 46.3952 167.369 41.6947ZM162.726 46.7597C160.711 47.3671 156.701 48.0584 148.904 48.0584C141.107 48.0584 137.096 47.3671 135.081 46.7597C134.366 46.5456 134.088 45.7096 134.34 44.9431C134.972 43.0051 136.163 39.6554 138.391 35.9153C143.834 26.7776 149.481 37.3529 154.18 37.3529C158.88 37.3529 157.591 32.8376 159.416 35.9153C161.097 38.7629 162.455 41.791 163.467 44.9431C163.72 45.7096 163.441 46.5427 162.726 46.7597Z" fill="#333333"/>
<path d="M21.9341 3.90015C19.0865 3.32235 16.72 3.03345 14.8344 3.03345C12.8526 3.03345 11.323 3.63051 10.2455 4.82463C9.16808 5.99949 8.62935 7.67511 8.62935 9.8515V13.7228H16.0754V16.554H8.62935V44.9818H5.16607V16.554H0V13.7228H5.16607V9.73594C5.18531 6.57729 6.02227 4.16979 7.67695 2.51343C9.33163 0.83781 11.6405 0 14.6035 0C16.9893 0 20.5777 0.58743 25.3686 1.76229V44.9818H21.9341V3.90015Z" fill="#333333"/>
<path d="M54.6044 44.9818C54.2581 43.9995 54.0368 42.5454 53.9406 40.6194C52.7285 42.1987 51.1796 43.4217 49.2941 44.2884C47.4277 45.1358 45.446 45.5596 43.3488 45.5596C40.3473 45.5596 37.9133 44.7217 36.047 43.0461C34.1999 41.3705 33.2764 39.2519 33.2764 36.6903C33.2764 33.6472 34.5366 31.2397 37.0571 29.4678C39.5969 27.6959 43.1275 26.8099 47.649 26.8099H53.9118V23.2565C53.9118 21.0223 53.2191 19.2696 51.8338 17.9985C50.4677 16.7081 48.4667 16.0628 45.8308 16.0628C43.4257 16.0628 41.4343 16.6792 39.8566 17.9118C38.2789 19.1445 37.49 20.6275 37.49 22.3609L34.0268 22.332C34.0268 19.8474 35.1812 17.6999 37.49 15.8895C39.7989 14.0598 42.6369 13.145 46.004 13.145C49.4865 13.145 52.2282 14.0213 54.2293 15.7739C56.2495 17.5073 57.2885 19.9341 57.3462 23.0542V37.8459C57.3462 40.8697 57.6637 43.1328 58.2986 44.6351V44.9818H54.6044ZM43.7528 42.4972C46.0617 42.4972 48.1204 41.9387 49.929 40.8216C51.7569 39.7045 53.0844 38.2119 53.9118 36.3436V29.4678H47.7356C44.2916 29.5063 41.5979 30.1419 39.6546 31.3746C37.7113 32.5879 36.7397 34.2636 36.7397 36.4014C36.7397 38.1541 37.3842 39.6082 38.6733 40.7638C39.9817 41.9194 41.6749 42.4972 43.7528 42.4972Z" fill="#333333"/>
<path d="M85.2834 37.037C85.2834 35.3229 84.5907 33.9458 83.2054 32.9057C81.8393 31.8657 79.771 31.0568 77.0004 30.479C74.2297 29.8819 72.0748 29.2078 70.5356 28.4567C69.0156 27.6863 67.8804 26.7522 67.13 25.6543C66.3988 24.5565 66.0333 23.2276 66.0333 21.6675C66.0333 19.2022 67.0626 17.1703 69.1214 15.5717C71.1801 13.9539 73.816 13.145 77.0292 13.145C80.5117 13.145 83.3016 14.0117 85.3988 15.7451C87.5153 17.4592 88.5735 19.703 88.5735 22.4764H85.1102C85.1102 20.6467 84.3406 19.1252 82.8013 17.9118C81.2813 16.6984 79.3573 16.0917 77.0292 16.0917C74.7588 16.0917 72.931 16.6021 71.5457 17.6229C70.1796 18.6244 69.4966 19.9341 69.4966 21.552C69.4966 23.112 70.0642 24.3254 71.1993 25.1921C72.3538 26.0395 74.4414 26.8196 77.4621 27.5322C80.5021 28.2448 82.7725 29.0056 84.2732 29.8145C85.7932 30.6234 86.9188 31.596 87.6499 32.7324C88.3811 33.8687 88.7467 35.2458 88.7467 36.8637C88.7467 39.5023 87.6788 41.6113 85.5431 43.1906C83.4267 44.7699 80.656 45.5596 77.2312 45.5596C73.5948 45.5596 70.6414 44.6832 68.371 42.9306C66.1199 41.1586 64.9943 38.9245 64.9943 36.2281H68.4576C68.5923 38.2504 69.4388 39.8297 70.9973 40.966C72.575 42.0831 74.653 42.6417 77.2312 42.6417C79.6363 42.6417 81.5796 42.112 83.0611 41.0527C84.5426 39.9934 85.2834 38.6548 85.2834 37.037Z" fill="#333333"/>
<path d="M95.1537 29.0634C95.1537 24.1713 96.2312 20.3001 98.3861 17.4496C100.56 14.5798 103.523 13.145 107.275 13.145C111.489 13.145 114.692 14.7532 116.886 17.9696L117.059 13.7228H120.291V57H116.828V41.1105C114.558 44.0765 111.354 45.5596 107.217 45.5596C103.562 45.5596 100.637 44.1151 98.4438 41.2261C96.2504 38.3371 95.1537 34.4369 95.1537 29.5256V29.0634ZM98.6459 29.67C98.6459 33.7146 99.454 36.8926 101.07 39.2038C102.706 41.4957 104.966 42.6417 107.852 42.6417C111.989 42.6417 114.981 40.8409 116.828 37.2392V21.9275C115.962 20.0593 114.76 18.6244 113.221 17.6229C111.701 16.6021 109.93 16.0917 107.91 16.0917C105.005 16.0917 102.734 17.2473 101.099 19.5585C99.4636 21.8505 98.6459 25.221 98.6459 29.67Z" fill="#333333"/>
</svg>
