<svg width="337" height="28" viewBox="0 0 337 28" fill="none" xmlns="http://www.w3.org/2000/svg">
<g clip-path="url(#clip0)">
<path d="M143.365 27.47H117.593V20.648H125.851V1.138H135.151V20.648H143.37L143.365 27.47Z" fill="black"/>
<path d="M155.453 17.775H162.674V27.47H171.974V1.138H162.674V10.952H155.453V1.138H146.153V27.469H155.453V17.775Z" fill="black"/>
<path d="M197.859 7.961V1.138H175.959V27.469H197.822V20.648H185.259V17.377H195.389V11.077H185.259V7.965L197.859 7.961Z" fill="black"/>
<path d="M291.295 11.425L286.195 10.03C284.233 9.51399 283.874 8.99999 283.874 8.17199C283.874 7.14699 284.996 6.51 286.802 6.51C288.214 6.51 289.896 6.95499 289.896 9.07699V9.29901H298.311L298.297 9.06399C297.962 3.38899 293.697 0.00100136 286.885 0.00100136C284.039 -0.108163 281.232 0.697932 278.878 2.30099C277.895 2.97347 277.092 3.8778 276.542 4.93405C275.991 5.99029 275.709 7.1659 275.721 8.35699C275.721 12.292 277.997 14.851 282.679 16.181L287.943 17.688C290.003 18.273 290.393 18.78 290.393 19.51C290.393 20.763 289.254 21.398 287.009 21.398C284.727 21.398 283.252 20.243 283.252 18.455V18.235H274.969L274.975 18.463C275.142 24.426 279.687 27.985 287.133 27.985C290.67 27.985 293.585 27.185 295.563 25.664C296.561 24.8856 297.359 23.8813 297.892 22.7338C298.425 21.5862 298.678 20.3284 298.629 19.064C298.629 15.276 296.23 12.778 291.295 11.425Z" fill="black"/>
<path d="M329.18 11.425L324.08 10.03C322.118 9.51401 321.759 9.00001 321.759 8.17201C321.759 7.14701 322.881 6.51002 324.687 6.51002C326.099 6.51002 327.781 6.95501 327.781 9.07701V9.29902H336.195L336.181 9.06401C335.846 3.38901 331.581 0.00101999 324.769 0.00101999C321.923 -0.108074 319.117 0.698015 316.762 2.30101C315.779 2.9736 314.977 3.87798 314.427 4.93422C313.876 5.99045 313.594 7.16601 313.606 8.35701C313.606 12.292 315.882 14.851 320.564 16.181L325.828 17.688C327.888 18.273 328.278 18.78 328.278 19.51C328.278 20.763 327.139 21.398 324.894 21.398C322.612 21.398 321.137 20.243 321.137 18.455V18.235H312.854L312.86 18.463C313.027 24.426 317.572 27.985 325.018 27.985C328.555 27.985 331.47 27.185 333.448 25.664C334.446 24.8857 335.244 23.8813 335.777 22.7338C336.31 21.5862 336.563 20.3284 336.514 19.064C336.518 15.276 334.118 12.778 329.18 11.425Z" fill="black"/>
<path d="M255.3 10.902L261.524 1.16702H251.43L246.762 9.90402H244.209V1.16702H235.109V27.498H249.392C252.903 27.498 255.556 26.76 257.351 25.284C259.146 23.808 260.044 21.608 260.044 18.684C260.047 14.8254 258.465 12.2313 255.3 10.902ZM250.014 20.317C249.26 20.7557 248.389 20.9509 247.52 20.876H244.209V16.009H247.524C248.391 15.9359 249.259 16.1236 250.018 16.548C250.493 17.061 250.756 17.7342 250.756 18.433C250.756 19.1319 250.493 19.805 250.018 20.318L250.014 20.317Z" fill="black"/>
<path d="M272.535 1.16702H263.239V27.498H272.535V1.16702Z" fill="black"/>
<path d="M310.928 1.16702H301.632V27.498H310.928V1.16702Z" fill="black"/>
<path d="M218.863 20.693C218.056 20.7201 217.253 20.5734 216.507 20.2628C215.762 19.9522 215.092 19.4851 214.543 18.893C213.475 17.5594 212.896 15.9002 212.903 14.1917C212.909 12.4831 213.501 10.8284 214.579 9.503C215.116 8.90332 215.778 8.4286 216.518 8.11225C217.258 7.79591 218.059 7.64564 218.863 7.67201C220.062 7.61843 221.247 7.93935 222.255 8.59019C223.263 9.24103 224.044 10.1895 224.488 11.304H232.739C232.185 8.2352 230.548 5.46729 228.125 3.50401C225.522 1.39815 222.247 0.299874 218.9 0.410014C217.051 0.34991 215.208 0.666998 213.485 1.34196C211.762 2.01692 210.194 3.03562 208.877 4.33601C206.356 6.9995 204.951 10.5276 204.951 14.195C204.951 17.8624 206.356 21.3905 208.877 24.054C210.194 25.3544 211.762 26.3731 213.485 27.0481C215.208 27.723 217.051 28.0401 218.9 27.98C222.345 28.0756 225.706 26.9083 228.35 24.698C230.803 22.6137 232.397 19.6952 232.826 16.505H224.769C224.407 17.77 223.624 18.8739 222.551 19.6351C221.477 20.3963 220.177 20.7694 218.863 20.693V20.693Z" fill="black"/>
<path d="M9.2951 17.803H16.5161V27.498H25.8161V1.16602H16.5161V10.98H9.2951V1.16602H-0.00488281V27.497H9.2951V17.803Z" fill="black"/>
<path d="M46.1992 1.16702L44.9992 6.19403H37.8992L36.6622 1.16702H27.4062L35.9442 27.498H47.1152L55.6922 1.16702H46.1992ZM41.5312 20.756H41.4112L40.3742 16.288L39.2972 11.979H43.6462L41.5312 20.756Z" fill="black"/>
<path d="M110.499 27.509L100.948 14.437L110.141 1.17102H100.869L93.1882 12.689V1.16602H84.9502V27.508H93.1882V16.214L101.147 27.509H110.499Z" fill="black"/>
<path d="M68.9752 28C72.4201 28.0957 75.7811 26.9284 78.4252 24.718C80.8779 22.6336 82.4724 19.7151 82.9012 16.525H74.8442C74.4801 17.7885 73.6972 18.8907 72.6239 19.6503C71.5506 20.4099 70.2508 20.7818 68.9382 20.705C68.131 20.7323 67.3274 20.5857 66.5819 20.2751C65.8363 19.9646 65.1663 19.4973 64.6172 18.905C63.4919 17.6135 62.9049 15.9395 62.9772 14.228C62.9123 12.503 63.5127 10.819 64.6542 9.52403C65.191 8.92385 65.8529 8.4487 66.5933 8.132C67.3336 7.8153 68.1344 7.66476 68.9392 7.69102C70.1379 7.63752 71.3236 7.9586 72.3316 8.60963C73.3396 9.26066 74.1199 10.2094 74.5642 11.324H82.8152C82.2614 8.25519 80.6241 5.4872 78.2012 3.52403C75.5976 1.41817 72.323 0.319893 68.9762 0.430033C67.1265 0.369871 65.284 0.686923 63.5608 1.36189C61.8376 2.03685 60.2699 3.05559 58.9532 4.35603C57.6645 5.6436 56.6518 7.18028 55.9768 8.87226C55.3018 10.5642 54.9787 12.376 55.0272 14.197C54.9763 16.0237 55.2982 17.8416 55.9732 19.5397C56.6482 21.2379 57.6622 22.7807 58.9532 24.074C60.2698 25.3744 61.8373 26.393 63.5603 27.068C65.2833 27.7429 67.1257 28.0601 68.9752 28V28Z" fill="black"/>
</g>
<defs>
<clipPath id="clip0">
<rect width="336.514" height="28" fill="white"/>
</clipPath>
</defs>
</svg>
