<svg width="255" height="88" viewBox="0 0 255 88" fill="none" xmlns="http://www.w3.org/2000/svg">
<rect width="230.891" height="88.7756" rx="5" transform="matrix(1 0 -0.13191 0.991262 11.7104 0)" fill="#2F3437"/>
<path d="M29.405 35.9666L29.2 33.6196H42.9668L42.9331 33.583V35.8629L45.2521 35.9971C45.301 36.7804 45.3408 37.4449 45.3867 38.1825H52.2578C52.3251 37.4235 52.3894 36.7225 52.4628 35.9026H59.4471L59.4166 35.866V40.4624H61.6437C61.6957 39.7583 61.7477 39.0573 61.8028 38.2953H64.0024L64.1217 40.4655L66.2846 40.5874V45.1412H64.186C64.1401 44.428 64.0942 43.733 64.0452 42.974H59.5297V45.1625L61.7049 45.3302V47.5613L59.4166 47.665V52.2523L59.4502 52.2188H57.0028V47.7686H52.4475C52.3955 48.4819 52.3527 49.1494 52.3037 49.8565L50.0735 50.0089C50.0337 50.777 50.0001 51.4446 49.9664 52.1578L47.519 52.3803C47.5802 51.6091 47.6414 50.838 47.7148 49.8809L45.2062 50.0851C45.2704 49.3079 45.3316 48.5306 45.3959 47.7686H43.1718V49.823L45.2674 50.0516L45.506 52.1639L47.5832 52.3407C47.6536 53.0417 47.727 53.7428 47.8035 54.4987H52.3374L52.4934 52.3315H54.6196V56.9036H50.098C50.098 56.9036 49.9787 58.4886 49.9236 59.1988L49.9481 59.1835H45.3347V63.7556L42.927 63.9568V66.0599L42.9607 66.0234L40.7519 66.1544V54.6115H42.927V52.2706L40.7549 52.173V47.5705L38.5553 47.7137L38.5859 47.7442L38.387 45.51L38.3717 45.5252C39.6934 45.4551 41.0119 45.3668 42.3305 45.3241C43.2788 45.2905 44.2303 45.3241 45.2215 45.3241V40.6545L43.0463 40.5173V38.3532L40.761 38.2282L40.6356 35.9422H29.3652L29.405 35.9666ZM52.4383 40.6362V45.2875C53.7049 45.2875 54.8857 45.257 56.0758 45.2875C56.7978 45.3119 57.0548 45.0437 57.0364 44.3274C56.9967 42.9283 57.0364 41.5262 57.0364 40.1241C57.0364 38.0606 56.9661 38.0057 54.8001 38.4416C54.7511 39.0878 54.7022 39.7492 54.6471 40.5112L52.4383 40.6362ZM52.2089 47.5339V45.3667H47.7393V47.5339H52.2089Z" fill="white"/>
<path d="M68.6892 49.9691V45.3666H70.9378C70.9837 46.0676 71.0296 46.7626 71.0785 47.5337H75.5757C75.6246 46.851 75.6735 46.156 75.7317 45.3757L77.9619 45.202V42.9738H71.0785L70.9103 40.6451L68.7259 40.5202C68.6739 39.81 68.6219 39.115 68.5668 38.3347L66.3978 38.2311V36.0182L68.6066 35.9207C68.6403 35.18 68.6709 34.5064 68.7076 33.723H70.9684C71.0051 34.4027 71.0418 35.1068 71.0877 35.8902H73.2812C73.3179 35.1983 73.3546 34.5003 73.3944 33.723H80.2502V35.8902H78.0751V38.0939C78.2342 38.1335 78.3015 38.2128 78.381 38.2189C80.4154 38.3896 80.4154 38.3896 80.4154 40.4409C80.4154 41.5474 80.3543 42.6599 80.4307 43.7633C80.5072 44.8667 80.2655 45.5037 78.9959 45.2873C78.7297 45.2739 78.4628 45.2913 78.2005 45.3391V47.5368L80.3757 47.6709V52.185L78.2005 52.2856V56.7998L80.3757 56.9186V59.1254L78.0843 59.226V61.4602L80.2594 61.573V73.0763H78.0476C77.9955 72.3814 77.9497 71.7139 77.8915 70.9092H73.2353L73.269 70.9366V68.6323H71.1122C71.0663 69.4888 71.0234 70.2477 70.9806 71.0097L71.0112 70.9701L66.4773 71.0921L66.4957 71.1134C66.4498 70.3118 66.4039 69.5071 66.3519 68.6262L68.6586 68.4524C68.6923 67.7331 68.7229 67.0595 68.7596 66.2365H75.6705V59.1955L77.9619 59.0949V56.8851H73.373V52.2125H70.9255L70.9623 52.246V49.9295H68.6372L68.6892 49.9691ZM77.9619 38.2951H73.373V40.4622H77.9619V38.2951ZM75.7867 49.9295V52.0966H77.9619V49.9295H75.7867Z" fill="white"/>
<path d="M59.4961 52.3253H61.7263L61.8334 50.0393H68.7107L68.677 49.9996V52.3192H71.0113L70.9715 52.2857V63.8469H66.2908C66.2541 64.6607 66.2265 65.3283 66.1929 66.075L63.9963 66.2213V68.4068H61.7049V63.9597H59.4227C59.3829 64.6394 59.3462 65.3008 59.2973 66.1268H52.4965C52.4384 66.9559 52.3925 67.6509 52.3405 68.4068H50.1439V66.2731L52.319 66.1421V63.9292L50.0276 63.7463V59.1346L50.0062 59.1682H54.4483C54.5431 60.0307 54.6257 60.7684 54.7083 61.503H52.4322V63.7311H54.5737C54.6502 62.9325 54.7206 62.2071 54.7909 61.4511H57.1252C57.168 60.6099 57.2047 59.9271 57.2476 59.1682H59.5267V52.2918L59.4961 52.3253ZM68.6893 54.7211H61.8334V61.4511H68.7015L68.6893 54.7211Z" fill="white"/>
<path d="M72.1584 31.2995C70.3229 31.2995 68.4873 31.2995 66.6517 31.2995C64.9232 31.2813 64.0697 30.4278 64.0636 28.6874C64.0493 25.0297 64.0493 21.3721 64.0636 17.7144C64.0636 15.9984 64.8926 15.0657 66.6211 15.0413C70.3351 14.9864 74.0501 14.9864 77.7661 15.0413C79.4946 15.0657 80.3634 15.9557 80.3849 17.6839C80.4338 21.3416 80.4338 24.9992 80.3849 28.6569C80.3634 30.4674 79.4671 31.2873 77.6651 31.2995C75.8632 31.3117 73.994 31.2995 72.1584 31.2995ZM72.2043 28.9983H75.5389C77.0686 28.9282 77.965 28.1357 78.0108 26.636C78.0741 24.3378 78.0741 22.0386 78.0108 19.7383C77.9711 18.2722 77.1359 17.437 75.6644 17.3974C73.3577 17.3364 71.051 17.3364 68.7443 17.3974C67.2361 17.4401 66.4009 18.3454 66.3764 19.8572C66.3417 22.0701 66.3417 24.284 66.3764 26.4989C66.4039 28.0534 67.3095 28.9373 68.8666 28.9861C69.9802 29.0257 71.0938 29.0074 72.2043 29.0074V28.9983Z" fill="white"/>
<path d="M30.2133 31.3013C28.3777 31.3013 26.5421 31.3013 24.7066 31.3013C23.0393 31.3013 22.0725 30.4844 22.048 28.8628C21.9869 25.0741 21.993 21.2884 22.048 17.4997C22.0695 15.997 22.9505 15.0796 24.4588 15.0613C28.3012 14.9983 32.1437 14.9983 35.9861 15.0613C37.5525 15.0918 38.3785 16.0489 38.3907 17.6369C38.4193 21.3392 38.4193 25.0416 38.3907 28.744C38.3907 30.4417 37.473 31.2891 35.7292 31.3043C33.8875 31.3135 32.0488 31.3013 30.2133 31.3013ZM30.1796 29C31.2901 29 32.4007 29.0244 33.5112 29C35.0775 28.9543 36.0137 28.0856 36.0504 26.5616C36.1014 24.304 36.1014 22.0464 36.0504 19.7888C36.0167 18.3623 35.151 17.4631 33.7192 17.4205C31.4125 17.3504 29.1028 17.3504 26.7961 17.4205C25.2878 17.4601 24.4251 18.3349 24.3823 19.8589C24.3242 22.0718 24.3242 24.2908 24.3823 26.5036C24.4251 28.1435 25.3398 28.9908 26.9796 29.0274C28.0412 29.0091 29.0997 29.0091 30.1796 29.0091V29Z" fill="white"/>
<path d="M30.2463 56.8696C32.0421 56.8696 33.8348 56.8513 35.6276 56.8696C37.4968 56.894 38.3809 57.7627 38.3809 59.6128C38.3993 63.2319 38.3993 66.8489 38.3809 70.4639C38.3809 72.2257 37.4631 73.1462 35.6857 73.1644C32.0146 73.201 28.3434 73.201 24.6723 73.1644C22.9713 73.1431 22.0505 72.2287 22.0321 70.5309C21.9893 66.8733 21.9893 63.2156 22.0321 59.558C22.0474 57.781 22.9713 56.897 24.7396 56.8726C26.5721 56.8483 28.4107 56.8696 30.2463 56.8696ZM36.0589 65.0201C36.0589 63.9563 36.0834 62.8864 36.0589 61.8257C36.013 60.128 35.1412 59.2257 33.4218 59.1983C31.2865 59.1638 29.145 59.1638 26.9973 59.1983C25.3453 59.2227 24.4092 60.0761 24.3633 61.6916C24.3021 63.9045 24.3052 66.1235 24.3633 68.3363C24.4061 69.9122 25.2811 70.7931 26.8658 70.8357C29.0868 70.8937 31.314 70.8937 33.535 70.8357C35.1595 70.7931 36.0039 69.8634 36.0498 68.2175C36.0895 67.1507 36.0651 66.0869 36.0651 65.0201H36.0589Z" fill="white"/>
<path d="M49.9939 31.3706L49.9022 26.8747L49.8777 26.8991L52.3251 26.6827V19.8307L50.15 19.6844V17.4776L52.3251 17.3344C52.3741 16.6242 52.4199 15.9262 52.472 15.1428H54.7297V24.3083L56.9049 24.4546V26.6614H52.5484V31.2335H54.797L54.901 29.0663H56.9385L57.0456 31.2335H59.3095V22.1015H57.1343V19.8399L59.34 19.6661C59.3768 18.9559 59.4104 18.2975 59.4471 17.5325H61.714V33.614H64.0055V35.897H59.4961L59.5297 35.9305C59.4808 35.1959 59.4349 34.4583 59.3829 33.614H52.475C52.4199 32.8123 52.371 32.1235 52.3159 31.334H49.9603L49.9939 31.3706Z" fill="white"/>
<path d="M24.2348 35.9267H29.2551L29.2245 35.9023C29.1511 36.6135 29.0776 37.3247 29.0042 38.036C28.9338 38.0939 28.8727 38.1823 28.8053 38.1914C26.7373 38.4383 26.7373 38.4353 26.7373 40.6298C26.7373 41.8186 26.774 43.0134 26.7373 44.2022C26.7036 45.0221 26.9728 45.3269 27.8203 45.3177C29.0776 45.2994 30.3411 45.4244 31.6015 45.4884L31.5832 45.4701L31.2772 47.5763L29.2092 47.6922V52.2063H31.3507L31.4639 50.0392H33.688L33.8073 52.2063H38.3656V54.4863H26.7893V50.0392H24.3847V54.4863H22.0963V45.3421L24.2715 45.2293V35.8901L24.2348 35.9267Z" fill="white"/>
<path d="M49.9022 26.7856L47.7607 26.5936C47.724 25.8773 47.6873 25.1732 47.6444 24.399L45.4448 24.2771C45.3989 23.576 45.3561 22.9085 45.3041 22.1008H40.7549V15.0293H45.3439V19.5831L47.6536 19.7385C47.6873 20.4274 47.724 21.1284 47.7637 21.9606L50.1592 22.0825C50.0674 23.704 49.9787 25.2555 49.8869 26.8069C49.8777 26.81 49.9022 26.7856 49.9022 26.7856Z" fill="white"/>
<path d="M59.4502 70.9733L57.168 70.824C57.1129 71.6134 57.0639 72.3023 57.0089 73.0856H50.1438V70.9185H54.7725C54.8184 70.0925 54.8551 69.4188 54.898 68.6355H59.4165V71.0069L59.4502 70.9733Z" fill="white"/>
<path d="M45.3347 66.0204V73.0858H40.7457V70.9155L43.0371 70.7631V66.0356L43.0035 66.0722H45.3744L45.3347 66.0204Z" fill="white"/>
<path d="M59.386 70.9731L66.4804 71.031L66.4621 71.0127L66.2908 73.0854H59.4227V70.9365L59.386 70.9731Z" fill="white"/>
<path d="M31.5801 45.4673C31.4761 44.6839 31.3751 43.8975 31.2558 42.9984L29.1939 42.8795V40.7702C31.1335 40.3435 31.1335 40.3435 31.5312 42.8551L33.6727 43.0258V45.1411L31.574 45.4459L31.5801 45.4673Z" fill="white"/>
<path d="M33.7736 40.4622V38.295H38.3626V40.4622H33.7736Z" fill="white"/>
<path d="M38.3289 45.4671L36.1874 45.1287V42.9951H38.4482C38.4084 43.8455 38.3687 44.6685 38.3289 45.4915V45.4671Z" fill="white"/>
<path d="M45.3622 63.7763L47.623 63.9074V66.1599L45.35 66.0349L45.3989 66.0898C45.3989 65.3095 45.3989 64.5323 45.3989 63.752L45.3622 63.7763Z" fill="white"/>
<path d="M73.269 70.8936V73.0851H71.0969C71.0602 72.3627 71.0235 71.6281 70.9868 70.8936L70.9562 70.9301H73.2996L73.269 70.8936Z" fill="white"/>
<path d="M42.9576 26.7704L40.7549 26.6637V24.4966H42.8964C42.8964 25.2434 42.8964 26.0206 42.8964 26.81L42.9576 26.7704Z" fill="white"/>
<path d="M43.0678 28.9772C43.0494 28.2152 43.0341 27.4532 43.0127 26.6942L42.9668 26.7369L45.3347 26.6058V28.9803L45.3775 28.9437H43.0311L43.0678 28.9772Z" fill="white"/>
<path d="M42.9637 31.3391H40.7549V29.0561H42.9668L42.9301 29.0226V31.3757L42.9637 31.3391Z" fill="white"/>
<path d="M38.5033 47.7196C38.4605 48.3901 38.4207 49.0637 38.3748 49.8166H36.1752V47.5763L38.5339 47.747L38.5033 47.7196Z" fill="white"/>
<path d="M45.2918 29.0561H47.623V31.3604L47.6658 31.3208H45.3133L45.35 31.3574V29.0073L45.2918 29.0561Z" fill="white"/>
<path d="M24.1797 35.9024H22.0963V33.7352H24.3143L24.1461 35.9329L24.1797 35.9024Z" fill="white"/>
<path d="M43.0402 33.6558C43.0402 32.8725 43.0402 32.0861 43.0402 31.3027L43.0066 31.3393H45.3683L45.3316 31.3027V33.6193H43.0035L43.0402 33.6558Z" fill="white"/>
<path d="M47.5833 31.3028H49.9297L49.8961 31.2693C49.9297 32.013 49.9634 32.7567 49.997 33.5126H47.623V31.2632L47.5833 31.3028Z" fill="white"/>
<path d="M64.1095 56.8879H66.2846V59.0551H64.1095V56.8879Z" fill="white"/>
<path d="M72.235 19.717C75.126 19.717 75.6736 20.2809 75.6705 23.2558C75.6705 26.1027 75.0587 26.6818 72.0881 26.6788C69.298 26.6788 68.6831 26.0204 68.6831 23.0486C68.6984 20.3206 69.3378 19.717 72.235 19.717Z" fill="#41C4AB"/>
<path d="M30.283 19.717C33.1434 19.717 33.7369 20.3267 33.7339 23.2833C33.7339 26.057 33.0639 26.6818 30.0872 26.6788C27.3338 26.6788 26.722 26.0204 26.722 23.0211C26.725 20.2809 27.3338 19.717 30.283 19.717Z" fill="#41C4AB"/>
<path d="M30.283 61.6524C33.1434 61.6524 33.7369 62.262 33.7339 65.2155C33.7339 67.9923 33.0639 68.6141 30.0872 68.611C27.3338 68.611 26.722 67.9557 26.722 64.9534C26.725 62.2132 27.3338 61.6493 30.283 61.6524Z" fill="#41C4AB"/>
<mask id="mask0" mask-type="alpha" maskUnits="userSpaceOnUse" x="22" y="15" width="59" height="59">
<path d="M29.405 35.9666L29.2 33.6196H42.9668L42.9331 33.583V35.8629L45.2521 35.9971C45.301 36.7804 45.3408 37.4449 45.3867 38.1825H52.2578C52.3251 37.4235 52.3894 36.7225 52.4628 35.9026H59.4471L59.4166 35.866V40.4624H61.6437C61.6957 39.7583 61.7477 39.0573 61.8028 38.2953H64.0024L64.1217 40.4655L66.2846 40.5874V45.1412H64.186C64.1401 44.428 64.0942 43.733 64.0452 42.974H59.5297V45.1625L61.7049 45.3302V47.5613L59.4166 47.665V52.2523L59.4502 52.2188H57.0028V47.7686H52.4475C52.3955 48.4819 52.3527 49.1494 52.3037 49.8565L50.0735 50.0089C50.0337 50.777 50.0001 51.4446 49.9664 52.1578L47.519 52.3803C47.5802 51.6091 47.6414 50.838 47.7148 49.8809L45.2062 50.0851C45.2704 49.3079 45.3316 48.5306 45.3959 47.7686H43.1718V49.823L45.2674 50.0516L45.506 52.1639L47.5832 52.3407C47.6536 53.0417 47.727 53.7428 47.8035 54.4987H52.3374L52.4934 52.3315H54.6196V56.9036H50.098C50.098 56.9036 49.9787 58.4886 49.9236 59.1988L49.9481 59.1835H45.3347V63.7556L42.927 63.9568V66.0599L42.9607 66.0234L40.7519 66.1544V54.6115H42.927V52.2706L40.7549 52.173V47.5705L38.5553 47.7137L38.5859 47.7442L38.387 45.51L38.3717 45.5252C39.6934 45.4551 41.0119 45.3667 42.3305 45.3241C43.2788 45.2905 44.2303 45.3241 45.2215 45.3241V40.6545L43.0463 40.5173V38.3532L40.761 38.2282L40.6356 35.9422H29.3652L29.405 35.9666ZM52.4383 40.6362V45.2875C53.7049 45.2875 54.8857 45.257 56.0758 45.2875C56.7978 45.3119 57.0548 45.0437 57.0364 44.3274C56.9967 42.9283 57.0364 41.5262 57.0364 40.1241C57.0364 38.0606 56.9661 38.0057 54.8001 38.4416C54.7511 39.0878 54.7022 39.7492 54.6471 40.5112L52.4383 40.6362ZM52.2089 47.5339V45.3667H47.7393V47.5339H52.2089Z" fill="#333333"/>
<path d="M68.6892 49.9691V45.3666H70.9378C70.9837 46.0676 71.0296 46.7626 71.0785 47.5337H75.5757C75.6246 46.8509 75.6735 46.156 75.7317 45.3757L77.9619 45.202V42.9738H71.0785L70.9103 40.6451L68.7259 40.5202C68.6739 39.81 68.6219 39.115 68.5668 38.3347L66.3978 38.2311V36.0182L68.6066 35.9207C68.6403 35.18 68.6709 34.5064 68.7076 33.723H70.9684C71.0051 34.4027 71.0418 35.1068 71.0877 35.8902H73.2812C73.3179 35.1983 73.3546 34.5003 73.3944 33.723H80.2502V35.8902H78.0751V38.0939C78.2342 38.1335 78.3015 38.2128 78.381 38.2189C80.4154 38.3896 80.4154 38.3896 80.4154 40.4409C80.4154 41.5474 80.3543 42.6599 80.4307 43.7633C80.5072 44.8667 80.2655 45.5037 78.9959 45.2873C78.7297 45.2739 78.4628 45.2913 78.2005 45.3391V47.5368L80.3757 47.6709V52.185L78.2005 52.2856V56.7998L80.3757 56.9186V59.1254L78.0843 59.226V61.4602L80.2594 61.573V73.0763H78.0476C77.9955 72.3814 77.9497 71.7139 77.8915 70.9092H73.2353L73.269 70.9366V68.6323H71.1122C71.0663 69.4888 71.0234 70.2477 70.9806 71.0097L71.0112 70.9701L66.4773 71.0921L66.4957 71.1134C66.4498 70.3118 66.4039 69.5071 66.3519 68.6262L68.6586 68.4524C68.6923 67.7331 68.7229 67.0595 68.7596 66.2365H75.6705V59.1955L77.9619 59.0949V56.8851H73.373V52.2125H70.9255L70.9623 52.246V49.9295H68.6372L68.6892 49.9691ZM77.9619 38.2951H73.373V40.4622H77.9619V38.2951ZM75.7867 49.9295V52.0966H77.9619V49.9295H75.7867Z" fill="#333333"/>
<path d="M59.4961 52.3253H61.7263L61.8334 50.0393H68.7107L68.677 49.9996V52.3192H71.0113L70.9715 52.2857V63.8469H66.2908C66.2541 64.6607 66.2265 65.3283 66.1929 66.075L63.9963 66.2213V68.4068H61.7049V63.9597H59.4227C59.3829 64.6394 59.3462 65.3008 59.2973 66.1268H52.4965C52.4384 66.9559 52.3925 67.6509 52.3405 68.4068H50.1439V66.2731L52.319 66.1421V63.9292L50.0276 63.7463V59.1346L50.0062 59.1682H54.4483C54.5431 60.0307 54.6257 60.7684 54.7083 61.503H52.4322V63.7311H54.5737C54.6502 62.9325 54.7206 62.2071 54.7909 61.4511H57.1252C57.168 60.6099 57.2047 59.9271 57.2476 59.1682H59.5267V52.2918L59.4961 52.3253ZM68.6893 54.7211H61.8334V61.4511H68.7015L68.6893 54.7211Z" fill="#333333"/>
<path d="M72.1584 31.2995C70.3229 31.2995 68.4873 31.2995 66.6517 31.2995C64.9232 31.2813 64.0697 30.4278 64.0636 28.6874C64.0493 25.0297 64.0493 21.3721 64.0636 17.7144C64.0636 15.9984 64.8926 15.0657 66.6211 15.0413C70.3351 14.9864 74.0501 14.9864 77.7661 15.0413C79.4946 15.0657 80.3634 15.9557 80.3849 17.6839C80.4338 21.3416 80.4338 24.9992 80.3849 28.6569C80.3634 30.4674 79.4671 31.2873 77.6651 31.2995C75.8632 31.3117 73.994 31.2995 72.1584 31.2995ZM72.2043 28.9983H75.5389C77.0686 28.9282 77.965 28.1357 78.0108 26.636C78.0741 24.3378 78.0741 22.0386 78.0108 19.7383C77.9711 18.2722 77.1359 17.437 75.6644 17.3974C73.3577 17.3364 71.051 17.3364 68.7443 17.3974C67.2361 17.4401 66.4009 18.3454 66.3764 19.8572C66.3417 22.0701 66.3417 24.284 66.3764 26.4989C66.4039 28.0534 67.3095 28.9373 68.8666 28.9861C69.9802 29.0257 71.0938 29.0074 72.2043 29.0074V28.9983Z" fill="#333333"/>
<path d="M30.2133 31.3013C28.3777 31.3013 26.5421 31.3013 24.7066 31.3013C23.0393 31.3013 22.0725 30.4844 22.048 28.8628C21.9869 25.0741 21.993 21.2884 22.048 17.4997C22.0695 15.997 22.9505 15.0796 24.4588 15.0613C28.3012 14.9983 32.1437 14.9983 35.9861 15.0613C37.5525 15.0918 38.3785 16.0489 38.3907 17.6369C38.4193 21.3392 38.4193 25.0416 38.3907 28.744C38.3907 30.4417 37.473 31.2891 35.7292 31.3043C33.8875 31.3135 32.0488 31.3013 30.2133 31.3013ZM30.1796 29C31.2901 29 32.4007 29.0244 33.5112 29C35.0775 28.9543 36.0137 28.0856 36.0504 26.5616C36.1014 24.304 36.1014 22.0464 36.0504 19.7888C36.0167 18.3623 35.151 17.4631 33.7192 17.4205C31.4125 17.3504 29.1028 17.3504 26.7961 17.4205C25.2878 17.4601 24.4251 18.3349 24.3823 19.8589C24.3242 22.0718 24.3242 24.2908 24.3823 26.5036C24.4251 28.1435 25.3398 28.9908 26.9796 29.0274C28.0412 29.0091 29.0997 29.0091 30.1796 29.0091V29Z" fill="#333333"/>
<path d="M30.2463 56.8696C32.0421 56.8696 33.8348 56.8513 35.6276 56.8696C37.4968 56.894 38.3809 57.7627 38.3809 59.6128C38.3993 63.2319 38.3993 66.8489 38.3809 70.4639C38.3809 72.2257 37.4631 73.1462 35.6857 73.1644C32.0146 73.201 28.3434 73.201 24.6723 73.1644C22.9713 73.1431 22.0505 72.2287 22.0321 70.5309C21.9893 66.8733 21.9893 63.2156 22.0321 59.558C22.0474 57.781 22.9713 56.897 24.7396 56.8726C26.5721 56.8483 28.4107 56.8696 30.2463 56.8696ZM36.0589 65.0201C36.0589 63.9563 36.0834 62.8864 36.0589 61.8257C36.013 60.128 35.1412 59.2257 33.4218 59.1983C31.2865 59.1638 29.145 59.1638 26.9973 59.1983C25.3453 59.2227 24.4092 60.0761 24.3633 61.6916C24.3021 63.9045 24.3052 66.1235 24.3633 68.3363C24.4061 69.9122 25.2811 70.7931 26.8658 70.8357C29.0868 70.8937 31.314 70.8937 33.535 70.8357C35.1595 70.7931 36.0039 69.8634 36.0498 68.2175C36.0895 67.1507 36.0651 66.0869 36.0651 65.0201H36.0589Z" fill="#333333"/>
<path d="M49.9939 31.3706L49.9022 26.8747L49.8777 26.8991L52.3251 26.6827V19.8307L50.15 19.6844V17.4776L52.3251 17.3344C52.3741 16.6242 52.4199 15.9262 52.472 15.1428H54.7297V24.3083L56.9049 24.4546V26.6614H52.5484V31.2335H54.797L54.901 29.0663H56.9385L57.0456 31.2335H59.3095V22.1015H57.1343V19.8399L59.34 19.6661C59.3768 18.9559 59.4104 18.2975 59.4471 17.5325H61.714V33.614H64.0055V35.897H59.4961L59.5297 35.9305C59.4808 35.1959 59.4349 34.4583 59.3829 33.614H52.475C52.4199 32.8123 52.371 32.1235 52.3159 31.334H49.9603L49.9939 31.3706Z" fill="#333333"/>
<path d="M24.2348 35.9267H29.2551L29.2245 35.9023C29.1511 36.6135 29.0776 37.3247 29.0042 38.036C28.9338 38.0939 28.8727 38.1823 28.8053 38.1914C26.7373 38.4383 26.7373 38.4353 26.7373 40.6298C26.7373 41.8186 26.774 43.0134 26.7373 44.2022C26.7036 45.0221 26.9728 45.3269 27.8203 45.3177C29.0776 45.2994 30.3411 45.4244 31.6015 45.4884L31.5832 45.4701L31.2772 47.5763L29.2092 47.6922V52.2063H31.3507L31.4639 50.0392H33.688L33.8073 52.2063H38.3656V54.4863H26.7893V50.0392H24.3847V54.4863H22.0963V45.3421L24.2715 45.2293V35.8901L24.2348 35.9267Z" fill="#333333"/>
<path d="M49.9022 26.7856L47.7607 26.5936C47.724 25.8773 47.6873 25.1732 47.6444 24.399L45.4448 24.2771C45.3989 23.576 45.3561 22.9085 45.3041 22.1008H40.7549V15.0293H45.3439V19.5831L47.6536 19.7385C47.6873 20.4274 47.724 21.1284 47.7637 21.9606L50.1592 22.0825C50.0674 23.704 49.9787 25.2555 49.8869 26.8069C49.8777 26.81 49.9022 26.7856 49.9022 26.7856Z" fill="#333333"/>
<path d="M59.4502 70.9733L57.168 70.824C57.1129 71.6134 57.0639 72.3023 57.0089 73.0856H50.1438V70.9185H54.7725C54.8184 70.0925 54.8551 69.4188 54.898 68.6355H59.4165V71.0069L59.4502 70.9733Z" fill="#333333"/>
<path d="M45.3347 66.0204V73.0858H40.7457V70.9155L43.0371 70.7631V66.0356L43.0035 66.0722H45.3744L45.3347 66.0204Z" fill="#333333"/>
<path d="M59.386 70.9731L66.4804 71.031L66.4621 71.0127L66.2908 73.0854H59.4227V70.9365L59.386 70.9731Z" fill="#333333"/>
<path d="M31.5801 45.4673C31.4761 44.6839 31.3751 43.8975 31.2558 42.9984L29.1939 42.8795V40.7702C31.1335 40.3435 31.1335 40.3435 31.5312 42.8551L33.6727 43.0258V45.1411L31.574 45.4459L31.5801 45.4673Z" fill="#333333"/>
<path d="M33.7736 40.4622V38.295H38.3626V40.4622H33.7736Z" fill="#333333"/>
<path d="M38.3289 45.4671L36.1874 45.1287V42.9951H38.4482C38.4084 43.8455 38.3687 44.6685 38.3289 45.4915V45.4671Z" fill="#333333"/>
<path d="M45.3622 63.7763L47.623 63.9074V66.1599L45.35 66.0349L45.3989 66.0898C45.3989 65.3095 45.3989 64.5323 45.3989 63.752L45.3622 63.7763Z" fill="#333333"/>
<path d="M73.269 70.8936V73.0851H71.0969C71.0602 72.3627 71.0235 71.6281 70.9868 70.8936L70.9562 70.9301H73.2996L73.269 70.8936Z" fill="#333333"/>
<path d="M42.9576 26.7704L40.7549 26.6637V24.4966H42.8964C42.8964 25.2434 42.8964 26.0206 42.8964 26.81L42.9576 26.7704Z" fill="#333333"/>
<path d="M43.0678 28.9772C43.0494 28.2152 43.0341 27.4532 43.0127 26.6942L42.9668 26.7369L45.3347 26.6058V28.9803L45.3775 28.9437H43.0311L43.0678 28.9772Z" fill="#333333"/>
<path d="M42.9637 31.3391H40.7549V29.0561H42.9668L42.9301 29.0226V31.3757L42.9637 31.3391Z" fill="#333333"/>
<path d="M38.5033 47.7196C38.4605 48.3901 38.4207 49.0637 38.3748 49.8166H36.1752V47.5763L38.5339 47.747L38.5033 47.7196Z" fill="#333333"/>
<path d="M45.2918 29.0561H47.623V31.3604L47.6658 31.3208H45.3133L45.35 31.3574V29.0073L45.2918 29.0561Z" fill="#333333"/>
<path d="M24.1797 35.9024H22.0963V33.7352H24.3143L24.1461 35.9329L24.1797 35.9024Z" fill="#333333"/>
<path d="M43.0402 33.6558C43.0402 32.8725 43.0402 32.0861 43.0402 31.3027L43.0066 31.3393H45.3683L45.3316 31.3027V33.6193H43.0035L43.0402 33.6558Z" fill="#333333"/>
<path d="M47.5833 31.3028H49.9297L49.8961 31.2693C49.9297 32.013 49.9634 32.7567 49.997 33.5126H47.623V31.2632L47.5833 31.3028Z" fill="#333333"/>
<path d="M64.1095 56.8879H66.2846V59.0551H64.1095V56.8879Z" fill="#333333"/>
<path d="M72.235 19.717C75.126 19.717 75.6736 20.2809 75.6705 23.2558C75.6705 26.1027 75.0587 26.6818 72.0881 26.6788C69.298 26.6788 68.6831 26.0204 68.6831 23.0486C68.6984 20.3206 69.3378 19.717 72.235 19.717Z" fill="#41C4AB"/>
<path d="M30.283 19.717C33.1434 19.717 33.7369 20.3267 33.7339 23.2833C33.7339 26.057 33.0639 26.6818 30.0872 26.6788C27.3338 26.6788 26.722 26.0204 26.722 23.0211C26.725 20.2809 27.3338 19.717 30.283 19.717Z" fill="#41C4AB"/>
<path d="M30.283 61.6524C33.1434 61.6524 33.7369 62.262 33.7339 65.2155C33.7339 67.9923 33.0639 68.6141 30.0872 68.611C27.3338 68.611 26.722 67.9557 26.722 64.9534C26.725 62.2132 27.3338 61.6493 30.283 61.6524Z" fill="#41C4AB"/>
</mask>
<g mask="url(#mask0)">
<path opacity="0.88" d="M33.6253 20.3798H54.1836C57.3263 20.3602 60.4607 20.7009 63.5249 21.395C66.2021 21.9832 68.7614 23.0126 71.0966 24.4405C73.1546 25.7107 74.8844 27.4427 76.147 29.4976C77.403 31.6321 78.0379 34.0714 77.981 36.5435C78.0402 39.0253 77.4124 41.4757 76.1659 43.6271C74.9561 45.644 73.3133 47.3707 71.3548 48.6841C69.2681 50.0736 66.9558 51.0949 64.5197 51.7032C61.9555 52.3657 59.3165 52.6993 56.667 52.6958H48.1004V73.2166H33.6253V20.3798ZM48.1004 47.5519H52.8622C54.3494 47.5878 55.8259 47.2925 57.1835 46.6877C58.3629 46.1371 59.4015 45.3281 60.2213 44.3215C61.0496 43.3021 61.6723 42.1335 62.0553 40.8797C62.4763 39.5526 62.6889 38.1689 62.6857 36.7774C62.7156 35.2204 62.4422 33.6724 61.8807 32.2186C61.3864 30.965 60.6439 29.8229 59.6972 28.8598C58.7786 27.9465 57.6779 27.2343 56.4658 26.769C55.1892 26.2856 53.8333 26.0425 52.4673 26.052H48.1004V47.5519Z" fill="#41C4AB"/>
</g>
<path d="M100.929 23.056C100.929 25.7668 100.012 27.8447 98.1761 29.2897C96.3405 30.7346 93.7401 31.4571 90.3749 31.4571H86.0537V43.0421H84.1034V15.0001H90.9485C97.6025 15.0001 100.929 17.6854 100.929 23.056ZM86.0537 29.7692H89.8969C93.0454 29.7692 95.3208 29.2513 96.7229 28.2155C98.1251 27.167 98.8262 25.4727 98.8262 23.1327C98.8262 20.9717 98.1633 19.3733 96.8377 18.3375C95.512 17.289 93.4597 16.7647 90.6809 16.7647H86.0537V29.7692Z" fill="white"/>
<path d="M117.359 43.0424H115.969V33.4488H104.447V43.0424H103.071V23.5349H104.447V32.1945H115.969V23.5349H117.359V43.0424Z" fill="white"/>
<path d="M122.958 43.0424V23.5349H124.334V43.0424H122.958Z" fill="white"/>
<path d="M129.92 43.0424V23.5349H131.296V41.7615H140.7V43.0424H129.92Z" fill="white"/>
<path d="M109.27 73.0704L107.682 73.0817L101.462 51.8824C100.946 50.1409 100.558 48.7123 100.298 47.5967C100.104 48.6905 99.8229 49.948 99.455 51.3694C99.0997 52.7907 97.1229 60.0619 93.5244 73.183L91.8989 73.1947L84.1034 45.7163L86.1259 45.7018L91.0917 63.4072C91.2858 64.1215 91.467 64.7856 91.6352 65.3996C91.8033 66.0011 91.9523 66.5713 92.0822 67.1102C92.2246 67.6365 92.348 68.1504 92.4524 68.6519C92.5693 69.1407 92.6736 69.6359 92.7654 70.1375C93.0557 68.4279 93.6798 65.8307 94.6378 62.346L99.2436 45.608L101.38 45.5927L107.055 64.7243C107.713 66.9293 108.186 68.7088 108.473 70.0628C108.63 69.1576 108.831 68.1957 109.076 67.177C109.333 66.1581 111.229 58.9314 114.762 45.4969L116.709 45.483L109.27 73.0704Z" fill="white"/>
<path d="M134.402 63.0982C134.402 66.1633 133.633 68.6006 132.095 70.4101C130.557 72.2109 128.436 73.1302 125.731 73.1682C123.035 73.206 120.918 72.3461 119.38 70.5886C117.842 68.8222 117.073 66.3977 117.073 63.315C117.073 60.2411 117.846 57.8126 119.393 56.0293C120.949 54.2372 123.07 53.3222 125.757 53.2845C128.462 53.2465 130.579 54.1064 132.108 55.8641C133.638 57.613 134.402 60.0244 134.402 63.0982ZM118.544 63.3208C118.544 66.0864 119.163 68.218 120.401 69.7155C121.638 71.2043 123.415 71.9324 125.731 71.8999C128.064 71.8671 129.845 71.0935 131.074 69.5789C132.312 68.0643 132.93 65.9109 132.93 63.1189C132.93 60.3357 132.312 58.2129 131.074 56.7506C129.845 55.2793 128.073 54.5599 125.757 54.5924C123.45 54.6248 121.669 55.3985 120.414 56.9134C119.168 58.4282 118.544 60.564 118.544 63.3208Z" fill="white"/>
<path d="M140.223 64.2849V72.7006L138.87 72.7196V53.4044L143.484 53.3396C145.889 53.3059 147.665 53.7257 148.815 54.5992C149.964 55.4638 150.538 56.7857 150.538 58.5649C150.538 59.8596 150.193 60.9566 149.504 61.8558C148.823 62.7549 147.785 63.4081 146.388 63.8152L151.652 72.5402L150.034 72.5629L145.036 64.2173L140.223 64.2849ZM140.223 63.1223L143.922 63.0703C145.557 63.0474 146.826 62.6685 147.727 61.9336C148.629 61.1899 149.08 60.109 149.08 58.691C149.08 57.2201 148.638 56.1562 147.754 55.4992C146.87 54.8422 145.429 54.5278 143.431 54.5558L140.223 54.6008V63.1223Z" fill="white"/>
<path d="M169.114 72.2952L167.748 72.3143L156.266 55.3269L156.16 55.3284C156.266 57.3703 156.319 58.9109 156.319 59.9502V72.4747L155.02 72.4929V53.1777L156.372 53.1588L167.841 70.1199L167.921 70.1188C167.841 68.5345 167.801 67.029 167.801 65.6021V52.9984L169.114 52.98V72.2952Z" fill="white"/>
<path d="M183.951 65.2698L176.075 65.3803L173.37 72.2354L171.872 72.2565L179.668 52.7526L180.53 52.7405L188.167 72.0278L186.642 72.0492L183.951 65.2698ZM176.565 64.158L183.5 64.0607L180.861 57.1353C180.64 56.5923 180.375 55.8386 180.066 54.8741C179.827 55.7229 179.566 56.4929 179.283 57.1838L176.565 64.158Z" fill="white"/>
<path d="M195.976 71.9182L194.611 71.9374V53.8905L188.313 53.9788V52.7105L202.274 52.5146V53.7829L195.976 53.8713V71.9182Z" fill="white"/>
<path d="M219.206 71.5922L217.84 71.6114V62.1123L206.517 62.2712V71.7703L205.165 71.7893V52.4741L206.517 52.4551V61.0293L217.84 60.8705V52.2962L219.206 52.277V71.5922Z" fill="white"/>
</svg>
