<svg width="120" height="31" viewBox="0 0 120 31" fill="none" xmlns="http://www.w3.org/2000/svg">
<path d="M13.447 21.846L16.42 18.288C18.24 19.674 20.312 20.258 22.266 20.258C23.268 20.258 23.703 19.991 23.703 19.54V19.49C23.703 19.006 23.185 18.755 21.398 18.388C17.656 17.62 14.366 16.551 14.366 13.026V12.976C14.366 9.802 16.838 7.346 21.448 7.346C24.672 7.346 27.044 8.114 28.981 9.634L26.241 13.409C24.7808 12.357 23.0296 11.785 21.23 11.772C20.395 11.772 20.01 12.056 20.01 12.457V12.507C20.01 12.957 20.46 13.242 22.232 13.577C26.508 14.362 29.364 15.597 29.364 18.972V19.005C29.364 22.513 26.464 24.651 21.998 24.651C18.608 24.668 15.568 23.716 13.446 21.845L13.447 21.846ZM34.927 12.392H30.017V7.665H45.417V12.392H40.507V24.352H34.927V12.392ZM59.264 18.672C61.284 17.686 62.554 15.999 62.554 13.577V13.527C62.554 11.807 62.036 10.57 61.034 9.567C59.864 8.397 57.977 7.663 55.021 7.663H46.871V24.35H52.451V19.59H53.637L56.777 24.35H63.141L59.264 18.672ZM56.992 13.978C56.992 14.998 56.174 15.598 54.854 15.598H52.45V12.341H54.89C56.176 12.341 57.01 12.859 57.01 13.945V13.978H56.992ZM71.09 6.962L62.087 24.352H68.067L71.09 18.272L74.113 24.352H80.093L71.09 6.962ZM97.55 6.962L88.547 24.352H94.527L97.55 18.272L100.573 24.352H106.553L97.55 6.962ZM84.32 25.037L93.34 7.647H87.36L84.337 13.727L81.297 7.647H75.317L84.32 25.037Z" fill="#FC5200"/>
</svg>
