<?xml version="1.0" encoding="UTF-8"?>
<svg fill="none" viewBox="0 0 326 90" xmlns="http://www.w3.org/2000/svg">
<mask id="b" x="2" y="4" width="115" height="81" style="mask-type:alpha" maskUnits="userSpaceOnUse">
<path d="m105.05 4.3398h-91.44c-6.282 0-11.483 4.9675-11.483 11.387v57.102c0 6.4271 5.2014 11.516 11.483 11.516h91.44c6.169 0 11.37-5.0885 11.37-11.516v-57.102c0-6.419-5.201-11.387-11.37-11.387z" fill="#ED1C24"/>
</mask>
<g mask="url(#b)">
<path d="m117.31 70.448h-115.74v16.04h115.74v-16.04z" fill="#834E94"/>
<path d="m117.31 56.296h-115.74v14.153h115.74v-14.153z" fill="#007EB8"/>
<path d="m117.31 42.143h-115.74v14.153h115.74v-14.153z" fill="#54944A"/>
<path d="M117.31 28.934H1.5725V43.0866H117.31V28.934Z" fill="#FFD300"/>
<path d="m117 14.781h-115.74v14.153h115.74v-14.153z" fill="#FC9200"/>
<path d="m117 1.5723h-115.74v14.153h115.74v-14.153z" fill="#ED1C24"/>
<path d="m108.07 72.829c0 1.8225-1.21 3.274-3.024 3.274h-91.44c-1.8063 0-3.1369-1.4515-3.1369-3.274v-57.102c0-1.8144 1.3306-3.266 3.1369-3.266h91.44c1.814 0 3.024 1.4516 3.024 3.266v57.102z" fill="#fff"/>
<mask id="a" x="1" y="18" width="119" height="69" style="mask-type:alpha" maskUnits="userSpaceOnUse">
<path d="m88.838 55.128c0-5.3304-3.3869-6.5481-8.3383-6.5481h-4.6047v13.459h4.4756c4.4837 0 8.4674-1.4515 8.4674-6.911zm-12.943-16.241h4.3627c4.1128 0 7.1287-1.8144 7.1287-6.3061 0-4.9756-3.8707-6.3062-7.9835-6.3062h-3.5079v12.612zm7.8626 31.636h-20.314v-52.369h21.289c10.04 0 15.475 4.1208 15.475 13.943 0 5.0966-4.2337 8.7254-8.8303 11.032 6.4191 1.8144 10.765 5.7013 10.765 12.241 0 10.669-8.9509 15.152-18.386 15.152z" fill="#ED1C24"/>
<path d="m45.429 45.185c0-10.548-1.0967-18.781-12.459-18.781h-2.5483v35.636h4.4756c6.6529 0 10.532-5.3304 10.532-16.854zm-8.3545 25.338h-19.225v-52.369h19.225c13.548 0 20.798 8.4835 20.798 25.942 0 15.161-4.8304 26.305-20.798 26.426z" fill="#ED1C24"/>
</mask>
<g mask="url(#a)">
<path d="m118.25 70.448h-115.74v16.04h115.74v-16.04z" fill="#834E94"/>
<path d="m118.25 56.296h-115.74v14.153h115.74v-14.153z" fill="#007EB8"/>
<path d="m118.25 42.143h-115.74v14.153h115.74v-14.153z" fill="#54944A"/>
<path d="m118.25 28.934h-115.74v14.153h115.74v-14.153z" fill="#FFD300"/>
<path d="m117.94 14.781h-115.74v14.153h115.74v-14.153z" fill="#FC9200"/>
<path d="m117.94 1.2578h-115.74v14.153h115.74v-14.153z" fill="#ED1C24"/>
</g>
</g>
<path d="m261.6 26.13v17.225h-15.83v-17.225h-11.443v44.401h11.443v-18.306h15.83v18.306h11.451v-44.401h-11.451z" fill="#231F20"/>
<path d="m310.75 26.13v24.273c-1.516-2.008-18.443-24.273-18.443-24.273h-9.612v44.401h9.725v-26.846c1.524 2.008 20.41 26.846 20.41 26.846h7.637v-44.401h-9.717z" fill="#231F20"/>
<path d="m156.44 50.91h6.863c4.395 0 6.185 1.5484 6.185 5.3385 0 4.1934-1.895 5.7498-6.959 5.7498h-6.089v-11.088zm6.145-7.3867h-6.145v-8.8787h6.387c3.202 0 4.564 1.3064 4.564 4.3869 0 3.1451-1.435 4.4918-4.806 4.4918zm9.524 3.3789c4.516-1.8871 6.379-4.4515 6.379-9.1932 0-7.5803-5.194-11.58-15.008-11.58h-18.483v44.401h18.129c11.652 0 17.805-4.4272 17.805-12.79 0-5.9675-2.822-9.298-8.822-10.838z" fill="#231F20"/>
<path d="m200.34 54.66 5.467-15.177 5.5 15.177h-10.967zm16.692 15.87h11.661l-17.023-44.401h-10.548l-17.274 44.401h10.79l2.895-8.0802h16.588l2.911 8.0802z" fill="#231F20"/>
</svg>
