<svg width="1035" height="286" viewBox="0 0 1035 286" fill="none" xmlns="http://www.w3.org/2000/svg">
<mask id="mask0_2519_3295" style="mask-type:alpha" maskUnits="userSpaceOnUse" x="6" y="13" width="365" height="256">
<path d="M334.011 13.7998H43.2686C23.2943 13.7998 6.75586 29.5946 6.75586 50.0048V231.568C6.75586 252.004 23.2943 268.184 43.2686 268.184H334.011C353.627 268.184 370.165 252.004 370.165 231.568V50.0048C370.165 29.5946 353.627 13.7998 334.011 13.7998Z" fill="#ED1C24"/>
</mask>
<g mask="url(#mask0_2519_3295)">
<path d="M373 224H5V275H373V224Z" fill="#834E94"/>
<path d="M373 179H5V224H373V179Z" fill="#007EB8"/>
<path d="M373 134H5V179H373V134Z" fill="#54944A"/>
<path d="M373 92H5V137H373V92Z" fill="#FFD300"/>
<path d="M372 47H4V92H372V47Z" fill="#FC9200"/>
<path d="M372 5H4V50H372V5Z" fill="#ED1C24"/>
<path d="M343.627 231.568C343.627 237.363 339.781 241.979 334.012 241.979H43.2688C37.5252 241.979 33.2944 237.363 33.2944 231.568V50.0047C33.2944 44.2355 37.5252 39.6201 43.2688 39.6201H334.012C339.781 39.6201 343.627 44.2355 343.627 50.0047V231.568Z" fill="white"/>
<mask id="mask1_2519_3295" style="mask-type:alpha" maskUnits="userSpaceOnUse" x="4" y="57" width="377" height="218">
<path d="M282.473 175.287C282.473 158.339 271.704 154.467 255.96 154.467H241.319V197.262H255.55C269.806 197.262 282.473 192.646 282.473 175.287ZM241.319 123.647H255.191C268.268 123.647 277.857 117.877 277.857 103.595C277.857 87.7748 265.55 83.5441 252.473 83.5441H241.319V123.647ZM266.319 224.236H201.729V57.7236H269.422C301.345 57.7236 318.627 70.8261 318.627 102.057C318.627 118.262 305.165 129.8 290.55 137.134C310.96 142.903 324.78 155.262 324.78 176.057C324.78 209.98 296.319 224.236 266.319 224.236Z" fill="#ED1C24"/>
<path d="M144.447 143.672C144.447 110.134 140.96 83.9543 104.832 83.9543H96.7296V197.262H110.96C132.114 197.262 144.447 180.313 144.447 143.672ZM117.883 224.236H56.7554V57.7236H117.883C160.96 57.7236 184.011 84.6979 184.011 140.211C184.011 188.416 168.652 223.851 117.883 224.236Z" fill="#ED1C24"/>
</mask>
<g mask="url(#mask1_2519_3295)">
<path d="M376 224H8V275H376V224Z" fill="#834E94"/>
<path d="M376 179H8V224H376V179Z" fill="#007EB8"/>
<path d="M376 134H8V179H376V134Z" fill="#54944A"/>
<path d="M376 92H8V137H376V92Z" fill="#FFD300"/>
<path d="M375 47H7V92H375V47Z" fill="#FC9200"/>
<path d="M375 4H7V49H375V4Z" fill="#ED1C24"/>
</g>
</g>
<path d="M831.779 83.082C831.779 83.082 831.779 135.056 831.779 137.851H781.446C781.446 135.056 781.446 83.082 781.446 83.082H745.062V224.261H781.446C781.446 224.261 781.446 168.851 781.446 166.056H831.779C831.779 168.851 831.779 224.261 831.779 224.261H868.189V83.082H831.779Z" fill="#231F20"/>
<path d="M988.06 83.082C988.06 83.082 988.06 152.441 988.06 160.261C983.24 153.877 929.419 83.082 929.419 83.082H898.855V224.261H929.778C929.778 224.261 929.778 146.774 929.778 138.902C934.625 145.287 994.676 224.261 994.676 224.261H1018.96V83.082H988.06Z" fill="#231F20"/>
<path d="M497.421 161.877C499.96 161.877 519.242 161.877 519.242 161.877C533.216 161.877 538.908 166.8 538.908 178.851C538.908 192.184 532.883 197.133 516.78 197.133C516.78 197.133 499.908 197.133 497.421 197.133V161.877ZM516.96 138.39C516.96 138.39 499.908 138.39 497.421 138.39V110.159C499.934 110.159 517.729 110.159 517.729 110.159C527.908 110.159 532.242 114.313 532.242 124.108C532.242 134.108 527.677 138.39 516.96 138.39ZM547.242 149.133C561.6 143.133 567.524 134.979 567.524 119.902C567.524 95.7999 551.011 83.082 519.806 83.082H461.037V224.261H518.677C555.729 224.261 575.293 210.184 575.293 183.595C575.293 164.62 566.318 154.031 547.242 149.133Z" fill="#231F20"/>
<path d="M637.01 173.799L654.395 125.542L671.882 173.799H637.01ZM690.087 224.26H727.164L673.036 83.0811H639.498L584.575 224.26H618.882L628.087 198.568H680.831L690.087 224.26Z" fill="#231F20"/>
</svg>
