<svg width="172" height="44" viewBox="0 0 172 44" fill="none" xmlns="http://www.w3.org/2000/svg">
<path d="M0 40.0878V0.00146484L157.56 0V20.0432L172 43.5015L157.56 40.0863L0 40.0878Z" fill="#7BD6C5"/>
<path d="M10.2039 24.6201H16.2684V26H8.50766V13.2031H10.2039V24.6201ZM21.8846 26.1758C20.5956 26.1758 19.5467 25.7539 18.7381 24.9102C17.9295 24.0605 17.5252 22.9268 17.5252 21.5088V21.21C17.5252 20.2666 17.7039 19.4258 18.0614 18.6875C18.4247 17.9434 18.9286 17.3633 19.5731 16.9473C20.2235 16.5254 20.9266 16.3145 21.6825 16.3145C22.9188 16.3145 23.8797 16.7217 24.5653 17.5361C25.2508 18.3506 25.5936 19.5166 25.5936 21.0342V21.7109H19.1512C19.1747 22.6484 19.4471 23.4072 19.9686 23.9873C20.4959 24.5615 21.1639 24.8486 21.9725 24.8486C22.5467 24.8486 23.0331 24.7314 23.4315 24.4971C23.8299 24.2627 24.1786 23.9521 24.4774 23.5654L25.4706 24.3389C24.6737 25.5635 23.4784 26.1758 21.8846 26.1758ZM21.6825 17.6504C21.0262 17.6504 20.4754 17.8906 20.0301 18.3711C19.5848 18.8457 19.3094 19.5137 19.2039 20.375H23.9676V20.252C23.9207 19.4258 23.6981 18.7871 23.2997 18.3359C22.9012 17.8789 22.3622 17.6504 21.6825 17.6504ZM29.6893 14.1875V16.4902H31.4647V17.7471H29.6893V23.6445C29.6893 24.0254 29.7684 24.3125 29.9266 24.5059C30.0848 24.6934 30.3543 24.7871 30.7352 24.7871C30.9227 24.7871 31.1805 24.752 31.5086 24.6816V26C31.0809 26.1172 30.6649 26.1758 30.2606 26.1758C29.534 26.1758 28.9862 25.9561 28.617 25.5166C28.2479 25.0771 28.0633 24.4531 28.0633 23.6445V17.7471H26.3319V16.4902H28.0633V14.1875H29.6893ZM33.4862 16.8066L32.5633 16.1738C33.1082 15.4121 33.3895 14.6094 33.4071 13.7656V12.5H35.0155V13.6426C35.0096 14.2285 34.8631 14.8145 34.576 15.4004C34.2948 15.9805 33.9315 16.4492 33.4862 16.8066ZM41.5282 23.4775C41.5282 23.0381 41.3612 22.6982 41.0272 22.458C40.6991 22.2119 40.1219 22.001 39.2957 21.8252C38.4754 21.6494 37.8221 21.4385 37.3358 21.1924C36.8553 20.9463 36.4979 20.6533 36.2635 20.3135C36.035 19.9736 35.9207 19.5693 35.9207 19.1006C35.9207 18.3213 36.2489 17.6621 36.9051 17.123C37.5672 16.584 38.411 16.3145 39.4364 16.3145C40.5145 16.3145 41.3875 16.5928 42.0555 17.1494C42.7293 17.7061 43.0663 18.418 43.0663 19.2852H41.4315C41.4315 18.8398 41.2411 18.4561 40.8602 18.1338C40.4852 17.8115 40.0106 17.6504 39.4364 17.6504C38.8446 17.6504 38.3817 17.7793 38.0477 18.0371C37.7137 18.2949 37.5467 18.6318 37.5467 19.0479C37.5467 19.4404 37.702 19.7363 38.0125 19.9355C38.3231 20.1348 38.8827 20.3252 39.6913 20.5068C40.5057 20.6885 41.1649 20.9053 41.6688 21.1572C42.1727 21.4092 42.5448 21.7139 42.785 22.0713C43.0311 22.4229 43.1541 22.8535 43.1541 23.3633C43.1541 24.2129 42.8143 24.8955 42.1346 25.4111C41.4549 25.9209 40.5731 26.1758 39.4891 26.1758C38.7274 26.1758 38.0536 26.041 37.4676 25.7715C36.8817 25.502 36.4217 25.127 36.0877 24.6465C35.7596 24.1602 35.5956 23.6357 35.5956 23.0732H37.2215C37.2508 23.6182 37.4676 24.0518 37.8719 24.374C38.2821 24.6904 38.8211 24.8486 39.4891 24.8486C40.1043 24.8486 40.5965 24.7256 40.9657 24.4795C41.3407 24.2275 41.5282 23.8936 41.5282 23.4775ZM51.3631 17.6416C52.0838 16.7568 53.0213 16.3145 54.1756 16.3145C56.1854 16.3145 57.1991 17.4482 57.2166 19.7158V26H55.5907V19.707C55.5848 19.0215 55.4266 18.5146 55.1161 18.1865C54.8114 17.8584 54.3338 17.6943 53.6834 17.6943C53.1561 17.6943 52.6932 17.835 52.2948 18.1162C51.8963 18.3975 51.5858 18.7666 51.3631 19.2236V26H49.7372V12.5H51.3631V17.6416ZM65.5223 26C65.4286 25.8125 65.3524 25.4785 65.2938 24.998C64.5379 25.7832 63.6356 26.1758 62.5868 26.1758C61.6493 26.1758 60.8788 25.9121 60.2752 25.3848C59.6776 24.8516 59.3788 24.1777 59.3788 23.3633C59.3788 22.373 59.7538 21.6055 60.5038 21.0605C61.2596 20.5098 62.3202 20.2344 63.6854 20.2344H65.2674V19.4873C65.2674 18.9189 65.0975 18.4678 64.7577 18.1338C64.4178 17.7939 63.9168 17.624 63.2547 17.624C62.6747 17.624 62.1883 17.7705 61.7957 18.0635C61.4032 18.3564 61.2069 18.7109 61.2069 19.127H59.5721C59.5721 18.6523 59.7391 18.1953 60.0731 17.7559C60.4129 17.3105 60.87 16.959 61.4442 16.7012C62.0243 16.4434 62.66 16.3145 63.3514 16.3145C64.4471 16.3145 65.3055 16.5898 65.9266 17.1406C66.5477 17.6855 66.87 18.4385 66.8934 19.3994V23.7764C66.8934 24.6494 67.0047 25.3438 67.2274 25.8594V26H65.5223ZM62.8241 24.7607C63.3338 24.7607 63.8172 24.6289 64.2743 24.3652C64.7313 24.1016 65.0623 23.7588 65.2674 23.3369V21.3857H63.993C62.0008 21.3857 61.0047 21.9688 61.0047 23.1348C61.0047 23.6445 61.1747 24.043 61.5145 24.3301C61.8543 24.6172 62.2909 24.7607 62.8241 24.7607ZM72.4393 23.7939L74.7948 16.4902H76.4559L73.0457 26H71.8065L68.3612 16.4902H70.0223L72.4393 23.7939ZM81.8436 26.1758C80.5545 26.1758 79.5057 25.7539 78.6971 24.9102C77.8885 24.0605 77.4842 22.9268 77.4842 21.5088V21.21C77.4842 20.2666 77.6629 19.4258 78.0204 18.6875C78.3836 17.9434 78.8875 17.3633 79.5321 16.9473C80.1825 16.5254 80.8856 16.3145 81.6414 16.3145C82.8778 16.3145 83.8387 16.7217 84.5243 17.5361C85.2098 18.3506 85.5526 19.5166 85.5526 21.0342V21.7109H79.1102C79.1336 22.6484 79.4061 23.4072 79.9276 23.9873C80.4549 24.5615 81.1229 24.8486 81.9315 24.8486C82.5057 24.8486 82.992 24.7314 83.3905 24.4971C83.7889 24.2627 84.1375 23.9521 84.4364 23.5654L85.4295 24.3389C84.6327 25.5635 83.4373 26.1758 81.8436 26.1758ZM81.6414 17.6504C80.9852 17.6504 80.4344 17.8906 79.9891 18.3711C79.5438 18.8457 79.2684 19.5137 79.1629 20.375H83.9266V20.252C83.8797 19.4258 83.6571 18.7871 83.2586 18.3359C82.8602 17.8789 82.3211 17.6504 81.6414 17.6504ZM97.7782 26C97.6844 25.8125 97.6082 25.4785 97.5497 24.998C96.7938 25.7832 95.8914 26.1758 94.8426 26.1758C93.9051 26.1758 93.1346 25.9121 92.5311 25.3848C91.9334 24.8516 91.6346 24.1777 91.6346 23.3633C91.6346 22.373 92.0096 21.6055 92.7596 21.0605C93.5155 20.5098 94.576 20.2344 95.9413 20.2344H97.5233V19.4873C97.5233 18.9189 97.3534 18.4678 97.0135 18.1338C96.6737 17.7939 96.1727 17.624 95.5106 17.624C94.9305 17.624 94.4442 17.7705 94.0516 18.0635C93.659 18.3564 93.4627 18.7109 93.4627 19.127H91.828C91.828 18.6523 91.995 18.1953 92.3289 17.7559C92.6688 17.3105 93.1258 16.959 93.7 16.7012C94.2801 16.4434 94.9159 16.3145 95.6073 16.3145C96.703 16.3145 97.5614 16.5898 98.1825 17.1406C98.8036 17.6855 99.1258 18.4385 99.1493 19.3994V23.7764C99.1493 24.6494 99.2606 25.3438 99.4832 25.8594V26H97.7782ZM95.0799 24.7607C95.5897 24.7607 96.0731 24.6289 96.5301 24.3652C96.9872 24.1016 97.3182 23.7588 97.5233 23.3369V21.3857H96.2489C94.2567 21.3857 93.2606 21.9688 93.2606 23.1348C93.2606 23.6445 93.4305 24.043 93.7704 24.3301C94.1102 24.6172 94.5467 24.7607 95.0799 24.7607ZM109.977 24.8486C110.557 24.8486 111.064 24.6729 111.498 24.3213C111.931 23.9697 112.172 23.5303 112.219 23.0029H113.757C113.727 23.5479 113.54 24.0664 113.194 24.5586C112.848 25.0508 112.386 25.4434 111.806 25.7363C111.231 26.0293 110.622 26.1758 109.977 26.1758C108.682 26.1758 107.651 25.7451 106.884 24.8838C106.122 24.0166 105.741 22.833 105.741 21.333V21.0605C105.741 20.1348 105.911 19.3115 106.251 18.5908C106.591 17.8701 107.077 17.3105 107.71 16.9121C108.348 16.5137 109.101 16.3145 109.969 16.3145C111.035 16.3145 111.92 16.6338 112.623 17.2725C113.332 17.9111 113.71 18.7402 113.757 19.7598H112.219C112.172 19.1445 111.937 18.6406 111.515 18.248C111.099 17.8496 110.584 17.6504 109.969 17.6504C109.142 17.6504 108.501 17.9492 108.044 18.5469C107.593 19.1387 107.367 19.9971 107.367 21.1221V21.4297C107.367 22.5254 107.593 23.3691 108.044 23.9609C108.495 24.5527 109.139 24.8486 109.977 24.8486ZM117.211 17.6416C117.931 16.7568 118.869 16.3145 120.023 16.3145C122.033 16.3145 123.047 17.4482 123.064 19.7158V26H121.438V19.707C121.432 19.0215 121.274 18.5146 120.964 18.1865C120.659 17.8584 120.181 17.6943 119.531 17.6943C119.004 17.6943 118.541 17.835 118.142 18.1162C117.744 18.3975 117.433 18.7666 117.211 19.2236V26H115.585V12.5H117.211V17.6416ZM131.37 26C131.276 25.8125 131.2 25.4785 131.141 24.998C130.386 25.7832 129.483 26.1758 128.434 26.1758C127.497 26.1758 126.726 25.9121 126.123 25.3848C125.525 24.8516 125.226 24.1777 125.226 23.3633C125.226 22.373 125.601 21.6055 126.351 21.0605C127.107 20.5098 128.168 20.2344 129.533 20.2344H131.115V19.4873C131.115 18.9189 130.945 18.4678 130.605 18.1338C130.265 17.7939 129.764 17.624 129.102 17.624C128.522 17.624 128.036 17.7705 127.643 18.0635C127.251 18.3564 127.055 18.7109 127.055 19.127H125.42C125.42 18.6523 125.587 18.1953 125.921 17.7559C126.261 17.3105 126.718 16.959 127.292 16.7012C127.872 16.4434 128.508 16.3145 129.199 16.3145C130.295 16.3145 131.153 16.5898 131.774 17.1406C132.395 17.6855 132.718 18.4385 132.741 19.3994V23.7764C132.741 24.6494 132.852 25.3438 133.075 25.8594V26H131.37ZM128.672 24.7607C129.181 24.7607 129.665 24.6289 130.122 24.3652C130.579 24.1016 130.91 23.7588 131.115 23.3369V21.3857H129.841C127.848 21.3857 126.852 21.9688 126.852 23.1348C126.852 23.6445 127.022 24.043 127.362 24.3301C127.702 24.6172 128.139 24.7607 128.672 24.7607ZM137.496 14.1875V16.4902H139.271V17.7471H137.496V23.6445C137.496 24.0254 137.575 24.3125 137.733 24.5059C137.891 24.6934 138.161 24.7871 138.542 24.7871C138.729 24.7871 138.987 24.752 139.315 24.6816V26C138.888 26.1172 138.472 26.1758 138.067 26.1758C137.341 26.1758 136.793 25.9561 136.424 25.5166C136.055 25.0771 135.87 24.4531 135.87 23.6445V17.7471H134.139V16.4902H135.87V14.1875H137.496ZM142.998 22.3877H141.53L141.416 13.2031H143.121L142.998 22.3877ZM141.354 25.1826C141.354 24.9189 141.433 24.6992 141.592 24.5234C141.756 24.3418 141.996 24.251 142.312 24.251C142.629 24.251 142.869 24.3418 143.033 24.5234C143.197 24.6992 143.279 24.9189 143.279 25.1826C143.279 25.4463 143.197 25.666 143.033 25.8418C142.869 26.0117 142.629 26.0967 142.312 26.0967C141.996 26.0967 141.756 26.0117 141.592 25.8418C141.433 25.666 141.354 25.4463 141.354 25.1826Z" fill="white"/>
</svg>
