<svg width="200" height="200" viewBox="0 0 200 200" fill="none" xmlns="http://www.w3.org/2000/svg">
<rect width="200" height="200" fill="black"/>
<path d="M54.9563 58H34V75.8799H55.002C68.2733 75.8799 79.0707 86.7005 79.0707 100C79.0707 113.299 68.2733 124.119 55.002 124.119H34V142H54.9563C78.067 142 96.8681 123.159 96.8681 100C96.8681 76.8413 78.0661 58 54.9563 58ZM145.001 123.457C132.094 123.457 121.593 112.936 121.593 100.002C121.593 87.0704 132.092 76.546 145.001 76.546H166V58H145.045C121.934 58 103.132 76.8405 103.132 100C103.132 123.159 121.934 142 145.045 142H166V123.455H145.001V123.457Z" fill="white"/>
</svg>
