<?xml version="1.0" encoding="UTF-8"?>
<svg width="790px" height="137px" viewBox="0 0 790 137" version="1.1" xmlns="http://www.w3.org/2000/svg" xmlns:xlink="http://www.w3.org/1999/xlink">
    <title>logo/ DB_und_mindbox_new-png</title>
    <g id="StyleGuide" stroke="none" stroke-width="1" fill="none" fill-rule="evenodd">
        <g id="99-StyleGuide" transform="translate(-83.000000, -188.000000)">
            <g id="Group-22" transform="translate(80.000000, 52.000000)">
                <g id="DB_und_mindbox_new" transform="translate(0.000000, 132.000000)">
                    <rect id="Rectangle" x="0" y="0" width="800.038059" height="144.777353"></rect>
                    <polygon id="Path" points="148.220742 111.556002 12.8639391 111.556002 12.8639391 18.8749026 148.220742 18.8749026"></polygon>
                    <path d="M30.9229305,28.6738692 L65.4234063,28.6738692 C86.9647954,28.6738692 99.6003806,42.5446394 99.6003806,72.5123528 C99.6003806,104.420832 86.3748811,117.18803 65.4234063,117.18803 L30.9229305,117.18803 L30.9229305,28.6738692 Z M109.267364,28.6738692 L147.859182,28.6738692 C164.015224,28.6738692 172.121789,38.3967273 172.121789,49.6227279 C172.121789,64.3497185 163.501427,69.3348238 156.822074,70.7618578 L156.822074,71.1424002 C166.812559,72.4362443 175.83254,79.5143328 175.83254,93.0616419 C175.775452,107.655443 165.195052,117.18803 145.480495,117.18803 L109.267364,117.18803 L109.267364,28.6738692 Z M52.2549952,42.5446394 L59.847764,42.5446394 C72.1027593,42.5446394 78.5918173,51.3732229 78.5918173,72.1127833 C78.5918173,95.9157099 70.9990485,103.05088 60.2283539,103.05088 L52.2549952,103.05088 L52.2549952,42.5446394 Z M130.409134,42.4114496 L138.572788,42.4114496 C146.945766,42.4114496 150.371075,47.0730939 150.371075,52.5338772 C150.371075,59.1553148 146.812559,63.7598778 138.439581,63.7598778 L130.390105,63.7598778 L130.390105,42.4114496 L130.409134,42.4114496 Z M130.409134,80.4276345 L140.456708,80.4276345 C150.371075,80.4276345 153.035205,85.2224686 153.035205,91.5204452 C153.035205,98.8458863 147.706946,103.069907 140.589914,103.069907 L130.409134,103.069907 L130.409134,80.4276345 Z M23.9771646,4.79483414 L179.980971,4.79483414 C191.075167,4.79483414 200.095147,13.7375803 200.095147,24.8303911 L200.095147,120.55583 C200.095147,131.64864 191.075167,140.667495 179.980971,140.667495 L23.9771646,140.667495 C12.8829686,140.667495 3.93910561,131.64864 3.93910561,120.55583 L3.93910561,24.8494182 C3.93910561,13.7566075 12.8829686,4.79483414 23.9771646,4.79483414 Z M24.2435775,18.4943602 L179.790676,18.4943602 C183.235014,18.4943602 186.013321,21.2913468 186.013321,24.7162283 L186.013321,120.708047 C186.013321,124.151955 183.215985,126.929915 179.790676,126.929915 L24.2435775,126.929915 C20.7992388,126.929915 18.0209324,124.132928 18.0209324,120.708047 L18.0209324,24.7162283 C18.0209324,21.2723197 20.7992388,18.4943602 24.2435775,18.4943602 Z" id="Shape" fill="#EC1B2D"></path>
                    <g id="g12" transform="translate(244.338725, 17.504950)">
                        <path d="M207.345385,82.6347804 L191.893435,82.6347804 L191.893435,46.9969854 C191.893435,39.2719748 186.336822,33.8682729 178.648906,33.8682729 L151.607992,33.8682729 L151.607992,82.6347804 L136.156042,82.6347804 L136.156042,26.086181 C136.156042,21.7670248 139.657469,18.4182518 143.939106,18.4182518 L178.763083,18.4182518 C195.261656,18.4182518 207.326356,30.4433913 207.326356,46.9969854 L207.326356,82.6347804 L207.345385,82.6347804 Z M444.50999,40.1662495 C444.50999,36.0183374 442.435775,33.8873 438.268316,33.8873 L410.523311,33.8873 C406.470029,33.8873 404.243578,35.961256 404.243578,40.0520867 L404.243578,60.9819183 C404.243578,65.072749 406.470029,67.2037864 410.523311,67.2037864 L438.268316,67.2037864 C442.378687,67.2037864 444.50999,65.1108032 444.50999,60.9819183 L444.50999,40.1662495 L444.50999,40.1662495 Z M459.961941,60.9628912 C459.961941,73.5207901 450.789724,82.6347804 438.268316,82.6347804 L410.409134,82.6347804 C397.944814,82.6347804 388.791627,73.501763 388.791627,60.9628912 L388.791627,40.0330596 C388.791627,27.532242 397.982873,18.4182518 410.409134,18.4182518 L438.268316,18.4182518 C450.846813,18.4182518 459.961941,27.5132149 459.961941,40.0330596 L459.961941,60.9628912 L459.961941,60.9628912 Z M544.319696,18.4372789 L516.555661,48.7284533 L547.802093,82.6538075 L526.546147,82.6538075 L505.994291,60.2779149 L485.442436,82.6538075 L464.129401,82.6538075 L495.318744,48.6142906 L467.687916,18.4372789 L488.848716,18.4372789 L505.899144,37.0267747 L523.063749,18.4372789 L544.319696,18.4372789 L544.319696,18.4372789 Z M38.0209324,82.6347804 L53.472883,82.6347804 L53.472883,46.9969854 C53.472883,39.3480833 58.9343482,33.8682729 66.717412,33.8682729 L76.0608944,33.8682729 L76.0608944,82.6347804 L91.5128449,82.6347804 L91.5128449,26.086181 C91.5128449,21.7670248 88.0114177,18.4182518 83.7297812,18.4182518 L66.603235,18.4182518 C58.1541389,18.4182518 50.8658421,21.5767536 45.7659372,26.88532 C40.6660324,21.5767536 33.3777355,18.4182518 24.9096099,18.4182518 L7.78306375,18.4182518 C3.50142721,18.4182518 -8.65361277e-14,21.7670248 -8.65361277e-14,26.086181 L-8.65361277e-14,82.6347804 L15.4519505,82.6347804 L15.4519505,33.8873 L24.7954329,33.8873 C32.5784967,33.8873 38.0399619,39.3671104 38.0399619,47.0160125 L38.0399619,82.6347804 L38.0209324,82.6347804 Z M121.389153,82.6347804 L105.937203,82.6347804 L105.937203,18.4372789 L121.389153,18.4372789 L121.389153,82.6347804 L121.389153,82.6347804 Z" id="Shape" fill="#161616"></path>
                        <path d="M241.941009,33.8873 C237.868696,33.8873 235.642245,35.9232018 235.642245,40.0520867 L235.642245,60.8487285 C235.642245,64.9395592 237.678402,67.1847593 241.826832,67.1847593 L269.686013,67.1847593 C273.796384,67.1847593 275.908658,65.072749 275.908658,60.9628912 L275.908658,33.8873 C264.586108,33.8873 253.263559,33.8873 241.941009,33.8873 Z M291.360609,60.9628912 C291.360609,73.501763 282.207422,82.6347804 269.686013,82.6347804 L241.826832,82.6347804 C229.362512,82.6347804 220.190295,73.4066274 220.190295,60.9628912 L220.190295,40.0330596 C220.190295,27.5132149 229.400571,18.4182518 241.826832,18.4182518 C253.187441,18.4182518 264.548049,18.4182518 275.908658,18.4182518 L275.908658,0.133189837 L291.360609,0.133189837 L291.360609,60.9628912 L291.360609,60.9628912 Z M321.179829,33.8873 L321.179829,60.9819183 C321.179829,64.6922066 323.691722,67.2037864 327.402474,67.2037864 L355.261656,67.2037864 C359.086584,67.2037864 361.446242,64.7873422 361.446242,60.9819183 L361.446242,40.0520867 C361.446242,36.2656899 359.029496,33.8873 355.261656,33.8873 C343.901047,33.8873 332.540438,33.8873 321.179829,33.8873 Z M376.898192,60.9628912 C376.898192,73.4066274 367.745005,82.6347804 355.261656,82.6347804 L327.402474,82.6347804 C314.919125,82.6347804 305.727878,73.4827359 305.727878,60.9628912 L305.727878,0.133189837 L321.179829,0.133189837 L321.179829,18.4372789 C332.540438,18.4372789 343.901047,18.4372789 355.261656,18.4372789 C367.725975,18.4372789 376.898192,27.5702963 376.898192,40.0520867 L376.898192,60.9628912 L376.898192,60.9628912 Z" id="Shape" fill="#ED1C24"></path>
                    </g>
                    <g id="Group" transform="translate(276.111323, 114.416539)" fill-rule="nonzero">
                        <g fill="#000000">
                            <path d="M13.168411,15.2597499 C13.168411,17.0673263 12.5214082,18.4943602 11.208373,19.5218247 C9.89533777,20.5492892 8.08753568,21.0630214 5.7849667,21.0630214 C3.48239772,21.0630214 1.59847764,20.7015061 0.13320647,19.9975027 L0.13320647,16.8390008 C1.06565176,17.2766246 2.05518554,17.6191127 3.1018078,17.8664653 C4.14843007,18.1138179 5.11893435,18.2470077 6.01332065,18.2470077 C7.32635585,18.2470077 8.29686013,17.9996551 8.92483349,17.4859229 C9.55280685,16.9721907 9.85727878,16.3062415 9.85727878,15.4690482 C9.85727878,14.7079634 9.57183635,14.0610414 9.00095147,13.528282 C8.4300666,12.9955227 7.23120837,12.3676277 5.42340628,11.6445972 C3.5585157,10.8835124 2.24548049,10.027292 1.48430067,9.07593605 C0.723120837,8.10555295 0.342530923,6.94489865 0.342530923,5.59397316 C0.342530923,3.90055952 0.951474786,2.54963403 2.15033302,1.57925093 C3.34919125,0.608867827 4.98572788,0.114162718 7.02188392,0.114162718 C8.98192198,0.114162718 10.9229305,0.532759349 12.8449096,1.38897973 L11.7982873,4.12888495 C9.99048525,3.36780017 8.37297812,2.98725778 6.94576594,2.98725778 C5.86108468,2.98725778 5.04281637,3.21558321 4.49096099,3.6912612 C3.93910561,4.16693919 3.65366318,4.77580702 3.65366318,5.55591892 C3.65366318,6.08867827 3.76784015,6.54532914 3.9961941,6.90684441 C4.22454805,7.2873868 4.58610847,7.62987496 5.09990485,7.97236311 C5.61370124,8.31485126 6.52711703,8.75247501 7.85918173,9.30426148 C9.36251189,9.93215643 10.4471931,10.50297 11.1512845,11.0547565 C11.8553758,11.5875158 12.3501427,12.1963837 12.6926736,12.88136 C13.0161751,13.5473091 13.168411,14.3464482 13.168411,15.2597499 Z" id="Path"></path>
                            <polygon id="Path" points="24.1484301 20.7966417 20.8182683 20.7966417 20.8182683 3.29169169 14.8239772 3.29169169 14.8239772 0.437623751 30.1427212 0.437623751 30.1427212 3.29169169 24.1484301 3.29169169"></polygon>
                            <path d="M45.9181732,20.7966417 L43.8820171,15.1455872 L36.0989534,15.1455872 L34.1008563,20.7966417 L30.5803996,20.7966417 L38.2112274,0.342488153 L41.8268316,0.342488153 L49.4576594,20.7966417 L45.9181732,20.7966417 Z M43.0066603,12.2724921 L41.1037108,6.71657322 C40.9705043,6.33603082 40.7802093,5.76521724 40.5328259,4.96607821 C40.2854424,4.16693919 40.114177,3.57709848 40.0190295,3.21558321 C39.7716461,4.35721039 39.4100856,5.61300028 38.9153187,6.96392577 L37.0694577,12.2724921 L43.0066603,12.2724921 Z" id="Shape"></path>
                            <path d="M55.47098,12.6720616 L55.47098,20.8156688 L52.1408183,20.8156688 L52.1408183,0.418596631 L57.887726,0.418596631 C60.5137964,0.418596631 62.4548049,0.91330174 63.7297812,1.90271196 C64.9857279,2.89212218 65.6327307,4.37623751 65.6327307,6.35505794 C65.6327307,8.88566485 64.3196955,10.6932412 61.6745956,11.777787 L67.4215033,20.7966417 L63.6346337,20.7966417 L58.7630828,12.6530345 L55.47098,12.6530345 L55.47098,12.6720616 Z M55.47098,9.91312931 L57.7925785,9.91312931 C59.3529971,9.91312931 60.4757374,9.62772251 61.1607992,9.05690893 C61.8648906,8.48609534 62.2074215,7.62987496 62.2074215,6.48824778 C62.2074215,5.32759349 61.8268316,4.50942734 61.0846813,4.01472223 C60.3425309,3.52001712 59.2007612,3.25363745 57.6784015,3.25363745 L55.47098,3.25363745 L55.47098,9.91312931 Z" id="Shape"></path>
                            <polygon id="Path" points="77.4310181 20.7966417 74.1008563 20.7966417 74.1008563 3.29169169 68.1065652 3.29169169 68.1065652 0.437623751 83.4253092 0.437623751 83.4253092 3.29169169 77.4310181 3.29169169"></polygon>
                            <path d="M102.511893,0.418596631 L102.511893,13.6043905 C102.511893,15.107533 102.188392,16.4204042 101.541389,17.5620314 C100.894386,18.6846314 99.961941,19.5598789 98.7440533,20.1687468 C97.5261656,20.7776146 96.0608944,21.0820485 94.3672693,21.0820485 C91.8363463,21.0820485 89.8763083,20.4160993 88.4681256,19.084201 C87.0599429,17.7523026 86.3558516,15.906672 86.3558516,13.5663363 L86.3558516,0.437623751 L89.7050428,0.437623751 L89.7050428,13.3189837 C89.7050428,14.9933702 90.1046622,16.2491601 90.8848716,17.0482992 C91.6650809,17.8474382 92.8639391,18.2470077 94.4814462,18.2470077 C97.621313,18.2470077 99.2007612,16.5916483 99.2007612,13.2999566 L99.2007612,0.418596631 L102.511893,0.418596631 Z" id="Path"></path>
                            <path d="M121.217888,6.58338338 C121.217888,8.71442077 120.513796,10.3507531 119.124643,11.4733531 C117.73549,12.6149803 115.737393,13.1667668 113.168411,13.1667668 L111.056137,13.1667668 L111.056137,20.7966417 L107.725975,20.7966417 L107.725975,0.418596631 L113.58706,0.418596631 C116.137012,0.418596631 118.039962,0.93232886 119.314938,1.97882044 C120.589914,3.02531202 121.217888,4.5665087 121.217888,6.58338338 Z M111.056137,10.3697802 L112.82588,10.3697802 C114.538535,10.3697802 115.794481,10.0653463 116.59372,9.47550556 C117.392959,8.88566485 117.792578,7.95333599 117.792578,6.6975461 C117.792578,5.51786468 117.431018,4.6616443 116.726927,4.07180359 C116.003806,3.50099 114.900095,3.21558321 113.377735,3.21558321 L111.056137,3.21558321 L111.056137,10.3697802 L111.056137,10.3697802 Z" id="Shape"></path>
                            <path d="M137.031399,15.2597499 C137.031399,17.0673263 136.384396,18.4943602 135.071361,19.5218247 C133.758325,20.5492892 131.950523,21.0630214 129.647954,21.0630214 C127.345385,21.0630214 125.461465,20.7015061 123.996194,19.9975027 L123.996194,16.8390008 C124.928639,17.2766246 125.918173,17.6191127 126.964795,17.8664653 C128.011418,18.1138179 128.981922,18.2470077 129.876308,18.2470077 C131.189343,18.2470077 132.159848,17.9996551 132.787821,17.4859229 C133.415794,16.9721907 133.720266,16.3062415 133.720266,15.4690482 C133.720266,14.7079634 133.434824,14.0610414 132.863939,13.528282 C132.293054,12.9955227 131.094196,12.3676277 129.286394,11.6445972 C127.421503,10.8835124 126.108468,10.027292 125.347288,9.07593605 C124.586108,8.10555295 124.205519,6.94489865 124.205519,5.59397316 C124.205519,3.90055952 124.814462,2.54963403 126.013321,1.57925093 C127.212179,0.608867827 128.848716,0.114162718 130.884872,0.114162718 C132.84491,0.114162718 134.785918,0.532759349 136.707897,1.38897973 L135.680304,4.12888495 C133.872502,3.36780017 132.254995,2.98725778 130.827783,2.98725778 C129.743102,2.98725778 128.924833,3.21558321 128.372978,3.6912612 C127.821123,4.16693919 127.53568,4.77580702 127.53568,5.55591892 C127.53568,6.08867827 127.649857,6.54532914 127.878211,6.90684441 C128.106565,7.2873868 128.468126,7.62987496 128.981922,7.97236311 C129.495718,8.31485126 130.409134,8.75247501 131.741199,9.30426148 C133.244529,9.93215643 134.32921,10.50297 135.033302,11.0547565 C135.737393,11.5875158 136.23216,12.1963837 136.574691,12.88136 C136.879163,13.5473091 137.031399,14.3464482 137.031399,15.2597499 Z" id="Path"></path>
                        </g>
                        <g transform="translate(146.146527, 3.424882)" fill="#EC1B2D" id="Shape">
                            <path d="M0.0761179829,2.20714587 C0.0761179829,0.799139023 0.761179829,0.095135598 2.13130352,0.095135598 C2.83539486,0.095135598 3.34919125,0.285406794 3.69172217,0.646922066 C4.03425309,1.02746446 4.20551855,1.54119669 4.20551855,2.18811875 C4.20551855,2.85406794 4.03425309,3.36780017 3.67269267,3.74834256 C3.31113225,4.12888495 2.79733587,4.31915615 2.13130352,4.31915615 C1.46527117,4.31915615 0.951474786,4.12888495 0.589914367,3.74834256 C0.26641294,3.40585441 0.0761179829,2.87309506 0.0761179829,2.20714587 Z M0.0761179829,14.1181227 C0.0761179829,13.4331464 0.247383444,12.9194142 0.608943863,12.5578989 C0.970504282,12.1963837 1.46527117,12.0061125 2.15033302,12.0061125 C2.83539486,12.0061125 3.34919125,12.1963837 3.69172217,12.576926 C4.05328259,12.9574684 4.22454805,13.4712007 4.22454805,14.1181227 C4.22454805,14.7840719 4.05328259,15.2978042 3.69172217,15.6783465 C3.33016175,16.0588889 2.81636537,16.2491601 2.15033302,16.2491601 C1.48430067,16.2491601 0.970504282,16.0588889 0.608943863,15.6783465 C0.26641294,15.2978042 0.0761179829,14.7840719 0.0761179829,14.1181227 Z"></path>
                            <path d="M7.93529971,2.20714587 C7.93529971,0.799139023 8.62036156,0.095135598 9.99048525,0.095135598 C10.6945766,0.095135598 11.208373,0.285406794 11.5509039,0.646922066 C11.8934348,1.02746446 12.0647003,1.54119669 12.0647003,2.18811875 C12.0647003,2.85406794 11.8934348,3.36780017 11.5318744,3.74834256 C11.170314,4.12888495 10.6565176,4.31915615 9.99048525,4.31915615 C9.3244529,4.31915615 8.81065652,4.12888495 8.4490961,3.74834256 C8.10656518,3.40585441 7.93529971,2.87309506 7.93529971,2.20714587 Z M7.93529971,14.1181227 C7.93529971,13.4331464 8.10656518,12.9194142 8.46812559,12.5578989 C8.82968601,12.1963837 9.3244529,12.0061125 10.0095147,12.0061125 C10.6945766,12.0061125 11.208373,12.1963837 11.5509039,12.576926 C11.9124643,12.9574684 12.0837298,13.4712007 12.0837298,14.1181227 C12.0837298,14.7840719 11.9124643,15.2978042 11.5509039,15.6783465 C11.1893435,16.0588889 10.6755471,16.2491601 10.0095147,16.2491601 C9.3434824,16.2491601 8.82968601,16.0588889 8.46812559,15.6783465 C8.10656518,15.2978042 7.93529971,14.7840719 7.93529971,14.1181227 Z"></path>
                        </g>
                        <g transform="translate(169.552807, 0.000000)" fill="#000000">
                            <polygon id="Path" points="16.1179829 20.7966417 12.7687916 20.7966417 12.7687916 11.606543 3.36822074 11.606543 3.36822074 20.7966417 0.0380589914 20.7966417 0.0380589914 0.418596631 3.36822074 0.418596631 3.36822074 8.75247501 12.7687916 8.75247501 12.7687916 0.418596631 16.1179829 0.418596631"></polygon>
                            <path d="M34.1198858,20.7966417 L32.0837298,15.1455872 L24.300666,15.1455872 L22.302569,20.7966417 L18.7821123,20.7966417 L26.4129401,0.342488153 L30.0285442,0.342488153 L37.659372,20.7966417 L34.1198858,20.7966417 Z M31.208373,12.2724921 L29.3054234,6.71657322 C29.1722169,6.33603082 28.981922,5.76521724 28.7345385,4.96607821 C28.4871551,4.16693919 28.3158896,3.57709848 28.2207422,3.21558321 C27.9733587,4.35721039 27.6117983,5.61300028 27.1170314,6.96392577 L25.2711703,12.2724921 L31.208373,12.2724921 Z" id="Shape"></path>
                            <path d="M49.019981,2.98725778 C47.0980019,2.98725778 45.5946717,3.67223408 44.5099905,5.02315957 C43.4062797,6.37408506 42.8734539,8.2577699 42.8734539,10.6361599 C42.8734539,13.1287125 43.4062797,15.0314245 44.452902,16.3062415 C45.4995243,17.5810585 47.0409134,18.2279806 49.0390105,18.2279806 C49.8953378,18.2279806 50.7326356,18.132845 51.5509039,17.9616009 C52.3501427,17.7903568 53.20647,17.5620314 54.0818268,17.2956517 L54.0818268,20.1497196 C52.4833492,20.7585875 50.6755471,21.0630214 48.6393911,21.0630214 C45.6517602,21.0630214 43.3682207,20.1687468 41.7697431,18.3611704 C40.1712655,16.553594 39.3720266,13.9659058 39.3720266,10.5981056 C39.3720266,8.48609534 39.7526166,6.62143762 40.5328259,5.04218669 C41.3130352,3.46293577 42.4357755,2.24520011 43.9010466,1.38897973 C45.3663178,0.551786468 47.0980019,0.114162718 49.0770695,0.114162718 C51.1512845,0.114162718 53.0732636,0.551786468 54.8430067,1.42703397 L53.6441484,4.20499343 C52.9590866,3.8815324 52.2359657,3.5961256 51.4557564,3.34877305 C50.6755471,3.12044761 49.8763083,2.98725778 49.019981,2.98725778 Z" id="Path"></path>
                            <path d="M74.0057088,20.7966417 L70.1427212,20.7966417 L63.7488107,11.5684887 L61.7887726,13.1667668 L61.7887726,20.7966417 L58.4586108,20.7966417 L58.4586108,0.418596631 L61.7887726,0.418596631 L61.7887726,10.1414547 C62.7021884,9.01885469 63.5965747,7.95333599 64.5099905,6.92587153 L70.0095147,0.418596631 L73.7963844,0.418596631 C70.2378687,4.60456294 67.6879163,7.5727936 66.1465271,9.34231572 L74.0057088,20.7966417 Z" id="Path"></path>
                            <path d="M88.4490961,15.2597499 C88.4490961,17.0673263 87.8020932,18.4943602 86.489058,19.5218247 C85.1760228,20.5492892 83.3682207,21.0630214 81.0656518,21.0630214 C78.7630828,21.0630214 76.8791627,20.7015061 75.4138915,19.9975027 L75.4138915,16.8390008 C76.3463368,17.2766246 77.3358706,17.6191127 78.3824929,17.8664653 C79.4291151,18.1138179 80.3996194,18.2470077 81.2940057,18.2470077 C82.6070409,18.2470077 83.5775452,17.9996551 84.2055186,17.4859229 C84.8334919,16.9912178 85.1379638,16.3062415 85.1379638,15.4690482 C85.1379638,14.7079634 84.8525214,14.0610414 84.2816365,13.528282 C83.7107517,12.9955227 82.5118934,12.3676277 80.7040913,11.6445972 C78.8392008,10.8835124 77.5261656,10.027292 76.7649857,9.07593605 C76.0038059,8.10555295 75.623216,6.94489865 75.623216,5.59397316 C75.623216,3.90055952 76.2321598,2.54963403 77.4310181,1.57925093 C78.6298763,0.608867827 80.2664129,0.114162718 82.302569,0.114162718 C84.262607,0.114162718 86.2036156,0.532759349 88.1255947,1.38897973 L87.0599429,4.10985783 C85.2521408,3.34877305 83.6346337,2.96823066 82.2074215,2.96823066 C81.1227402,2.96823066 80.3044719,3.19655609 79.7526166,3.67223408 C79.2007612,4.14791207 78.9153187,4.7567799 78.9153187,5.5368918 C78.9153187,6.06965115 79.0294957,6.52630202 79.2578497,6.88781729 C79.4862036,7.26835968 79.847764,7.61084784 80.3615604,7.95333599 C80.8753568,8.29582414 81.7887726,8.73344789 83.1208373,9.28523436 C84.6241675,9.91312931 85.7088487,10.4839429 86.4129401,11.0357294 C87.1170314,11.5684887 87.6117983,12.1773565 87.9543292,12.8623328 C88.2778306,13.5473091 88.4490961,14.3464482 88.4490961,15.2597499 Z" id="Path"></path>
                        </g>
                        <g transform="translate(267.174120, 3.424882)" fill="#EC1B2D" id="Shape">
                            <path d="M0.0190294957,2.20714587 C0.0190294957,0.799139023 0.704091342,0.095135598 2.07421503,0.095135598 C2.77830637,0.095135598 3.29210276,0.285406794 3.63463368,0.646922066 C3.97716461,1.02746446 4.14843007,1.54119669 4.14843007,2.18811875 C4.14843007,2.85406794 3.97716461,3.36780017 3.61560419,3.74834256 C3.25404377,4.12888495 2.74024738,4.31915615 2.07421503,4.31915615 C1.40818268,4.31915615 0.894386299,4.12888495 0.53282588,3.74834256 C0.190294957,3.40585441 0.0190294957,2.87309506 0.0190294957,2.20714587 Z M0.0190294957,14.1181227 C0.0190294957,13.4331464 0.190294957,12.9194142 0.551855376,12.5578989 C0.913415794,12.1963837 1.40818268,12.0061125 2.09324453,12.0061125 C2.77830637,12.0061125 3.29210276,12.1963837 3.63463368,12.576926 C3.9961941,12.9574684 4.16745956,13.4712007 4.16745956,14.1181227 C4.16745956,14.7840719 3.9961941,15.2978042 3.63463368,15.6783465 C3.27307326,16.0588889 2.75927688,16.2491601 2.09324453,16.2491601 C1.42721218,16.2491601 0.913415794,16.0588889 0.551855376,15.6783465 C0.190294957,15.2978042 0.0190294957,14.7840719 0.0190294957,14.1181227 Z"></path>
                            <path d="M7.85918173,2.20714587 C7.85918173,0.799139023 8.54424358,0.095135598 9.91436727,0.095135598 C10.6184586,0.095135598 11.132255,0.285406794 11.4747859,0.646922066 C11.8173168,1.02746446 11.9885823,1.54119669 11.9885823,2.18811875 C11.9885823,2.85406794 11.8173168,3.36780017 11.4557564,3.74834256 C11.094196,4.12888495 10.5803996,4.31915615 9.91436727,4.31915615 C9.24833492,4.31915615 8.73453853,4.12888495 8.37297812,3.74834256 C8.03044719,3.40585441 7.85918173,2.87309506 7.85918173,2.20714587 Z M7.85918173,14.1181227 C7.85918173,13.4331464 8.03044719,12.9194142 8.39200761,12.5578989 C8.75356803,12.1963837 9.24833492,12.0061125 9.93339676,12.0061125 C10.6184586,12.0061125 11.132255,12.1963837 11.4747859,12.576926 C11.8363463,12.9574684 12.0076118,13.4712007 12.0076118,14.1181227 C12.0076118,14.7840719 11.8363463,15.2978042 11.4747859,15.6783465 C11.1132255,16.0588889 10.5994291,16.2491601 9.93339676,16.2491601 C9.26736441,16.2491601 8.75356803,16.0588889 8.39200761,15.6783465 C8.03044719,15.2978042 7.85918173,14.7840719 7.85918173,14.1181227 Z"></path>
                        </g>
                        <g transform="translate(292.293054, 0.000000)" fill="#000000">
                            <path d="M17.1455756,20.7966417 L13.0542341,20.7966417 L3.04471931,4.5665087 L2.93054234,4.5665087 L3.00666032,5.47981044 C3.13986679,7.21127833 3.19695528,8.79052925 3.19695528,10.2175632 L3.19695528,20.8156688 L0.171265461,20.8156688 L0.171265461,0.418596631 L4.20551855,0.418596631 L14.1960038,16.5726212 L14.2721218,16.5726212 C14.2530923,16.3633228 14.2150333,15.5832109 14.1579448,14.2322855 C14.1008563,12.88136 14.0818268,11.8348684 14.0818268,11.0928107 L14.0818268,0.418596631 L17.1265461,0.418596631 L17.1265461,20.7966417 L17.1455756,20.7966417 Z" id="Path"></path>
                            <polygon id="Path" points="34.0437678 20.7966417 22.5118934 20.7966417 22.5118934 0.418596631 34.0437678 0.418596631 34.0437678 3.23461033 25.8420552 3.23461033 25.8420552 8.79052925 33.5299715 8.79052925 33.5299715 11.5684887 25.8420552 11.5684887 25.8420552 17.9616009 34.0437678 17.9616009"></polygon>
                            <polygon id="Path" points="45.4995243 20.7966417 42.1693625 20.7966417 42.1693625 3.29169169 36.1750714 3.29169169 36.1750714 0.437623751 51.4938154 0.437623751 51.4938154 3.29169169 45.4995243 3.29169169"></polygon>
                            <path d="M73.4157945,20.7966417 L69.8001903,20.7966417 L66.3368221,8.63831229 C66.1845861,8.10555295 65.9942912,7.34446816 65.7849667,6.35505794 C65.5566127,5.36564772 65.4234063,4.6616443 65.3853473,4.28110191 C65.2901998,4.87094262 65.1379638,5.65105452 64.9286394,6.6024105 C64.7193149,7.55376648 64.5480495,8.2577699 64.414843,8.71442077 L61.0466223,20.8156688 L57.4310181,20.8156688 L54.8049477,10.6171327 L52.1217888,0.437623751 L55.5280685,0.437623751 L58.4395814,12.3105464 C58.8962892,14.2132583 59.2197907,15.8876449 59.4100856,17.3527331 C59.5052331,16.5726212 59.6574691,15.6783465 59.8667935,14.7079634 C60.076118,13.7375803 60.2664129,12.9384413 60.4186489,12.3295735 L63.7297812,0.437623751 L67.0409134,0.437623751 L70.4471931,12.3866549 C70.7706946,13.4902278 71.1132255,15.1455872 71.4747859,17.3527331 C71.6079924,16.0208347 71.9505233,14.3274211 72.4833492,12.2724921 L75.3758325,0.418596631 L78.7440533,0.418596631 L73.4157945,20.7966417 Z" id="Path"></path>
                            <path d="M99.6955281,10.5790785 C99.6955281,13.8897973 98.8582303,16.4774856 97.2026641,18.304089 C95.547098,20.1497196 93.1874405,21.0630214 90.1617507,21.0630214 C87.0789724,21.0630214 84.7193149,20.1497196 83.0827783,18.3231162 C81.4272122,16.4965127 80.6089439,13.9088244 80.6089439,10.5410243 C80.6089439,7.17322409 81.4462417,4.60456294 83.1018078,2.79698658 C84.7573739,0.989410219 87.1360609,0.095135598 90.1998097,0.095135598 C93.2254995,0.095135598 95.5661275,1.00843734 97.2216936,2.83504082 C98.8772598,4.68067142 99.6955281,7.26835968 99.6955281,10.5790785 Z M84.1484301,10.5790785 C84.1484301,13.0906583 84.6622265,14.9933702 85.6707897,16.2872144 C86.679353,17.5810585 88.1826832,18.2279806 90.1807802,18.2279806 C92.1598478,18.2279806 93.6441484,17.5810585 94.6527117,16.3062415 C95.661275,15.0314245 96.1560419,13.1096854 96.1560419,10.5790785 C96.1560419,8.08652583 95.661275,6.18381387 94.6527117,4.88996973 C93.6631779,3.5961256 92.1598478,2.94920354 90.1807802,2.94920354 C88.1826832,2.94920354 86.679353,3.5961256 85.6517602,4.88996973 C84.643197,6.18381387 84.1484301,8.08652583 84.1484301,10.5790785 Z" id="Shape"></path>
                            <path d="M107.402474,12.6720616 L107.402474,20.8156688 L104.072312,20.8156688 L104.072312,0.418596631 L109.81922,0.418596631 C112.44529,0.418596631 114.386299,0.91330174 115.661275,1.90271196 C116.917222,2.89212218 117.564225,4.37623751 117.564225,6.35505794 C117.564225,8.88566485 116.251189,10.6932412 113.606089,11.777787 L119.352997,20.7966417 L115.566127,20.7966417 L110.694577,12.6530345 L107.402474,12.6530345 L107.402474,12.6720616 Z M107.402474,9.91312931 L109.724072,9.91312931 C111.284491,9.91312931 112.407231,9.62772251 113.092293,9.05690893 C113.796384,8.48609534 114.138915,7.62987496 114.138915,6.48824778 C114.138915,5.32759349 113.758325,4.50942734 113.016175,4.01472223 C112.274025,3.52001712 111.132255,3.25363745 109.609895,3.25363745 L107.402474,3.25363745 L107.402474,9.91312931 L107.402474,9.91312931 Z" id="Shape"></path>
                            <path d="M137.868696,20.7966417 L134.005709,20.7966417 L127.611798,11.5684887 L125.65176,13.1667668 L125.65176,20.7966417 L122.321598,20.7966417 L122.321598,0.418596631 L125.65176,0.418596631 L125.65176,10.1414547 C126.565176,9.01885469 127.459562,7.95333599 128.372978,6.92587153 L133.872502,0.418596631 L137.659372,0.418596631 C134.100856,4.60456294 131.550904,7.5727936 130.009515,9.34231572 L137.868696,20.7966417 Z" id="Path"></path>
                            <polygon id="Path" points="140.570885 20.7966417 140.570885 0.418596631 143.901047 0.418596631 143.901047 20.7966417"></polygon>
                            <path d="M166.241675,20.7966417 L162.150333,20.7966417 L152.140818,4.5665087 L152.026641,4.5665087 L152.102759,5.47981044 C152.235966,7.21127833 152.293054,8.79052925 152.293054,10.2175632 L152.293054,20.8156688 L149.267364,20.8156688 L149.267364,0.418596631 L153.301618,0.418596631 L163.292103,16.5726212 L163.368221,16.5726212 C163.349191,16.3633228 163.311132,15.5832109 163.254044,14.2322855 C163.196955,12.88136 163.177926,11.8348684 163.177926,11.0928107 L163.177926,0.418596631 L166.222645,0.418596631 L166.222645,20.7966417 L166.241675,20.7966417 Z" id="Path"></path>
                            <path d="M179.961941,9.74188523 L187.459562,9.74188523 L187.459562,19.9784756 C186.241675,20.3780451 185.061846,20.6634519 183.920076,20.834696 C182.797336,21.00594 181.579448,21.0820485 180.266413,21.0820485 C177.183635,21.0820485 174.804948,20.1687468 173.130352,18.3421433 C171.455756,16.5155398 170.618459,13.9468787 170.618459,10.6171327 C170.618459,7.34446816 171.569933,4.77580702 173.453853,2.9111493 C175.337774,1.0655187 177.944814,0.133189837 181.236917,0.133189837 C183.368221,0.133189837 185.385347,0.532759349 187.288297,1.35092549 L186.108468,4.12888495 C184.452902,3.36780017 182.797336,2.98725778 181.14177,2.98725778 C178.972407,2.98725778 177.240723,3.67223408 175.984776,5.04218669 C174.72883,6.4121393 174.081827,8.27679702 174.081827,10.6361599 C174.081827,13.1287125 174.652712,15.0123974 175.794481,16.3062415 C176.936251,17.6000856 178.572788,18.2470077 180.704091,18.2470077 C181.788773,18.2470077 182.930542,18.1138179 184.16746,17.8474382 L184.16746,12.5959532 L179.942912,12.5959532 L179.942912,9.74188523 L179.961941,9.74188523 Z" id="Path"></path>
                        </g>
                    </g>
                </g>
            </g>
        </g>
    </g>
</svg>