<svg width="2467" height="499" viewBox="0 0 2467 499" fill="none" xmlns="http://www.w3.org/2000/svg">
<g clip-path="url(#clip0_50_384)">
<g clip-path="url(#clip1_50_384)">
<path d="M342.828 235.089C342.828 290.568 297.673 335.704 242.172 335.704C234.345 335.704 226.616 334.781 219.076 333.004V395.691C219.076 400.013 215.565 403.527 211.236 403.527C206.905 403.527 203.393 400.013 203.393 395.691V270.634C203.393 266.305 206.905 262.795 211.236 262.795C215.565 262.795 219.076 266.305 219.076 270.634V316.818C226.565 318.934 234.308 320.025 242.172 320.025C289.028 320.025 327.144 281.925 327.144 235.089V213.397C327.144 209.071 330.655 205.561 334.983 205.561C339.317 205.561 342.828 209.071 342.828 213.397V235.089ZM256.324 155.799C255.423 160.032 251.247 162.732 247.024 161.833C245.437 161.497 243.808 161.327 242.172 161.327C229.437 161.327 219.076 171.676 219.076 184.409V239.899C219.076 244.227 215.565 247.74 211.236 247.74C206.905 247.74 203.393 244.227 203.393 239.899V184.409C203.393 163.035 220.791 145.645 242.172 145.645C244.904 145.645 247.633 145.936 250.288 146.497C254.521 147.401 257.227 151.563 256.324 155.799V155.799ZM234.332 233.343V185.212C234.332 180.884 237.845 177.372 242.173 177.372C246.507 177.372 250.016 180.884 250.016 185.212V233.343C250.016 237.665 246.507 241.178 242.173 241.178C237.845 241.178 234.332 237.665 234.332 233.343ZM263.483 175.484C261.804 171.492 263.684 166.9 267.679 165.224C271.671 163.552 276.271 165.428 277.943 169.421C279.939 174.176 280.953 179.217 280.953 184.415V235.09C280.953 256.468 263.555 273.855 242.172 273.855C237.841 273.855 234.331 270.344 234.331 266.013C234.331 261.685 237.841 258.176 242.172 258.176C254.909 258.176 265.268 247.824 265.268 235.09V184.415C265.268 181.316 264.669 178.311 263.483 175.484V175.484ZM188.14 395.691C188.14 400.013 184.627 403.527 180.295 403.527C175.968 403.527 172.455 400.013 172.455 395.691V184.415C172.455 145.989 203.727 114.724 242.172 114.724C280.616 114.724 311.892 145.989 311.892 184.415V235.093C311.892 273.515 280.616 304.778 242.172 304.778C237.844 304.778 234.327 301.265 234.327 296.937C234.327 292.611 237.844 289.101 242.172 289.101C271.969 289.101 296.205 264.871 296.205 235.093V184.415C296.205 154.627 271.969 130.401 242.172 130.401C212.379 130.401 188.14 154.627 188.14 184.415V395.691ZM157.199 395.681C157.199 400.013 153.688 403.527 149.359 403.527C145.029 403.527 141.517 400.013 141.517 395.681V184.415C141.517 161.641 148.971 140.148 163.075 122.252C165.752 118.853 170.676 118.259 174.087 120.943C177.488 123.619 178.073 128.551 175.392 131.949C163.492 147.055 157.199 165.196 157.199 184.415V395.681ZM187.148 100.187C203.533 89.4666 222.563 83.7999 242.175 83.7999C297.675 83.7999 342.825 126.531 342.825 182.005C342.825 186.335 339.315 189.846 334.987 189.846C330.656 189.846 327.143 186.335 327.143 182.005C327.143 135.173 289.027 99.4798 242.175 99.4798C225.619 99.4798 209.569 104.258 195.744 113.302C192.121 115.677 187.264 114.67 184.888 111.046C182.515 107.42 183.529 102.564 187.148 100.187V100.187ZM236.485 9.07981C105.879 9.07981 0 114.951 0 245.559C0 376.165 105.879 482.042 236.485 482.042C367.091 482.042 472.969 376.165 472.969 245.559C472.969 114.951 367.091 9.07981 236.485 9.07981" fill="#434851"/>
<path d="M556.732 93.1467C577.476 89.3734 605.497 86.7201 643.231 86.7201C684.491 86.7201 714.273 95.3734 733.907 112.035C752.443 127.353 764.135 151.784 764.135 180.88C764.135 210.407 755.096 234.396 738.105 251.057C715.157 273.705 680.292 284.82 640.352 284.82C629.768 284.82 620.495 284.368 612.777 282.363V400.303H556.732V93.1467ZM612.777 237.732C620.283 239.953 628.884 240.392 640.352 240.392C682.723 240.392 708.316 219.075 708.316 183.315C708.316 148.437 684.491 130.468 645.213 130.468C629.768 130.468 618.736 131.785 612.777 133.352V237.732" fill="#2E9F40"/>
<path d="M814.448 303.694C815.771 344.334 846.883 361.876 883.296 361.876C909.323 361.876 927.636 357.65 945.288 351.888L953.453 390.52C934.256 398.739 907.564 404.736 875.344 404.736C802.756 404.736 760.173 360.107 760.173 291.25C760.173 228.852 797.895 170.21 869.385 170.21C941.985 170.21 965.817 230.171 965.817 279.491C965.817 290.144 964.933 298.578 964.048 303.694H814.448ZM912.637 263.934C913.076 243.282 904.028 208.854 866.304 208.854C831.437 208.854 816.879 240.836 814.448 263.934H912.637Z" fill="#2E9F40"/>
<path d="M990.524 247.946C990.524 217.294 990.085 195.086 988.753 175.098H1037.29L1039.73 217.743H1041.05C1052.08 186.416 1078.34 170.206 1102.61 170.206C1107.91 170.206 1111.44 170.646 1115.85 171.547V224.836C1110.78 223.742 1105.7 223.291 1098.86 223.291C1072.16 223.291 1053.41 240.394 1048.34 266.378C1047.45 271.268 1047.01 277.246 1047.01 283.479V400.291H990.524" fill="#2E9F40"/>
<path d="M1161.74 400.299V217.74H1131.51V175.104H1161.74V165.556C1161.74 136.46 1169.47 107.364 1188.66 88.9334C1205.21 73.1601 1227.5 67.1601 1247.13 67.1601C1262.35 67.1601 1274.06 70.0402 1282.88 72.7202L1279.34 116.698C1272.95 114.476 1265.45 112.461 1254.86 112.461C1226.84 112.461 1217.56 136.02 1217.56 163.775V175.104H1266.33V217.74H1218.22V400.299" fill="#2E9F40"/>
<path d="M1497.57 285.704C1497.57 368.315 1439.76 405.179 1382.84 405.179C1320.17 405.179 1270.97 361.868 1270.97 289.48C1270.97 215.528 1319.06 170.209 1386.59 170.209C1453.21 170.209 1497.57 217.288 1497.57 285.704V285.704ZM1329 287.925C1329 331.44 1350.84 364.323 1384.81 364.323C1416.81 364.323 1439.32 332.781 1439.32 287.025C1439.32 251.941 1423.88 211.291 1385.04 211.291C1345.33 211.291 1329 250.6 1329 287.925" fill="#2E9F40"/>
<path d="M1522.72 247.946C1522.72 217.294 1522.07 195.086 1520.75 175.098H1569.28L1571.71 217.743H1573.25C1584.07 186.416 1610.32 170.206 1634.59 170.206C1640.11 170.206 1643.43 170.646 1648.05 171.547V224.836C1642.99 223.742 1637.91 223.291 1631.07 223.291C1604.36 223.291 1585.61 240.394 1580.55 266.378C1579.65 271.268 1579.21 277.246 1579.21 283.479V400.291H1522.72" fill="#2E9F40"/>
<path d="M1670.12 242.169C1670.12 216.4 1669.01 194.632 1668.13 175.093H1716.45L1719.11 208.629H1720.64C1731.01 191.089 1751.32 170.212 1789.27 170.212C1818.61 170.212 1841.56 186.884 1851.27 211.741H1852.15C1859.87 199.317 1869.13 189.973 1879.28 183.537C1892.09 174.879 1906.43 170.212 1925.19 170.212C1961.81 170.212 1999.55 195.756 1999.55 267.713V400.296H1944.39V275.932C1944.39 238.607 1931.59 216.4 1904.44 216.4C1885.25 216.4 1871.12 230.173 1865.16 246.385C1863.19 251.493 1862.29 258.832 1862.29 265.267V400.296H1807.36V269.935C1807.36 238.607 1795 216.4 1768.52 216.4C1747.56 216.4 1733.21 233.049 1727.93 248.167C1725.93 254.38 1725.05 260.601 1725.05 267.039V400.296H1670.12" fill="#2E9F40"/>
<path d="M2091.77 112.472C2091.77 129.132 2079.41 142.908 2059.77 142.908C2041.03 142.908 2028.67 129.132 2028.67 112.472C2028.67 94.9335 2041.47 81.6001 2060.23 81.6001C2079.41 81.6001 2091.55 94.9335 2091.77 112.472V112.472ZM2031.75 175.105H2088.23V400.299H2031.75V175.105" fill="#434851"/>
<path d="M2291.45 393.403C2279.53 398.735 2256.15 404.732 2228.36 404.732C2158.41 404.732 2112.95 359.663 2112.95 289.925C2112.95 222.399 2158.84 170.205 2237.39 170.205C2257.92 170.205 2279.11 174.871 2292.12 180.42L2281.97 223.288C2272.69 218.837 2259.45 214.623 2239.16 214.623C2196.13 214.623 2170.32 246.389 2170.76 287.704C2170.76 333.677 2200.77 360.1 2239.16 360.1C2258.59 360.1 2272.69 355.884 2283.73 351.219" fill="#434851"/>
<path d="M2319.48 347.66C2332.05 355.427 2356.33 364.32 2376.4 364.32C2401.11 364.32 2412.16 353.658 2412.16 338.776C2412.16 323.466 2402.88 316.127 2375.52 306.128C2332.05 291.248 2313.96 267.046 2313.96 240.395C2313.96 200.635 2346.39 170.207 2398.25 170.207C2423.17 170.207 2444.8 176.204 2458.27 183.532L2446.57 223.304C2437.52 217.747 2418.99 210.408 2399.36 210.408C2379.27 210.408 2368.24 220.622 2368.24 234.395C2368.24 248.612 2378.61 255.05 2407.07 265.712C2448.11 280.144 2466.43 300.796 2466.64 334.119C2466.64 375.19 2435.32 404.736 2375.96 404.736C2348.83 404.736 2324.55 398.296 2308 389.19" fill="#434851"/>
</g>
</g>
<defs>
<clipPath id="clip0_50_384">
<rect width="2467" height="499" fill="white"/>
</clipPath>
<clipPath id="clip1_50_384">
<rect width="2466.64" height="2165.13" fill="white" transform="translate(0 -731)"/>
</clipPath>
</defs>
</svg>
