<svg width="788" height="157" viewBox="0 0 788 157" fill="none" xmlns="http://www.w3.org/2000/svg">
<g opacity="0.8">
<g clip-path="url(#clip0_2741_2996)">
<rect x="13.5654" y="11.7402" width="129.86" height="129.86" rx="29.4357" fill="white"/>
<rect x="126.812" y="60.311" width="16.3594" height="58.0821" fill="#CCCCCC"/>
<ellipse cx="134.991" cy="33.299" rx="32.0212" ry="32.0846" fill="#41C4AB"/>
<circle opacity="0.6" cx="105.614" cy="24.1053" r="24.6659" fill="#41C4AB"/>
<rect x="-59.6094" y="102.541" width="140.386" height="56.4335" fill="#363636"/>
<rect x="-59.6094" y="97.9756" width="140.386" height="56.4335" fill="#CCCCCC"/>
<rect x="59.4297" y="123.802" width="11.794" height="11.6671" fill="#363636"/>
<rect x="40.3662" y="106.472" width="11.9208" height="11.9208" fill="#363636"/>
<rect x="20.457" y="123.55" width="11.9208" height="11.9208" fill="#363636"/>
<rect x="77.9873" y="97.9756" width="119.208" height="56.4335" fill="#41C4AB"/>
</g>
</g>
<path d="M76.898 85.4002L91.6165 51.6181L84.9932 38.4043H69.2934V29.4355H90.7579L95.2348 38.4043H138.286L132.154 59.3312H105.722L109.831 67.5226C114.488 65.672 119.54 64.966 124.542 65.4668C129.545 65.9676 134.345 67.6598 138.519 70.3945C142.693 73.1292 146.113 76.8224 148.479 81.1491C150.845 85.4757 152.083 90.303 152.085 95.206C152.085 111.708 138.348 125.102 121.421 125.102C104.495 125.102 90.7579 111.708 90.7579 95.206C90.7579 85.9384 95.1121 77.6274 101.919 72.1864L96.8906 62.3208L80.0257 101.185H65.6138C64.4535 106.727 61.7042 111.835 57.6854 115.914C53.6667 119.994 48.5432 122.878 42.9102 124.232C37.2771 125.587 31.3657 125.355 25.8623 123.564C20.359 121.773 15.4897 118.497 11.8199 114.116C8.15012 109.735 5.83046 104.429 5.13035 98.8136C4.43024 93.1985 5.3784 87.505 7.86472 82.3943C10.351 77.2836 14.2735 72.9655 19.1765 69.9414C24.0795 66.9174 29.7618 65.3115 35.5635 65.3104C51.4473 65.3104 64.5099 77.0893 66.2271 92.2165H69.784L55.8015 59.3312H50.8953C48.3809 59.3312 46.2958 57.2983 46.2958 54.8469C46.2958 52.3954 48.3809 50.3625 50.8953 50.3625H67.7603C70.2747 50.3625 72.3598 52.3954 72.3598 54.8469C72.3598 57.2983 70.2747 59.3312 67.7603 59.3312H66.0431L76.898 85.4002ZM35.5635 74.2791C23.7274 74.2791 14.0991 83.6663 14.0991 95.206C14.1102 100.231 15.9735 105.085 19.3492 108.882C22.7249 112.68 27.388 115.168 32.4883 115.892C37.5885 116.617 42.7861 115.531 47.1332 112.831C51.4803 110.131 54.6873 105.998 56.1694 101.185H29.4308V92.2165H56.844C55.3109 82.0519 46.3571 74.2791 35.5635 74.2791ZM121.421 74.2791C118.784 74.2791 116.209 74.7574 113.878 75.5945L128.894 101.185H118.182L106.09 80.5572C102.287 84.324 99.957 89.5259 99.957 95.206C99.957 106.746 109.585 116.133 121.421 116.133C133.258 116.133 142.886 106.746 142.886 95.206C142.886 83.6663 133.258 74.2791 121.421 74.2791Z" fill="#363636"/>
<path d="M233.71 88.7869C233.71 92.0248 233.062 95.0469 231.767 97.8531C230.472 100.587 228.565 102.998 226.047 105.084C221.082 109.258 214.714 111.344 206.943 111.344C200.899 111.344 195.43 110.121 190.537 107.675C185.644 105.156 182.047 101.811 179.744 97.6372L189.35 92.6724C190.789 95.2627 193.056 97.2774 196.15 98.7165C199.316 100.084 202.913 100.767 206.943 100.767C217.376 100.767 222.593 96.7738 222.593 88.7869C222.593 87.2758 222.305 85.9806 221.729 84.9013C221.226 83.822 220.434 82.8147 219.355 81.8793C216.765 79.7206 212.124 77.7779 205.432 76.051C201.402 75.0436 197.985 73.9283 195.178 72.7051C192.372 71.4819 190.034 70.0428 188.163 68.3879C183.63 64.7182 181.363 59.8613 181.363 53.8172C181.363 50.7951 181.939 47.9889 183.09 45.3986C184.313 42.7363 186.004 40.4337 188.163 38.491C190.393 36.5482 192.984 35.1091 195.934 34.1737C198.956 33.1664 202.266 32.6627 205.864 32.6627C211.116 32.6627 215.937 33.6701 220.326 35.6848C224.787 37.6995 228.169 40.5417 230.472 44.2113L221.729 49.6079C219.643 47.0895 217.232 45.3266 214.498 44.3193C211.764 43.2399 208.886 42.7003 205.864 42.7003C203.705 42.7003 201.726 43.0601 199.927 43.7796C198.129 44.4991 196.617 45.3626 195.394 46.3699C194.387 47.2334 193.631 48.3127 193.128 49.6079C192.696 50.8311 192.48 52.1622 192.48 53.6013C192.48 54.5367 192.624 55.5081 192.912 56.5155C193.2 57.4509 193.883 58.4582 194.963 59.5375C196.042 60.5449 197.625 61.5522 199.712 62.5596C201.798 63.495 204.64 64.4304 208.238 65.3658C212.555 66.4451 216.189 67.6324 219.139 68.9275C222.089 70.1508 224.572 71.6258 226.586 73.3527C231.335 77.2382 233.71 82.3829 233.71 88.7869ZM260.642 110.265H250.173V58.5662H258.484L260.642 62.9913C261.937 61.4803 263.484 60.1851 265.283 59.1058C267.082 57.9545 269.277 57.3789 271.867 57.3789C272.874 57.3789 273.99 57.5228 275.213 57.8106C276.508 58.0265 277.803 58.4582 279.098 59.1058C280.465 59.6814 281.761 60.5089 282.984 61.5882C284.207 62.5956 285.25 63.9267 286.114 65.5817C287.337 63.3511 289.172 61.4443 291.618 59.8613C294.137 58.2064 296.799 57.3789 299.605 57.3789C301.476 57.3789 303.455 57.6667 305.541 58.2424C307.628 58.818 309.571 59.8973 311.37 61.4803C313.169 63.0633 314.644 65.2579 315.795 68.0641C316.946 70.8703 317.522 74.504 317.522 78.9651V110.265H307.7V78.8572C307.7 74.396 306.765 71.302 304.894 69.5751C303.095 67.7763 300.685 66.8768 297.662 66.8768C295.36 66.8768 293.345 67.8482 291.618 69.791C289.891 71.7337 289.028 74.7918 289.028 78.9651V110.265H279.206V78.8572C279.206 74.396 278.271 71.302 276.4 69.5751C274.601 67.7763 272.191 66.8768 269.169 66.8768C267.01 66.8768 265.103 67.7043 263.448 69.3593C261.865 71.0142 260.93 73.6045 260.642 77.1303V110.265ZM357.428 111.56C353.83 111.56 350.448 110.877 347.282 109.51C344.188 108.071 341.454 106.128 339.079 103.681C336.777 101.235 334.942 98.3567 333.575 95.0469C332.208 91.737 331.524 88.2112 331.524 84.4696C331.524 80.728 332.208 77.2023 333.575 73.8924C334.942 70.5825 336.777 67.7043 339.079 65.2579C341.454 62.8114 344.188 60.9047 347.282 59.5375C350.448 58.0985 353.83 57.3789 357.428 57.3789C360.954 57.3789 364.299 58.0985 367.465 59.5375C370.631 60.9047 373.366 62.8114 375.668 65.2579C378.043 67.7043 379.913 70.5825 381.281 73.8924C382.648 77.2023 383.331 80.728 383.331 84.4696C383.331 88.2112 382.648 91.737 381.281 95.0469C379.913 98.3567 378.043 101.235 375.668 103.681C373.366 106.128 370.631 108.071 367.465 109.51C364.299 110.877 360.954 111.56 357.428 111.56ZM357.428 66.7689C355.341 66.7689 353.362 67.2366 351.492 68.172C349.621 69.1074 347.966 70.3666 346.527 71.9496C345.16 73.5326 344.08 75.4034 343.289 77.562C342.497 79.7206 342.102 82.0232 342.102 84.4696C342.102 86.916 342.497 89.2186 343.289 91.3772C344.08 93.5358 345.16 95.4426 346.527 97.0975C347.966 98.6805 349.621 99.9397 351.492 100.875C353.362 101.811 355.341 102.278 357.428 102.278C359.514 102.278 361.493 101.811 363.364 100.875C365.235 99.9397 366.854 98.6805 368.221 97.0975C369.588 95.4426 370.667 93.5358 371.459 91.3772C372.25 89.2186 372.646 86.916 372.646 84.4696C372.646 82.0232 372.25 79.7206 371.459 77.562C370.667 75.4034 369.588 73.5326 368.221 71.9496C366.854 70.3666 365.235 69.1074 363.364 68.172C361.493 67.2366 359.514 66.7689 357.428 66.7689ZM419.356 111.56C415.758 111.56 412.376 110.877 409.21 109.51C406.116 108.071 403.382 106.128 401.008 103.681C398.705 101.235 396.87 98.3567 395.503 95.0469C394.136 91.737 393.452 88.2112 393.452 84.4696C393.452 80.728 394.136 77.2023 395.503 73.8924C396.87 70.5825 398.705 67.7043 401.008 65.2579C403.382 62.8114 406.116 60.9047 409.21 59.5375C412.376 58.0985 415.758 57.3789 419.356 57.3789C422.882 57.3789 426.228 58.0985 429.393 59.5375C432.559 60.9047 435.294 62.8114 437.596 65.2579C439.971 67.7043 441.842 70.5825 443.209 73.8924C444.576 77.2023 445.259 80.728 445.259 84.4696C445.259 88.2112 444.576 91.737 443.209 95.0469C441.842 98.3567 439.971 101.235 437.596 103.681C435.294 106.128 432.559 108.071 429.393 109.51C426.228 110.877 422.882 111.56 419.356 111.56ZM419.356 66.7689C417.269 66.7689 415.291 67.2366 413.42 68.172C411.549 69.1074 409.894 70.3666 408.455 71.9496C407.088 73.5326 406.008 75.4034 405.217 77.562C404.425 79.7206 404.03 82.0232 404.03 84.4696C404.03 86.916 404.425 89.2186 405.217 91.3772C406.008 93.5358 407.088 95.4426 408.455 97.0975C409.894 98.6805 411.549 99.9397 413.42 100.875C415.291 101.811 417.269 102.278 419.356 102.278C421.443 102.278 423.421 101.811 425.292 100.875C427.163 99.9397 428.782 98.6805 430.149 97.0975C431.516 95.4426 432.595 93.5358 433.387 91.3772C434.178 89.2186 434.574 86.916 434.574 84.4696C434.574 82.0232 434.178 79.7206 433.387 77.562C432.595 75.4034 431.516 73.5326 430.149 71.9496C428.782 70.3666 427.163 69.1074 425.292 68.172C423.421 67.2366 421.443 66.7689 419.356 66.7689ZM486.681 110.157C483.73 111.165 480.816 111.776 477.938 111.992C475.06 112.208 472.47 111.776 470.167 110.697C467.865 109.69 465.994 107.891 464.555 105.3C463.116 102.638 462.396 98.9324 462.396 94.1834V67.9562H454.841V60.7248L462.396 58.5662V44.751H472.865V58.5662H486.896V67.9562H472.865V95.8024C472.865 97.5293 473.045 98.8964 473.405 99.9038C473.837 100.911 474.52 101.667 475.456 102.17C476.391 102.674 477.614 102.926 479.125 102.926C480.636 102.926 482.471 102.782 484.63 102.494L486.681 110.157ZM510.884 110.265H500.415V31.4755H510.884V63.3151C512.827 61.1565 514.842 59.6455 516.928 58.782C519.087 57.8466 521.569 57.3789 524.376 57.3789C527.973 57.3789 531.175 58.0985 533.982 59.5375C536.86 60.9047 539.306 62.8114 541.321 65.2579C543.336 67.7043 544.847 70.5825 545.854 73.8924C546.933 77.2023 547.473 80.728 547.473 84.4696V110.265H536.896V84.4696C536.896 82.0232 536.536 79.7206 535.816 77.562C535.169 75.4034 534.233 73.5326 533.01 71.9496C531.859 70.3666 530.492 69.1434 528.909 68.2799C527.398 67.3445 525.743 66.8768 523.944 66.8768C522.433 66.8768 520.922 67.2006 519.411 67.8482C517.9 68.4239 516.497 69.3952 515.202 70.7624C513.978 72.1295 512.935 73.9283 512.072 76.1589C511.28 78.3895 510.884 81.0878 510.884 84.2537V110.265ZM626.958 110.265H612.819L588.751 77.2382H575.367V110.265H564.035V33.742H595.119C598.141 33.742 600.983 34.3176 603.645 35.4689C606.38 36.6202 608.718 38.1672 610.661 40.1099C612.676 42.0527 614.259 44.3552 615.41 47.0175C616.561 49.6079 617.137 52.4141 617.137 55.4362C617.137 57.9545 616.741 60.329 615.949 62.5596C615.158 64.7902 614.043 66.8049 612.604 68.6037C611.236 70.4026 609.582 71.9856 607.639 73.3527C605.696 74.6479 603.573 75.6193 601.271 76.2668L626.958 110.265ZM595.119 66.661C596.63 66.661 598.069 66.3732 599.436 65.7975C600.803 65.1499 601.954 64.3225 602.89 63.3151C603.897 62.3078 604.689 61.1205 605.264 59.7534C605.84 58.3143 606.128 56.8033 606.128 55.2203C606.128 53.6373 605.84 52.1622 605.264 50.7951C604.689 49.428 603.897 48.2407 602.89 47.2334C601.954 46.1541 600.803 45.3266 599.436 44.751C598.069 44.1034 596.63 43.7796 595.119 43.7796H575.367V66.7689L595.119 66.661ZM650.455 110.265H639.986V58.5662H650.348L650.455 110.265ZM645.167 47.3413C643.296 47.3413 641.713 46.6937 640.418 45.3986C639.123 44.0314 638.475 42.4125 638.475 40.5417C638.475 38.6709 639.123 37.0879 640.418 35.7927C641.713 34.4975 643.296 33.8499 645.167 33.8499C647.038 33.8499 648.621 34.4975 649.916 35.7927C651.211 37.0879 651.859 38.6709 651.859 40.5417C651.859 42.4125 651.211 44.0314 649.916 45.3986C648.621 46.6937 647.038 47.3413 645.167 47.3413ZM716.554 31.4755V110.265H708.243L706.085 104.869C703.998 106.955 701.624 108.61 698.961 109.833C696.299 110.985 693.241 111.56 689.787 111.56C686.19 111.56 682.88 110.877 679.858 109.51C676.836 108.071 674.209 106.128 671.979 103.681C669.748 101.235 667.985 98.3567 666.69 95.0469C665.467 91.737 664.855 88.2112 664.855 84.4696C664.855 80.728 665.467 77.2023 666.69 73.8924C667.985 70.5825 669.748 67.7043 671.979 65.2579C674.209 62.8114 676.836 60.9047 679.858 59.5375C682.88 58.0985 686.19 57.3789 689.787 57.3789C693.385 57.3789 696.515 57.9905 699.177 59.2137C701.84 60.365 704.142 62.0199 706.085 64.1786V31.4755H716.554ZM690.651 102.278C692.809 102.278 694.788 101.918 696.587 101.199C698.458 100.479 700.077 99.4001 701.444 97.961C702.883 96.45 703.998 94.5792 704.79 92.3486C705.581 90.118 705.977 87.4917 705.977 84.4696C705.977 81.2317 705.581 78.4974 704.79 76.2668C703.998 74.0363 702.883 72.2374 701.444 70.8703C700.077 69.4312 698.458 68.4239 696.587 67.8482C694.788 67.2006 692.809 66.8768 690.651 66.8768C688.564 66.8768 686.585 67.3445 684.714 68.2799C682.844 69.1434 681.225 70.3666 679.858 71.9496C678.49 73.5326 677.411 75.4034 676.62 77.562C675.828 79.7206 675.432 82.0232 675.432 84.4696C675.432 86.916 675.828 89.2186 676.62 91.3772C677.411 93.5358 678.49 95.4426 679.858 97.0975C681.225 98.6805 682.844 99.9397 684.714 100.875C686.585 101.811 688.564 102.278 690.651 102.278ZM759.031 111.56C755.289 111.56 751.764 110.877 748.454 109.51C745.216 108.071 742.374 106.128 739.927 103.681C737.481 101.235 735.538 98.3567 734.099 95.0469C732.732 91.737 732.048 88.2112 732.048 84.4696C732.048 80.728 732.696 77.2023 733.991 73.8924C735.358 70.5825 737.157 67.7043 739.388 65.2579C741.69 62.8114 744.352 60.9047 747.375 59.5375C750.397 58.0985 753.635 57.3789 757.088 57.3789C760.614 57.3789 763.852 57.9905 766.802 59.2137C769.824 60.437 772.415 62.3437 774.573 64.9341C776.804 67.5244 778.531 70.8343 779.754 74.8637C780.977 78.8212 781.589 83.5702 781.589 89.1106H743.165C743.669 90.9815 744.46 92.7443 745.54 94.3993C746.619 95.9823 747.878 97.3854 749.317 98.6086C750.828 99.7598 752.483 100.659 754.282 101.307C756.153 101.954 758.096 102.278 760.11 102.278C762.845 102.278 765.363 101.775 767.666 100.767C770.04 99.7598 772.055 98.4287 773.71 96.7738L780.186 103.25C777.667 105.768 774.573 107.783 770.903 109.294C767.306 110.805 763.348 111.56 759.031 111.56ZM757.088 66.8768C755.433 66.8768 753.85 67.2006 752.339 67.8482C750.9 68.4958 749.533 69.3952 748.238 70.5465C747.015 71.6978 745.935 73.0649 745 74.6479C744.137 76.2309 743.489 77.9578 743.057 79.8286H770.364C770.22 78.1017 769.824 76.4467 769.177 74.8637C768.529 73.2808 767.63 71.9136 766.478 70.7624C765.327 69.5391 763.96 68.6037 762.377 67.9562C760.866 67.2366 759.103 66.8768 757.088 66.8768Z" fill="#363636"/>
<defs>
<clipPath id="clip0_2741_2996">
<rect x="13.5654" y="11.7402" width="129.86" height="129.86" rx="29.4357" fill="white"/>
</clipPath>
</defs>
</svg>
