<svg width="321" height="70" viewBox="0 0 321 70" fill="none" xmlns="http://www.w3.org/2000/svg">
<g opacity="0.8">
<mask id="mask0_4258_11796" style="mask-type:luminance" maskUnits="userSpaceOnUse" x="5" y="4" width="54" height="54">
<path d="M46.4702 4.78613H17.5303C10.9029 4.78613 5.53027 10.1587 5.53027 16.7861V45.726C5.53027 52.3535 10.9029 57.726 17.5303 57.726H46.4702C53.0976 57.726 58.4702 52.3535 58.4702 45.726V16.7861C58.4702 10.1587 53.0976 4.78613 46.4702 4.78613Z" fill="white"/>
</mask>
<g mask="url(#mask0_4258_11796)">
<path d="M46.4702 4.78613H17.5303C10.9029 4.78613 5.53027 10.1587 5.53027 16.7861V45.726C5.53027 52.3535 10.9029 57.726 17.5303 57.726H46.4702C53.0976 57.726 58.4702 52.3535 58.4702 45.726V16.7861C58.4702 10.1587 53.0976 4.78613 46.4702 4.78613Z" fill="white"/>
<path d="M58.3664 24.5869H51.6973V48.2651H58.3664V24.5869Z" fill="#858585"/>
<path d="M55.0315 26.6549C62.2411 26.6549 68.0855 20.7988 68.0855 13.575C68.0855 6.35119 62.2411 0.495117 55.0315 0.495117C47.822 0.495117 41.9775 6.35119 41.9775 13.575C41.9775 20.7988 47.822 26.6549 55.0315 26.6549Z" fill="#41C4AB"/>
<path opacity="0.6" d="M43.0555 19.8825C48.609 19.8825 53.111 15.3805 53.111 9.82698C53.111 4.27349 48.609 -0.228516 43.0555 -0.228516C37.502 -0.228516 33 4.27349 33 9.82698C33 15.3805 37.502 19.8825 43.0555 19.8825Z" fill="#41C4AB"/>
<path d="M32.9301 41.8027H-24.3008V64.8088H32.9301V41.8027Z" fill="#7A7A7A"/>
<path d="M32.9301 39.9414H-24.3008V62.9475H32.9301V39.9414Z" fill="#ABABAB"/>
<path d="M29.0356 50.4707H24.2275V55.227H29.0356V50.4707Z" fill="#585858"/>
<path d="M21.3158 43.4053H16.4561V48.265H21.3158V43.4053Z" fill="#585858"/>
<path d="M13.1996 50.3672H8.33984V55.2269H13.1996V50.3672Z" fill="#585858"/>
<path d="M80.3901 39.9414H31.793V62.9475H80.3901V39.9414Z" fill="#41C4AB"/>
</g>
</g>
<path d="M31.3487 34.815L37.349 21.0431L34.6488 15.6562H28.2486V12H36.9989L38.824 15.6562H56.3748L53.8747 24.1875H43.0992L44.7743 27.5269C46.6728 26.7724 48.7324 26.4846 50.7718 26.6888C52.8112 26.8929 54.7679 27.5828 56.4695 28.6976C58.1711 29.8125 59.5655 31.3181 60.5299 33.0819C61.4943 34.8458 61.9992 36.8137 62 38.8125C62 45.54 56.3998 51 49.4995 51C42.5992 51 36.9989 45.54 36.9989 38.8125C36.9989 35.0344 38.774 31.6462 41.5491 29.4281L39.4991 25.4062L32.6238 41.25H26.7485C26.2755 43.5094 25.1547 45.5915 23.5164 47.2547C21.878 48.9178 19.7894 50.0936 17.493 50.6456C15.1966 51.1976 12.7866 51.1032 10.5431 50.3731C8.2996 49.6431 6.31453 48.3075 4.81848 46.5215C3.32242 44.7355 2.37677 42.5723 2.09136 40.2832C1.80594 37.9941 2.19248 35.673 3.20607 33.5896C4.21966 31.5061 5.81872 29.7457 7.81751 28.5129C9.8163 27.2801 12.1328 26.6255 14.498 26.625C20.9733 26.625 26.2985 31.4269 26.9985 37.5937H28.4486L22.7483 24.1875H20.7483C19.7232 24.1875 18.8732 23.3587 18.8732 22.3594C18.8732 21.36 19.7232 20.5312 20.7483 20.5312H27.6235C28.6486 20.5312 29.4986 21.36 29.4986 22.3594C29.4986 23.3587 28.6486 24.1875 27.6235 24.1875H26.9235L31.3487 34.815ZM14.498 30.2812C9.67278 30.2812 5.74761 34.1081 5.74761 38.8125C5.75216 40.8611 6.51177 42.8398 7.88792 44.3879C9.26408 45.9359 11.1651 46.9502 13.2443 47.2457C15.3235 47.5412 17.4424 47.0982 19.2146 45.9976C20.9867 44.897 22.2941 43.212 22.8983 41.25H11.9979V37.5937H23.1734C22.5483 33.45 18.8982 30.2812 14.498 30.2812ZM49.4995 30.2812C48.4244 30.2812 47.3744 30.4762 46.4243 30.8175L52.5459 41.25H48.179L43.2492 32.8406C41.6991 34.3762 40.7491 36.4969 40.7491 38.8125C40.7491 43.5169 44.6743 47.3437 49.4995 47.3437C54.3247 47.3437 58.2498 43.5169 58.2498 38.8125C58.2498 34.1081 54.3247 30.2812 49.4995 30.2812Z" fill="#262626"/>
<path d="M95.2764 40.364C95.2764 41.684 95.0124 42.916 94.4844 44.06C93.9564 45.1747 93.1791 46.1573 92.1524 47.008C90.1284 48.7093 87.5324 49.56 84.3644 49.56C81.9004 49.56 79.6711 49.0613 77.6764 48.064C75.6817 47.0373 74.2151 45.6733 73.2764 43.972L77.1924 41.948C77.7791 43.004 78.7031 43.8253 79.9644 44.412C81.2551 44.9693 82.7217 45.248 84.3644 45.248C88.6177 45.248 90.7444 43.62 90.7444 40.364C90.7444 39.748 90.6271 39.22 90.3924 38.78C90.1871 38.34 89.8644 37.9293 89.4244 37.548C88.3684 36.668 86.4764 35.876 83.7484 35.172C82.1057 34.7613 80.7124 34.3067 79.5684 33.808C78.4244 33.3093 77.4711 32.7227 76.7084 32.048C74.8604 30.552 73.9364 28.572 73.9364 26.108C73.9364 24.876 74.1711 23.732 74.6404 22.676C75.1391 21.5907 75.8284 20.652 76.7084 19.86C77.6177 19.068 78.6737 18.4813 79.8764 18.1C81.1084 17.6893 82.4577 17.484 83.9244 17.484C86.0657 17.484 88.0311 17.8947 89.8204 18.716C91.6391 19.5373 93.0177 20.696 93.9564 22.192L90.3924 24.392C89.5417 23.3653 88.5591 22.6467 87.4444 22.236C86.3297 21.796 85.1564 21.576 83.9244 21.576C83.0444 21.576 82.2377 21.7227 81.5044 22.016C80.7711 22.3093 80.1551 22.6613 79.6564 23.072C79.2457 23.424 78.9377 23.864 78.7324 24.392C78.5564 24.8907 78.4684 25.4333 78.4684 26.02C78.4684 26.4013 78.5271 26.7973 78.6444 27.208C78.7617 27.5893 79.0404 28 79.4804 28.44C79.9204 28.8507 80.5657 29.2613 81.4164 29.672C82.2671 30.0533 83.4257 30.4347 84.8924 30.816C86.6524 31.256 88.1337 31.74 89.3364 32.268C90.5391 32.7667 91.5511 33.368 92.3724 34.072C94.3084 35.656 95.2764 37.7533 95.2764 40.364ZM106.255 49.12H101.987V28.044H105.375L106.255 29.848C106.783 29.232 107.414 28.704 108.147 28.264C108.881 27.7947 109.775 27.56 110.831 27.56C111.242 27.56 111.697 27.6187 112.195 27.736C112.723 27.824 113.251 28 113.779 28.264C114.337 28.4987 114.865 28.836 115.363 29.276C115.862 29.6867 116.287 30.2293 116.639 30.904C117.138 29.9947 117.886 29.2173 118.883 28.572C119.91 27.8973 120.995 27.56 122.139 27.56C122.902 27.56 123.709 27.6773 124.559 27.912C125.41 28.1467 126.202 28.5867 126.935 29.232C127.669 29.8773 128.27 30.772 128.739 31.916C129.209 33.06 129.443 34.5413 129.443 36.36V49.12H125.439V36.316C125.439 34.4973 125.058 33.236 124.295 32.532C123.562 31.7987 122.579 31.432 121.347 31.432C120.409 31.432 119.587 31.828 118.883 32.62C118.179 33.412 117.827 34.6587 117.827 36.36V49.12H113.823V36.316C113.823 34.4973 113.442 33.236 112.679 32.532C111.946 31.7987 110.963 31.432 109.731 31.432C108.851 31.432 108.074 31.7693 107.399 32.444C106.754 33.1187 106.373 34.1747 106.255 35.612V49.12ZM145.712 49.648C144.245 49.648 142.866 49.3693 141.576 48.812C140.314 48.2253 139.2 47.4333 138.232 46.436C137.293 45.4387 136.545 44.2653 135.988 42.916C135.43 41.5667 135.152 40.1293 135.152 38.604C135.152 37.0787 135.43 35.6413 135.988 34.292C136.545 32.9427 137.293 31.7693 138.232 30.772C139.2 29.7747 140.314 28.9973 141.576 28.44C142.866 27.8533 144.245 27.56 145.712 27.56C147.149 27.56 148.513 27.8533 149.804 28.44C151.094 28.9973 152.209 29.7747 153.148 30.772C154.116 31.7693 154.878 32.9427 155.436 34.292C155.993 35.6413 156.272 37.0787 156.272 38.604C156.272 40.1293 155.993 41.5667 155.436 42.916C154.878 44.2653 154.116 45.4387 153.148 46.436C152.209 47.4333 151.094 48.2253 149.804 48.812C148.513 49.3693 147.149 49.648 145.712 49.648ZM145.712 31.388C144.861 31.388 144.054 31.5787 143.292 31.96C142.529 32.3413 141.854 32.8547 141.268 33.5C140.71 34.1453 140.27 34.908 139.948 35.788C139.625 36.668 139.464 37.6067 139.464 38.604C139.464 39.6013 139.625 40.54 139.948 41.42C140.27 42.3 140.71 43.0773 141.268 43.752C141.854 44.3973 142.529 44.9107 143.292 45.292C144.054 45.6733 144.861 45.864 145.712 45.864C146.562 45.864 147.369 45.6733 148.132 45.292C148.894 44.9107 149.554 44.3973 150.112 43.752C150.669 43.0773 151.109 42.3 151.432 41.42C151.754 40.54 151.916 39.6013 151.916 38.604C151.916 37.6067 151.754 36.668 151.432 35.788C151.109 34.908 150.669 34.1453 150.112 33.5C149.554 32.8547 148.894 32.3413 148.132 31.96C147.369 31.5787 146.562 31.388 145.712 31.388ZM170.958 49.648C169.491 49.648 168.113 49.3693 166.822 48.812C165.561 48.2253 164.446 47.4333 163.478 46.436C162.539 45.4387 161.791 44.2653 161.234 42.916C160.677 41.5667 160.398 40.1293 160.398 38.604C160.398 37.0787 160.677 35.6413 161.234 34.292C161.791 32.9427 162.539 31.7693 163.478 30.772C164.446 29.7747 165.561 28.9973 166.822 28.44C168.113 27.8533 169.491 27.56 170.958 27.56C172.395 27.56 173.759 27.8533 175.05 28.44C176.341 28.9973 177.455 29.7747 178.394 30.772C179.362 31.7693 180.125 32.9427 180.682 34.292C181.239 35.6413 181.518 37.0787 181.518 38.604C181.518 40.1293 181.239 41.5667 180.682 42.916C180.125 44.2653 179.362 45.4387 178.394 46.436C177.455 47.4333 176.341 48.2253 175.05 48.812C173.759 49.3693 172.395 49.648 170.958 49.648ZM170.958 31.388C170.107 31.388 169.301 31.5787 168.538 31.96C167.775 32.3413 167.101 32.8547 166.514 33.5C165.957 34.1453 165.517 34.908 165.194 35.788C164.871 36.668 164.71 37.6067 164.71 38.604C164.71 39.6013 164.871 40.54 165.194 41.42C165.517 42.3 165.957 43.0773 166.514 43.752C167.101 44.3973 167.775 44.9107 168.538 45.292C169.301 45.6733 170.107 45.864 170.958 45.864C171.809 45.864 172.615 45.6733 173.378 45.292C174.141 44.9107 174.801 44.3973 175.358 43.752C175.915 43.0773 176.355 42.3 176.678 41.42C177.001 40.54 177.162 39.6013 177.162 38.604C177.162 37.6067 177.001 36.668 176.678 35.788C176.355 34.908 175.915 34.1453 175.358 33.5C174.801 32.8547 174.141 32.3413 173.378 31.96C172.615 31.5787 171.809 31.388 170.958 31.388ZM198.404 49.076C197.201 49.4867 196.013 49.736 194.84 49.824C193.667 49.912 192.611 49.736 191.672 49.296C190.733 48.8853 189.971 48.152 189.384 47.096C188.797 46.0107 188.504 44.5 188.504 42.564V31.872H185.424V28.924L188.504 28.044V22.412H192.772V28.044H198.492V31.872H192.772V43.224C192.772 43.928 192.845 44.4853 192.992 44.896C193.168 45.3067 193.447 45.6147 193.828 45.82C194.209 46.0253 194.708 46.128 195.324 46.128C195.94 46.128 196.688 46.0693 197.568 45.952L198.404 49.076ZM208.271 49.12H204.003V17H208.271V29.98C209.063 29.1 209.884 28.484 210.735 28.132C211.615 27.7507 212.627 27.56 213.771 27.56C215.238 27.56 216.543 27.8533 217.687 28.44C218.86 28.9973 219.858 29.7747 220.679 30.772C221.5 31.7693 222.116 32.9427 222.527 34.292C222.967 35.6413 223.187 37.0787 223.187 38.604V49.12H218.875V38.604C218.875 37.6067 218.728 36.668 218.435 35.788C218.171 34.908 217.79 34.1453 217.291 33.5C216.822 32.8547 216.264 32.356 215.619 32.004C215.003 31.6227 214.328 31.432 213.595 31.432C212.979 31.432 212.363 31.564 211.747 31.828C211.131 32.0627 210.559 32.4587 210.031 33.016C209.532 33.5733 209.107 34.3067 208.755 35.216C208.432 36.1253 208.271 37.2253 208.271 38.516V49.12ZM255.591 49.12H249.827L240.015 35.656H234.559V49.12H229.939V17.924H242.611C243.843 17.924 245.001 18.1587 246.087 18.628C247.201 19.0973 248.155 19.728 248.947 20.52C249.768 21.312 250.413 22.2507 250.883 23.336C251.352 24.392 251.587 25.536 251.587 26.768C251.587 27.7947 251.425 28.7627 251.103 29.672C250.78 30.5813 250.325 31.4027 249.739 32.136C249.181 32.8693 248.507 33.5147 247.715 34.072C246.923 34.6 246.057 34.996 245.119 35.26L255.591 49.12ZM242.611 31.344C243.227 31.344 243.813 31.2267 244.371 30.992C244.928 30.728 245.397 30.3907 245.779 29.98C246.189 29.5693 246.512 29.0853 246.747 28.528C246.981 27.9413 247.099 27.3253 247.099 26.68C247.099 26.0347 246.981 25.4333 246.747 24.876C246.512 24.3187 246.189 23.8347 245.779 23.424C245.397 22.984 244.928 22.6467 244.371 22.412C243.813 22.148 243.227 22.016 242.611 22.016H234.559V31.388L242.611 31.344ZM265.17 49.12H260.902V28.044H265.126L265.17 49.12ZM263.014 23.468C262.251 23.468 261.606 23.204 261.078 22.676C260.55 22.1187 260.286 21.4587 260.286 20.696C260.286 19.9333 260.55 19.288 261.078 18.76C261.606 18.232 262.251 17.968 263.014 17.968C263.776 17.968 264.422 18.232 264.95 18.76C265.478 19.288 265.742 19.9333 265.742 20.696C265.742 21.4587 265.478 22.1187 264.95 22.676C264.422 23.204 263.776 23.468 263.014 23.468ZM292.116 17V49.12H288.728L287.848 46.92C286.997 47.7707 286.029 48.4453 284.944 48.944C283.859 49.4133 282.612 49.648 281.204 49.648C279.737 49.648 278.388 49.3693 277.156 48.812C275.924 48.2253 274.853 47.4333 273.944 46.436C273.035 45.4387 272.316 44.2653 271.788 42.916C271.289 41.5667 271.04 40.1293 271.04 38.604C271.04 37.0787 271.289 35.6413 271.788 34.292C272.316 32.9427 273.035 31.7693 273.944 30.772C274.853 29.7747 275.924 28.9973 277.156 28.44C278.388 27.8533 279.737 27.56 281.204 27.56C282.671 27.56 283.947 27.8093 285.032 28.308C286.117 28.7773 287.056 29.452 287.848 30.332V17H292.116ZM281.556 45.864C282.436 45.864 283.243 45.7173 283.976 45.424C284.739 45.1307 285.399 44.6907 285.956 44.104C286.543 43.488 286.997 42.7253 287.32 41.816C287.643 40.9067 287.804 39.836 287.804 38.604C287.804 37.284 287.643 36.1693 287.32 35.26C286.997 34.3507 286.543 33.6173 285.956 33.06C285.399 32.4733 284.739 32.0627 283.976 31.828C283.243 31.564 282.436 31.432 281.556 31.432C280.705 31.432 279.899 31.6227 279.136 32.004C278.373 32.356 277.713 32.8547 277.156 33.5C276.599 34.1453 276.159 34.908 275.836 35.788C275.513 36.668 275.352 37.6067 275.352 38.604C275.352 39.6013 275.513 40.54 275.836 41.42C276.159 42.3 276.599 43.0773 277.156 43.752C277.713 44.3973 278.373 44.9107 279.136 45.292C279.899 45.6733 280.705 45.864 281.556 45.864ZM309.432 49.648C307.907 49.648 306.47 49.3693 305.12 48.812C303.8 48.2253 302.642 47.4333 301.644 46.436C300.647 45.4387 299.855 44.2653 299.268 42.916C298.711 41.5667 298.432 40.1293 298.432 38.604C298.432 37.0787 298.696 35.6413 299.224 34.292C299.782 32.9427 300.515 31.7693 301.424 30.772C302.363 29.7747 303.448 28.9973 304.68 28.44C305.912 27.8533 307.232 27.56 308.64 27.56C310.078 27.56 311.398 27.8093 312.6 28.308C313.832 28.8067 314.888 29.584 315.768 30.64C316.678 31.696 317.382 33.0453 317.88 34.688C318.379 36.3013 318.628 38.2373 318.628 40.496H302.964C303.17 41.2587 303.492 41.9773 303.932 42.652C304.372 43.2973 304.886 43.8693 305.472 44.368C306.088 44.8373 306.763 45.204 307.496 45.468C308.259 45.732 309.051 45.864 309.872 45.864C310.987 45.864 312.014 45.6587 312.952 45.248C313.92 44.8373 314.742 44.2947 315.416 43.62L318.056 46.26C317.03 47.2867 315.768 48.108 314.272 48.724C312.806 49.34 311.192 49.648 309.432 49.648ZM308.64 31.432C307.966 31.432 307.32 31.564 306.704 31.828C306.118 32.092 305.56 32.4587 305.032 32.928C304.534 33.3973 304.094 33.9547 303.712 34.6C303.36 35.2453 303.096 35.9493 302.92 36.712H314.052C313.994 36.008 313.832 35.3333 313.568 34.688C313.304 34.0427 312.938 33.4853 312.468 33.016C311.999 32.5173 311.442 32.136 310.796 31.872C310.18 31.5787 309.462 31.432 308.64 31.432Z" fill="#262626"/>
</svg>
