<svg width="235" height="173" viewBox="0 0 235 173" fill="none" xmlns="http://www.w3.org/2000/svg">
<circle cx="86.5" cy="86.5" r="86.5" fill="#7BD6C5"/>
<circle cx="86.5" cy="86.5" r="74.5" fill="#252525"/>
<path fill-rule="evenodd" clip-rule="evenodd" d="M73.5188 38.4252C78.3693 36.4631 83.6274 35.7222 88.8312 36.2678C94.035 36.8133 99.0252 38.6285 103.363 41.5539C107.701 44.4792 111.255 48.4253 113.711 53.0452C116.167 57.6652 117.451 62.8176 117.45 68.0499C117.45 68.9915 117.076 69.8944 116.41 70.5602C115.745 71.2259 114.842 71.5999 113.9 71.5999C112.959 71.5999 112.056 71.2259 111.39 70.5602C110.724 69.8944 110.35 68.9915 110.35 68.0499C110.352 63.9799 109.354 59.9718 107.444 56.3779C105.534 52.7839 102.77 49.7141 99.3958 47.4382C96.0216 45.1623 92.14 43.75 88.0922 43.3255C84.0444 42.9009 79.9543 43.4771 76.1813 45.0033C75.7463 45.1954 75.2772 45.2981 74.8017 45.3054C74.3263 45.3127 73.8542 45.2243 73.4135 45.0457C72.9729 44.867 72.5726 44.6016 72.2364 44.2653C71.9003 43.9289 71.6352 43.5285 71.4568 43.0877C71.2784 42.6469 71.1903 42.1748 71.1979 41.6994C71.2055 41.2239 71.3085 40.7548 71.5008 40.3199C71.6931 39.8851 71.9709 39.4932 72.3175 39.1678C72.6642 38.8423 73.0727 38.5898 73.5188 38.4252V38.4252ZM66.5502 46.6044C67.2556 47.2274 67.6847 48.105 67.7433 49.0442C67.8019 49.9835 67.4851 50.9076 66.8626 51.6134C62.8506 56.1477 60.6403 61.9956 60.6501 68.0499C60.6501 68.9915 60.2761 69.8944 59.6103 70.5602C58.9446 71.2259 58.0416 71.5999 57.1001 71.5999C56.1586 71.5999 55.2556 71.2259 54.5898 70.5602C53.9241 69.8944 53.5501 68.9915 53.5501 68.0499C53.5402 60.2661 56.3817 52.7482 61.5376 46.9168C61.8461 46.567 62.2205 46.2814 62.6395 46.0764C63.0584 45.8714 63.5136 45.7509 63.9791 45.7219C64.4447 45.6929 64.9113 45.7559 65.3525 45.9073C65.7936 46.0587 66.2006 46.2956 66.5502 46.6044V46.6044Z" fill="white"/>
<path fill-rule="evenodd" clip-rule="evenodd" d="M67.75 68.05C67.75 63.3425 69.6201 58.8277 72.9489 55.4989C76.2776 52.1701 80.7924 50.3 85.5 50.3C90.2076 50.3 94.7224 52.1701 98.0512 55.4989C101.38 58.8277 103.25 63.3425 103.25 68.05C103.25 68.9916 102.876 69.8945 102.21 70.5603C101.544 71.226 100.642 71.6 99.7 71.6C98.7585 71.6 97.8555 71.226 97.1898 70.5603C96.524 69.8945 96.15 68.9916 96.15 68.05C96.15 65.2255 95.028 62.5166 93.0307 60.5194C91.0334 58.5221 88.3246 57.4 85.5 57.4C82.6755 57.4 79.9666 58.5221 77.9693 60.5194C75.9721 62.5166 74.85 65.2255 74.85 68.05C74.85 74.0034 73.6253 79.6798 71.4136 84.838C71.0422 85.7033 70.3423 86.3855 69.4678 86.7347C68.5933 87.0839 67.616 87.0714 66.7507 86.7C65.8854 86.3285 65.2032 85.6286 64.854 84.7541C64.5048 83.8797 64.5173 82.9023 64.8887 82.037C66.7832 77.6177 67.7568 72.8584 67.75 68.05V68.05ZM99.4196 75.1926C99.8803 75.2657 100.322 75.4288 100.72 75.6726C101.117 75.9164 101.463 76.2362 101.737 76.6137C102.011 76.9912 102.208 77.419 102.316 77.8726C102.425 78.3262 102.443 78.7968 102.37 79.2574C101.907 82.1777 101.26 85.066 100.435 87.9052C100.314 88.3626 100.102 88.7912 99.8127 89.1657C99.5234 89.5402 99.1621 89.8531 98.7501 90.086C98.338 90.3188 97.8836 90.4669 97.4135 90.5216C96.9434 90.5763 96.4672 90.5364 96.0127 90.4043C95.5583 90.2722 95.1348 90.0506 94.7672 89.7525C94.3997 89.4544 94.0954 89.0858 93.8724 88.6684C93.6494 88.251 93.512 87.7932 93.4685 87.322C93.425 86.8507 93.4761 86.3755 93.6189 85.9243C94.3537 83.3931 94.9359 80.7945 95.3584 78.1427C95.5067 77.2137 96.0178 76.3815 96.7792 75.829C97.5407 75.2766 98.4904 75.049 99.4196 75.1962V75.1926Z" fill="white"/>
<path fill-rule="evenodd" clip-rule="evenodd" d="M85.5 64.5C86.4415 64.5 87.3445 64.874 88.0102 65.5398C88.676 66.2055 89.05 67.1085 89.05 68.05C89.05 75.9878 87.417 83.5564 84.4705 90.4292C84.2866 90.8576 84.0201 91.2456 83.6862 91.5711C83.3524 91.8965 82.9577 92.153 82.5247 92.3259C82.0917 92.4988 81.6289 92.5847 81.1627 92.5788C80.6965 92.5728 80.236 92.4751 79.8076 92.2912C79.3791 92.1073 78.9911 91.8408 78.6657 91.5069C78.3403 91.173 78.0838 90.7783 77.9109 90.3453C77.738 89.9123 77.652 89.4495 77.658 88.9833C77.664 88.5171 77.7617 88.0567 77.9456 87.6282C80.5967 81.442 81.9593 74.7804 81.95 68.05C81.95 67.1085 82.324 66.2055 82.9898 65.5398C83.6555 64.874 84.5585 64.5 85.5 64.5V64.5Z" fill="white"/>
<path d="M42.1729 123.99V129H40.4854V116.203H45.2051C46.6055 116.203 47.7012 116.561 48.4922 117.275C49.2891 117.99 49.6875 118.937 49.6875 120.114C49.6875 121.356 49.2979 122.314 48.5186 122.988C47.7451 123.656 46.6348 123.99 45.1875 123.99H42.1729ZM42.1729 122.61H45.2051C46.1074 122.61 46.7988 122.399 47.2793 121.978C47.7598 121.55 48 120.935 48 120.132C48 119.37 47.7598 118.761 47.2793 118.304C46.7988 117.847 46.1396 117.609 45.3018 117.592H42.1729V122.61ZM61.6846 123.015C61.6846 124.269 61.4736 125.364 61.0518 126.302C60.6299 127.233 60.0322 127.945 59.2588 128.438C58.4854 128.93 57.583 129.176 56.5518 129.176C55.5439 129.176 54.6504 128.93 53.8711 128.438C53.0918 127.939 52.4854 127.233 52.0518 126.319C51.624 125.399 51.4043 124.336 51.3926 123.129V122.206C51.3926 120.976 51.6064 119.889 52.0342 118.945C52.4619 118.002 53.0654 117.281 53.8447 116.783C54.6299 116.279 55.5264 116.027 56.5342 116.027C57.5596 116.027 58.4619 116.276 59.2412 116.774C60.0264 117.267 60.6299 117.984 61.0518 118.928C61.4736 119.865 61.6846 120.958 61.6846 122.206V123.015ZM60.0059 122.188C60.0059 120.671 59.7012 119.508 59.0918 118.699C58.4824 117.885 57.6299 117.478 56.5342 117.478C55.4678 117.478 54.627 117.885 54.0117 118.699C53.4023 119.508 53.0889 120.633 53.0713 122.074V123.015C53.0713 124.485 53.3789 125.643 53.9941 126.486C54.6152 127.324 55.4678 127.743 56.5518 127.743C57.6416 127.743 58.4854 127.348 59.083 126.557C59.6807 125.76 59.9883 124.62 60.0059 123.138V122.188ZM68.9092 123.823H65.9033V129H64.207V116.203H68.4434C69.8848 116.203 70.9922 116.531 71.7656 117.188C72.5449 117.844 72.9346 118.799 72.9346 120.053C72.9346 120.85 72.7178 121.544 72.2842 122.136C71.8564 122.728 71.2588 123.17 70.4912 123.463L73.4971 128.895V129H71.6865L68.9092 123.823ZM65.9033 122.443H68.4961C69.334 122.443 69.999 122.227 70.4912 121.793C70.9893 121.359 71.2383 120.779 71.2383 120.053C71.2383 119.262 71.001 118.655 70.5264 118.233C70.0576 117.812 69.3779 117.598 68.4873 117.592H65.9033V122.443ZM83.4463 117.592H79.333V129H77.6543V117.592H73.5498V116.203H83.4463V117.592ZM92.4023 123.349H87.0322V129H85.3447V116.203H93.2725V117.592H87.0322V121.969H92.4023V123.349ZM105.138 123.015C105.138 124.269 104.927 125.364 104.505 126.302C104.083 127.233 103.485 127.945 102.712 128.438C101.938 128.93 101.036 129.176 100.005 129.176C98.9971 129.176 98.1035 128.93 97.3242 128.438C96.5449 127.939 95.9385 127.233 95.5049 126.319C95.0771 125.399 94.8574 124.336 94.8457 123.129V122.206C94.8457 120.976 95.0596 119.889 95.4873 118.945C95.915 118.002 96.5186 117.281 97.2979 116.783C98.083 116.279 98.9795 116.027 99.9873 116.027C101.013 116.027 101.915 116.276 102.694 116.774C103.479 117.267 104.083 117.984 104.505 118.928C104.927 119.865 105.138 120.958 105.138 122.206V123.015ZM103.459 122.188C103.459 120.671 103.154 119.508 102.545 118.699C101.936 117.885 101.083 117.478 99.9873 117.478C98.9209 117.478 98.0801 117.885 97.4648 118.699C96.8555 119.508 96.542 120.633 96.5244 122.074V123.015C96.5244 124.485 96.832 125.643 97.4473 126.486C98.0684 127.324 98.9209 127.743 100.005 127.743C101.095 127.743 101.938 127.348 102.536 126.557C103.134 125.76 103.441 124.62 103.459 123.138V122.188ZM109.365 127.62H115.43V129H107.669V116.203H109.365V127.62ZM119.165 129H117.478V116.203H119.165V129ZM132.103 123.015C132.103 124.269 131.892 125.364 131.47 126.302C131.048 127.233 130.45 127.945 129.677 128.438C128.903 128.93 128.001 129.176 126.97 129.176C125.962 129.176 125.068 128.93 124.289 128.438C123.51 127.939 122.903 127.233 122.47 126.319C122.042 125.399 121.822 124.336 121.811 123.129V122.206C121.811 120.976 122.024 119.889 122.452 118.945C122.88 118.002 123.483 117.281 124.263 116.783C125.048 116.279 125.944 116.027 126.952 116.027C127.978 116.027 128.88 116.276 129.659 116.774C130.444 117.267 131.048 117.984 131.47 118.928C131.892 119.865 132.103 120.958 132.103 122.206V123.015ZM130.424 122.188C130.424 120.671 130.119 119.508 129.51 118.699C128.9 117.885 128.048 117.478 126.952 117.478C125.886 117.478 125.045 117.885 124.43 118.699C123.82 119.508 123.507 120.633 123.489 122.074V123.015C123.489 124.485 123.797 125.643 124.412 126.486C125.033 127.324 125.886 127.743 126.97 127.743C128.06 127.743 128.903 127.348 129.501 126.557C130.099 125.76 130.406 124.62 130.424 123.138V122.188Z" fill="white"/>
<path d="M183 40L227 84.5L183 129" stroke="#252525" stroke-width="10"/>
</svg>
