<svg width="235" height="173" viewBox="0 0 235 173" fill="none" xmlns="http://www.w3.org/2000/svg">
<path d="M52 42L8 86.5L52 131" stroke="#444444" stroke-width="10"/>
<circle cx="148.5" cy="86.5" r="86.5" fill="#7BD6C5"/>
<circle cx="148.5" cy="86.5" r="74.5" fill="#444444"/>
<path d="M119.365 123.823H116.359V129H114.663V116.203H118.899C120.341 116.203 121.448 116.531 122.222 117.188C123.001 117.844 123.391 118.799 123.391 120.053C123.391 120.85 123.174 121.544 122.74 122.136C122.312 122.728 121.715 123.17 120.947 123.463L123.953 128.895V129H122.143L119.365 123.823ZM116.359 122.443H118.952C119.79 122.443 120.455 122.227 120.947 121.793C121.445 121.359 121.694 120.779 121.694 120.053C121.694 119.262 121.457 118.655 120.982 118.233C120.514 117.812 119.834 117.598 118.943 117.592H116.359V122.443ZM132.997 123.085H127.451V127.62H133.894V129H125.764V116.203H133.806V117.592H127.451V121.705H132.997V123.085ZM130.519 112.67H132.487L130.132 115.254H128.822L130.519 112.67ZM139.765 123.296C138.317 122.88 137.263 122.37 136.601 121.767C135.944 121.157 135.616 120.407 135.616 119.517C135.616 118.509 136.018 117.677 136.82 117.021C137.629 116.358 138.678 116.027 139.967 116.027C140.846 116.027 141.628 116.197 142.313 116.537C143.005 116.877 143.538 117.346 143.913 117.943C144.294 118.541 144.484 119.194 144.484 119.903H142.788C142.788 119.13 142.542 118.523 142.05 118.084C141.558 117.639 140.863 117.416 139.967 117.416C139.135 117.416 138.484 117.601 138.016 117.97C137.553 118.333 137.321 118.84 137.321 119.49C137.321 120.012 137.541 120.454 137.98 120.817C138.426 121.175 139.179 121.503 140.239 121.802C141.306 122.101 142.138 122.432 142.735 122.795C143.339 123.152 143.784 123.571 144.071 124.052C144.364 124.532 144.511 125.098 144.511 125.748C144.511 126.785 144.106 127.617 143.298 128.244C142.489 128.865 141.408 129.176 140.055 129.176C139.176 129.176 138.355 129.009 137.594 128.675C136.832 128.335 136.243 127.872 135.827 127.286C135.417 126.7 135.212 126.035 135.212 125.291H136.908C136.908 126.064 137.192 126.677 137.761 127.128C138.335 127.573 139.1 127.796 140.055 127.796C140.945 127.796 141.628 127.614 142.103 127.251C142.577 126.888 142.814 126.393 142.814 125.766C142.814 125.139 142.595 124.655 142.155 124.315C141.716 123.97 140.919 123.63 139.765 123.296ZM155.69 116.203V124.904C155.685 126.111 155.304 127.099 154.548 127.866C153.798 128.634 152.778 129.064 151.489 129.158L151.041 129.176C149.641 129.176 148.524 128.798 147.692 128.042C146.86 127.286 146.438 126.246 146.427 124.922V116.203H148.097V124.869C148.097 125.795 148.352 126.516 148.861 127.031C149.371 127.541 150.098 127.796 151.041 127.796C151.996 127.796 152.726 127.541 153.229 127.031C153.739 126.521 153.994 125.804 153.994 124.878V116.203H155.69ZM160.533 116.203L164.717 126.645L168.9 116.203H171.089V129H169.401V124.017L169.56 118.638L165.358 129H164.066L159.874 118.664L160.041 124.017V129H158.354V116.203H160.533ZM181.302 123.085H175.756V127.62H182.198V129H174.068V116.203H182.11V117.592H175.756V121.705H181.302V123.085ZM178.823 112.67H180.792L178.437 115.254H177.127L178.823 112.67Z" fill="white"/>
<path d="M173.5 69.5559C165.398 72.8319 156.739 74.5107 148 74.5001C138.981 74.5001 130.377 72.7434 122.5 69.5559M148 66.0001H148.028M159.333 49.0001V43.3334C159.333 41.8305 158.736 40.3892 157.674 39.3265C156.611 38.2638 155.17 37.6667 153.667 37.6667H142.333C140.83 37.6667 139.389 38.2638 138.326 39.3265C137.264 40.3892 136.667 41.8305 136.667 43.3334V49.0001H159.333ZM128.167 88.6667H167.833C169.336 88.6667 170.778 88.0697 171.84 87.007C172.903 85.9443 173.5 84.503 173.5 83.0001V54.6667C173.5 53.1639 172.903 51.7225 171.84 50.6598C170.778 49.5971 169.336 49.0001 167.833 49.0001H128.167C126.664 49.0001 125.222 49.5971 124.16 50.6598C123.097 51.7225 122.5 53.1639 122.5 54.6667V83.0001C122.5 84.503 123.097 85.9443 124.16 87.007C125.222 88.0697 126.664 88.6667 128.167 88.6667Z" stroke="white" stroke-width="5" stroke-linecap="round" stroke-linejoin="round"/>
</svg>
